<svg id="soc" xmlns="http://www.w3.org/2000/svg" xmlns:xlink="http://www.w3.org/1999/xlink">
 <path transform="rotate(-45 8 8)" d="m8 3.286c0.554 0 1 0.446 1 1v7.429c0 0.554-0.446 1-1 1s-1-0.446-1-1v-7.429c0-0.554 0.446-1 1-1z"/>
 <path d="M2.354 4.522L4.485 2.39a.5.5 0 0 1 .711 0l3.19 3.19.014-.015a2 2 0 0 0 0-2.821L6.272.616a2 2 0 0 0-2.821 0L.616 3.451a2 2 0 0 0 0 2.821L2.744 8.4a1.993 1.993 0 0 0 2.8.02l-3.19-3.186a.5.5 0 0 1 0-.712zm13.062 5.237L13.287 7.63a2 2 0 0 0-2.821 0l-.015.015 3.189 3.189a.5.5 0 0 1 0 .711l-2.132 2.132a.5.5 0 0 1-.711 0L7.61 10.49a1.993 1.993 0 0 0 .02 2.8l2.128 2.128a2 2 0 0 0 2.821 0l2.835-2.835a2 2 0 0 0 .002-2.824z"/>
</svg>
