<svg id="soc" xmlns="http://www.w3.org/2000/svg" xmlns:xlink="http://www.w3.org/1999/xlink">
  <path d="m13.571 10.857q0-0.35714-0.25-0.60714l-1.8571-1.8571q-0.25-0.25-0.60714-0.25-0.375 0-0.64286 0.28571 0.02679 0.026786 0.16964 0.16518 0.14286 0.13839 0.19196 0.19196 0.04911 0.053571 0.13393 0.16964 0.08482 0.11607 0.11607 0.22768 0.03125 0.11161 0.03125 0.24554 0 0.35714-0.25 0.60714-0.25 0.25-0.60714 0.25-0.13393 0-0.24554-0.03125-0.11161-0.03125-0.22768-0.11607-0.11607-0.084821-0.16964-0.13393-0.053572-0.049107-0.19196-0.19196-0.13839-0.14286-0.16518-0.16964-0.29464 0.27679-0.29464 0.65179 0 0.35714 0.25 0.60714l1.8393 1.8482q0.24107 0.24107 0.60714 0.24107 0.35714 0 0.60714-0.23214l1.3125-1.3036q0.25-0.25 0.25-0.59821zm-6.2768-6.2946q0-0.35714-0.25-0.60714l-1.8393-1.8482q-0.25-0.25-0.60714-0.25-0.34821 0-0.60714 0.24107l-1.3125 1.3036q-0.25 0.25-0.25 0.59821 0 0.35714 0.25 0.60714l1.8571 1.8571q0.24107 0.24107 0.60714 0.24107 0.375 0 0.64286-0.27679-0.026786-0.026786-0.16964-0.16518-0.14286-0.13839-0.19196-0.19196-0.049107-0.053571-0.13393-0.16964t-0.11607-0.22768q-0.03125-0.11161-0.03125-0.24554 0-0.35714 0.25-0.60714 0.25-0.25 0.60714-0.25 0.13393 0 0.24554 0.03125t0.22768 0.11607q0.11607 0.084821 0.16964 0.13393 0.053571 0.049107 0.19196 0.19196 0.13839 0.14286 0.16518 0.16964 0.29464-0.27679 0.29464-0.65179zm7.9911 6.2946q0 1.0714-0.75893 1.8125l-1.3125 1.3036q-0.74107 0.74107-1.8125 0.74107-1.0804 0-1.8214-0.75893l-1.8393-1.8482q-0.74107-0.74107-0.74107-1.8125 0-1.0982 0.78571-1.8661l-0.78571-0.78571q-0.76786 0.78571-1.8571 0.78571-1.0714 0-1.8214-0.75l-1.8571-1.8571q-0.75-0.75-0.75-1.8214t0.75893-1.8125l1.3125-1.3036q0.74107-0.74107 1.8125-0.74107 1.0804 0 1.8214 0.75893l1.8393 1.8482q0.74107 0.74107 0.74107 1.8125 0 1.0982-0.78571 1.8661l0.78571 0.78571q0.76786-0.78571 1.8571-0.78571 1.0714 0 1.8214 0.75l1.8571 1.8571q0.75 0.75 0.75 1.8214z"/>
</svg>