<svg id="soc" width="16" height="16" xmlns="http://www.w3.org/2000/svg">
 <path d="m11.464 8.3928c-0.47108-0.47108-0.8259-0.44573-1.25 0.03571 0.64161 0.54696 0.94958 0.9738 0.39285 1.6071-0.55673 0.63334-1.0506 0.13064-1.6071-0.39285-0.4496 0.50891-0.39277 0.90912-0.04464 1.2589l1.8393 1.8482c0.4363 0.43841 0.88846 0.33254 1.2143 0.0089l1.3125-1.3036c0.44109-0.4381 0.3073-0.89801-5e-5 -1.2054zm-4.4197-4.4375-1.8393-1.8482c-0.44467-0.44682-0.88475-0.33622-1.2143-0.00893l-1.3125 1.3036c-0.44933 0.44628-0.3264 0.87895 0 1.2054l1.8571 1.8571c0.4627 0.4627 0.90051 0.38386 1.25-0.03572-0.6416-0.54696-0.94958-0.97379-0.39285-1.6071s1.0506-0.13064 1.6071 0.39285c0.4472-0.49242 0.36979-0.93224 0.04469-1.2589zm7.4822 8.7142-1.3125 1.3036c-1.1927 1.1847-2.6535 0.96732-3.6339-0.01786l-1.8393-1.8482c-1.2037-1.2095-1.1217-2.5166 0.04464-3.6786l-0.78571-0.78571c-1.2085 1.1757-2.689 1.0252-3.6785 0.03571l-1.8571-1.8571c-1.1923-1.1923-0.98027-2.6514 0.00893-3.6339l1.3125-1.3036c1.1927-1.1847 2.6535-0.96731 3.6339 0.01786l1.8393 1.8482c1.2037 1.2095 0.87253 2.6966-0.04464 3.6786l0.78571 0.78571c0.94109-0.94604 2.6895-1.0247 3.6785-0.03571l1.8571 1.8571c1.1923 1.1923 0.98027 2.6514-0.0089 3.6339z"/>
</svg>
