<svg id="soc" width="16" height="16" xmlns="http://www.w3.org/2000/svg">
 <path d="m0.8773 6 7.1227 9.3661-7.7457-5.625c-0.10708-0.077381-0.18145-0.18006-0.22309-0.30804-0.041643-0.12798-0.041643-0.25446 0-0.37946zm4.1227 0h5.8896l-2.8896 9.3661zm-1.7117-5.1607 1.7117 5.1607h-4.1227l1.8221-5.1607c0.047593-0.1369 0.14575-0.20536 0.29448-0.20536 0.14873 0 0.24689 0.068452 0.29448 0.20536zm11.724 5.1607 0.9565 3.0536c0.04164 0.125 0.04164 0.25149 0 0.37946-0.04164 0.12798-0.116 0.23065-0.22309 0.30804l-7.7457 5.625zm0 0h-4.1227l1.8221-5.1607c0.04759-0.1369 0.14575-0.20536 0.29448-0.20536 0.14873 0 0.24689 0.068452 0.29448 0.20536z"/>
</svg>
