<svg id="soc" width="16" height="16" xmlns="http://www.w3.org/2000/svg">
 <path d="m5.0039 1c-2.5039 0-4.0039 1.5-4.0039 4v5.9961c0 2.5039 1.5 4.0039 4 4.0039h5.9961c2.5039 0 4.0039-1.5 4.0039-4v-5.9961c0-2.5039-1.5-4.0039-4-4.0039zm-0.0039062 1.5h6c1.5 0 2.5 1 2.5 2.5v6c0 1.5-1 2.5-2.5 2.5h-6c-1.5 0-2.5-1-2.5-2.5v-6c0-1.5 1-2.5 2.5-2.5z"/>
 <path d="m8.0048 4.4055c-1.9862 0-3.5945 1.61-3.5945 3.5945 0 1.9862 1.61 3.5945 3.5945 3.5945 1.9862 0 3.5945-1.61 3.5945-3.5945 0-1.9862-1.61-3.5945-3.5945-3.5945zm-0.0048353 5.5945c-1.2889 0-2-0.71112-2-2s0.71112-2 2-2 2 0.71112 2 2-0.71112 2-2 2z"/>
 <path d="m12.5 4.5a1 1 0 0 1-1 1 1 1 0 0 1-1-1 1 1 0 0 1 1-1 1 1 0 0 1 1 1z"/>
</svg>
