<svg id="soc" width="16" height="16" xmlns="http://www.w3.org/2000/svg">
 <path d="m10.08 12.8a0.48 0.48 0 1 0 0 0.96 0.48 0.48 0 1 0 0-0.96zm-3.52 0a0.48 0.48 0 1 0 0 0.96 0.48 0.48 0 1 0 0-0.96z"/>
 <path d="m4.7207 1.9199c-0.30562 0-0.56055 0.25493-0.56055 0.56055v1.4395c0 0.30562 0.25493 0.56055 0.56055 0.56055h1.334l0.66602-1.0742v-0.92578c0-0.30562-0.25493-0.56055-0.56055-0.56055zm0.080078 0.64062h1.2793v0.8457l-0.025391 0.43359h-1.2539zm-2.1895 9.877-0.63477 0.085938c0.097638 0.72298 0.323 1.403 0.64453 2.0234 0.081317 0.15686 0.27475 0.21798 0.43164 0.13672 0.15722-0.08133 0.21839-0.2746 0.13672-0.43164-0.28968-0.559-0.49083-1.1679-0.57812-1.8145z"/>
 <path d="m8.16 7.36c-1.3235 0-2.4-1.0765-2.4-2.4 0-2.1962 1.7888-3.8474 1.8646-3.9168 0.1104-0.10016 0.27456-0.11072 0.39744-0.02624 0.12256 0.0848 0.16992 0.2432 0.11488 0.38144-0.13696 0.3456-0.26048 0.92256-0.13472 1.1075 0.01088 0.01632 0.0368 0.05408 0.15776 0.05408 1.3235 0 2.4 1.0765 2.4 2.4s-1.0765 2.4-2.4 2.4z"/>
 <path d="m14.38 11.181c-0.15424-1.9706-1.2195-3.7094-2.841-4.7478-0.18821-0.13264-0.38026-0.21554-0.56736-0.3216-0.2016 0.48992-0.52768 0.91584-0.93824 1.2387l1.0726 1.0726c0.12512 0.12512 0.14766 0.3146 0 0.45248-0.17869 0.16686-0.37304 0.079436-0.45248 0l-0.26784-0.26784-0.57856 0.57856c-0.17267 0.17267-0.34925 0.10539-0.45248-3.2e-4 -0.12363-0.12659-0.12512-0.32736 0-0.45248l0.57856-0.57856-0.33344-0.33344-0.41376 0.41376c-0.0624 0.0624-0.14432 0.09376-0.22624 0.09376s-0.16384-0.03136-0.22624-0.09376c-0.07552-0.07552-0.09952-0.17824-0.08416-0.27584-0.15936 0.02592-0.32288 0.04032-0.4896 0.04032-1.2906 0-2.393-0.8096-2.8333-1.9466-2.377 1.1152-3.7267 3.6432-3.7267 7.0666v0.96l0.576-0.768c0.5952-0.7936 1.3184-1.5898 2.0051-2.224-0.16896 0.4512-0.28224 0.90272-0.33856 1.3523l-0.10048 0.80448 0.62304-0.51904c0.01792-0.01504 1.8547-1.5258 3.9549-1.5258 1.0301 0 1.5933 0.09536 2.0899 0.17984 0.4256 0.072 0.82784 0.14016 1.4301 0.14016 0.992 0 1.535-0.5072 1.7718-1.1152 0.06304 0.27008 0.10752 0.54624 0.13024 0.82752 0.01152 0.14816 0.01792 0.29728 0.01792 0.44768 0 0.90176-0.21184 1.767-0.62976 2.5728-0.08128 0.1568-0.02016 0.35008 0.13664 0.43136 0.04704 0.02432 0.0976 0.03584 0.1472 0.03584 0.11552 0 0.22752-0.06272 0.28448-0.1728 0.4656-0.89728 0.70144-1.8618 0.70144-2.8672 0-0.16736-0.0067-0.33376-0.01984-0.49856z"/>
</svg>
