<svg id="soc" xmlns="http://www.w3.org/2000/svg" xmlns:xlink="http://www.w3.org/1999/xlink" viewBox="0 0 50 50">
  <path d="m31.5 40a1.5 1.5 0 1 0 0 3 1.5 1.5 0 1 0 0-3zm-11 0a1.5 1.5 0 1 0 0 3 1.5 1.5 0 1 0 0-3z"/>
  <path d="m14.75 6c-0.95506 0-1.75 0.79494-1.75 1.75v4.5c0 0.95506 0.79494 1.75 1.75 1.75h4.5a1 1 0 0 0 1-1 1 1 0 0 0-1-1h-4.25v-4h4v2.75a1 1 0 0 0 1 1 1 1 0 0 0 1-1v-3c0-0.95506-0.79494-1.75-1.75-1.75h-4.5zm-7.5762 32a1 1 0 0 0-0.14062 0.009766 1 1 0 0 0-0.85742 1.125c0.30512 2.2593 1.0089 4.3872 2.0137 6.3262a1 1 0 0 0 1.3477 0.42773 1 1 0 0 0 0.42773-1.3496c-0.90526-1.747-1.5338-3.6532-1.8066-5.6738a1 1 0 0 0-0.98438-0.86523z"/>
  <path d="M25.5,23c-4.136,0-7.5-3.364-7.5-7.5c0-6.863,5.59-12.023,5.827-12.24c0.345-0.313,0.858-0.346,1.242-0.082c0.383,0.265,0.531,0.76,0.359,1.192C25,5.45,24.614,7.253,25.007,7.831C25.041,7.882,25.122,8,25.5,8c4.136,0,7.5,3.364,7.5,7.5S29.636,23,25.5,23z"/>
  <path d="M44.938,34.942c-0.482-6.158-3.811-11.592-8.878-14.837c-0.041-0.026-0.081-0.054-0.122-0.08c-0.336-0.211-0.681-0.41-1.031-0.602c-0.123-0.068-0.244-0.137-0.369-0.202c-0.082-0.043-0.168-0.08-0.251-0.121c-0.63,1.531-1.649,2.862-2.932,3.871l3.352,3.352c0.391,0.391,0.391,1.023,0,1.414c-0.195,0.195-0.451,0.293-0.707,0.293s-0.512-0.098-0.707-0.293l-0.837-0.837l-1.808,1.808C30.453,28.902,30.197,29,29.941,29s-0.512-0.098-0.707-0.293c-0.391-0.391-0.391-1.023,0-1.414l1.808-1.808L30,24.443l-1.293,1.293c-0.195,0.195-0.451,0.293-0.707,0.293s-0.512-0.098-0.707-0.293c-0.236-0.236-0.311-0.557-0.263-0.862C26.532,24.955,26.021,25,25.5,25c-4.033,0-7.478-2.53-8.854-6.083C9.218,22.402,5,30.302,5,41v3l1.8-2.4c1.86-2.48,4.12-4.968,6.266-6.95c-0.528,1.41-0.882,2.821-1.058,4.226l-0.314,2.514l1.947-1.622C13.697,39.721,19.437,35,26,35c3.219,0,4.979,0.298,6.531,0.562C33.861,35.787,35.118,36,37,36c3.1,0,4.797-1.585,5.537-3.485c0.197,0.844,0.336,1.707,0.407,2.586C42.98,35.564,43,36.03,43,36.5c0,2.818-0.662,5.522-1.968,8.04c-0.254,0.49-0.063,1.094,0.427,1.348C41.606,45.964,41.764,46,41.919,46c0.361,0,0.711-0.196,0.889-0.54C44.263,42.656,45,39.642,45,36.5C45,35.977,44.979,35.457,44.938,34.942z"/>
</svg>