<svg id="soc" width="16" height="16" xmlns="http://www.w3.org/2000/svg">
 <path d="m7.9785 0.5c-1.9188 0.015646-3.7661 0.22309-4.8418 0.7168 0 0-2.1328 0.95302-2.1328 4.207 0 0.74513-0.013846 1.6372 0.0097657 2.582 0.077435 3.182 0.5834 6.3189 3.5273 7.0977 1.3573 0.35907 2.5223 0.43437 3.4609 0.38281 1.7021-0.094317 2.6582-0.60742 2.6582-0.60742l-0.05664-1.2344s-1.216 0.38265-2.582 0.33594c-1.3534-0.046357-2.7831-0.14595-3.002-1.8066-0.020216-0.14588-0.029297-0.30102-0.029297-0.46484 0 0 1.328 0.32329 3.0117 0.40039 1.0296 0.047197 1.9959-0.058835 2.9766-0.17578 1.8806-0.22441 3.5169-1.3833 3.7227-2.4414 0.32426-1.6668 0.29883-4.0684 0.29883-4.0684 0-3.254-2.1328-4.207-2.1328-4.207-1.0756-0.49371-2.923-0.70112-4.8418-0.7168h-0.046875zm-2.1719 2.543c0.79925 0 1.4044 0.30576 1.8047 0.91992l0.38867 0.65234 0.38867-0.65234c0.40011-0.61413 1.0053-0.91992 1.8047-0.91992 0.69077 0 1.2469 0.24144 1.6719 0.71484 0.412 0.47343 0.61719 1.1147 0.61719 1.9199v3.9395h-1.5605v-3.8242c0-0.80617-0.34068-1.2148-1.0195-1.2148-0.75054 0-1.127 0.48361-1.127 1.4434v2.0938h-1.5527v-2.0938c0-0.95978-0.37636-1.4434-1.127-1.4434-0.67886 0-1.0176 0.40867-1.0176 1.2148v3.8242h-1.5625v-3.9395c0-0.80526 0.20511-1.4465 0.61719-1.9199 0.42494-0.47343 0.983-0.71484 1.6738-0.71484z"/>
</svg>
