<svg id="soc" xmlns="http://www.w3.org/2000/svg" xmlns:xlink="http://www.w3.org/1999/xlink">
  <path d="m7.5508 0c-2.0763 0.016975-4.0744 0.24085-5.2383 0.77539 0 0-2.3086 1.0335-2.3086 4.5566 0 0.80675-0.015784 1.772 0.0097656 2.7949 0.083825 3.4454 0.63283 6.8404 3.8184 7.6836 1.4688 0.38876 2.7305 0.46989 3.7461 0.41406 1.8418-0.10211 2.875-0.65625 2.875-0.65625l-0.060547-1.3379s-1.3168 0.41581-2.7949 0.36523c-1.4645-0.050225-3.0112-0.15704-3.248-1.9551-0.021875-0.15794-0.03125-0.3285-0.03125-0.50586 0 0 1.4378 0.35207 3.2598 0.43555 1.114 0.0511 2.1576-0.064793 3.2188-0.19141 2.0349-0.24299 3.8066-1.4969 4.0293-2.6426 0.35088-1.8047 0.32227-4.4043 0.32227-4.4043 0-3.5231-2.3086-4.5566-2.3086-4.5566-1.1638-0.53454-3.162-0.75842-5.2383-0.77539h-0.050781zm-2.3496 2.752c0.86485 0 1.5201 0.33313 1.9531 0.99805l0.41992 0.70508 0.42188-0.70508c0.43295-0.66491 1.0882-0.99805 1.9531-0.99805 0.74743 0 1.3487 0.26282 1.8086 0.77539 0.44581 0.51258 0.66797 1.2063 0.66797 2.0781v4.2656h-1.6895v-4.1406c0-0.87281-0.367-1.3164-1.1016-1.3164-0.81218 0-1.2207 0.52726-1.2207 1.5664v2.2656h-1.6797v-2.2656c0-1.0392-0.40658-1.5664-1.2188-1.5664-0.73456 0-1.1016 0.44359-1.1016 1.3164v4.1406h-1.6914v-4.2656c0-0.87185 0.22207-1.5656 0.66797-2.0781 0.45981-0.51258 1.063-0.77539 1.8105-0.77539z"/>
</svg>