<svg id="soc" width="16" height="16" xmlns="http://www.w3.org/2000/svg">
 <path d="m13.68 12.777c-0.14582 0.40405-0.19223 0.72887-0.20606 0.93466-0.06907 1.0275 0.39579 1.638 0.50547 1.8001 0.16438 0.24298 0.23109 0.37918 0.20011 0.40863-0.06064 0.10582-0.24637 0.10582-0.55718 0-0.46622-0.15873-1.755-0.6556-2.2407-1.356-0.19556-0.28202-0.31946-0.40241-0.39771-0.44562-0.92203 0.33947-1.9291 0.5263-2.9838 0.5263-4.4183 0-8-3.2785-8-7.3227s3.5817-7.3227 8-7.3227 8 3.2785 8 7.3227c0 1.9084-0.79754 3.6462-2.1042 4.9496zm-5.68-3.5234 2.5 1.4965-0.5-2.75 2-2h-2.75l-1.25-3-1.25 3h-2.75l2 2-0.5 2.75z"/>
</svg>
