<svg id="soc" xmlns="http://www.w3.org/2000/svg" xmlns:xlink="http://www.w3.org/1999/xlink">
  <path d="M13.8958184,12.3539692 C13.7934913,12.5766333 13.7214973,12.7460692 13.6798363,12.8622768 C13.534018,13.2690171 13.4876062,13.5959963 13.4737723,13.8031622 C13.4047037,14.8374843 13.8695637,15.452098 13.9792411,15.6152902 C14.143626,15.8598834 14.2103299,15.996999 14.1793527,16.0266369 C14.1187128,16.1331597 13.9329861,16.1331597 13.6221726,16.0266369 C13.1559524,15.8668527 11.8671503,15.3666667 11.3815104,14.6616443 C11.1859547,14.3777486 11.0620507,14.2565499 10.9838025,14.2130531 C10.0617698,14.5547858 9.05472096,14.7428571 8,14.7428571 C3.581722,14.7428571 0,11.4425562 0,7.37142857 C0,3.30030099 3.581722,0 8,0 C12.418278,0 16,3.30030099 16,7.37142857 C16,9.29250872 15.2024583,11.041949 13.8958184,12.3539692 Z M7.94285714,9.78095238 C9.51605596,10.7990263 10.3706771,11.2483272 10.5067204,11.1288551 C10.6427638,11.0093829 10.4795457,10.0577483 10.0170661,8.27395135 C11.4827084,7.15954158 12.1741114,6.48559023 12.0912751,6.2520973 C12.0084388,6.01860437 11.0529434,5.87976276 9.22478879,5.83557246 C8.61970046,4.10392098 8.19238991,3.23809524 7.94285714,3.23809524 C7.69332437,3.23809524 7.26601382,4.10392098 6.6609255,5.83557246 C4.82960347,5.88951121 3.87410803,6.02835282 3.7944392,6.2520973 C3.71477036,6.47584178 4.40617335,7.14979313 5.86864817,8.27395135 C5.36780472,9.99753359 5.20458662,10.9491682 5.37899385,11.1288551 C5.55340109,11.308542 6.40802218,10.8592411 7.94285714,9.78095238 Z"/>
</svg>