<svg id="soc" width="16" height="16" xmlns="http://www.w3.org/2000/svg">
 <path d="m8 0c-4.418 0-8 3.582-8 8 0 3.39 2.108 6.285 5.084 7.45-0.07-0.633-0.133-1.604 0.028-2.295 0.146-0.625 0.938-3.977 0.938-3.977s-0.24-0.48-0.24-1.188c0-1.11 0.646-1.943 1.448-1.943 0.683 0 1.012 0.513 1.012 1.127 0 0.687-0.436 1.713-0.662 2.664-0.19 0.797 0.4 1.445 1.185 1.445 1.42 0 2.514-1.498 2.514-3.662 0-1.91-1.376-3.25-3.342-3.25-2.276 0-3.61 1.71-3.61 3.47 0 0.69 0.263 1.43 0.593 1.83 0.066 0.08 0.075 0.15 0.057 0.23-0.06 0.25-0.196 0.8-0.223 0.91-0.035 0.15-0.115 0.18-0.268 0.11-0.998-0.461-1.624-1.921-1.624-3.101 0-2.52 1.834-4.84 5.287-4.84 2.774 0 4.932 1.98 4.932 4.62 0 2.76-1.74 4.98-4.16 4.98-0.81 0-1.57-0.42-1.84-0.92l-0.5 1.9c-0.18 0.698-0.67 1.57-1 2.1 0.75 0.23 1.54 0.357 2.37 0.357 4.41 0 8-3.58 8-8s-3.59-8-8-8z"/>
</svg>
