<svg id="soc" width="16" height="16" xmlns="http://www.w3.org/2000/svg">
 <path d="m8 0c-4.4183 0-8 3.5817-8 8s3.5817 8 8 8 8-3.5817 8-8-3.5817-8-8-8zm3.7188 2.5625c0.55228 0 1 0.44772 1 1s-0.44772 1-1 1c-0.52375-6.7e-4 -0.95824-0.40535-0.99609-0.92773l-1.8145-0.37109-0.60938 2.6797c1.3238 0.0543 2.5679 0.46386 3.4766 1.1445 0.2472-0.25578 0.58764-0.40028 0.94336-0.40039 0.72487 0 1.3125 0.58763 1.3125 1.3125-4.1e-4 0.5536-0.3481 1.0474-0.86914 1.2344 0.01679 0.11943 0.0253 0.23936 0.02539 0.35938 1e-6 2.0192-2.3225 3.6562-5.1875 3.6562s-5.1875-1.637-5.1875-3.6562c2.78e-4 -0.12329 0.0094047-0.2465 0.027344-0.36914-0.50615-0.1954-0.83991-0.68206-0.83984-1.2246 0-0.72487 0.58763-1.3125 1.3125-1.3125 0.34871-3.3e-4 0.68321 0.13811 0.92969 0.38477 0.9283-0.68658 2.1986-1.092 3.543-1.1309l0.68945-3.0273c0.0262-0.11714 0.13197-0.19913 0.25195-0.19531l2.0859 0.42578c0.16287-0.35401 0.51657-0.58117 0.90625-0.58203zm-5.7188 5.4375c-0.55228 0-1 0.44772-1 1s0.44772 1 1 1 1-0.44772 1-1-0.44772-1-1-1zm4 0c-0.55228 0-1 0.44772-1 1s0.44772 1 1 1c0.55228 0 1-0.44772 1-1s-0.44772-1-1-1zm-4.1543 3.3809c0.60478 0.36951 1.3589 0.63458 2.1523 0.63867 0.7934 0.0041 1.6035-0.17922 2.1582-0.64062 0.35885-0.29848 0.07264-0.57037-0.25-0.32032-0.4674 0.36225-1.182 0.55841-1.9043 0.55469-0.7223-0.0037-1.415-0.2452-1.9102-0.55664-0.35692-0.22448-0.54553 0.14127-0.24609 0.32422z"/>
</svg>
