<svg id="soc" width="16" height="16" xmlns="http://www.w3.org/2000/svg">
 <path d="m8 0c-4.4183 0-8 3.5817-8 8s3.5817 8 8 8 8-3.5817 8-8-3.5817-8-8-8zm3.9277 5.4824-1.3125 6.1875c-0.10119 0.44048-0.3417 0.55413-0.72266 0.33984l-2-1.4746c-0.43804 0.42208-0.98301 1.1723-1.3652 1.125l0.14258-2.0352 3.7051-3.3477c0.06493-0.058663-1e-3 -0.23679-0.25-0.080078l-4.5801 2.8828-1.9727-0.61523c-0.10966-0.034199-0.66568-0.3444 0.087891-0.63477l7.7148-2.9727c0.61206-0.23584 0.63621 0.23146 0.55273 0.625z"/>
</svg>
