<svg id="soc" width="16" height="16" xmlns="http://www.w3.org/2000/svg">
 <path d="m12 14.057c-0.4571 0.49519-1.5237 0.79993-2.476 0.79993h-0.11428c-3.2378 0-3.9235-2.3236-3.9235-3.733v-3.8854h-1.3332c-0.11428 0-0.22855-0.11428-0.22855-0.30473v-1.7903c0-0.22855 0.11428-0.38092 0.26664-0.41901 1.676-0.64756 2.1712-2.057 2.2855-3.1616 0-0.30473 0.19046-0.41901 0.4571-0.41901h1.9046c0.15237 0 0.22855 0.11428 0.22855 0.22855v3.1235h2.2093c0.19046 0 0.30474 0.11428 0.30474 0.30473v2.1331c0 0.15237-0.11428 0.26664-0.30474 0.26664h-2.2093v3.5806c0 0.9142 0.60947 1.1428 0.95229 1.1428 0.38092 0 0.68565-0.07618 0.87611-0.15237 0.30473-0.15237 0.49519 0.03809 0.53328 0.15237l0.57138 1.7141c0.07618 0.15237 0.11428 0.30473 0 0.41901z"/>
</svg>
