<svg id="soc" width="16" height="16" xmlns="http://www.w3.org/2000/svg">
 <path d="m8 0c-4.4133 0-8 3.5867-8 8s3.5867 8 8 8 8-3.5867 8-8-3.5867-8-8-8zm0 1c3.8617 0 7 3.1383 7 7s-3.1383 7-7 7-7-3.1383-7-7 3.1383-7 7-7z"/>
 <path d="m10.458 15 1.1667-0.625 2.25-6.5c0.41405-1.0314 0.53742-2.0418 0.51971-3.0422l-1.478-2.1661c-0.875-0.08333-1.375 0.79167-1.3333 1.2917 0.08333 1.2083 1.2917 1.875 1.2917 3.5417 0 1.1667-0.75 3.0417-1.2917 4.875l-2.5833-7.7917 0.83333-0.04167c0.41667 0 0.42933-0.54173 0.02875-0.54173h-3.8618c-0.41667 0-0.45854 0.54173-0.08354 0.54173l0.75 0.04167 1.125 3.0833-1.5833 4.75-2.625-7.8333 0.83333-0.04167c0.375 0 0.33333-0.54173-0.04167-0.54173h-2.6615l-0.33856 0.91674 3.5 9.7083 1.0417 0.58333 2.25-6.5833"/>
</svg>
