<?xml version="1.0" encoding="UTF-8" standalone="no"?>
<svg
   xmlns:dc="http://purl.org/dc/elements/1.1/"
   xmlns:cc="http://creativecommons.org/ns#"
   xmlns:rdf="http://www.w3.org/1999/02/22-rdf-syntax-ns#"
   xmlns:svg="http://www.w3.org/2000/svg"
   xmlns="http://www.w3.org/2000/svg"
   xmlns:xlink="http://www.w3.org/1999/xlink"
   xmlns:sodipodi="http://sodipodi.sourceforge.net/DTD/sodipodi-0.dtd"
   xmlns:inkscape="http://www.inkscape.org/namespaces/inkscape"
   width="48px"
   height="48px"
   viewBox="0 0 48 48"
   version="1.1"
   id="svg3392"
   inkscape:version="0.48.5 r10040"
   sodipodi:docname="about.svg">
  <metadata
     id="metadata3418">
    <rdf:RDF>
      <cc:Work
         rdf:about="">
        <dc:format>image/svg+xml</dc:format>
        <dc:type
           rdf:resource="http://purl.org/dc/dcmitype/StillImage" />
      </cc:Work>
    </rdf:RDF>
  </metadata>
  <sodipodi:namedview
     pagecolor="#ffffff"
     bordercolor="#666666"
     borderopacity="1"
     objecttolerance="10"
     gridtolerance="10"
     guidetolerance="10"
     inkscape:pageopacity="0"
     inkscape:pageshadow="2"
     inkscape:window-width="1280"
     inkscape:window-height="970"
     id="namedview3416"
     showgrid="false"
     inkscape:zoom="2.4583333"
     inkscape:cx="41.598178"
     inkscape:cy="44.311801"
     inkscape:window-x="0"
     inkscape:window-y="0"
     inkscape:window-maximized="1"
     inkscape:current-layer="svg3392">
    <inkscape:grid
       type="xygrid"
       id="grid3795" />
  </sodipodi:namedview>
  <defs
     id="defs3394">
    <linearGradient
       id="linear0"
       gradientUnits="userSpaceOnUse"
       x1="1"
       y1="0"
       x2="47"
       y2="0"
       gradientTransform="matrix(0,-1,1,0,0.00221467,48.000001)">
      <stop
         offset="0"
         style="stop-color:#005ea0;stop-opacity:1;"
         id="stop3397" />
      <stop
         offset="1"
         style="stop-color:#006ab4;stop-opacity:1;"
         id="stop3399" />
    </linearGradient>
    <linearGradient
       inkscape:collect="always"
       xlink:href="#linear0"
       id="linearGradient3461"
       gradientUnits="userSpaceOnUse"
       gradientTransform="matrix(0,-1,1,0,0.00221467,48.000001)"
       x1="1"
       y1="0"
       x2="47"
       y2="0" />
    <linearGradient
       gradientTransform="translate(-58.983051,-1005.3792)"
       xlink:href="#0"
       id="1"
       y1="1050.36"
       x2="0"
       y2="1006.36"
       gradientUnits="userSpaceOnUse" />
    <linearGradient
       id="0">
      <stop
         stop-color="#004993"
         id="stop7" />
      <stop
         offset="1"
         stop-color="#007ec8"
         id="stop9" />
    </linearGradient>
  </defs>
  <path
     inkscape:connector-curvature="0"
     id="path3402"
     d="m 1,43 0,0.25 c 0,2.214844 1.785156,4 4,4 l 38,0 c 2.214844,0 4,-1.785156 4,-4 L 47,43 c 0,2.214844 -1.785156,4 -4,4 L 5,47 C 2.785156,47 1,45.214844 1,43 z m 0,0.5 0,0.5 c 0,2.214844 1.785156,4 4,4 l 38,0 c 2.214844,0 4,-1.785156 4,-4 l 0,-0.5 c 0,2.214844 -1.785156,4 -4,4 l -38,0 c -2.214844,0 -4,-1.785156 -4,-4 z m 0,0"
     style="fill:#000000;fill-opacity:0.01960778;fill-rule:nonzero;stroke:none" />
  <path
     inkscape:connector-curvature="0"
     id="path3404"
     d="m 1,43.25 0,0.25 c 0,2.214844 1.785156,4 4,4 l 38,0 c 2.214844,0 4,-1.785156 4,-4 l 0,-0.25 c 0,2.214844 -1.785156,4 -4,4 l -38,0 c -2.214844,0 -4,-1.785156 -4,-4 z m 0,0"
     style="fill:#000000;fill-opacity:0.05098039;fill-rule:nonzero;stroke:none" />
  <path
     inkscape:connector-curvature="0"
     id="path3406"
     d="m 1,43 0,0.25 c 0,2.214844 1.785156,4 4,4 l 38,0 c 2.214844,0 4,-1.785156 4,-4 L 47,43 c 0,2.214844 -1.785156,4 -4,4 L 5,47 C 2.785156,47 1,45.214844 1,43 z m 0,0"
     style="fill:#000000;fill-opacity:0.10196102;fill-rule:nonzero;stroke:none" />
  <path
     inkscape:connector-curvature="0"
     id="path3408"
     d="M 1,43 1,5 C 1,2.789062 2.789062,1 5,1 l 38,0 c 2.210938,0 4,1.789062 4,4 l 0,38 c 0,2.210938 -1.789062,4 -4,4 L 5,47 C 2.789062,47 1,45.210938 1,43 z m 0,0"
     style="fill:url(#linearGradient3461);fill-rule:nonzero;stroke:none" />
  <g
     id="g3797"
     transform="matrix(3.543307,0,0,3.543307,8.5669299e-8,0.99998752)"
     style="fill:#000000;fill-opacity:0.10196079">
    <path
       sodipodi:nodetypes="ccccccccccc"
       id="path3799"
       d="m 5.3622226,5.3622259 -1e-7,0.5644411 0.5644443,0 0,3.6688888 -0.8466667,0 0,0.8466702 3.3866667,0 0,-0.8466702 -0.8466667,0 10e-8,-4.2333299 z"
       inkscape:connector-curvature="0"
       style="fill:#000000;fill-opacity:0.10196079" />
    <path
       id="path3801"
       d="m 7.6200001,3.8100002 c 0,0.3896673 -0.3790658,0.7055555 -0.8466666,0.7055555 -0.4676009,0 -0.8466667,-0.3158882 -0.8466667,-0.7055555 0,-0.3896675 0.3790658,-0.7055556 0.8466667,-0.7055556 0.4676008,0 0.8466666,0.3158881 0.8466666,0.7055556 z"
       inkscape:connector-curvature="0"
       style="fill:#000000;fill-opacity:0.10196079" />
  </g>
  <path
     inkscape:connector-curvature="0"
     id="path3414"
     d="m 1,38.996094 0,4 c 0,2.21875 1.785156,4 4,4 l 38,0 c 2.214844,0 4,-1.78125 4,-4 l 0,-4 c 0,2.21875 -1.785156,4 -4,4 l -38,0 c -2.214844,0 -4,-1.78125 -4,-4 z m 0,0"
     style="fill:#000000;fill-opacity:0.10196102;fill-rule:nonzero;stroke:none" />
  <g
     style="fill:#f9f9f9"
     transform="matrix(3.543307,0,0,3.543307,8.5669299e-8,-1.2481382e-5)"
     id="g28">
    <path
       inkscape:connector-curvature="0"
       d="m 5.3622226,5.3622259 -1e-7,0.5644411 0.5644443,0 0,3.6688888 -0.8466667,0 0,0.8466702 3.3866667,0 0,-0.8466702 -0.8466667,0 10e-8,-4.2333299 z"
       id="path30"
       sodipodi:nodetypes="ccccccccccc" />
    <path
       inkscape:connector-curvature="0"
       d="m 7.6200001,3.8100002 c 0,0.3896673 -0.3790658,0.7055555 -0.8466666,0.7055555 -0.4676009,0 -0.8466667,-0.3158882 -0.8466667,-0.7055555 0,-0.3896675 0.3790658,-0.7055556 0.8466667,-0.7055556 0.4676008,0 0.8466666,0.3158881 0.8466666,0.7055556 z"
       id="path32" />
  </g>
</svg>
