<?xml version="1.0" encoding="UTF-8"?>
<svg version="1.1" viewBox="0 0 48 48" xmlns="http://www.w3.org/2000/svg" xmlns:xlink="http://www.w3.org/1999/xlink">
 <defs>
  <path id="a" d="m12 14h4v2h-4"/>
  <linearGradient id="b" x1="1" x2="47" gradientTransform="translate(-48 .0022147)" gradientUnits="userSpaceOnUse">
   <stop stop-color="#75519f" offset="0"/>
   <stop stop-color="#7f5aab" offset="1"/>
  </linearGradient>
 </defs>
 <path d="m1 43v0.25c0 2.216 1.784 4 4 4h38c2.216 0 4-1.784 4-4v-0.25c0 2.216-1.784 4-4 4h-38c-2.216 0-4-1.784-4-4zm0 0.5v0.5c0 2.216 1.784 4 4 4h38c2.216 0 4-1.784 4-4v-0.5c0 2.216-1.784 4-4 4h-38c-2.216 0-4-1.784-4-4z" opacity=".02"/>
 <path d="m1 43.25v0.25c0 2.216 1.784 4 4 4h38c2.216 0 4-1.784 4-4v-0.25c0 2.216-1.784 4-4 4h-38c-2.216 0-4-1.784-4-4z" opacity=".05"/>
 <path d="m1 43v0.25c0 2.216 1.784 4 4 4h38c2.216 0 4-1.784 4-4v-0.25c0 2.216-1.784 4-4 4h-38c-2.216 0-4-1.784-4-4z" opacity=".1"/>
 <g>
  <rect transform="rotate(-90)" x="-47" y="1" width="46" height="46" rx="4" fill="url(#b)"/>
  <path d="m14 12h22v24h-22" opacity=".1"/>
  <path d="m33.813 23.441c-0.191-0.266-0.398-0.512-0.605-0.754-1.121-1.316-2.41-2.484-3.82-3.336-0.902-0.539-1.863-0.98-2.863-1.188-0.508-0.109-1.012-0.164-1.527-0.164-0.508 0-1.016 0.055-1.52 0.164-1 0.207-1.961 0.648-2.863 1.188-1.41 0.852-2.688 2.02-3.813 3.336-0.207 0.242-0.414 0.488-0.605 0.754-0.25 0.352-0.25 0.766 0 1.117 0.574 0.801 1.258 1.516 1.953 2.168 1.496 1.406 3.207 2.582 5.098 3.055 0.582 0.148 1.191 0.219 1.773 0.219 0.594 0 1.176-0.07 1.762-0.219 1.898-0.473 3.605-1.648 5.105-3.055 0.691-0.652 1.379-1.363 1.953-2.168 0.25-0.352 0.25-0.766 0-1.117" opacity=".1"/>
 </g>
 <use width="48" height="48" fill="#000000" opacity=".1" xlink:href="#a"/>
 <g>
  <path d="m12 19h4v2h-4" opacity=".1"/>
  <path d="m12 27h4v2h-4" opacity=".1"/>
  <path d="m12 32h4v2h-4" opacity=".1"/>
 </g>
 <path d="m14 11h22v24h-22" fill="#ab7e59"/>
 <use transform="translate(0,-1)" width="48" height="48" fill="#e54444" xlink:href="#a"/>
 <use transform="translate(0,-1)" width="48" height="48" fill="#ffcc00" xlink:href="#a"/>
 <g fill="#fc0">
  <path d="m12 18h4v2h-4"/>
  <path d="m12 26h4v2h-4"/>
  <path d="m12 31h4v2h-4"/>
 </g>
 <path d="m1 38.998v4c0 2.216 1.784 4 4 4h38c2.216 0 4-1.784 4-4v-4c0 2.216-1.784 4-4 4h-38c-2.216 0-4-1.784-4-4z" opacity=".1"/>
</svg>
