<?xml version="1.0" encoding="UTF-8" standalone="no"?>
<svg
   xmlns:dc="http://purl.org/dc/elements/1.1/"
   xmlns:cc="http://creativecommons.org/ns#"
   xmlns:rdf="http://www.w3.org/1999/02/22-rdf-syntax-ns#"
   xmlns:svg="http://www.w3.org/2000/svg"
   xmlns="http://www.w3.org/2000/svg"
   xmlns:xlink="http://www.w3.org/1999/xlink"
   xmlns:sodipodi="http://sodipodi.sourceforge.net/DTD/sodipodi-0.dtd"
   xmlns:inkscape="http://www.inkscape.org/namespaces/inkscape"
   viewBox="0 0 48 48"
   id="svg2"
   version="1.1"
   inkscape:version="0.48.5 r10040"
   width="100%"
   height="100%"
   sodipodi:docname="blog.svg">
  <metadata
     id="metadata101">
    <rdf:RDF>
      <cc:Work
         rdf:about="">
        <dc:format>image/svg+xml</dc:format>
        <dc:type
           rdf:resource="http://purl.org/dc/dcmitype/StillImage" />
        <dc:title></dc:title>
      </cc:Work>
    </rdf:RDF>
  </metadata>
  <sodipodi:namedview
     pagecolor="#ffffff"
     bordercolor="#666666"
     borderopacity="1"
     objecttolerance="10"
     gridtolerance="10"
     guidetolerance="10"
     inkscape:pageopacity="0"
     inkscape:pageshadow="2"
     inkscape:window-width="1280"
     inkscape:window-height="970"
     id="namedview99"
     showgrid="false"
     inkscape:zoom="3.4766083"
     inkscape:cx="52.382038"
     inkscape:cy="-2.0160826"
     inkscape:window-x="0"
     inkscape:window-y="0"
     inkscape:window-maximized="1"
     inkscape:current-layer="svg2"
     showguides="true"
     inkscape:guide-bbox="true" />
  <defs
     id="defs4">
    <linearGradient
       id="linearGradient3764"
       x1="1"
       x2="47"
       gradientUnits="userSpaceOnUse"
       gradientTransform="translate(-48.000001,0.00221467)">
      <stop
         stop-color="#e4e4e4"
         stop-opacity="1"
         id="stop7"
         offset="0"
         style="stop-color:#75519f;stop-opacity:1;" />
      <stop
         offset="1"
         stop-color="#eee"
         stop-opacity="1"
         id="stop9"
         style="stop-color:#7f5aab;stop-opacity:1;" />
    </linearGradient>
    <clipPath
       id="clipPath-703333230">
      <g
         transform="translate(0,-1004.3622)"
         id="g12">
        <rect
           rx="4"
           y="1005.36"
           x="1"
           height="46"
           width="46"
           fill="#1890d0"
           id="rect14" />
      </g>
    </clipPath>
    <clipPath
       id="clipPath-728487923">
      <g
         transform="translate(0,-1004.3622)"
         id="g17">
        <rect
           rx="4"
           y="1005.36"
           x="1"
           height="46"
           width="46"
           fill="#1890d0"
           id="rect19" />
      </g>
    </clipPath>
    <path
       id="SVGCleanerId_1"
       d="m 12 14 l 4 0 l 0 2 l -4 0 m 0 -2"
       stroke="none"
       fill-rule="nonzero"
       fill-opacity="1" />
    <linearGradient
       inkscape:collect="always"
       xlink:href="#linearGradient3764"
       id="linearGradient3082"
       gradientUnits="userSpaceOnUse"
       gradientTransform="translate(-48.000001,0.00221467)"
       x1="1"
       x2="47" />
  </defs>
  <path
     style="opacity:0.02000002"
     inkscape:connector-curvature="0"
     id="path24"
     d="m 1,43 0,0.25 c 0,2.216 1.784,4 4,4 l 38,0 c 2.216,0 4,-1.784 4,-4 L 47,43 c 0,2.216 -1.784,4 -4,4 L 5,47 C 2.784,47 1,45.216 1,43 z m 0,0.5 0,0.5 c 0,2.216 1.784,4 4,4 l 38,0 c 2.216,0 4,-1.784 4,-4 l 0,-0.5 c 0,2.216 -1.784,4 -4,4 l -38,0 c -2.216,0 -4,-1.784 -4,-4 z" />
  <path
     style="opacity:0.05"
     inkscape:connector-curvature="0"
     id="path26"
     d="m 1,43.25 0,0.25 c 0,2.216 1.784,4 4,4 l 38,0 c 2.216,0 4,-1.784 4,-4 l 0,-0.25 c 0,2.216 -1.784,4 -4,4 l -38,0 c -2.216,0 -4,-1.784 -4,-4 z" />
  <path
     style="opacity:0.1"
     inkscape:connector-curvature="0"
     id="path28"
     d="m 1,43 0,0.25 c 0,2.216 1.784,4 4,4 l 38,0 c 2.216,0 4,-1.784 4,-4 L 47,43 c 0,2.216 -1.784,4 -4,4 L 5,47 C 2.784,47 1,45.216 1,43 z" />
  <rect
     style="fill:url(#linearGradient3082);fill-opacity:1"
     id="rect32"
     transform="matrix(0,-1,1,0,0,0)"
     rx="4"
     y="1"
     x="-47"
     height="46"
     width="46" />
  <path
     d="m 14,12 22,0 0,24 -22,0 m 0,-24"
     id="path42"
     inkscape:connector-curvature="0"
     style="opacity:0.1;fill:#000000;fill-opacity:1;fill-rule:nonzero;stroke:none" />
  <path
     d="m 33.813,23.441 c -0.191,-0.266 -0.398,-0.512 -0.605,-0.754 -1.121,-1.316 -2.41,-2.484 -3.82,-3.336 -0.902,-0.539 -1.863,-0.98 -2.863,-1.188 -0.508,-0.109 -1.012,-0.164 -1.527,-0.164 -0.508,0 -1.016,0.055 -1.52,0.164 -1,0.207 -1.961,0.648 -2.863,1.188 -1.41,0.852 -2.688,2.02 -3.813,3.336 -0.207,0.242 -0.414,0.488 -0.605,0.754 -0.25,0.352 -0.25,0.766 0,1.117 0.574,0.801 1.258,1.516 1.953,2.168 1.496,1.406 3.207,2.582 5.098,3.055 0.582,0.148 1.191,0.219 1.773,0.219 0.594,0 1.176,-0.07 1.762,-0.219 1.898,-0.473 3.605,-1.648 5.105,-3.055 0.691,-0.652 1.379,-1.363 1.953,-2.168 0.25,-0.352 0.25,-0.766 0,-1.117 m 0,0"
     id="path44"
     inkscape:connector-curvature="0"
     style="opacity:0.1;fill:#000000;fill-opacity:1;fill-rule:nonzero;stroke:none" />
  <use
     xlink:href="#SVGCleanerId_1"
     id="use53"
     style="opacity:0.1;fill:#000000"
     x="0"
     y="0"
     width="48"
     height="48" />
  <path
     d="m 12,19 4,0 0,2 -4,0 m 0,-2"
     id="path57"
     inkscape:connector-curvature="0"
     style="opacity:0.1;fill:#000000;fill-opacity:1;fill-rule:nonzero;stroke:none" />
  <path
     d="m 12,27 4,0 0,2 -4,0 m 0,-2"
     id="path59"
     inkscape:connector-curvature="0"
     style="opacity:0.1;fill:#000000;fill-opacity:1;fill-rule:nonzero;stroke:none" />
  <path
     d="m 12,32 4,0 0,2 -4,0 m 0,-2"
     id="path61"
     inkscape:connector-curvature="0"
     style="opacity:0.1;fill:#000000;fill-opacity:1;fill-rule:nonzero;stroke:none" />
  <path
     d="m 14,11 22,0 0,24 -22,0 m 0,-24"
     id="path71"
     inkscape:connector-curvature="0"
     style="fill:#ab7e59;fill-opacity:1;fill-rule:nonzero;stroke:none" />
  <use
     xlink:href="#SVGCleanerId_1"
     id="use83"
     style="fill:#e54444"
     x="0"
     y="0"
     width="48"
     height="48"
     transform="translate(0,-1)" />
  <use
     xlink:href="#SVGCleanerId_1"
     id="use85"
     style="fill:#ffcc00"
     x="0"
     y="0"
     width="48"
     height="48"
     transform="translate(0,-1)" />
  <path
     d="m 12,18 4,0 0,2 -4,0 m 0,-2"
     id="path87"
     inkscape:connector-curvature="0"
     style="fill:#ffcc00;fill-opacity:1;fill-rule:nonzero;stroke:none" />
  <path
     d="m 12,26 4,0 0,2 -4,0 m 0,-2"
     id="path89"
     inkscape:connector-curvature="0"
     style="fill:#ffcc00;fill-opacity:1;fill-rule:nonzero;stroke:none" />
  <path
     d="m 12,31 4,0 0,2 -4,0 m 0,-2"
     id="path91"
     inkscape:connector-curvature="0"
     style="fill:#ffcc00;fill-opacity:1;fill-rule:nonzero;stroke:none" />
  <path
     d="m 1,38.9978 0,4 c 0,2.216 1.784,4 4,4 l 38,0 c 2.216,0 4,-1.784 4,-4 l 0,-4 c 0,2.216 -1.784,4 -4,4 l -38,0 c -2.216,0 -4,-1.784 -4,-4 z"
     id="path97"
     inkscape:connector-curvature="0"
     style="opacity:0.1" />
</svg>
