<?xml version="1.0" encoding="UTF-8"?>
<svg width="48px" height="48px" version="1.1" viewBox="0 0 48 48" xmlns="http://www.w3.org/2000/svg" xmlns:xlink="http://www.w3.org/1999/xlink">
 <defs>
  <linearGradient id="a" x1="1" x2="47" gradientTransform="matrix(0 -1 1 0 .0022147 48)" gradientUnits="userSpaceOnUse">
   <stop stop-color="#565656" offset="0"/>
   <stop stop-color="#616161" offset="1"/>
  </linearGradient>
 </defs>
 <g>
  <path d="m1 43v0.25c0 2.2148 1.7852 4 4 4h38c2.2148 0 4-1.7852 4-4v-0.25c0 2.2148-1.7852 4-4 4h-38c-2.2148 0-4-1.7852-4-4zm0 0.5v0.5c0 2.2148 1.7852 4 4 4h38c2.2148 0 4-1.7852 4-4v-0.5c0 2.2148-1.7852 4-4 4h-38c-2.2148 0-4-1.7852-4-4z" fill-opacity=".019608"/>
  <path d="m1 43.25v0.25c0 2.2148 1.7852 4 4 4h38c2.2148 0 4-1.7852 4-4v-0.25c0 2.2148-1.7852 4-4 4h-38c-2.2148 0-4-1.7852-4-4z" fill-opacity=".05098"/>
  <path d="m1 43v0.25c0 2.2148 1.7852 4 4 4h38c2.2148 0 4-1.7852 4-4v-0.25c0 2.2148-1.7852 4-4 4h-38c-2.2148 0-4-1.7852-4-4z" fill-opacity=".10196"/>
 </g>
 <g>
  <path d="m1 43v-38c0-2.2109 1.7891-4 4-4h38c2.2109 0 4 1.7891 4 4v38c0 2.2109-1.7891 4-4 4h-38c-2.2109 0-4-1.7891-4-4z" fill="url(#a)"/>
  <path d="m36 34v-4h-12v4" fill-opacity=".10196"/>
  <path d="m14.746 30-2.7422-2.9062 6.1719-5.0938-6.1719-5.0898 2.7422-2.9102 9.2578 8" fill-opacity=".10196"/>
  <path d="m36 33v-4h-12v4" fill="#dcdcdc"/>
  <path d="m14.746 29-2.7422-2.9062 6.1719-5.0938-6.1719-5.0898 2.7422-2.9102 9.2578 8" fill="#dcdcdc"/>
  <path d="m1 38.996v4c0 2.2188 1.7852 4 4 4h38c2.2148 0 4-1.7812 4-4v-4c0 2.2188-1.7852 4-4 4h-38c-2.2148 0-4-1.7812-4-4z" fill-opacity=".10196"/>
 </g>
</svg>
