<?xml version="1.0" encoding="UTF-8" standalone="no"?>
<svg
   xmlns:dc="http://purl.org/dc/elements/1.1/"
   xmlns:cc="http://creativecommons.org/ns#"
   xmlns:rdf="http://www.w3.org/1999/02/22-rdf-syntax-ns#"
   xmlns:svg="http://www.w3.org/2000/svg"
   xmlns="http://www.w3.org/2000/svg"
   xmlns:xlink="http://www.w3.org/1999/xlink"
   xmlns:sodipodi="http://sodipodi.sourceforge.net/DTD/sodipodi-0.dtd"
   xmlns:inkscape="http://www.inkscape.org/namespaces/inkscape"
   width="48px"
   height="48px"
   viewBox="0 0 48 48"
   version="1.1"
   id="svg3009"
   inkscape:version="0.48.5 r10040"
   sodipodi:docname="facebook.svg">
  <metadata
     id="metadata3035">
    <rdf:RDF>
      <cc:Work
         rdf:about="">
        <dc:format>image/svg+xml</dc:format>
        <dc:type
           rdf:resource="http://purl.org/dc/dcmitype/StillImage" />
      </cc:Work>
    </rdf:RDF>
  </metadata>
  <sodipodi:namedview
     pagecolor="#ffffff"
     bordercolor="#666666"
     borderopacity="1"
     objecttolerance="10"
     gridtolerance="10"
     guidetolerance="10"
     inkscape:pageopacity="0"
     inkscape:pageshadow="2"
     inkscape:window-width="640"
     inkscape:window-height="480"
     id="namedview3033"
     showgrid="false"
     inkscape:zoom="4.9166667"
     inkscape:cx="24"
     inkscape:cy="24"
     inkscape:window-x="0"
     inkscape:window-y="0"
     inkscape:window-maximized="0"
     inkscape:current-layer="svg3009" />
  <defs
     id="defs3011">
    <linearGradient
       id="linear0"
       gradientUnits="userSpaceOnUse"
       x1="1"
       y1="0"
       x2="47"
       y2="0"
       gradientTransform="matrix(0,-1,1,0,0.00221467,48.000001)">
      <stop
         offset="0"
         style="stop-color:rgb(20.392157%,30.588235%,55.686275%);stop-opacity:1;"
         id="stop3014" />
      <stop
         offset="1"
         style="stop-color:rgb(22.745098%,33.72549%,61.176471%);stop-opacity:1;"
         id="stop3016" />
    </linearGradient>
    <linearGradient
       inkscape:collect="always"
       xlink:href="#linear0"
       id="linearGradient3579"
       gradientUnits="userSpaceOnUse"
       gradientTransform="matrix(0,-1,1,0,0.00221467,48.000001)"
       x1="1"
       y1="0"
       x2="47"
       y2="0" />
  </defs>
  <path
     inkscape:connector-curvature="0"
     id="path3019"
     d="m 1,43 0,0.25 c 0,2.214844 1.785156,4 4,4 l 38,0 c 2.214844,0 4,-1.785156 4,-4 L 47,43 c 0,2.214844 -1.785156,4 -4,4 L 5,47 C 2.785156,47 1,45.214844 1,43 z m 0,0.5 0,0.5 c 0,2.214844 1.785156,4 4,4 l 38,0 c 2.214844,0 4,-1.785156 4,-4 l 0,-0.5 c 0,2.214844 -1.785156,4 -4,4 l -38,0 c -2.214844,0 -4,-1.785156 -4,-4 z m 0,0"
     style="fill:#000000;fill-opacity:0.01960778;fill-rule:nonzero;stroke:none" />
  <path
     inkscape:connector-curvature="0"
     id="path3021"
     d="m 1,43.25 0,0.25 c 0,2.214844 1.785156,4 4,4 l 38,0 c 2.214844,0 4,-1.785156 4,-4 l 0,-0.25 c 0,2.214844 -1.785156,4 -4,4 l -38,0 c -2.214844,0 -4,-1.785156 -4,-4 z m 0,0"
     style="fill:#000000;fill-opacity:0.05098039;fill-rule:nonzero;stroke:none" />
  <path
     inkscape:connector-curvature="0"
     id="path3023"
     d="m 1,43 0,0.25 c 0,2.214844 1.785156,4 4,4 l 38,0 c 2.214844,0 4,-1.785156 4,-4 L 47,43 c 0,2.214844 -1.785156,4 -4,4 L 5,47 C 2.785156,47 1,45.214844 1,43 z m 0,0"
     style="fill:#000000;fill-opacity:0.10196102;fill-rule:nonzero;stroke:none" />
  <path
     inkscape:connector-curvature="0"
     id="path3025"
     d="M 1,43 1,5 C 1,2.789062 2.789062,1 5,1 l 38,0 c 2.210938,0 4,1.789062 4,4 l 0,38 c 0,2.210938 -1.789062,4 -4,4 L 5,47 C 2.789062,47 1,45.210938 1,43 z m 0,0"
     style="fill:url(#linearGradient3579);fill-rule:nonzero;stroke:none" />
  <path
     inkscape:connector-curvature="0"
     id="path3027"
     d="m 17,19 3,0 0,-2 c 0,-1.558594 0.222656,-2.632812 0.585938,-3.402344 0.378906,-0.765625 1.058593,-1.386718 2.046874,-1.867187 C 23.632812,11.246094 24.894531,11 26.417969,11 27.976562,11 29.613281,11.402344 31,12 l -1,3 c -0.871094,-0.1875 -1.453125,-0.234375 -2.257812,-0.234375 -0.792969,0 -1.363282,0.167969 -1.714844,0.507813 C 25.6875,15.597656 25,16.058594 25,17.003906 l 0,2 5,0 0,3 -5,0 0,15 -4.960938,0 -0.03906,-15 -3,0"
     style="fill:#000000;fill-opacity:0.10196102;fill-rule:nonzero;stroke:none" />
  <path
     inkscape:connector-curvature="0"
     id="path3029"
     d="m 17,18 3,0 0,-2 c 0,-1.558594 0.222656,-2.632812 0.585938,-3.402344 0.378906,-0.765625 1.058593,-1.386718 2.046874,-1.867187 C 23.632812,10.246094 24.894531,10 26.417969,10 27.976562,10 29.613281,10.402344 31,11 l -1,3 c -0.871094,-0.1875 -1.453125,-0.234375 -2.257812,-0.234375 -0.792969,0 -1.363282,0.167969 -1.714844,0.507813 C 25.6875,14.597656 25,15.058594 25,16.003906 l 0,2 5,0 0,3 -5,0 0,15 -4.960938,0 -0.03906,-15 -3,0"
     style="fill:#f8f8f8;fill-opacity:1;fill-rule:nonzero;stroke:none" />
  <path
     inkscape:connector-curvature="0"
     id="path3031"
     d="m 1,38.996094 0,4 c 0,2.21875 1.785156,4 4,4 l 38,0 c 2.214844,0 4,-1.78125 4,-4 l 0,-4 c 0,2.21875 -1.785156,4 -4,4 l -38,0 c -2.214844,0 -4,-1.78125 -4,-4 z m 0,0"
     style="fill:#000000;fill-opacity:0.10196102;fill-rule:nonzero;stroke:none" />
</svg>
