<?xml version="1.0" encoding="UTF-8" standalone="no"?>
<svg
   xmlns:dc="http://purl.org/dc/elements/1.1/"
   xmlns:cc="http://creativecommons.org/ns#"
   xmlns:rdf="http://www.w3.org/1999/02/22-rdf-syntax-ns#"
   xmlns:svg="http://www.w3.org/2000/svg"
   xmlns="http://www.w3.org/2000/svg"
   xmlns:xlink="http://www.w3.org/1999/xlink"
   xmlns:sodipodi="http://sodipodi.sourceforge.net/DTD/sodipodi-0.dtd"
   xmlns:inkscape="http://www.inkscape.org/namespaces/inkscape"
   width="48px"
   height="48px"
   viewBox="0 0 48 48"
   version="1.1"
   id="svg3091"
   inkscape:version="0.48.5 r10040"
   sodipodi:docname="googleplus.svg">
  <metadata
     id="metadata3121">
    <rdf:RDF>
      <cc:Work
         rdf:about="">
        <dc:format>image/svg+xml</dc:format>
        <dc:type
           rdf:resource="http://purl.org/dc/dcmitype/StillImage" />
      </cc:Work>
    </rdf:RDF>
  </metadata>
  <sodipodi:namedview
     pagecolor="#ffffff"
     bordercolor="#666666"
     borderopacity="1"
     objecttolerance="10"
     gridtolerance="10"
     guidetolerance="10"
     inkscape:pageopacity="0"
     inkscape:pageshadow="2"
     inkscape:window-width="640"
     inkscape:window-height="480"
     id="namedview3119"
     showgrid="false"
     inkscape:zoom="4.9166667"
     inkscape:cx="24"
     inkscape:cy="24"
     inkscape:window-x="0"
     inkscape:window-y="0"
     inkscape:window-maximized="0"
     inkscape:current-layer="svg3091" />
  <defs
     id="defs3093">
    <linearGradient
       id="linear0"
       gradientUnits="userSpaceOnUse"
       x1="1"
       y1="0"
       x2="47"
       y2="0"
       gradientTransform="matrix(0,-1,1,0,0.00221467,48.000001)">
      <stop
         offset="0"
         style="stop-color:rgb(84.705882%,26.666667%,18.823529%);stop-opacity:1;"
         id="stop3096" />
      <stop
         offset="1"
         style="stop-color:rgb(85.882353%,32.941176%,25.490196%);stop-opacity:1;"
         id="stop3098" />
    </linearGradient>
    <linearGradient
       inkscape:collect="always"
       xlink:href="#linear0"
       id="linearGradient3531"
       gradientUnits="userSpaceOnUse"
       gradientTransform="matrix(0,-1,1,0,0.00221467,48.000001)"
       x1="1"
       y1="0"
       x2="47"
       y2="0" />
    <linearGradient
       inkscape:collect="always"
       xlink:href="#linear0"
       id="linearGradient3543"
       gradientUnits="userSpaceOnUse"
       gradientTransform="matrix(0,-1,1,0,0.00221467,48.000001)"
       x1="1"
       y1="0"
       x2="47"
       y2="0" />
    <linearGradient
       inkscape:collect="always"
       xlink:href="#linear0"
       id="linearGradient3551"
       gradientUnits="userSpaceOnUse"
       gradientTransform="matrix(0,-1,1,0,0.00221467,48.000001)"
       x1="1"
       y1="0"
       x2="47"
       y2="0" />
  </defs>
  <path
     id="path3101"
     d="m 1,43 0,0.25 c 0,2.214844 1.785156,4 4,4 l 38,0 c 2.214844,0 4,-1.785156 4,-4 L 47,43 c 0,2.214844 -1.785156,4 -4,4 L 5,47 C 2.785156,47 1,45.214844 1,43 z m 0,0.5 0,0.5 c 0,2.214844 1.785156,4 4,4 l 38,0 c 2.214844,0 4,-1.785156 4,-4 l 0,-0.5 c 0,2.214844 -1.785156,4 -4,4 l -38,0 c -2.214844,0 -4,-1.785156 -4,-4 z m 0,0"
     style="fill:#000000;fill-opacity:0.01960778;fill-rule:nonzero;stroke:none"
     inkscape:connector-curvature="0" />
  <path
     id="path3103"
     d="m 1,43.25 0,0.25 c 0,2.214844 1.785156,4 4,4 l 38,0 c 2.214844,0 4,-1.785156 4,-4 l 0,-0.25 c 0,2.214844 -1.785156,4 -4,4 l -38,0 c -2.214844,0 -4,-1.785156 -4,-4 z m 0,0"
     style="fill:#000000;fill-opacity:0.05098039;fill-rule:nonzero;stroke:none"
     inkscape:connector-curvature="0" />
  <path
     id="path3105"
     d="m 1,43 0,0.25 c 0,2.214844 1.785156,4 4,4 l 38,0 c 2.214844,0 4,-1.785156 4,-4 L 47,43 c 0,2.214844 -1.785156,4 -4,4 L 5,47 C 2.785156,47 1,45.214844 1,43 z m 0,0"
     style="fill:#000000;fill-opacity:0.10196102;fill-rule:nonzero;stroke:none"
     inkscape:connector-curvature="0" />
  <path
     id="path3107"
     d="M 1,43 1,5 C 1,2.789062 2.789062,1 5,1 l 38,0 c 2.210938,0 4,1.789062 4,4 l 0,38 c 0,2.210938 -1.789062,4 -4,4 L 5,47 C 2.789062,47 1,45.210938 1,43 z m 0,0"
     style="fill:url(#linearGradient3551);fill-rule:nonzero;stroke:none"
     inkscape:connector-curvature="0" />
  <path
     id="path3109"
     d="m 21.039062,13.148438 c 0.191407,0.148437 0.417969,0.347656 0.675782,0.597656 0.257812,0.230468 0.507812,0.527344 0.742187,0.882812 0.238281,0.335938 0.441407,0.734375 0.613281,1.199219 0.171876,0.460937 0.257813,0.984375 0.257813,1.574219 0,0.585937 -0.07422,1.101562 -0.226563,1.542968 -0.148437,0.441407 -0.355468,0.839844 -0.613281,1.195313 -0.257812,0.335937 -0.546875,0.652344 -0.871093,0.945313 -0.320313,0.273437 -0.65625,0.535156 -1,0.789062 -0.214844,0.207031 -0.417969,0.429688 -0.613282,0.660156 -0.191406,0.230469 -0.289062,0.523438 -0.289062,0.882813 0,0.355469 0.09766,0.640625 0.289062,0.847656 0.195313,0.191406 0.378906,0.359375 0.550782,0.507813 l 1.160156,0.878906 c 0.34375,0.296875 0.679687,0.589844 1,0.882812 0.34375,0.292969 0.636718,0.609375 0.871094,0.945313 0.257812,0.335937 0.464843,0.714843 0.613281,1.132812 0.152343,0.421875 0.226562,0.902344 0.226562,1.449219 0,0.734375 -0.183593,1.460938 -0.546875,2.175781 -0.367187,0.710938 -0.90625,1.34375 -1.613281,1.886719 -0.710937,0.566406 -1.605469,1.019531 -2.679687,1.355469 -1.054688,0.355469 -2.269532,0.535156 -3.644532,0.535156 -1.164062,0 -2.183594,-0.125 -3.066406,-0.378906 -0.859375,-0.25 -1.582031,-0.585938 -2.160156,-1.011719 C 10.132812,34.207031 9.703125,33.722656 9.421875,33.175781 9.144531,32.652344 9.003906,32.097656 9.003906,31.507812 c 0,-0.566406 0.183594,-1.21875 0.546875,-1.953124 0.347657,-0.714844 0.992188,-1.34375 1.9375,-1.890626 0.496094,-0.292968 1.023438,-0.535156 1.582031,-0.722656 0.578126,-0.167968 1.148438,-0.304687 1.707032,-0.410156 0.566406,-0.105469 1.085937,-0.179688 1.582031,-0.21875 0.496094,-0.04297 0.925781,-0.07422 1.289063,-0.09766 -0.234376,-0.292969 -0.460938,-0.605469 -0.675782,-0.910156 -0.195312,-0.335938 -0.289062,-0.746094 -0.289062,-1.230469 0,-0.273438 0.03125,-0.492188 0.09375,-0.660157 0.06641,-0.191406 0.148437,-0.378906 0.230468,-0.566406 -0.171874,0.01953 -0.347656,0.03906 -0.519531,0.0625 -0.171875,0 -0.34375,0 -0.515625,0 -0.859375,0 -1.625,-0.136718 -2.289062,-0.40625 -0.667969,-0.292968 -1.226563,-0.675781 -1.679688,-1.136718 -0.453125,-0.464844 -0.796875,-0.984376 -1.03125,-1.578126 -0.238281,-0.601562 -0.355468,-1.214843 -0.355468,-1.820312 0,-0.734375 0.171874,-1.472656 0.519531,-2.207031 0.34375,-0.753907 0.855469,-1.425781 1.550781,-2.023438 0.921875,-0.730469 1.890625,-1.207031 2.902344,-1.417969 1.027344,-0.207031 1.984375,-0.3125 2.871094,-0.3125 l 6.644531,0 -2.066407,1.132813 -2,0 m -3.550781,8.882813 c 0.410157,0 0.816407,-0.08594 1.195313,-0.253907 0.40625,-0.167969 0.742187,-0.375 1,-0.628906 0.363281,-0.355469 0.589844,-0.753906 0.675781,-1.195313 0.08594,-0.4375 0.128906,-0.808593 0.128906,-1.101562 0,-0.570312 -0.08594,-1.1875 -0.257812,-1.859375 C 20.058594,16.3125 19.800781,15.683594 19.460938,15.09375 19.113281,14.507812 18.6875,14.023438 18.171875,13.644531 17.675781,13.246094 17.09375,13.046875 16.429688,13.046875 c -0.433594,0 -0.855469,0.09375 -1.257813,0.285156 -0.410156,0.1875 -0.742187,0.4375 -1,0.753907 -0.277344,0.335937 -0.476563,0.703124 -0.578125,1.101562 -0.08594,0.398438 -0.128906,0.808594 -0.128906,1.230469 0,0.523437 0.07031,1.113281 0.226562,1.761719 0.171875,0.652343 0.417969,1.261718 0.742188,1.828124 0.34375,0.566407 0.761718,1.050782 1.257812,1.449219 0.523438,0.378907 1.117188,0.566407 1.804688,0.566407 m 4.777344,9.261718 c 0,-0.402344 -0.07813,-0.769531 -0.226563,-1.105468 -0.132813,-0.3125 -0.335937,-0.628907 -0.613281,-0.945313 -0.28125,-0.3125 -0.648438,-0.636719 -1.097656,-0.972656 -0.453126,-0.335938 -0.980469,-0.714844 -1.582032,-1.136719 -0.132812,-0.01953 -0.246094,-0.03125 -0.355468,-0.03125 -0.08594,0 -0.214844,0 -0.386719,0 -0.06641,0 -0.214844,0 -0.449219,0 -0.238281,0.02344 -0.515625,0.04297 -0.839844,0.0625 -0.324218,0.04297 -0.667968,0.101562 -1.03125,0.160156 -0.367187,0.08203 -0.722656,0.175782 -1.0625,0.28125 -0.175781,0.0625 -0.417968,0.160156 -0.742187,0.285156 -0.300781,0.144532 -0.605469,0.34375 -0.902344,0.597657 -0.300781,0.25 -0.570313,0.566406 -0.808594,0.945312 -0.214843,0.378907 -0.320312,0.851563 -0.320312,1.417969 0,1.132812 0.503906,2.058594 1.515625,2.769531 1.03125,0.714844 2.417968,1.070313 4.160156,1.070313 1.566406,0 2.730469,-0.324219 3.523438,-0.976563 0.8125,-0.628906 1.226562,-1.4375 1.226562,-2.421875"
     style="fill:#000000;fill-opacity:0.10196102;fill-rule:nonzero;stroke:none"
     inkscape:connector-curvature="0" />
  <path
     id="path3111"
     d="M 34,16.738281 34,22 l 5,0 0,2 -5,0 0,5 -2,0 0,-5 -5,0 0,-2 5,0 0,-5.261719"
     style="fill:#000000;fill-opacity:0.10196102;fill-rule:nonzero;stroke:none"
     inkscape:connector-curvature="0" />
  <path
     id="path3113"
     d="m 21.039062,12.148438 c 0.191407,0.148437 0.417969,0.347656 0.675782,0.597656 0.257812,0.230468 0.507812,0.527344 0.742187,0.882812 0.238281,0.335938 0.441407,0.734375 0.613281,1.199219 0.171876,0.460937 0.257813,0.984375 0.257813,1.574219 0,0.585937 -0.07422,1.101562 -0.226563,1.542968 -0.148437,0.441407 -0.355468,0.839844 -0.613281,1.195313 -0.257812,0.335937 -0.546875,0.652344 -0.871093,0.945313 -0.320313,0.273437 -0.65625,0.535156 -1,0.789062 -0.214844,0.207031 -0.417969,0.429688 -0.613282,0.660156 -0.191406,0.230469 -0.289062,0.523438 -0.289062,0.882813 0,0.355469 0.09766,0.640625 0.289062,0.847656 0.195313,0.191406 0.378906,0.359375 0.550782,0.507813 l 1.160156,0.878906 c 0.34375,0.296875 0.679687,0.589844 1,0.882812 0.34375,0.292969 0.636718,0.609375 0.871094,0.945313 0.257812,0.335937 0.464843,0.714843 0.613281,1.132812 0.152343,0.421875 0.226562,0.902344 0.226562,1.449219 0,0.734375 -0.183593,1.460938 -0.546875,2.175781 -0.367187,0.710938 -0.90625,1.34375 -1.613281,1.886719 -0.710937,0.566406 -1.605469,1.019531 -2.679687,1.355469 -1.054688,0.355469 -2.269532,0.535156 -3.644532,0.535156 -1.164062,0 -2.183594,-0.125 -3.066406,-0.378906 -0.859375,-0.25 -1.582031,-0.585938 -2.160156,-1.011719 C 10.132812,33.207031 9.703125,32.722656 9.421875,32.175781 9.144531,31.652344 9.003906,31.097656 9.003906,30.507812 c 0,-0.566406 0.183594,-1.21875 0.546875,-1.953124 0.347657,-0.714844 0.992188,-1.34375 1.9375,-1.890626 0.496094,-0.292968 1.023438,-0.535156 1.582031,-0.722656 0.578126,-0.167968 1.148438,-0.304687 1.707032,-0.410156 0.566406,-0.105469 1.085937,-0.179688 1.582031,-0.21875 0.496094,-0.04297 0.925781,-0.07422 1.289063,-0.09766 -0.234376,-0.292969 -0.460938,-0.605469 -0.675782,-0.910156 -0.195312,-0.335938 -0.289062,-0.746094 -0.289062,-1.230469 0,-0.273438 0.03125,-0.492188 0.09375,-0.660157 0.06641,-0.191406 0.148437,-0.378906 0.230468,-0.566406 -0.171874,0.01953 -0.347656,0.03906 -0.519531,0.0625 -0.171875,0 -0.34375,0 -0.515625,0 -0.859375,0 -1.625,-0.136718 -2.289062,-0.40625 -0.667969,-0.292968 -1.226563,-0.675781 -1.679688,-1.136718 -0.453125,-0.464844 -0.796875,-0.984376 -1.03125,-1.578126 -0.238281,-0.601562 -0.355468,-1.214843 -0.355468,-1.820312 0,-0.734375 0.171874,-1.472656 0.519531,-2.207031 0.34375,-0.753907 0.855469,-1.425781 1.550781,-2.023438 0.921875,-0.730469 1.890625,-1.207031 2.902344,-1.417969 1.027344,-0.207031 1.984375,-0.3125 2.871094,-0.3125 l 6.644531,0 -2.066407,1.132813 -2,0 m -3.550781,8.882813 c 0.410157,0 0.816407,-0.08594 1.195313,-0.253907 0.40625,-0.167969 0.742187,-0.375 1,-0.628906 0.363281,-0.355469 0.589844,-0.753906 0.675781,-1.195313 0.08594,-0.4375 0.128906,-0.808593 0.128906,-1.101562 0,-0.570312 -0.08594,-1.1875 -0.257812,-1.859375 C 20.058594,15.3125 19.800781,14.683594 19.460938,14.09375 19.113281,13.507812 18.6875,13.023438 18.171875,12.644531 17.675781,12.246094 17.09375,12.046875 16.429688,12.046875 c -0.433594,0 -0.855469,0.09375 -1.257813,0.285156 -0.410156,0.1875 -0.742187,0.4375 -1,0.753907 -0.277344,0.335937 -0.476563,0.703124 -0.578125,1.101562 -0.08594,0.398438 -0.128906,0.808594 -0.128906,1.230469 0,0.523437 0.07031,1.113281 0.226562,1.761719 0.171875,0.652343 0.417969,1.261718 0.742188,1.828124 0.34375,0.566407 0.761718,1.050782 1.257812,1.449219 0.523438,0.378907 1.117188,0.566407 1.804688,0.566407 m 4.777344,9.261718 c 0,-0.402344 -0.07813,-0.769531 -0.226563,-1.105468 -0.132813,-0.3125 -0.335937,-0.628907 -0.613281,-0.945313 -0.28125,-0.3125 -0.648438,-0.636719 -1.097656,-0.972656 -0.453126,-0.335938 -0.980469,-0.714844 -1.582032,-1.136719 -0.132812,-0.01953 -0.246094,-0.03125 -0.355468,-0.03125 -0.08594,0 -0.214844,0 -0.386719,0 -0.06641,0 -0.214844,0 -0.449219,0 -0.238281,0.02344 -0.515625,0.04297 -0.839844,0.0625 -0.324218,0.04297 -0.667968,0.101562 -1.03125,0.160156 -0.367187,0.08203 -0.722656,0.175782 -1.0625,0.28125 -0.175781,0.0625 -0.417968,0.160156 -0.742187,0.285156 -0.300781,0.144532 -0.605469,0.34375 -0.902344,0.597657 -0.300781,0.25 -0.570313,0.566406 -0.808594,0.945312 -0.214843,0.378907 -0.320312,0.851563 -0.320312,1.417969 0,1.132812 0.503906,2.058594 1.515625,2.769531 1.03125,0.714844 2.417968,1.070313 4.160156,1.070313 1.566406,0 2.730469,-0.324219 3.523438,-0.976563 0.8125,-0.628906 1.226562,-1.4375 1.226562,-2.421875"
     style="fill:#f8f8f8;fill-opacity:1;fill-rule:nonzero;stroke:none"
     inkscape:connector-curvature="0" />
  <path
     id="path3115"
     d="M 34,15.738281 34,21 l 5,0 0,2 -5,0 0,5 -2,0 0,-5 -5,0 0,-2 5,0 0,-5.261719"
     style="fill:#f8f8f8;fill-opacity:1;fill-rule:nonzero;stroke:none"
     inkscape:connector-curvature="0" />
  <path
     id="path3117"
     d="m 1,38.996094 0,4 c 0,2.21875 1.785156,4 4,4 l 38,0 c 2.214844,0 4,-1.78125 4,-4 l 0,-4 c 0,2.21875 -1.785156,4 -4,4 l -38,0 c -2.214844,0 -4,-1.78125 -4,-4 z m 0,0"
     style="fill:#000000;fill-opacity:0.10196102;fill-rule:nonzero;stroke:none"
     inkscape:connector-curvature="0" />
</svg>
