<?xml version="1.0" encoding="UTF-8"?>
<svg width="48px" height="48px" version="1.1" viewBox="0 0 48 48" xmlns="http://www.w3.org/2000/svg">
 <defs>
  <linearGradient id="a" x1="1" x2="47" gradientTransform="matrix(0 -1 1 0 .0022147 48)" gradientUnits="userSpaceOnUse">
   <stop stop-color="#df4c8b" offset="0"/>
   <stop stop-color="#e35d96" offset="1"/>
  </linearGradient>
 </defs>
 <g>
  <g>
   <path d="m1 43v0.25c0 2.2148 1.7852 4 4 4h38c2.2148 0 4-1.7852 4-4v-0.25c0 2.2148-1.7852 4-4 4h-38c-2.2148 0-4-1.7852-4-4zm0 0.5v0.5c0 2.2148 1.7852 4 4 4h38c2.2148 0 4-1.7852 4-4v-0.5c0 2.2148-1.7852 4-4 4h-38c-2.2148 0-4-1.7852-4-4z" fill-opacity=".019608"/>
   <path d="m1 43.25v0.25c0 2.2148 1.7852 4 4 4h38c2.2148 0 4-1.7852 4-4v-0.25c0 2.2148-1.7852 4-4 4h-38c-2.2148 0-4-1.7852-4-4z" fill-opacity=".05098"/>
   <path d="m1 43v0.25c0 2.2148 1.7852 4 4 4h38c2.2148 0 4-1.7852 4-4v-0.25c0 2.2148-1.7852 4-4 4h-38c-2.2148 0-4-1.7852-4-4z" fill-opacity=".10196"/>
  </g>
  <path d="m1 43v-38c0-2.2109 1.7891-4 4-4h38c2.2109 0 4 1.7891 4 4v38c0 2.2109-1.7891 4-4 4h-38c-2.2109 0-4-1.7891-4-4z" fill="url(#a)"/>
  <g fill-opacity=".10196">
   <path d="m13.887 11h20.227c0.49219 0 0.88672 0.39453 0.88672 0.88281v24.23c0 0.48828-0.39453 0.88672-0.88672 0.88672h-20.227c-0.48828 0-0.88672-0.39844-0.88672-0.88672v-24.23c0-0.48828 0.39844-0.88281 0.88672-0.88281"/>
   <path d="m15.441 31h3.1133c0.24609 0 0.44531 0.19922 0.44531 0.44141v3.1172c0 0.24219-0.19922 0.44141-0.44531 0.44141h-3.1133c-0.24609 0-0.44141-0.19922-0.44141-0.44141v-3.1172c0-0.24219 0.19531-0.44141 0.44141-0.44141"/>
   <path d="m15.441 25.02h3.1133c0.24609 0 0.44531 0.19922 0.44531 0.44141v3.1172c0 0.24219-0.19922 0.44141-0.44531 0.44141h-3.1133c-0.24609 0-0.44141-0.19922-0.44141-0.44141v-3.1172c0-0.24219 0.19531-0.44141 0.44141-0.44141"/>
   <path d="m15.441 19h3.1133c0.24609 0 0.44531 0.19922 0.44531 0.44141v3.1172c0 0.24219-0.19922 0.44141-0.44531 0.44141h-3.1133c-0.24609 0-0.44141-0.19922-0.44141-0.44141v-3.1172c0-0.24219 0.19531-0.44141 0.44141-0.44141"/>
   <path d="m15.441 13h17.109c0.24609 0 0.44531 0.19922 0.44531 0.44141v3.1172c0 0.24219-0.19922 0.44141-0.44531 0.44141h-17.109c-0.24609 0-0.44141-0.19922-0.44141-0.44141v-3.1172c0-0.24219 0.19531-0.44141 0.44141-0.44141"/>
   <path d="m22.441 31h3.1172c0.24219 0 0.44141 0.19922 0.44141 0.44141v3.1172c0 0.24219-0.19922 0.44141-0.44141 0.44141h-3.1172c-0.24219 0-0.44141-0.19922-0.44141-0.44141v-3.1172c0-0.24219 0.19922-0.44141 0.44141-0.44141"/>
   <path d="m22.441 25.02h3.1172c0.24219 0 0.44141 0.19922 0.44141 0.44141v3.1172c0 0.24219-0.19922 0.44141-0.44141 0.44141h-3.1172c-0.24219 0-0.44141-0.19922-0.44141-0.44141v-3.1172c0-0.24219 0.19922-0.44141 0.44141-0.44141"/>
   <path d="m22.441 19h3.1172c0.24219 0 0.44141 0.19922 0.44141 0.44141v3.1172c0 0.24219-0.19922 0.44141-0.44141 0.44141h-3.1172c-0.24219 0-0.44141-0.19922-0.44141-0.44141v-3.1172c0-0.24219 0.19922-0.44141 0.44141-0.44141"/>
   <path d="m29.441 19h3.1133c0.24609 0 0.44531 0.19922 0.44531 0.44141v3.1172c0 0.24219-0.19922 0.44141-0.44531 0.44141h-3.1133c-0.24609 0-0.44141-0.19922-0.44141-0.44141v-3.1172c0-0.24219 0.19531-0.44141 0.44141-0.44141"/>
   <path d="m29.441 25.02h3.1133c0.24609 0 0.44531 0.19922 0.44531 0.44141v9.1133c0 0.24609-0.19922 0.44531-0.44531 0.44531h-3.1133c-0.24609 0-0.44141-0.19922-0.44141-0.44531v-9.1133c0-0.24219 0.19531-0.44141 0.44141-0.44141"/>
  </g>
  <path d="m13.887 10h20.227c0.49219 0 0.88672 0.39453 0.88672 0.88281v24.23c0 0.48828-0.39453 0.88672-0.88672 0.88672h-20.227c-0.48828 0-0.88672-0.39844-0.88672-0.88672v-24.23c0-0.48828 0.39844-0.88281 0.88672-0.88281" fill="#eaeaea"/>
  <g fill="#959a9b">
   <path d="m15.441 30h3.1133c0.24609 0 0.44531 0.19922 0.44531 0.44141v3.1172c0 0.24219-0.19922 0.44141-0.44531 0.44141h-3.1133c-0.24609 0-0.44141-0.19922-0.44141-0.44141v-3.1172c0-0.24219 0.19531-0.44141 0.44141-0.44141"/>
   <path d="m15.441 24.02h3.1133c0.24609 0 0.44531 0.19922 0.44531 0.44141v3.1172c0 0.24219-0.19922 0.44141-0.44531 0.44141h-3.1133c-0.24609 0-0.44141-0.19922-0.44141-0.44141v-3.1172c0-0.24219 0.19531-0.44141 0.44141-0.44141"/>
   <path d="m15.441 18h3.1133c0.24609 0 0.44531 0.19922 0.44531 0.44141v3.1172c0 0.24219-0.19922 0.44141-0.44531 0.44141h-3.1133c-0.24609 0-0.44141-0.19922-0.44141-0.44141v-3.1172c0-0.24219 0.19531-0.44141 0.44141-0.44141"/>
  </g>
  <path d="m15.441 12h17.109c0.24609 0 0.44531 0.19922 0.44531 0.44141v3.1172c0 0.24219-0.19922 0.44141-0.44531 0.44141h-17.109c-0.24609 0-0.44141-0.19922-0.44141-0.44141v-3.1172c0-0.24219 0.19531-0.44141 0.44141-0.44141" fill="#76a3cf"/>
  <g fill="#959a9b">
   <path d="m22.441 30h3.1172c0.24219 0 0.44141 0.19922 0.44141 0.44141v3.1172c0 0.24219-0.19922 0.44141-0.44141 0.44141h-3.1172c-0.24219 0-0.44141-0.19922-0.44141-0.44141v-3.1172c0-0.24219 0.19922-0.44141 0.44141-0.44141"/>
   <path d="m22.441 24.02h3.1172c0.24219 0 0.44141 0.19922 0.44141 0.44141v3.1172c0 0.24219-0.19922 0.44141-0.44141 0.44141h-3.1172c-0.24219 0-0.44141-0.19922-0.44141-0.44141v-3.1172c0-0.24219 0.19922-0.44141 0.44141-0.44141"/>
   <path d="m22.441 18h3.1172c0.24219 0 0.44141 0.19922 0.44141 0.44141v3.1172c0 0.24219-0.19922 0.44141-0.44141 0.44141h-3.1172c-0.24219 0-0.44141-0.19922-0.44141-0.44141v-3.1172c0-0.24219 0.19922-0.44141 0.44141-0.44141"/>
   <path d="m29.441 18h3.1133c0.24609 0 0.44531 0.19922 0.44531 0.44141v3.1172c0 0.24219-0.19922 0.44141-0.44531 0.44141h-3.1133c-0.24609 0-0.44141-0.19922-0.44141-0.44141v-3.1172c0-0.24219 0.19531-0.44141 0.44141-0.44141"/>
  </g>
  <path d="m29.441 24.02h3.1133c0.24609 0 0.44531 0.19922 0.44531 0.44141v9.1133c0 0.24609-0.19922 0.44531-0.44531 0.44531h-3.1133c-0.24609 0-0.44141-0.19922-0.44141-0.44531v-9.1133c0-0.24219 0.19531-0.44141 0.44141-0.44141" fill="#ec7f20"/>
  <path d="m1 38.996v4c0 2.2188 1.7852 4 4 4h38c2.2148 0 4-1.7812 4-4v-4c0 2.2188-1.7852 4-4 4h-38c-2.2148 0-4-1.7812-4-4z" fill-opacity=".10196"/>
 </g>
</svg>
