<?xml version="1.0" encoding="UTF-8" standalone="no"?>
<svg
   xmlns:dc="http://purl.org/dc/elements/1.1/"
   xmlns:cc="http://creativecommons.org/ns#"
   xmlns:rdf="http://www.w3.org/1999/02/22-rdf-syntax-ns#"
   xmlns:svg="http://www.w3.org/2000/svg"
   xmlns="http://www.w3.org/2000/svg"
   xmlns:xlink="http://www.w3.org/1999/xlink"
   xmlns:sodipodi="http://sodipodi.sourceforge.net/DTD/sodipodi-0.dtd"
   xmlns:inkscape="http://www.inkscape.org/namespaces/inkscape"
   width="48px"
   height="48px"
   viewBox="0 0 48 48"
   version="1.1"
   id="svg3215"
   inkscape:version="0.48.5 r10040"
   sodipodi:docname="reddit.svg">
  <metadata
     id="metadata3338">
    <rdf:RDF>
      <cc:Work
         rdf:about="">
        <dc:format>image/svg+xml</dc:format>
        <dc:type
           rdf:resource="http://purl.org/dc/dcmitype/StillImage" />
      </cc:Work>
    </rdf:RDF>
  </metadata>
  <sodipodi:namedview
     pagecolor="#ffffff"
     bordercolor="#666666"
     borderopacity="1"
     objecttolerance="10"
     gridtolerance="10"
     guidetolerance="10"
     inkscape:pageopacity="0"
     inkscape:pageshadow="2"
     inkscape:window-width="640"
     inkscape:window-height="480"
     id="namedview3336"
     showgrid="false"
     inkscape:zoom="4.9166667"
     inkscape:cx="24"
     inkscape:cy="24"
     inkscape:window-x="0"
     inkscape:window-y="0"
     inkscape:window-maximized="0"
     inkscape:current-layer="svg3215" />
  <defs
     id="defs3217">
    <linearGradient
       id="linear0"
       gradientUnits="userSpaceOnUse"
       x1="1"
       y1="0"
       x2="47"
       y2="0"
       gradientTransform="matrix(0,-1,1,0,0.00221467,48.000001)">
      <stop
         offset="0"
         style="stop-color:rgb(74.117647%,85.490196%,96.078431%);stop-opacity:1;"
         id="stop3220" />
      <stop
         offset="1"
         style="stop-color:rgb(81.176471%,89.411765%,97.254902%);stop-opacity:1;"
         id="stop3222" />
    </linearGradient>
    <filter
       id="alpha"
       filterUnits="objectBoundingBox"
       x="0%"
       y="0%"
       width="100%"
       height="100%">
      <feColorMatrix
         type="matrix"
         in="SourceGraphic"
         values="0 0 0 0 1 0 0 0 0 1 0 0 0 0 1 0 0 0 1 0"
         id="feColorMatrix3225" />
    </filter>
    <mask
       id="mask0">
      <g
         filter="url(#alpha)"
         id="g3228">
        <rect
           x="0"
           y="0"
           width="48"
           height="48"
           style="fill:rgb(0%,0%,0%);fill-opacity:0.101961;stroke:none;"
           id="rect3230" />
      </g>
    </mask>
    <clipPath
       id="clip1">
      <rect
         width="48"
         height="48"
         id="rect3233" />
    </clipPath>
    <g
       id="surface6"
       clip-path="url(#clip1)">
      <path
         style="fill-rule:nonzero;fill:rgb(0%,0%,0%);fill-opacity:1;stroke-width:1.000079;stroke-linecap:butt;stroke-linejoin:miter;stroke:rgb(0%,0%,0%);stroke-opacity:1;stroke-miterlimit:4;"
         d="M 16.753906 23.316406 C 16.761719 24.261719 16.261719 25.136719 15.445312 25.613281 C 14.628906 26.085938 13.625 26.085938 12.808594 25.613281 C 11.992188 25.136719 11.496094 24.261719 11.5 23.316406 C 11.496094 22.371094 11.992188 21.492188 12.808594 21.019531 C 13.625 20.542969 14.628906 20.542969 15.445312 21.019531 C 16.261719 21.492188 16.761719 22.371094 16.753906 23.316406 M 16.753906 23.316406 "
         id="path3236" />
    </g>
    <mask
       id="mask1">
      <g
         filter="url(#alpha)"
         id="g3239">
        <rect
           x="0"
           y="0"
           width="48"
           height="48"
           style="fill:rgb(0%,0%,0%);fill-opacity:0.101961;stroke:none;"
           id="rect3241" />
      </g>
    </mask>
    <clipPath
       id="clip2">
      <rect
         width="48"
         height="48"
         id="rect3244" />
    </clipPath>
    <g
       id="surface9"
       clip-path="url(#clip2)">
      <path
         style="fill-rule:nonzero;fill:rgb(0%,0%,0%);fill-opacity:1;stroke-width:1.000079;stroke-linecap:butt;stroke-linejoin:miter;stroke:rgb(0%,0%,0%);stroke-opacity:1;stroke-miterlimit:4;"
         d="M 36.5 23.375 C 36.507812 24.320312 36.007812 25.195312 35.191406 25.671875 C 34.378906 26.144531 33.371094 26.144531 32.554688 25.671875 C 31.742188 25.195312 31.242188 24.320312 31.246094 23.375 C 31.242188 22.429688 31.742188 21.550781 32.554688 21.078125 C 33.371094 20.601562 34.378906 20.601562 35.191406 21.078125 C 36.007812 21.550781 36.507812 22.429688 36.5 23.375 M 36.5 23.375 "
         id="path3247" />
    </g>
    <mask
       id="mask2">
      <g
         filter="url(#alpha)"
         id="g3250">
        <rect
           x="0"
           y="0"
           width="48"
           height="48"
           style="fill:rgb(0%,0%,0%);fill-opacity:0.101961;stroke:none;"
           id="rect3252" />
      </g>
    </mask>
    <clipPath
       id="clip3">
      <rect
         width="48"
         height="48"
         id="rect3255" />
    </clipPath>
    <g
       id="surface12"
       clip-path="url(#clip3)">
      <path
         style="fill-rule:nonzero;fill:rgb(0%,0%,0%);fill-opacity:1;stroke-width:1.000052;stroke-linecap:butt;stroke-linejoin:miter;stroke:rgb(0%,0%,0%);stroke-opacity:1;stroke-miterlimit:4;"
         d="M 29.335938 14.996094 C 27.347656 14.214844 25.328125 13.289062 23.808594 14.300781 C 22.050781 15.078125 22.136719 17.621094 22.269531 20.214844 "
         id="path3258" />
    </g>
    <mask
       id="mask3">
      <g
         filter="url(#alpha)"
         id="g3261">
        <rect
           x="0"
           y="0"
           width="48"
           height="48"
           style="fill:rgb(0%,0%,0%);fill-opacity:0.101961;stroke:none;"
           id="rect3263" />
      </g>
    </mask>
    <clipPath
       id="clip4">
      <rect
         width="48"
         height="48"
         id="rect3266" />
    </clipPath>
    <g
       id="surface15"
       clip-path="url(#clip4)">
      <path
         style="fill-rule:nonzero;fill:rgb(0%,0%,0%);fill-opacity:1;stroke-width:1.000068;stroke-linecap:round;stroke-linejoin:miter;stroke:rgb(0%,0%,0%);stroke-opacity:1;stroke-miterlimit:4;"
         d="M 34.902344 27.152344 C 34.902344 31.210938 30.046875 34.5 24.0625 34.5 C 18.074219 34.5 13.222656 31.210938 13.222656 27.152344 C 13.222656 23.097656 18.074219 19.808594 24.0625 19.808594 C 30.046875 19.808594 34.902344 23.097656 34.902344 27.152344 M 34.902344 27.152344 "
         id="path3269" />
    </g>
    <mask
       id="mask4">
      <g
         filter="url(#alpha)"
         id="g3272">
        <rect
           x="0"
           y="0"
           width="48"
           height="48"
           style="fill:rgb(0%,0%,0%);fill-opacity:0.101961;stroke:none;"
           id="rect3274" />
      </g>
    </mask>
    <clipPath
       id="clip5">
      <rect
         width="48"
         height="48"
         id="rect3277" />
    </clipPath>
    <g
       id="surface18"
       clip-path="url(#clip5)">
      <path
         style="fill-rule:nonzero;fill:rgb(0%,0%,0%);fill-opacity:1;stroke-width:1.000045;stroke-linecap:round;stroke-linejoin:miter;stroke:rgb(0%,0%,0%);stroke-opacity:1;stroke-miterlimit:4;"
         d="M 33.390625 15.886719 C 33.390625 17.207031 32.355469 18.277344 31.078125 18.277344 C 29.804688 18.277344 28.769531 17.207031 28.769531 15.886719 C 28.769531 14.566406 29.804688 13.496094 31.078125 13.496094 C 32.355469 13.496094 33.390625 14.566406 33.390625 15.886719 M 33.390625 15.886719 "
         id="path3280" />
    </g>
    <mask
       id="mask5">
      <g
         filter="url(#alpha)"
         id="g3283">
        <rect
           x="0"
           y="0"
           width="48"
           height="48"
           style="fill:rgb(0%,0%,0%);fill-opacity:0.101961;stroke:none;"
           id="rect3285" />
      </g>
    </mask>
    <clipPath
       id="clip6">
      <rect
         width="48"
         height="48"
         id="rect3288" />
    </clipPath>
    <g
       id="surface21"
       clip-path="url(#clip6)">
      <path
         style="fill-rule:nonzero;fill:rgb(0%,0%,0%);fill-opacity:1;stroke-width:1.000052;stroke-linecap:round;stroke-linejoin:miter;stroke:rgb(0%,0%,0%);stroke-opacity:1;stroke-miterlimit:4;"
         d="M 19.472656 29.71875 C 22.910156 32.050781 25.5 31.128906 27.984375 29.804688 "
         id="path3291" />
    </g>
    <linearGradient
       inkscape:collect="always"
       xlink:href="#linear0"
       id="linearGradient3505"
       gradientUnits="userSpaceOnUse"
       gradientTransform="matrix(0,-1,1,0,0.00221467,48.000001)"
       x1="1"
       y1="0"
       x2="47"
       y2="0" />
  </defs>
  <path
     inkscape:connector-curvature="0"
     id="path3294"
     d="m 1,43 0,0.25 c 0,2.214844 1.785156,4 4,4 l 38,0 c 2.214844,0 4,-1.785156 4,-4 L 47,43 c 0,2.214844 -1.785156,4 -4,4 L 5,47 C 2.785156,47 1,45.214844 1,43 z m 0,0.5 0,0.5 c 0,2.214844 1.785156,4 4,4 l 38,0 c 2.214844,0 4,-1.785156 4,-4 l 0,-0.5 c 0,2.214844 -1.785156,4 -4,4 l -38,0 c -2.214844,0 -4,-1.785156 -4,-4 z m 0,0"
     style="fill:#000000;fill-opacity:0.01960778;fill-rule:nonzero;stroke:none" />
  <path
     inkscape:connector-curvature="0"
     id="path3296"
     d="m 1,43.25 0,0.25 c 0,2.214844 1.785156,4 4,4 l 38,0 c 2.214844,0 4,-1.785156 4,-4 l 0,-0.25 c 0,2.214844 -1.785156,4 -4,4 l -38,0 c -2.214844,0 -4,-1.785156 -4,-4 z m 0,0"
     style="fill:#000000;fill-opacity:0.05098039;fill-rule:nonzero;stroke:none" />
  <path
     inkscape:connector-curvature="0"
     id="path3298"
     d="m 1,43 0,0.25 c 0,2.214844 1.785156,4 4,4 l 38,0 c 2.214844,0 4,-1.785156 4,-4 L 47,43 c 0,2.214844 -1.785156,4 -4,4 L 5,47 C 2.785156,47 1,45.214844 1,43 z m 0,0"
     style="fill:#000000;fill-opacity:0.10196102;fill-rule:nonzero;stroke:none" />
  <path
     inkscape:connector-curvature="0"
     id="path3300"
     d="M 1,43 1,5 C 1,2.789062 2.789062,1 5,1 l 38,0 c 2.210938,0 4,1.789062 4,4 l 0,38 c 0,2.210938 -1.789062,4 -4,4 L 5,47 C 2.789062,47 1,45.210938 1,43 z m 0,0"
     style="fill:url(#linearGradient3505);fill-rule:nonzero;stroke:none" />
  <use
     height="48"
     width="48"
     y="0"
     x="0"
     id="use3302"
     mask="url(#mask0)"
     xlink:href="#surface6" />
  <use
     height="48"
     width="48"
     y="0"
     x="0"
     id="use3304"
     mask="url(#mask1)"
     xlink:href="#surface9" />
  <use
     height="48"
     width="48"
     y="0"
     x="0"
     id="use3306"
     mask="url(#mask2)"
     xlink:href="#surface12" />
  <use
     height="48"
     width="48"
     y="0"
     x="0"
     id="use3308"
     mask="url(#mask3)"
     xlink:href="#surface15" />
  <use
     height="48"
     width="48"
     y="0"
     x="0"
     id="use3310"
     mask="url(#mask4)"
     xlink:href="#surface18" />
  <path
     inkscape:connector-curvature="0"
     id="path3312"
     d="m 21.121094,25.675781 c 0,0.839844 -0.691406,1.523438 -1.546875,1.523438 -0.855469,0 -1.550781,-0.683594 -1.550781,-1.523438 0,-0.839843 0.695312,-1.519531 1.550781,-1.519531 0.855469,0 1.546875,0.679688 1.546875,1.519531 m 0,0"
     style="fill:#000000;fill-opacity:0.10196102;fill-rule:nonzero;stroke:none" />
  <path
     inkscape:connector-curvature="0"
     id="path3314"
     d="m 29.171875,25.546875 c 0,0.839844 -0.695313,1.519531 -1.566406,1.519531 -0.851563,0 -1.550781,-0.679687 -1.550781,-1.519531 0,-0.839844 0.6875,-1.523437 1.550781,-1.523437 0.855469,0 1.566406,0.683593 1.566406,1.523437 m 0,0"
     style="fill:#000000;fill-opacity:0.10196102;fill-rule:nonzero;stroke:none" />
  <use
     height="48"
     width="48"
     y="0"
     x="0"
     id="use3316"
     mask="url(#mask5)"
     xlink:href="#surface21" />
  <path
     inkscape:connector-curvature="0"
     id="path3318"
     d="m 16.753906,22.316406 c 0.0078,0.945313 -0.492187,1.820313 -1.308594,2.296875 -0.816406,0.472657 -1.820312,0.472657 -2.636718,0 -0.816406,-0.476562 -1.3125,-1.351562 -1.308594,-2.296875 -0.0039,-0.945312 0.492188,-1.824218 1.308594,-2.296875 0.816406,-0.476562 1.820312,-0.476562 2.636718,0 0.816407,0.472657 1.316407,1.351563 1.308594,2.296875 m 0,0"
     style="fill:#ffffff;fill-opacity:1;fill-rule:nonzero;stroke:#2b2b2b;stroke-width:1.00007904;stroke-linecap:butt;stroke-linejoin:miter;stroke-miterlimit:4;stroke-opacity:1" />
  <path
     inkscape:connector-curvature="0"
     id="path3320"
     d="m 36.5,22.375 c 0.0078,0.945312 -0.492188,1.820312 -1.308594,2.296875 -0.8125,0.472656 -1.820312,0.472656 -2.636718,0 -0.8125,-0.476563 -1.3125,-1.351563 -1.308594,-2.296875 -0.0039,-0.945312 0.496094,-1.824219 1.308594,-2.296875 0.816406,-0.476563 1.824218,-0.476563 2.636718,0 0.816406,0.472656 1.316406,1.351563 1.308594,2.296875 m 0,0"
     style="fill:#ffffff;fill-opacity:1;fill-rule:nonzero;stroke:#2b2b2b;stroke-width:1.00007904;stroke-linecap:butt;stroke-linejoin:miter;stroke-miterlimit:4;stroke-opacity:1" />
  <path
     inkscape:connector-curvature="0"
     id="path3322"
     d="m 29.335938,13.996094 c -1.988282,-0.78125 -4.007813,-1.707032 -5.527344,-0.695313 -1.757813,0.777344 -1.671875,3.320313 -1.539063,5.914063"
     style="fill:none;stroke:#2b2b2b;stroke-width:1.00005198;stroke-linecap:butt;stroke-linejoin:miter;stroke-miterlimit:4;stroke-opacity:1" />
  <path
     inkscape:connector-curvature="0"
     id="path3324"
     d="m 34.902344,26.152344 c 0,4.058594 -4.855469,7.347656 -10.839844,7.347656 -5.988281,0 -10.839844,-3.289062 -10.839844,-7.347656 0,-4.054688 4.851563,-7.34375 10.839844,-7.34375 5.984375,0 10.839844,3.289062 10.839844,7.34375 m 0,0"
     style="fill:#ffffff;fill-opacity:1;fill-rule:nonzero;stroke:#2b2b2b;stroke-width:1.00006795;stroke-linecap:round;stroke-linejoin:miter;stroke-miterlimit:4;stroke-opacity:1" />
  <path
     inkscape:connector-curvature="0"
     id="path3326"
     d="m 33.390625,14.886719 c 0,1.320312 -1.035156,2.390625 -2.3125,2.390625 -1.273437,0 -2.308594,-1.070313 -2.308594,-2.390625 0,-1.320313 1.035157,-2.390625 2.308594,-2.390625 1.277344,0 2.3125,1.070312 2.3125,2.390625 m 0,0"
     style="fill:#ffffff;fill-opacity:1;fill-rule:nonzero;stroke:#2b2b2b;stroke-width:1.00004494;stroke-linecap:round;stroke-linejoin:miter;stroke-miterlimit:4;stroke-opacity:1" />
  <path
     inkscape:connector-curvature="0"
     id="path3328"
     d="m 21.121094,24.675781 c 0,0.839844 -0.691406,1.523438 -1.546875,1.523438 -0.855469,0 -1.550781,-0.683594 -1.550781,-1.523438 0,-0.839843 0.695312,-1.519531 1.550781,-1.519531 0.855469,0 1.546875,0.679688 1.546875,1.519531 m 0,0"
     style="fill:#ff4500;fill-opacity:1;fill-rule:nonzero;stroke:none" />
  <path
     inkscape:connector-curvature="0"
     id="path3330"
     d="m 29.171875,24.546875 c 0,0.839844 -0.695313,1.519531 -1.566406,1.519531 -0.851563,0 -1.550781,-0.679687 -1.550781,-1.519531 0,-0.839844 0.6875,-1.523437 1.550781,-1.523437 0.855469,0 1.566406,0.683593 1.566406,1.523437 m 0,0"
     style="fill:#ff4500;fill-opacity:1;fill-rule:nonzero;stroke:none" />
  <path
     inkscape:connector-curvature="0"
     id="path3332"
     d="m 19.472656,28.71875 c 3.4375,2.332031 6.027344,1.410156 8.511719,0.08594"
     style="fill:none;stroke:#2b2b2b;stroke-width:1.00005198;stroke-linecap:round;stroke-linejoin:miter;stroke-miterlimit:4;stroke-opacity:1" />
  <path
     inkscape:connector-curvature="0"
     id="path3334"
     d="m 1,38.996094 0,4 c 0,2.21875 1.785156,4 4,4 l 38,0 c 2.214844,0 4,-1.78125 4,-4 l 0,-4 c 0,2.21875 -1.785156,4 -4,4 l -38,0 c -2.214844,0 -4,-1.78125 -4,-4 z m 0,0"
     style="fill:#000000;fill-opacity:0.10196102;fill-rule:nonzero;stroke:none" />
</svg>
