<?xml version="1.0" encoding="UTF-8" standalone="no"?>
<svg
   xmlns:dc="http://purl.org/dc/elements/1.1/"
   xmlns:cc="http://creativecommons.org/ns#"
   xmlns:rdf="http://www.w3.org/1999/02/22-rdf-syntax-ns#"
   xmlns:svg="http://www.w3.org/2000/svg"
   xmlns="http://www.w3.org/2000/svg"
   xmlns:xlink="http://www.w3.org/1999/xlink"
   xmlns:sodipodi="http://sodipodi.sourceforge.net/DTD/sodipodi-0.dtd"
   xmlns:inkscape="http://www.inkscape.org/namespaces/inkscape"
   width="48px"
   height="48px"
   viewBox="0 0 48 48"
   version="1.1"
   id="svg3392"
   inkscape:version="0.48.5 r10040"
   sodipodi:docname="twitter.svg">
  <metadata
     id="metadata3418">
    <rdf:RDF>
      <cc:Work
         rdf:about="">
        <dc:format>image/svg+xml</dc:format>
        <dc:type
           rdf:resource="http://purl.org/dc/dcmitype/StillImage" />
      </cc:Work>
    </rdf:RDF>
  </metadata>
  <sodipodi:namedview
     pagecolor="#ffffff"
     bordercolor="#666666"
     borderopacity="1"
     objecttolerance="10"
     gridtolerance="10"
     guidetolerance="10"
     inkscape:pageopacity="0"
     inkscape:pageshadow="2"
     inkscape:window-width="640"
     inkscape:window-height="480"
     id="namedview3416"
     showgrid="false"
     inkscape:zoom="4.9166667"
     inkscape:cx="24"
     inkscape:cy="24"
     inkscape:window-x="0"
     inkscape:window-y="0"
     inkscape:window-maximized="0"
     inkscape:current-layer="svg3392" />
  <defs
     id="defs3394">
    <linearGradient
       id="linear0"
       gradientUnits="userSpaceOnUse"
       x1="1"
       y1="0"
       x2="47"
       y2="0"
       gradientTransform="matrix(0,-1,1,0,0.00221467,48.000001)">
      <stop
         offset="0"
         style="stop-color:rgb(0%,67.45098%,92.54902%);stop-opacity:1;"
         id="stop3397" />
      <stop
         offset="1"
         style="stop-color:rgb(0.392157%,72.54902%,100%);stop-opacity:1;"
         id="stop3399" />
    </linearGradient>
    <linearGradient
       inkscape:collect="always"
       xlink:href="#linear0"
       id="linearGradient3461"
       gradientUnits="userSpaceOnUse"
       gradientTransform="matrix(0,-1,1,0,0.00221467,48.000001)"
       x1="1"
       y1="0"
       x2="47"
       y2="0" />
  </defs>
  <path
     inkscape:connector-curvature="0"
     id="path3402"
     d="m 1,43 0,0.25 c 0,2.214844 1.785156,4 4,4 l 38,0 c 2.214844,0 4,-1.785156 4,-4 L 47,43 c 0,2.214844 -1.785156,4 -4,4 L 5,47 C 2.785156,47 1,45.214844 1,43 z m 0,0.5 0,0.5 c 0,2.214844 1.785156,4 4,4 l 38,0 c 2.214844,0 4,-1.785156 4,-4 l 0,-0.5 c 0,2.214844 -1.785156,4 -4,4 l -38,0 c -2.214844,0 -4,-1.785156 -4,-4 z m 0,0"
     style="fill:#000000;fill-opacity:0.01960778;fill-rule:nonzero;stroke:none" />
  <path
     inkscape:connector-curvature="0"
     id="path3404"
     d="m 1,43.25 0,0.25 c 0,2.214844 1.785156,4 4,4 l 38,0 c 2.214844,0 4,-1.785156 4,-4 l 0,-0.25 c 0,2.214844 -1.785156,4 -4,4 l -38,0 c -2.214844,0 -4,-1.785156 -4,-4 z m 0,0"
     style="fill:#000000;fill-opacity:0.05098039;fill-rule:nonzero;stroke:none" />
  <path
     inkscape:connector-curvature="0"
     id="path3406"
     d="m 1,43 0,0.25 c 0,2.214844 1.785156,4 4,4 l 38,0 c 2.214844,0 4,-1.785156 4,-4 L 47,43 c 0,2.214844 -1.785156,4 -4,4 L 5,47 C 2.785156,47 1,45.214844 1,43 z m 0,0"
     style="fill:#000000;fill-opacity:0.10196102;fill-rule:nonzero;stroke:none" />
  <path
     inkscape:connector-curvature="0"
     id="path3408"
     d="M 1,43 1,5 C 1,2.789062 2.789062,1 5,1 l 38,0 c 2.210938,0 4,1.789062 4,4 l 0,38 c 0,2.210938 -1.789062,4 -4,4 L 5,47 C 2.789062,47 1,45.210938 1,43 z m 0,0"
     style="fill:url(#linearGradient3461);fill-rule:nonzero;stroke:none" />
  <path
     inkscape:connector-curvature="0"
     id="path3410"
     d="m 27.289062,13.257812 c -2.347656,0.875 -3.832031,3.128907 -3.664062,5.59375 l 0.05469,0.953126 -0.9375,-0.117188 c -3.417969,-0.445312 -6.40625,-1.960938 -8.941407,-4.503906 l -1.242187,-1.265625 -0.316406,0.933593 c -0.679688,2.078126 -0.246094,4.273438 1.164062,5.75 0.75,0.8125 0.582031,0.929688 -0.714844,0.445313 -0.449218,-0.15625 -0.847656,-0.273437 -0.882812,-0.214844 -0.132813,0.136719 0.316406,1.90625 0.675781,2.601563 0.488281,0.972656 1.484375,1.925781 2.574219,2.488281 l 0.917968,0.445313 -1.085937,0.01953 c -1.054687,0 -1.089844,0.01953 -0.980469,0.425781 0.378906,1.265625 1.863282,2.605469 3.523438,3.1875 l 1.164062,0.410156 -1.023437,0.617188 c -1.5,0.894531 -3.265625,1.398437 -5.027344,1.4375 -0.847656,0.01953 -1.542969,0.09766 -1.542969,0.15625 0,0.195312 2.292969,1.28125 3.625,1.707031 4,1.265625 8.753906,0.71875 12.324219,-1.433594 2.535156,-1.535156 5.074219,-4.585937 6.257813,-7.535156 0.636718,-1.574219 1.277343,-4.449219 1.277343,-5.828125 0,-0.890625 0.05469,-1.007812 1.109375,-2.078125 0.617188,-0.621094 1.199219,-1.300781 1.3125,-1.492187 0.1875,-0.371094 0.167969,-0.371094 -0.789062,-0.03906 -1.597656,0.578125 -1.824219,0.503906 -1.03125,-0.371094 0.582031,-0.621093 1.273437,-1.746093 1.273437,-2.078125 0,-0.05859 -0.28125,0.03906 -0.597656,0.214844 -0.339844,0.191406 -1.089844,0.484375 -1.652344,0.660156 l -1.015625,0.328125 -0.921875,-0.640625 C 31.652346,13.687502 30.945314,13.296877 30.570314,13.17969 29.613283,12.910158 28.14844,12.949221 27.285158,13.25781 m 0,0"
     style="fill:#000000;fill-opacity:0.10196102;fill-rule:nonzero;stroke:none" />
  <path
     inkscape:connector-curvature="0"
     id="path3412"
     d="m 27.289062,12.257812 c -2.347656,0.875 -3.832031,3.128907 -3.664062,5.59375 l 0.05469,0.953126 -0.9375,-0.117188 c -3.417969,-0.445312 -6.40625,-1.960938 -8.941407,-4.503906 l -1.242187,-1.265625 -0.316406,0.933593 c -0.679688,2.078126 -0.246094,4.273438 1.164062,5.75 0.75,0.8125 0.582031,0.929688 -0.714844,0.445313 -0.449218,-0.15625 -0.847656,-0.273437 -0.882812,-0.214844 -0.132813,0.136719 0.316406,1.90625 0.675781,2.601563 0.488281,0.972656 1.484375,1.925781 2.574219,2.488281 l 0.917968,0.445313 -1.085937,0.01953 c -1.054687,0 -1.089844,0.01953 -0.980469,0.425781 0.378906,1.265625 1.863282,2.605469 3.523438,3.1875 l 1.164062,0.410156 -1.023437,0.617188 c -1.5,0.894531 -3.265625,1.398437 -5.027344,1.4375 -0.847656,0.01953 -1.542969,0.09766 -1.542969,0.15625 0,0.195312 2.292969,1.28125 3.625,1.707031 4,1.265625 8.753906,0.71875 12.324219,-1.433594 2.535156,-1.535156 5.074219,-4.585937 6.257813,-7.535156 0.636718,-1.574219 1.277343,-4.449219 1.277343,-5.828125 0,-0.890625 0.05469,-1.007812 1.109375,-2.078125 0.617188,-0.621094 1.199219,-1.300781 1.3125,-1.492187 0.1875,-0.371094 0.167969,-0.371094 -0.789062,-0.03906 -1.597656,0.578125 -1.824219,0.503906 -1.03125,-0.371094 0.582031,-0.621093 1.273437,-1.746093 1.273437,-2.078125 0,-0.05859 -0.28125,0.03906 -0.597656,0.214844 -0.339844,0.191406 -1.089844,0.484375 -1.652344,0.660156 l -1.015625,0.328125 -0.921875,-0.640625 C 31.652346,12.687502 30.945314,12.296877 30.570314,12.17969 29.613283,11.910158 28.14844,11.949221 27.285158,12.25781 m 0,0"
     style="fill:#f8f8f8;fill-opacity:1;fill-rule:nonzero;stroke:none" />
  <path
     inkscape:connector-curvature="0"
     id="path3414"
     d="m 1,38.996094 0,4 c 0,2.21875 1.785156,4 4,4 l 38,0 c 2.214844,0 4,-1.78125 4,-4 l 0,-4 c 0,2.21875 -1.785156,4 -4,4 l -38,0 c -2.214844,0 -4,-1.78125 -4,-4 z m 0,0"
     style="fill:#000000;fill-opacity:0.10196102;fill-rule:nonzero;stroke:none" />
</svg>
