<?xml version="1.0" encoding="UTF-8"?>
<svg version="1.1" viewBox="0 0 48 48" xmlns="http://www.w3.org/2000/svg" xmlns:xlink="http://www.w3.org/1999/xlink">
 <defs>
  <linearGradient id="a" x1="1" x2="47" gradientTransform="translate(-48 .0022147)" gradientUnits="userSpaceOnUse">
   <stop stop-color="#333" offset="0"/>
   <stop stop-color="#3d3d3d" offset="1"/>
  </linearGradient>
 </defs>
 <path d="m1 43v0.25c0 2.216 1.784 4 4 4h38c2.216 0 4-1.784 4-4v-0.25c0 2.216-1.784 4-4 4h-38c-2.216 0-4-1.784-4-4zm0 0.5v0.5c0 2.216 1.784 4 4 4h38c2.216 0 4-1.784 4-4v-0.5c0 2.216-1.784 4-4 4h-38c-2.216 0-4-1.784-4-4z" opacity=".02"/>
 <path d="m1 43.25v0.25c0 2.216 1.784 4 4 4h38c2.216 0 4-1.784 4-4v-0.25c0 2.216-1.784 4-4 4h-38c-2.216 0-4-1.784-4-4z" opacity=".05"/>
 <path d="m1 43v0.25c0 2.216 1.784 4 4 4h38c2.216 0 4-1.784 4-4v-0.25c0 2.216-1.784 4-4 4h-38c-2.216 0-4-1.784-4-4z" opacity=".1"/>
 <rect transform="rotate(-90)" x="-47" y="1" width="46" height="46" rx="4" fill="url(#a)"/>
 <g opacity=".1">
  <path d="m12.996 17h22c0.555 0 1 0.449 1 1v17c0 0.551-0.445 1-1 1h-22c-0.551 0-1-0.449-1-1v-17c0-0.551 0.449-1 1-1"/>
  <path d="m11.996 20.996h24v1h-24"/>
  <path d="m13.5 34c-0.277 0-0.5 0.223-0.5 0.5s0.223 0.5 0.5 0.5h21c0.277 0 0.5-0.223 0.5-0.5s-0.223-0.5-0.5-0.5"/>
  <path d="m13.332 32c-0.273 0-0.5 0.223-0.5 0.5 0 0.273 0.227 0.5 0.5 0.5h21c0.277 0 0.5-0.227 0.5-0.5 0-0.277-0.223-0.5-0.5-0.5"/>
  <path d="m23 20h2c0.551 0 1 0.445 1 1v4c0 0.551-0.449 1-1 1h-2c-0.555 0-1-0.449-1-1v-4c0-0.555 0.445-1 1-1"/>
  <path d="m24 21c0.551 0 1 0.445 1 1v2c0 0.551-0.449 1-1 1-0.555 0-1-0.449-1-1v-2c0-0.555 0.445-1 1-1"/>
  <path d="m18 11.996c-0.555 0-1 0.449-1 1v4h2v-1.996c0-0.555 0.445-1 1-1h8c0.551 0 1 0.445 1 1v1.996h1.996v-4c0-0.551-0.445-1-1-1"/>
 </g>
 <path d="m12.996 16h22c0.555 0 1 0.449 1 1v17c0 0.551-0.445 1-1 1h-22c-0.551 0-1-0.449-1-1v-17c0-0.551 0.449-1 1-1" fill="#de3c28"/>
 <g fill="#333">
  <path d="m11.996 19.996h24v1h-24"/>
  <path d="m13.5 33c-0.277 0-0.5 0.223-0.5 0.5s0.223 0.5 0.5 0.5h21c0.277 0 0.5-0.223 0.5-0.5s-0.223-0.5-0.5-0.5"/>
  <path d="m13.5 31.009c-0.273 0-0.5 0.223-0.5 0.5 0 0.273 0.227 0.5 0.5 0.5h21c0.277 0 0.5-0.227 0.5-0.5 0-0.277-0.223-0.5-0.5-0.5"/>
 </g>
 <g>
  <path d="m23 19h2c0.551 0 1 0.445 1 1v4c0 0.551-0.449 1-1 1h-2c-0.555 0-1-0.449-1-1v-4c0-0.555 0.445-1 1-1" fill="#b2b2b2"/>
  <path d="m24 20c0.551 0 1 0.445 1 1v2c0 0.551-0.449 1-1 1-0.555 0-1-0.449-1-1v-2c0-0.555 0.445-1 1-1" fill="#333"/>
  <path d="m18 10.996c-0.555 0-1 0.449-1 1v4h2v-1.996c0-0.555 0.445-1 1-1h8c0.551 0 1 0.445 1 1v1.996h1.996v-4c0-0.551-0.445-1-1-1" fill="#b2b2b2"/>
 </g>
 <path d="m1 38.998v4c0 2.216 1.784 4 4 4h38c2.216 0 4-1.784 4-4v-4c0 2.216-1.784 4-4 4h-38c-2.216 0-4-1.784-4-4z" opacity=".1"/>
</svg>
