<?xml version="1.0" encoding="UTF-8" standalone="no"?>
<svg
   xmlns:dc="http://purl.org/dc/elements/1.1/"
   xmlns:cc="http://creativecommons.org/ns#"
   xmlns:rdf="http://www.w3.org/1999/02/22-rdf-syntax-ns#"
   xmlns:svg="http://www.w3.org/2000/svg"
   xmlns="http://www.w3.org/2000/svg"
   xmlns:xlink="http://www.w3.org/1999/xlink"
   xmlns:sodipodi="http://sodipodi.sourceforge.net/DTD/sodipodi-0.dtd"
   xmlns:inkscape="http://www.inkscape.org/namespaces/inkscape"
   viewBox="0 0 48 48"
   id="svg2"
   version="1.1"
   inkscape:version="0.48.5 r10040"
   width="100%"
   height="100%"
   sodipodi:docname="work.svg">
  <metadata
     id="metadata85">
    <rdf:RDF>
      <cc:Work
         rdf:about="">
        <dc:format>image/svg+xml</dc:format>
        <dc:type
           rdf:resource="http://purl.org/dc/dcmitype/StillImage" />
      </cc:Work>
    </rdf:RDF>
  </metadata>
  <sodipodi:namedview
     pagecolor="#ffffff"
     bordercolor="#666666"
     borderopacity="1"
     objecttolerance="10"
     gridtolerance="10"
     guidetolerance="10"
     inkscape:pageopacity="0"
     inkscape:pageshadow="2"
     inkscape:window-width="1280"
     inkscape:window-height="970"
     id="namedview83"
     showgrid="true"
     inkscape:zoom="4.9166667"
     inkscape:cx="21.879266"
     inkscape:cy="24.808603"
     inkscape:window-x="0"
     inkscape:window-y="0"
     inkscape:window-maximized="1"
     inkscape:current-layer="svg2">
    <inkscape:grid
       type="xygrid"
       id="grid3125" />
  </sodipodi:namedview>
  <defs
     id="defs4">
    <linearGradient
       id="linearGradient3764"
       x1="1"
       x2="47"
       gradientUnits="userSpaceOnUse"
       gradientTransform="translate(-48.000001,0.00221467)">
      <stop
         stop-color="#333"
         stop-opacity="1"
         id="stop7" />
      <stop
         offset="1"
         stop-color="#3d3d3d"
         stop-opacity="1"
         id="stop9" />
    </linearGradient>
    <clipPath
       id="clipPath-140105430">
      <g
         transform="translate(0,-1004.3622)"
         id="g12">
        <rect
           rx="4"
           y="1005.36"
           x="1"
           height="46"
           width="46"
           fill="#1890d0"
           id="rect14" />
      </g>
    </clipPath>
    <clipPath
       id="clipPath-153295453">
      <g
         transform="translate(0,-1004.3622)"
         id="g17">
        <rect
           rx="4"
           y="1005.36"
           x="1"
           height="46"
           width="46"
           fill="#1890d0"
           id="rect19" />
      </g>
    </clipPath>
    <linearGradient
       inkscape:collect="always"
       xlink:href="#linearGradient3764"
       id="linearGradient3066"
       gradientUnits="userSpaceOnUse"
       gradientTransform="translate(-48.000001,0.00221467)"
       x1="1"
       x2="47" />
  </defs>
  <path
     style="opacity:0.02000002"
     inkscape:connector-curvature="0"
     id="path23"
     d="m 1,43 0,0.25 c 0,2.216 1.784,4 4,4 l 38,0 c 2.216,0 4,-1.784 4,-4 L 47,43 c 0,2.216 -1.784,4 -4,4 L 5,47 C 2.784,47 1,45.216 1,43 z m 0,0.5 0,0.5 c 0,2.216 1.784,4 4,4 l 38,0 c 2.216,0 4,-1.784 4,-4 l 0,-0.5 c 0,2.216 -1.784,4 -4,4 l -38,0 c -2.216,0 -4,-1.784 -4,-4 z" />
  <path
     style="opacity:0.05"
     inkscape:connector-curvature="0"
     id="path25"
     d="m 1,43.25 0,0.25 c 0,2.216 1.784,4 4,4 l 38,0 c 2.216,0 4,-1.784 4,-4 l 0,-0.25 c 0,2.216 -1.784,4 -4,4 l -38,0 c -2.216,0 -4,-1.784 -4,-4 z" />
  <path
     style="opacity:0.1"
     inkscape:connector-curvature="0"
     id="path27"
     d="m 1,43 0,0.25 c 0,2.216 1.784,4 4,4 l 38,0 c 2.216,0 4,-1.784 4,-4 L 47,43 c 0,2.216 -1.784,4 -4,4 L 5,47 C 2.784,47 1,45.216 1,43 z" />
  <rect
     style="fill:url(#linearGradient3066);fill-opacity:1"
     id="rect31"
     transform="matrix(0,-1,1,0,0,0)"
     rx="4"
     y="1"
     x="-47"
     height="46"
     width="46" />
  <g
     style="opacity:0.1"
     id="g39">
    <path
       style="fill:#000000;fill-opacity:1;fill-rule:nonzero;stroke:none"
       inkscape:connector-curvature="0"
       id="path41"
       d="m 12.996,17 22,0 c 0.555,0 1,0.449 1,1 l 0,17 c 0,0.551 -0.445,1 -1,1 l -22,0 c -0.551,0 -1,-0.449 -1,-1 l 0,-17 c 0,-0.551 0.449,-1 1,-1 m 0,0" />
    <path
       style="fill:#000000;fill-opacity:1;fill-rule:nonzero;stroke:none"
       inkscape:connector-curvature="0"
       id="path43"
       d="m 11.996,20.996 24,0 0,1 -24,0 m 0,-1" />
    <path
       style="fill:#000000;fill-opacity:1;fill-rule:nonzero;stroke:none"
       inkscape:connector-curvature="0"
       id="path45"
       d="m 13.5,34 c -0.277,0 -0.5,0.223 -0.5,0.5 0,0.277 0.223,0.5 0.5,0.5 l 21,0 C 34.777,35 35,34.777 35,34.5 35,34.223 34.777,34 34.5,34 m -21,0" />
    <path
       style="fill:#000000;fill-opacity:1;fill-rule:nonzero;stroke:none"
       inkscape:connector-curvature="0"
       id="path47"
       d="m 13.332,32 c -0.273,0 -0.5,0.223 -0.5,0.5 0,0.273 0.227,0.5 0.5,0.5 l 21,0 c 0.277,0 0.5,-0.227 0.5,-0.5 0,-0.277 -0.223,-0.5 -0.5,-0.5 m -21,0" />
    <path
       style="fill:#000000;fill-opacity:1;fill-rule:nonzero;stroke:none"
       inkscape:connector-curvature="0"
       id="path49"
       d="m 23,20 2,0 c 0.551,0 1,0.445 1,1 l 0,4 c 0,0.551 -0.449,1 -1,1 l -2,0 c -0.555,0 -1,-0.449 -1,-1 l 0,-4 c 0,-0.555 0.445,-1 1,-1 m 0,0" />
    <path
       style="fill:#000000;fill-opacity:1;fill-rule:nonzero;stroke:none"
       inkscape:connector-curvature="0"
       id="path51"
       d="m 24,21 c 0.551,0 1,0.445 1,1 l 0,2 c 0,0.551 -0.449,1 -1,1 -0.555,0 -1,-0.449 -1,-1 l 0,-2 c 0,-0.555 0.445,-1 1,-1 m 0,0" />
    <path
       style="fill:#000000;fill-opacity:1;fill-rule:nonzero;stroke:none"
       inkscape:connector-curvature="0"
       id="path53"
       d="m 18,11.996 c -0.555,0 -1,0.449 -1,1 l 0,4 2,0 L 19,15 c 0,-0.555 0.445,-1 1,-1 l 8,0 c 0.551,0 1,0.445 1,1 l 0,1.996 1.996,0 0,-4 c 0,-0.551 -0.445,-1 -1,-1 m -11.996,0" />
  </g>
  <path
     d="m 12.996,16 22,0 c 0.555,0 1,0.449 1,1 l 0,17 c 0,0.551 -0.445,1 -1,1 l -22,0 c -0.551,0 -1,-0.449 -1,-1 l 0,-17 c 0,-0.551 0.449,-1 1,-1 m 0,0"
     id="path63"
     inkscape:connector-curvature="0"
     style="fill:#de3c28;fill-opacity:1;fill-rule:nonzero;stroke:none" />
  <path
     d="m 11.996,19.996 24,0 0,1 -24,0 m 0,-1"
     id="path65"
     inkscape:connector-curvature="0"
     style="fill:#333333;fill-opacity:1;fill-rule:nonzero;stroke:none" />
  <path
     d="m 13.5,33 c -0.277,0 -0.5,0.223 -0.5,0.5 0,0.277 0.223,0.5 0.5,0.5 l 21,0 C 34.777,34 35,33.777 35,33.5 35,33.223 34.777,33 34.5,33 m -21,0"
     id="path67"
     inkscape:connector-curvature="0"
     style="fill:#333333;fill-opacity:1;fill-rule:nonzero;stroke:none" />
  <path
     d="m 13.5,31.008989 c -0.273,0 -0.5,0.223 -0.5,0.5 0,0.273 0.227,0.5 0.5,0.5 l 21,0 c 0.277,0 0.5,-0.227 0.5,-0.5 0,-0.277 -0.223,-0.5 -0.5,-0.5 m -21,0"
     id="path69"
     inkscape:connector-curvature="0"
     style="fill:#333333;fill-opacity:1;fill-rule:nonzero;stroke:none" />
  <path
     d="m 23,19 2,0 c 0.551,0 1,0.445 1,1 l 0,4 c 0,0.551 -0.449,1 -1,1 l -2,0 c -0.555,0 -1,-0.449 -1,-1 l 0,-4 c 0,-0.555 0.445,-1 1,-1 m 0,0"
     id="path71"
     inkscape:connector-curvature="0"
     style="fill:#b2b2b2;fill-opacity:1;fill-rule:nonzero;stroke:none" />
  <path
     d="m 24,20 c 0.551,0 1,0.445 1,1 l 0,2 c 0,0.551 -0.449,1 -1,1 -0.555,0 -1,-0.449 -1,-1 l 0,-2 c 0,-0.555 0.445,-1 1,-1 m 0,0"
     id="path73"
     inkscape:connector-curvature="0"
     style="fill:#333333;fill-opacity:1;fill-rule:nonzero;stroke:none" />
  <path
     d="m 18,10.996 c -0.555,0 -1,0.449 -1,1 l 0,4 2,0 L 19,14 c 0,-0.555 0.445,-1 1,-1 l 8,0 c 0.551,0 1,0.445 1,1 l 0,1.996 1.996,0 0,-4 c 0,-0.551 -0.445,-1 -1,-1 m -11.996,0"
     id="path75"
     inkscape:connector-curvature="0"
     style="fill:#b2b2b2;fill-opacity:1;fill-rule:nonzero;stroke:none" />
  <path
     d="m 1,38.9978 0,4 c 0,2.216 1.784,4 4,4 l 38,0 c 2.216,0 4,-1.784 4,-4 l 0,-4 c 0,2.216 -1.784,4 -4,4 l -38,0 c -2.216,0 -4,-1.784 -4,-4 z"
     id="path81"
     inkscape:connector-curvature="0"
     style="opacity:0.1" />
</svg>
