<?xml version="1.0" encoding="UTF-8"?>
<svg width="48px" height="48px" version="1.1" viewBox="0 0 48 48" xmlns="http://www.w3.org/2000/svg" xmlns:xlink="http://www.w3.org/1999/xlink">
 <defs>
  <linearGradient id="a" x1="1" x2="47" gradientTransform="matrix(0 -1 1 0 .0022147 48)" gradientUnits="userSpaceOnUse">
   <stop stop-color="#1e94c9" offset="0"/>
   <stop stop-color="#209fdb" offset="1"/>
  </linearGradient>
 </defs>
 <g>
  <path d="m1 43v0.25c0 2.2148 1.7852 4 4 4h38c2.2148 0 4-1.7852 4-4v-0.25c0 2.2148-1.7852 4-4 4h-38c-2.2148 0-4-1.7852-4-4zm0 0.5v0.5c0 2.2148 1.7852 4 4 4h38c2.2148 0 4-1.7852 4-4v-0.5c0 2.2148-1.7852 4-4 4h-38c-2.2148 0-4-1.7852-4-4z" fill-opacity=".019608"/>
  <path d="m1 43.25v0.25c0 2.2148 1.7852 4 4 4h38c2.2148 0 4-1.7852 4-4v-0.25c0 2.2148-1.7852 4-4 4h-38c-2.2148 0-4-1.7852-4-4z" fill-opacity=".05098"/>
  <path d="m1 43v0.25c0 2.2148 1.7852 4 4 4h38c2.2148 0 4-1.7852 4-4v-0.25c0 2.2148-1.7852 4-4 4h-38c-2.2148 0-4-1.7852-4-4z" fill-opacity=".10196"/>
 </g>
 <g>
  <path d="m1 43v-38c0-2.2109 1.7891-4 4-4h38c2.2109 0 4 1.7891 4 4v38c0 2.2109-1.7891 4-4 4h-38c-2.2109 0-4-1.7891-4-4z" fill="url(#a)"/>
  <path d="m16 1.9062-0.84375 0.25-0.96875 0.0625-0.59375 0.4375-0.78125-0.03125 0.0625 0.5 1.125-0.03125 0.40625 1.0938 0.15625 0.59375-0.625 0.34375-0.25 0.46875 0.1875 1.0625 0.75 0.125 0.71875-0.6875 0.625-0.65625 0.96875-0.25 1.2188-0.59375 0.71875-0.875 1.0312-1.25 0.71875-0.1875-0.03125-0.28125h-1.125zm-2.2188 0.0625-0.8125 0.03125-1.4062 0.375-0.8125 0.25-0.9375-0.375-0.125 0.5625 1.125 0.65625s2.043-1.125 2.1562-1.125zm21.062 0.21875-0.1875 0.3125 1.1562 0.15625 0.0625-0.28125zm-8.875 0.1875c-0.054688 0.019531-1.5312 0.03125-1.5312 0.03125l-0.375 0.09375 0.5 0.59375 0.53125-0.5 0.34375 0.21875 0.5-0.25s0.08984-0.21094 0.03125-0.1875zm5.625 0.46875-0.46875 0.0625-0.40625 0.25-0.46875 0.34375-0.28125 0.5 0.4375 0.4375 0.375 0.03125 0.15625-0.25-0.375-0.3125 0.21875-0.1875 0.03125-0.15625 0.46875-0.3125s0.61328 0.00781 0.65625 0c0.04687-0.011719 0.1875-0.1875 0.1875-0.1875l-0.15625-0.21875zm-25.875 0.1875-0.09375 0.3125 0.46875 0.15625 0.53125-0.25zm31.875 0.0625-0.09375 0.03125-2.125 0.09375-0.5625 0.375-0.625 0.375-0.53125 0.4375 0.0625 0.1875-0.28125 0.03125-2.25 0.375 2.3125-0.40625v-0.15625l-0.34375-0.4375-0.625-0.0625s0.125 0.66406 0.125 0.75c0 0.082031-0.4375 0.03125-0.4375 0.03125l-0.75 0.03125s-1.0781 0.25-1.2188 0.25c-0.13281 0-0.76172 0.27344-0.8125 0.28125l-0.03125 0.03125h-0.0625l-0.09375 0.0625-1.0312 0.5625-0.3125-0.21875-0.15625-0.25 0.0625-0.25 0.6875 0.03125 0.3125-0.125-0.625-0.3125-0.875-0.3125-0.875-0.15625-0.9375 0.1875-0.96875 0.78125-0.4375 0.4375-0.65625 0.71875-0.25 0.03125-0.09375 0.34375 0.125 0.34375s0.14062 0.15625 0.15625 0.15625c0.02344 0 0.25-0.125 0.25-0.125s0.02734-0.11719 0.15625-0.15625c0.13281-0.039062 0.25-0.0625 0.25-0.0625l0.1875 0.375 0.21875 0.3125 0.09375 0.25s0.35938-0.22266 0.375-0.25c0.01563-0.03125 0.03125-0.40625 0.03125-0.40625l0.28125-0.1875s0.07031-0.13281 0.0625-0.15625c-0.01172-0.023438-0.1875-0.21875-0.1875-0.21875l-0.15625-0.0625 0.0625-0.3125s0.125-0.085938 0.125-0.125c0-0.035156 0.1875-0.1875 0.1875-0.1875l0.25-0.25 0.125-0.21875 0.25-0.125 0.25 0.1875v0.125l-0.25 0.25-0.0625 0.25v0.34375l0.1875 0.15625 0.375-0.03125 0.3125-0.0625 0.25 0.15625-0.0625 0.21875s-0.17188 0.1875-0.25 0.21875c-0.05859 0.027344-0.41016-0.066406-0.5-0.03125-0.10156 0.03125-0.3125 0.3125-0.3125 0.3125s-0.02344 0.25 0 0.3125c0.0078 0.023438-0.01563 0.066406-0.03125 0.125l-0.0625 0.03125-0.375 0.28125h-0.03125l-0.25-0.09375s-0.15234 0.00391-0.21875 0.0625c-0.0625 0.050781-0.12109 0.10547-0.3125 0.125s-0.5625 0-0.59375 0h-0.21875l0.03125-0.21875 0.15625-0.25-0.28125-0.21875s-0.1875 0.23047-0.1875 0.28125c-0.0078 0.054688 0.125 0.28125 0.125 0.28125s-0.0625 0.17969-0.09375 0.21875-0.34375 0.125-0.34375 0.125l-0.40625-0.21875s-0.17969-0.039062-0.15625 0.0625c0.02344 0.10156 0.21875 0.19531 0.21875 0.28125 0 0.082031-0.125 0.28125-0.125 0.28125l-0.15625 0.1875-0.25 0.25-0.34375 0.09375s-0.24219 0.070312-0.3125 0.09375c-0.0625 0.023438-0.25 0.0625-0.25 0.0625l-0.28125 0.03125-0.125 0.21875 0.25 0.1875 0.1875 0.3125s0.125 0.21875 0.15625 0.21875 0.09375 0.21875 0.09375 0.21875l-0.1875 0.25h-0.09375l-0.65625 0.125-0.125-0.28125-0.4375 0.4375-0.1875 0.71875v0.59375l0.75 0.40625 0.625-0.21875 0.59375-1.0625 0.53125-0.65625 0.96875-0.15625 0.21875-0.1875 1.0938 1.2812 0.125 0.4375 0.3125-0.15625-0.09375-0.375h0.1875l-0.125-0.25-1.0625-1 0.09375-0.1875 0.34375-0.03125 0.75 0.75 0.375 0.4375v0.6875l0.1875 0.125 0.375 0.375 0.28125-0.09375-0.15625-0.5625 0.09375-0.34375 0.1875-0.21875 0.4375 0.15625 0.15625 0.0625-0.03125-0.5 0.25-0.46875 0.15625-0.6875 0.5625 0.09375 0.09375 0.3125 0.21875 0.15625 0.25-0.21875-0.15625-0.34375h0.65625l-0.21875 0.375 0.4375 0.375 0.375 0.1875 0.21875 0.4375-0.5 0.125-0.71875-0.15625h-0.625l-0.59375 0.3125-0.125 0.21875-0.4375 0.09375 0.1875 0.46875 0.34375 0.40625 0.625-0.21875 0.15625 0.25 0.28125-0.21875 0.375 0.0625 0.03125 0.40625-0.125 0.78125-0.34375-0.03125-0.40625-0.0625-0.1875 0.46875-1.375-0.25-0.25-0.3125-0.3125 0.28125-0.34375 0.46875-0.875-0.5-0.875-0.53125v-0.9375l-0.5625 0.03125-0.03125 0.3125-1.375-0.0625-0.4375 0.40625-0.84375 0.03125-0.5625 0.5-0.34375 0.96875-0.875 0.6875-0.625 0.84375-0.03125 1.625-0.1875 0.5-0.0625 0.59375 0.375 0.65625 0.21875 0.625 0.75 0.90625 0.4375 0.375 0.4375 0.09375 0.09375-0.375h1.5625l0.40625-0.1875 0.5 0.0625 0.15625 0.3125 0.53125 0.03125 0.34375 0.25v0.53125l-0.125 0.4375-0.125 0.34375 0.3125 0.5625 0.40625 0.46875 0.1875 1.1875 0.03125 0.78125-0.28125 0.65625-0.03125 0.625 0.21875 1.1562 0.1875 0.1875 0.28125 1.0938 0.03125 0.46875 0.5625 0.75 0.0625 0.59375 0.09375 0.6875 0.34375-0.34375 0.875-0.09375h0.53125l0.96875-1.5 0.0625-0.59375 0.65625-0.65625 0.03125-0.75 0.34375-0.75 0.8125-0.78125v-0.875l-0.1875-0.8125-0.125-1.125 0.59375-0.9375 1.0625-1.3125 0.40625-0.40625 0.15625-0.53125 0.25-0.46875 0.0625-0.6875h-0.59375l-0.28125 0.28125-0.5625-0.15625-0.34375-0.5625-0.28125-0.5625-0.65625-0.5-0.15625-0.8125-0.28125-0.46875-0.3125-0.59375-0.40625-0.71875-0.09375-0.46875 0.4375-0.09375 0.25 0.53125 0.5 0.9375 0.375 0.71875 0.40625 0.75 0.4375 0.71875 0.59375 0.59375 0.53125-0.5 0.625-0.15625 0.4375-0.53125 0.59375-0.34375 0.34375-0.59375 0.03125-0.5-0.28125-0.3125-0.375-0.4375-0.25 0.15625-0.15625 0.25-0.40625-0.1875-0.125-0.3125-0.28125-0.40625-0.4375-0.40625v-0.8125l0.28125 0.53125 0.34375 0.53125 0.59375 0.34375 0.40625-0.09375 0.25 0.28125 1.7812-0.03125-0.03125 0.03125 0.5625 0.5 0.40625 0.5625 0.125 0.28125h0.28125l0.09375-0.3125 0.09375 0.46875 0.15625 0.84375 0.34375 0.8125 0.1875 0.6875 0.28125 0.65625 0.21875 0.25 0.3125-0.1875 0.09375-0.3125 0.125-0.75-0.03125-0.6875 0.25-0.34375s0.26953-0.35547 0.3125-0.375c0.05078-0.01172 0.625-0.625 0.625-0.625l0.28125-0.375 0.3125-0.1875 0.375-0.21875h0.15625l0.0625 0.34375 0.15625 0.40625 0.5 0.65625v0.25l0.09375 0.28125 0.34375-0.15625-0.03125-0.375 0.34375 0.0625 0.0625 0.34375-0.03125 0.53125 0.09375 0.375 0.28125 0.0625 0.09375-0.3125 0.34375 0.21875 0.0625 0.3125 0.3125 0.46875 0.3125 0.34375 0.21875 0.1875 0.53125-0.46875 0.21875-0.4375-0.09375-0.5-0.09375-0.65625-0.59375-0.5625-0.09375-0.5625 0.25-0.40625s0.14844-0.28906 0.3125-0.125c0.14453 0.16797 0.23047 0.1875 0.15625 0.375-0.0625 0.18359-0.1875 0.59375-0.1875 0.59375l0.375 0.15625 0.15625-0.53125-0.15625-0.375 0.375-0.15625 0.6875-0.34375 0.4375-0.53125 0.34375-0.8125v-0.625l-0.375-0.75-0.6875-0.8125-0.4375-0.40625-0.21875-0.625 0.40625-0.09375s0.23047-0.39453 0.4375-0.1875c0.20312 0.21875 0.5 0.5 0.5 0.5s0.35547 0.56641 0.40625 0.625c0.01563 0.01953 0.09375 0.09766 0.15625 0.15625v-4.7812c-0.19141-0.085938-0.6875-0.4375-0.6875-0.4375l0.0625-0.5 0.25-0.4375 0.375-0.03125v-1.8438l-0.625-0.8125-1.6562-0.1875-1.2812-0.3125s-0.38672 0.29688-0.59375 0.3125c-0.20312 0.023438-0.90625 0.125-0.90625 0.125l-0.71875-0.4375-1.5-0.125-0.0625-0.03125-1.2812-0.0625zm-33.219 0.375-0.5 0.5625 0.4375 0.21875 0.5625-0.25 0.03125 0.625 0.46875 0.3125 0.5-0.46875 0.6875 0.125 0.28125-0.65625-1.125-0.09375zm3.125 0.09375 0.4375 1.0938-0.53125 0.0625-0.40625 0.5-0.90625-0.28125-0.8125 0.34375-0.78125-0.21875-0.90625-0.5625-1.25 0.03125-1.0938 0.46875-0.25-0.125v0.125 12.25c0.042969-0.17578 0.1875-0.40625 0.1875-0.40625l-0.0625-1.2812 0.71875-0.5 0.5625-0.1875h0.8125l1.125-0.25 0.40625 0.53125-0.0625 0.625 0.46875 0.40625 0.0625-0.4375s-0.023438-0.71875-0.09375-0.90625c-0.066406-0.1875 0.5625-0.625 0.5625-0.625l0.5-0.625 0.59375-0.71875 0.28125-0.5625 0.9375-0.5 0.625-0.6875s0.9375-0.14062 1.125-0.25c0.1875-0.08984 0.0625-0.43359-0.125-0.75-0.19141-0.3125 0.09375-0.625 0.09375-0.625l0.71875-0.4375 0.625 0.125 0.0625 0.75s0.59766 0.56641 0.78125 0.46875c0.19141-0.089844 0.28125-0.40625 0.28125-0.40625l-0.3125-0.8125 0.1875-0.8125-0.84375 0.125v-1.375l-0.25 0.25-0.65625 0.03125-0.09375-0.6875-0.4375-0.53125s-0.42969 0.26172-0.84375 0.40625c-0.41016 0.15625-0.34375 0.46875-0.34375 0.46875v0.84375l-0.6875 0.5625-0.4375 0.65625s-0.28125-0.1875-0.28125-0.3125-0.0625-0.5-0.0625-0.5l-0.71875-0.5625s-0.5625-0.40625-0.59375-0.53125 0.34375-0.6875 0.34375-0.6875 0.81641-0.5 1-0.65625c0.19141-0.15625 1.2188 0.37109 1.3438 0.28125 0.12891-0.09375 0.625-0.875 0.625-0.875l0.4375-0.625-0.4375 0.5-0.75-0.71875 0.125-0.71875zm2.4688 0.0625-0.25 0.59375 0.15625 0.34375 0.5625-0.0625 0.25 0.46875-0.5 0.53125-0.5625 0.0625 0.5 0.25 0.53125 0.46875 0.53125 0.125 0.1875-0.71875 0.03125-0.46875 0.625 0.09375s-0.21094 0.34375-0.125 0.34375c0.10156 0 0.5-0.40625 0.5-0.40625l-1.0625-1.125s-0.46875-0.35156-0.59375-0.25c-0.13281 0.089844-0.46875 0.0625-0.46875 0.0625zm8.6562 1.7812-0.125 0.40625c0.4375 0.34766 0.625 0.34375 0.625 0.34375l0.53125-0.125 0.34375-0.34375-0.21875-0.28125zm2.7812 1.7812-0.25 0.21875c-0.0625 0.30469-0.15625 0.625-0.15625 0.625l0.46875 0.21875 0.0625 0.28125-0.25 0.25-0.21875 0.375 0.15625 0.15625 0.5625-0.09375 0.5-0.25-0.28125-0.375-0.09375-0.625-0.34375-0.375zm-0.8125 1.1562-0.25 0.46875 0.375 0.15625 0.125-0.28125zm-15.438 1.125 0.65625 0.25 0.4375 0.59375 0.28125 0.40625s-0.24609 0.84375-0.3125 1-0.28125-0.3125-0.28125-0.3125l-0.15625-0.8125-0.5 0.25-0.40625 0.96875 0.09375-0.84375 0.125-0.5625-0.65625-0.25 0.5625-0.53125zm26.375 0.75c0.13281-0.0625 0.375 0.15625 0.375 0.15625l-0.25 0.21875 0.09375 0.3125 0.28125 0.75 0.65625 1.0938-0.40625 0.1875-0.53125-0.34375-0.21875-0.65625s-0.3125-0.39844-0.4375-0.46875c-0.13281-0.0625-0.25-0.28125-0.25-0.28125l0.125-0.53125s0.4375-0.35547 0.5625-0.40625zm-7.875 1.2188-0.375 0.71875 0.28125 0.28125 0.25-0.21875 0.03125-0.3125zm-1.25 0.75v0.1875l0.15625-0.03125zm2.1562 0.46875-0.21875 0.0625 0.34375 0.53125 0.25-0.21875zm-20.156 4.1562 0.03125 0.03125-0.34375 0.15625 0.53125 0.28125 0.59375 0.09375 0.375 0.46875 0.375-0.25-0.0625-0.28125-0.6875-0.5zm-0.9375 0.40625-0.5625 0.09375-0.84375 0.84375-0.6875-0.09375s-0.31641-0.53125-0.375-0.65625v1.2812l0.4375-0.0625 0.71875 0.34375 1.0938 0.625 0.15625 0.71875 0.875 0.84375 0.5-0.375 0.40625 0.3125-0.0625-0.71875-0.78125 0.1875-0.25-0.90625-0.09375-0.40625-0.6875-0.625v-0.4375l0.53125-0.5625zm1.7188 3.875v0.15625l-0.1875 1-0.5625 0.75 0.03125 1.125 0.46875 1.1562 0.5 1.4062 1.3125 1.3125 0.0625 0.75 0.09375 3.375 0.46875 1.9062s0.28516 1.1016 0.21875 1.1875c-0.066406 0.08594 0.375 0.90625 0.375 0.90625l0.875 1.375 1.25 0.53125-0.5-0.59375-0.25-0.6875 0.25-0.71875-0.65625-0.375s0.4375-0.27344 0.5-0.375c0.0625-0.089844-0.09375-0.46875-0.09375-0.46875l-0.1875-0.46875 0.5-0.65625 0.78125-0.1875 0.125-0.59375-0.46875-0.21875 0.1875-0.5 0.75-0.09375 0.65625-1.5938 0.46875-1.0938 0.96875-0.46875s0.3125-0.96875 0.3125-1.0938c0-0.13672 0.09375-1.5 0.09375-1.5l0.75-1.0312 0.09375-0.6875-0.5625-0.375-0.46875-0.5625-0.84375 0.0625-1.3438-0.75-0.28125-0.65625s-0.47656-0.8125-0.5625-0.8125c-0.08984 0-0.625 0.03125-0.625 0.03125l-0.53125-0.53125-0.34375-0.65625-1.375-0.28125-0.4375-0.21875h-0.875l-0.03125 0.0625-0.8125 0.4375zm37.375-0.71875c0.11328 0.12891 0.8125 2.2188 0.90625 2.2188 0.08594 0 0.625 0.0625 0.625 0.0625l-0.28125-0.84375zm-3.5938 0.0625-0.3125 0.40625 0.15625 0.59375 0.34375-0.375-0.0625-0.46875zm8.0312 0.75-1.4062 0.78125c0 0.08984-0.71875 0.6875-0.71875 0.6875l0.1875 0.625 0.40625 0.46875 0.28125 0.6875 1.25-0.8125zm-4.5312 0.40625-0.4375 0.0625 2 3 0.53125 0.625 1.3125 0.0625 0.8125 0.25-0.875-0.625-1.25-0.34375-0.3125-1.1562-0.6875-0.5625-1.0938-1.25zm-10.5 4.9062v0.4375c-0.02344 0.06641-0.40625 0.375-0.40625 0.375l-0.46875 0.21875-0.34375 0.28125 0.25 0.34375 0.15625 0.15625-0.40625 0.34375v0.5625l0.15625 0.625 0.34375 0.09375 0.40625-0.625 0.25-0.40625-0.0625-0.5 0.375-0.59375 0.125-0.28125v-0.5625l-0.09375-0.4375zm14.969 1.9062c-0.27734 0.05078-0.58203 0.10938-0.59375 0.15625-0.01953 0.09766-0.5625 0.375-0.5625 0.375-0.11328 0-0.46875 0.65625-0.46875 0.65625l-0.0625 2.0625-0.125 0.75 0.3125 0.40625 1.5312-0.53125 0.03125-0.03125v-3.8438c-0.03125 0.0039-0.03125-0.0078-0.0625 0zm-35.469 7.5625-0.21875 0.15625-0.09375 0.03125 0.5 0.25zm-0.875 0.1875-0.21875 0.5 0.4375-0.09375zm1.5 4.125-0.0625 0.03125 0.03125 0.03125zm-0.03125 0.0625-0.4375 0.65625-0.875 0.40625 0.5 0.625-0.78125 0.375-2.4688-0.125-0.75-0.75-0.65625-0.125 0.65625 1.375-1.1562-0.21875-3.9688 0.125-0.84375 1.0938-0.1875-0.03125c0.34766 1.8555 1.9453 3.25 3.9062 3.25h38c2.2148 0 4-1.7852 4-4v-0.0625l-0.15625-0.03125-1.2188 0.15625-0.875 0.78125-1.5 0.59375 0.625-0.75 1.375-0.78125 1.75-0.40625v-0.96875h-0.375s-1.3438-0.66797-1.3438-0.84375c0-0.1875-1.5-0.125-1.5-0.125l-1.7188 0.1875-1.6562-0.09375-3.3125 0.125-3.0625 0.625s-1.4844 0.78906-1.6562 0.75c-0.1875-0.042969 0.625-1.0312 0.625-1.0312l-1.4375 0.125-0.90625-0.75-0.90625 0.59375s-1.1992 0.09375-1.5 0.09375c-0.31641 0-0.75 0.59375-0.75 0.59375l-2.4688-0.09375-4.25 0.1875-1.125 0.9375-0.25 0.0625-3.25-0.25-2.2188 0.25-0.78125-0.40625 0.03125-0.0625s-0.65625-1.3164-0.65625-1.5c0-0.16797-0.41406-0.51562-0.46875-0.5625zm0.3125 3.1562 1.3438 0.4375h-1.625l-0.65625-0.34375z" fill-opacity=".10196"/>
  <path d="m12.969 1-1.4062 0.375-0.8125 0.25-0.9375-0.375-0.125 0.5625 1.125 0.65625s2.043-1.125 2.1562-1.125l0.75-0.34375zm2.7188 0-0.53125 0.15625-0.96875 0.0625-0.59375 0.4375-0.78125-0.03125 0.0625 0.5 1.125-0.03125 0.40625 1.0938 0.15625 0.59375-0.625 0.34375-0.25 0.46875 0.1875 1.0625 0.75 0.125 0.71875-0.6875 0.625-0.65625 0.96875-0.25 1.2188-0.59375 0.71875-0.875 1.0312-1.25 0.71875-0.1875-0.03125-0.28125zm19.156 0.1875-0.1875 0.3125 1.1562 0.15625 0.0625-0.28125zm-8.875 0.1875c-0.054688 0.019531-1.5312 0.03125-1.5312 0.03125l-0.375 0.09375 0.5 0.59375 0.53125-0.5 0.34375 0.21875 0.5-0.25s0.08984-0.21094 0.03125-0.1875zm5.625 0.46875-0.46875 0.0625-0.40625 0.25-0.46875 0.34375-0.28125 0.5 0.4375 0.4375 0.375 0.03125 0.15625-0.25-0.375-0.3125 0.21875-0.1875 0.03125-0.15625 0.46875-0.3125s0.61328 0.00781 0.65625 0c0.04687-0.011719 0.1875-0.1875 0.1875-0.1875l-0.15625-0.21875zm-25.875 0.1875-0.09375 0.3125 0.46875 0.15625 0.53125-0.25zm31.875 0.0625-0.09375 0.03125-2.125 0.09375-0.5625 0.375-0.625 0.375-0.53125 0.4375 0.0625 0.1875-0.28125 0.03125-2.25 0.375 2.3125-0.40625v-0.15625l-0.34375-0.4375-0.625-0.0625s0.125 0.66406 0.125 0.75c0 0.082031-0.4375 0.03125-0.4375 0.03125l-0.75 0.03125s-1.0781 0.25-1.2188 0.25c-0.13281 0-0.76172 0.27344-0.8125 0.28125l-0.03125 0.03125h-0.0625l-0.09375 0.0625-1.0312 0.5625-0.3125-0.21875-0.15625-0.25 0.0625-0.25 0.6875 0.03125 0.3125-0.125-0.625-0.3125-0.875-0.3125-0.875-0.15625-0.9375 0.1875-0.96875 0.78125-0.4375 0.4375-0.65625 0.71875-0.25 0.03125-0.09375 0.34375 0.125 0.34375s0.14062 0.15625 0.15625 0.15625c0.02344 0 0.25-0.125 0.25-0.125s0.02734-0.11719 0.15625-0.15625c0.13281-0.039062 0.25-0.0625 0.25-0.0625l0.1875 0.375 0.21875 0.3125 0.09375 0.25s0.35938-0.22266 0.375-0.25c0.01563-0.03125 0.03125-0.40625 0.03125-0.40625l0.28125-0.1875s0.07031-0.13281 0.0625-0.15625c-0.01172-0.023438-0.1875-0.21875-0.1875-0.21875l-0.15625-0.0625 0.0625-0.3125s0.125-0.085938 0.125-0.125c0-0.035156 0.1875-0.1875 0.1875-0.1875l0.25-0.25 0.125-0.21875 0.25-0.125 0.25 0.1875v0.125l-0.25 0.25-0.0625 0.25v0.34375l0.1875 0.15625 0.375-0.03125 0.3125-0.0625 0.25 0.15625-0.0625 0.21875s-0.17188 0.1875-0.25 0.21875c-0.05859 0.027344-0.41016-0.066406-0.5-0.03125-0.10156 0.03125-0.3125 0.3125-0.3125 0.3125s-0.02344 0.25 0 0.3125c0.0078 0.023438-0.01563 0.066406-0.03125 0.125l-0.0625 0.03125-0.375 0.28125h-0.03125l-0.25-0.09375s-0.15234 0.00391-0.21875 0.0625c-0.0625 0.050781-0.12109 0.10547-0.3125 0.125s-0.5625 0-0.59375 0h-0.21875l0.03125-0.21875 0.15625-0.25-0.28125-0.21875s-0.1875 0.23047-0.1875 0.28125c-0.0078 0.054688 0.125 0.28125 0.125 0.28125s-0.0625 0.17969-0.09375 0.21875-0.34375 0.125-0.34375 0.125l-0.40625-0.21875s-0.17969-0.039062-0.15625 0.0625c0.02344 0.10156 0.21875 0.19531 0.21875 0.28125 0 0.082031-0.125 0.28125-0.125 0.28125l-0.15625 0.1875-0.25 0.25-0.34375 0.09375s-0.24219 0.070312-0.3125 0.09375c-0.0625 0.023438-0.25 0.0625-0.25 0.0625l-0.28125 0.03125-0.125 0.21875 0.25 0.1875 0.1875 0.3125s0.125 0.21875 0.15625 0.21875 0.09375 0.21875 0.09375 0.21875l-0.1875 0.25h-0.09375l-0.65625 0.125-0.125-0.28125-0.4375 0.4375-0.1875 0.71875v0.59375l0.75 0.40625 0.625-0.21875 0.59375-1.0625 0.53125-0.65625 0.96875-0.15625 0.21875-0.1875 1.0938 1.2812 0.125 0.4375 0.3125-0.15625-0.09375-0.375h0.1875l-0.125-0.25-1.0625-1 0.09375-0.1875 0.34375-0.03125 0.75 0.75 0.375 0.4375v0.6875l0.1875 0.125 0.375 0.375 0.28125-0.09375-0.15625-0.5625 0.09375-0.34375 0.1875-0.21875 0.4375 0.15625 0.15625 0.0625-0.03125-0.5 0.25-0.46875 0.15625-0.6875 0.5625 0.09375 0.09375 0.3125 0.21875 0.15625 0.25-0.21875-0.15625-0.34375h0.65625l-0.21875 0.375 0.4375 0.375 0.375 0.1875 0.21875 0.4375-0.5 0.125-0.71875-0.15625h-0.625l-0.59375 0.3125-0.125 0.21875-0.4375 0.09375 0.1875 0.46875 0.34375 0.40625 0.625-0.21875 0.15625 0.25 0.28125-0.21875 0.375 0.0625 0.03125 0.40625-0.125 0.78125-0.34375-0.03125-0.40625-0.0625-0.1875 0.46875-1.375-0.25-0.25-0.3125-0.3125 0.28125-0.34375 0.46875-0.875-0.5-0.875-0.53125v-0.9375l-0.5625 0.03125-0.03125 0.3125-1.375-0.0625-0.4375 0.40625-0.84375 0.03125-0.5625 0.5-0.34375 0.96875-0.875 0.6875-0.625 0.84375-0.03125 1.625-0.1875 0.5-0.0625 0.59375 0.375 0.65625 0.21875 0.625 0.75 0.90625 0.4375 0.375 0.4375 0.09375 0.09375-0.375h1.5625l0.40625-0.1875 0.5 0.0625 0.15625 0.3125 0.53125 0.03125 0.34375 0.25v0.53125l-0.125 0.4375-0.125 0.34375 0.3125 0.5625 0.40625 0.46875 0.1875 1.1875 0.03125 0.78125-0.28125 0.65625-0.03125 0.625 0.21875 1.1562 0.1875 0.1875 0.28125 1.0938 0.03125 0.46875 0.5625 0.75 0.0625 0.59375 0.09375 0.6875 0.34375-0.34375 0.875-0.09375h0.53125l0.96875-1.5 0.0625-0.59375 0.65625-0.65625 0.03125-0.75 0.34375-0.75 0.8125-0.78125v-0.875l-0.1875-0.8125-0.125-1.125 0.59375-0.9375 1.0625-1.3125 0.40625-0.40625 0.15625-0.53125 0.25-0.46875 0.0625-0.6875h-0.59375l-0.28125 0.28125-0.5625-0.15625-0.34375-0.5625-0.28125-0.5625-0.65625-0.5-0.15625-0.8125-0.28125-0.46875-0.3125-0.59375-0.40625-0.71875-0.09375-0.46875 0.4375-0.09375 0.25 0.53125 0.5 0.9375 0.375 0.71875 0.40625 0.75 0.4375 0.71875 0.59375 0.59375 0.53125-0.5 0.625-0.15625 0.4375-0.53125 0.59375-0.34375 0.34375-0.59375 0.03125-0.5-0.28125-0.3125-0.375-0.4375-0.25 0.15625-0.15625 0.25-0.40625-0.1875-0.125-0.3125-0.28125-0.40625-0.4375-0.40625v-0.8125l0.28125 0.53125 0.34375 0.53125 0.59375 0.34375 0.40625-0.09375 0.25 0.28125 1.7812-0.03125-0.03125 0.03125 0.5625 0.5 0.40625 0.5625 0.125 0.28125h0.28125l0.09375-0.3125 0.09375 0.46875 0.15625 0.84375 0.34375 0.8125 0.1875 0.6875 0.28125 0.65625 0.21875 0.25 0.3125-0.1875 0.09375-0.3125 0.125-0.75-0.03125-0.6875 0.25-0.34375s0.26953-0.35547 0.3125-0.375c0.05078-0.01172 0.625-0.625 0.625-0.625l0.28125-0.375 0.3125-0.1875 0.375-0.21875h0.15625l0.0625 0.34375 0.15625 0.40625 0.5 0.65625v0.25l0.09375 0.28125 0.34375-0.15625-0.03125-0.375 0.34375 0.0625 0.0625 0.34375-0.03125 0.53125 0.09375 0.375 0.28125 0.0625 0.09375-0.3125 0.34375 0.21875 0.0625 0.3125 0.3125 0.46875 0.3125 0.34375 0.21875 0.1875 0.53125-0.46875 0.21875-0.4375-0.09375-0.5-0.09375-0.65625-0.59375-0.5625-0.09375-0.5625 0.25-0.40625s0.14844-0.28906 0.3125-0.125c0.14453 0.16797 0.23047 0.1875 0.15625 0.375-0.0625 0.18359-0.1875 0.59375-0.1875 0.59375l0.375 0.15625 0.15625-0.53125-0.15625-0.375 0.375-0.15625 0.6875-0.34375 0.4375-0.53125 0.34375-0.8125v-0.625l-0.375-0.75-0.6875-0.8125-0.4375-0.40625-0.21875-0.625 0.40625-0.09375s0.23047-0.39453 0.4375-0.1875c0.20312 0.21875 0.5 0.5 0.5 0.5s0.35547 0.56641 0.40625 0.625c0.01563 0.01953 0.09375 0.09766 0.15625 0.15625v-4.7812c-0.19141-0.085938-0.6875-0.4375-0.6875-0.4375l0.0625-0.5 0.25-0.4375 0.375-0.03125v-0.90625c0-0.42578-0.09375-0.83203-0.21875-1.2188l-0.40625-0.53125-1.6562-0.1875-1.2812-0.3125s-0.38672 0.29688-0.59375 0.3125c-0.20312 0.023438-0.90625 0.125-0.90625 0.125l-0.71875-0.4375-1.5-0.125-0.0625-0.03125-1.2812-0.0625zm-33.219 0.375-0.5 0.5625 0.4375 0.21875 0.5625-0.25 0.03125 0.625 0.46875 0.3125 0.5-0.46875 0.6875 0.125 0.28125-0.65625-1.125-0.09375zm3.125 0.09375 0.4375 1.0938-0.53125 0.0625-0.40625 0.5-0.90625-0.28125-0.8125 0.34375-0.78125-0.21875-0.90625-0.5625-1.25 0.03125-1.0938 0.46875-0.09375-0.03125c-0.085938 0.32812-0.15625 0.67188-0.15625 1.0312v11.25c0.042969-0.17578 0.1875-0.40625 0.1875-0.40625l-0.0625-1.2812 0.71875-0.5 0.5625-0.1875h0.8125l1.125-0.25 0.40625 0.53125-0.0625 0.625 0.46875 0.40625 0.0625-0.4375s-0.023438-0.71875-0.09375-0.90625c-0.066406-0.1875 0.5625-0.625 0.5625-0.625l0.5-0.625 0.59375-0.71875 0.28125-0.5625 0.9375-0.5 0.625-0.6875s0.9375-0.14062 1.125-0.25c0.1875-0.089844 0.0625-0.43359-0.125-0.75-0.19141-0.3125 0.09375-0.625 0.09375-0.625l0.71875-0.4375 0.625 0.125 0.0625 0.75s0.59766 0.56641 0.78125 0.46875c0.19141-0.089844 0.28125-0.40625 0.28125-0.40625l-0.3125-0.8125 0.1875-0.8125-0.84375 0.125v-1.375l-0.25 0.25-0.65625 0.03125-0.09375-0.6875-0.4375-0.53125s-0.42969 0.26172-0.84375 0.40625c-0.41016 0.15625-0.34375 0.46875-0.34375 0.46875v0.84375l-0.6875 0.5625-0.4375 0.65625s-0.28125-0.1875-0.28125-0.3125-0.0625-0.5-0.0625-0.5l-0.71875-0.5625s-0.5625-0.40625-0.59375-0.53125 0.34375-0.6875 0.34375-0.6875 0.81641-0.5 1-0.65625c0.19141-0.15625 1.2188 0.37109 1.3438 0.28125 0.12891-0.09375 0.625-0.875 0.625-0.875l0.4375-0.625-0.4375 0.5-0.75-0.71875 0.125-0.71875zm2.4688 0.0625-0.25 0.59375 0.15625 0.34375 0.5625-0.0625 0.25 0.46875-0.5 0.53125-0.5625 0.0625 0.5 0.25 0.53125 0.46875 0.53125 0.125 0.1875-0.71875 0.03125-0.46875 0.625 0.09375s-0.21094 0.34375-0.125 0.34375c0.10156 0 0.5-0.40625 0.5-0.40625l-1.0625-1.125s-0.46875-0.35156-0.59375-0.25c-0.13281 0.089844-0.46875 0.0625-0.46875 0.0625zm8.6562 1.7812-0.125 0.40625c0.4375 0.34766 0.625 0.34375 0.625 0.34375l0.53125-0.125 0.34375-0.34375-0.21875-0.28125zm2.7812 1.7812-0.25 0.21875c-0.0625 0.30469-0.15625 0.625-0.15625 0.625l0.46875 0.21875 0.0625 0.28125-0.25 0.25-0.21875 0.375 0.15625 0.15625 0.5625-0.09375 0.5-0.25-0.28125-0.375-0.09375-0.625-0.34375-0.375zm-0.8125 1.1562-0.25 0.46875 0.375 0.15625 0.125-0.28125zm-15.438 1.125 0.65625 0.25 0.4375 0.59375 0.28125 0.40625s-0.24609 0.84375-0.3125 1-0.28125-0.3125-0.28125-0.3125l-0.15625-0.8125-0.5 0.25-0.40625 0.96875 0.09375-0.84375 0.125-0.5625-0.65625-0.25 0.5625-0.53125zm26.375 0.75c0.13281-0.0625 0.375 0.15625 0.375 0.15625l-0.25 0.21875 0.09375 0.3125 0.28125 0.75 0.65625 1.0938-0.40625 0.1875-0.53125-0.34375-0.21875-0.65625s-0.3125-0.39844-0.4375-0.46875c-0.13281-0.0625-0.25-0.28125-0.25-0.28125l0.125-0.53125s0.4375-0.35547 0.5625-0.40625zm-7.875 1.2188-0.375 0.71875 0.28125 0.28125 0.25-0.21875 0.03125-0.3125zm-1.25 0.75v0.1875l0.15625-0.03125zm2.1562 0.46875-0.21875 0.0625 0.34375 0.53125 0.25-0.21875zm-20.156 4.1562 0.03125 0.03125-0.34375 0.15625 0.53125 0.28125 0.59375 0.09375 0.375 0.46875 0.375-0.25-0.0625-0.28125-0.6875-0.5zm-0.9375 0.40625-0.5625 0.09375-0.84375 0.84375-0.6875-0.09375s-0.31641-0.53125-0.375-0.65625v1.2812l0.4375-0.0625 0.71875 0.34375 1.0938 0.625 0.15625 0.71875 0.875 0.84375 0.5-0.375 0.40625 0.3125-0.0625-0.71875-0.78125 0.1875-0.25-0.90625-0.09375-0.40625-0.6875-0.625v-0.4375l0.53125-0.5625zm1.7188 3.875v0.15625l-0.1875 1-0.5625 0.75 0.03125 1.125 0.46875 1.1562 0.5 1.4062 1.3125 1.3125 0.0625 0.75 0.09375 3.375 0.46875 1.9062s0.28516 1.1016 0.21875 1.1875c-0.066406 0.08594 0.375 0.90625 0.375 0.90625l0.875 1.375 1.25 0.53125-0.5-0.59375-0.25-0.6875 0.25-0.71875-0.65625-0.375s0.4375-0.27344 0.5-0.375c0.0625-0.089844-0.09375-0.46875-0.09375-0.46875l-0.1875-0.46875 0.5-0.65625 0.78125-0.1875 0.125-0.59375-0.46875-0.21875 0.1875-0.5 0.75-0.09375 0.65625-1.5938 0.46875-1.0938 0.96875-0.46875s0.3125-0.96875 0.3125-1.0938c0-0.13672 0.09375-1.5 0.09375-1.5l0.75-1.0312 0.09375-0.6875-0.5625-0.375-0.46875-0.5625-0.84375 0.0625-1.3438-0.75-0.28125-0.65625s-0.47656-0.8125-0.5625-0.8125c-0.08984 0-0.625 0.03125-0.625 0.03125l-0.53125-0.53125-0.34375-0.65625-1.375-0.28125-0.4375-0.21875h-0.875l-0.03125 0.0625-0.8125 0.4375zm37.375-0.71875c0.11328 0.12891 0.8125 2.2188 0.90625 2.2188 0.08594 0 0.625 0.0625 0.625 0.0625l-0.28125-0.84375zm-3.5938 0.0625-0.3125 0.40625 0.15625 0.59375 0.34375-0.375-0.0625-0.46875zm8.0312 0.75-1.4062 0.78125c0 0.08984-0.71875 0.6875-0.71875 0.6875l0.1875 0.625 0.40625 0.46875 0.28125 0.6875 1.25-0.8125zm-4.5312 0.40625-0.4375 0.0625 2 3 0.53125 0.625 1.3125 0.0625 0.8125 0.25-0.875-0.625-1.25-0.34375-0.3125-1.1562-0.6875-0.5625-1.0938-1.25zm-10.5 4.9062v0.4375c-0.02344 0.06641-0.40625 0.375-0.40625 0.375l-0.46875 0.21875-0.34375 0.28125 0.25 0.34375 0.15625 0.15625-0.40625 0.34375v0.5625l0.15625 0.625 0.34375 0.09375 0.40625-0.625 0.25-0.40625-0.0625-0.5 0.375-0.59375 0.125-0.28125v-0.5625l-0.09375-0.4375zm14.969 1.9062c-0.27734 0.05078-0.58203 0.10938-0.59375 0.15625-0.01953 0.09766-0.5625 0.375-0.5625 0.375-0.11328 0-0.46875 0.65625-0.46875 0.65625l-0.0625 2.0625-0.125 0.75 0.3125 0.40625 1.5312-0.53125 0.03125-0.03125v-3.8438c-0.03125 0.0039-0.03125-0.0078-0.0625 0zm-35.469 7.5625-0.21875 0.15625-0.09375 0.03125 0.5 0.25zm-0.875 0.1875-0.21875 0.5 0.4375-0.09375zm1.5 4.125-0.0625 0.03125 0.03125 0.03125zm-0.03125 0.0625-0.4375 0.65625-0.875 0.40625 0.5 0.625-0.78125 0.375-2.4688-0.125-0.75-0.75-0.65625-0.125 0.65625 1.375-1.1562-0.21875-3.9688 0.125-0.84375 1.0938-0.28125-0.03125v0.25c0 2.2148 1.7852 4 4 4h38c2.2148 0 4-1.7852 4-4v-1.0625l-0.15625-0.03125-1.2188 0.15625-0.875 0.78125-1.5 0.59375 0.625-0.75 1.375-0.78125 1.75-0.40625v-0.96875h-0.375s-1.3438-0.66797-1.3438-0.84375c0-0.1875-1.5-0.125-1.5-0.125l-1.7188 0.1875-1.6562-0.09375-3.3125 0.125-3.0625 0.625s-1.4844 0.78906-1.6562 0.75c-0.1875-0.042969 0.625-1.0312 0.625-1.0312l-1.4375 0.125-0.90625-0.75-0.90625 0.59375s-1.1992 0.09375-1.5 0.09375c-0.31641 0-0.75 0.59375-0.75 0.59375l-2.4688-0.09375-4.25 0.1875-1.125 0.9375-0.25 0.0625-3.25-0.25-2.2188 0.25-0.78125-0.40625 0.03125-0.0625s-0.65625-1.3164-0.65625-1.5c0-0.16797-0.41406-0.51562-0.46875-0.5625zm0.3125 3.1562 1.3438 0.4375h-1.625l-0.65625-0.34375z" fill="#abd4eb"/>
  <path d="m1 38.996v4c0 2.2188 1.7852 4 4 4h38c2.2148 0 4-1.7812 4-4v-4c0 2.2188-1.7852 4-4 4h-38c-2.2148 0-4-1.7812-4-4z" fill-opacity=".10196"/>
 </g>
</svg>
