<?xml version="1.0" encoding="UTF-8"?>
<svg width="48px" height="48px" version="1.1" viewBox="0 0 48 48" xmlns="http://www.w3.org/2000/svg" xmlns:xlink="http://www.w3.org/1999/xlink">
 <defs>
  <linearGradient id="a" x1="1" x2="47" gradientTransform="matrix(0 -1 1 0 .0022147 48)" gradientUnits="userSpaceOnUse">
   <stop stop-color="#399fb2" offset="0"/>
   <stop stop-color="#3fabc1" offset="1"/>
  </linearGradient>
 </defs>
 <g>
  <path d="m1 43v0.25c0 2.2148 1.7852 4 4 4h38c2.2148 0 4-1.7852 4-4v-0.25c0 2.2148-1.7852 4-4 4h-38c-2.2148 0-4-1.7852-4-4zm0 0.5v0.5c0 2.2148 1.7852 4 4 4h38c2.2148 0 4-1.7852 4-4v-0.5c0 2.2148-1.7852 4-4 4h-38c-2.2148 0-4-1.7852-4-4z" fill-opacity=".019608"/>
  <path d="m1 43.25v0.25c0 2.2148 1.7852 4 4 4h38c2.2148 0 4-1.7852 4-4v-0.25c0 2.2148-1.7852 4-4 4h-38c-2.2148 0-4-1.7852-4-4z" fill-opacity=".05098"/>
  <path d="m1 43v0.25c0 2.2148 1.7852 4 4 4h38c2.2148 0 4-1.7852 4-4v-0.25c0 2.2148-1.7852 4-4 4h-38c-2.2148 0-4-1.7852-4-4z" fill-opacity=".10196"/>
 </g>
 <path d="m1 43v-38c0-2.2109 1.7891-4 4-4h38c2.2109 0 4 1.7891 4 4v38c0 2.2109-1.7891 4-4 4h-38c-2.2109 0-4-1.7891-4-4z" fill="url(#a)"/>
 <g>
  <path d="m14.781 11c-0.98047 0-1.7812 0.80078-1.7812 1.7812v22.438c0 0.98047 0.80078 1.7812 1.7812 1.7812h20.438c0.98438 0 1.7852-0.80078 1.7852-1.7812v-18.223l-6-5.9961" fill-opacity=".10196"/>
  <path d="m37 17h-6l6 6" fill-opacity=".019608"/>
  <g fill-opacity=".10196">
   <path d="m16.355 14h15.293c0.19531 0 0.35547 0.16016 0.35547 0.35547v1.2891c0 0.19531-0.16016 0.35156-0.35547 0.35156h-15.293c-0.19531 0-0.35547-0.15625-0.35547-0.35156v-1.2891c0-0.19531 0.16016-0.35547 0.35547-0.35547"/>
   <path d="m37 17h-6v-5.9961"/>
   <path d="m16.355 20h15.293c0.19531 0 0.35547 0.15625 0.35547 0.35156v1.2891c0 0.19922-0.16016 0.35547-0.35547 0.35547h-15.293c-0.19531 0-0.35547-0.15625-0.35547-0.35547v-1.2891c0-0.19531 0.16016-0.35156 0.35547-0.35156"/>
   <path d="m16.355 26h15.293c0.19531 0 0.35547 0.16016 0.35547 0.35547v1.2891c0 0.19531-0.16016 0.35547-0.35547 0.35547h-15.293c-0.19531 0-0.35547-0.16016-0.35547-0.35547v-1.2891c0-0.19531 0.16016-0.35547 0.35547-0.35547"/>
   <path d="m16.355 31.996h15.293c0.19531 0 0.35547 0.16016 0.35547 0.35547v1.2891c0 0.19531-0.16016 0.35547-0.35547 0.35547h-15.293c-0.19531 0-0.35547-0.16016-0.35547-0.35547v-1.2891c0-0.19531 0.16016-0.35547 0.35547-0.35547"/>
  </g>
 </g>
 <g>
  <path d="m14.781 10c-0.98047 0-1.7812 0.80078-1.7812 1.7812v22.438c0 0.98047 0.80078 1.7812 1.7812 1.7812h20.438c0.98438 0 1.7852-0.80078 1.7852-1.7812v-18.223l-6-5.9961" fill="#ebf0f0"/>
  <path d="m37 16h-6l6 6" fill-opacity=".019608"/>
  <path d="m16.355 13h15.293c0.19531 0 0.35547 0.16016 0.35547 0.35547v1.2891c0 0.19531-0.16016 0.35156-0.35547 0.35156h-15.293c-0.19531 0-0.35547-0.15625-0.35547-0.35156v-1.2891c0-0.19531 0.16016-0.35547 0.35547-0.35547" fill="#59a1eb"/>
  <path d="m37 16h-6v-5.9961" fill="#fff"/>
 </g>
 <g fill="#59a1eb">
  <path d="m16.355 19h15.293c0.19531 0 0.35547 0.15625 0.35547 0.35156v1.2891c0 0.19922-0.16016 0.35547-0.35547 0.35547h-15.293c-0.19531 0-0.35547-0.15625-0.35547-0.35547v-1.2891c0-0.19531 0.16016-0.35156 0.35547-0.35156"/>
  <path d="m16.355 25h15.293c0.19531 0 0.35547 0.16016 0.35547 0.35547v1.2891c0 0.19531-0.16016 0.35547-0.35547 0.35547h-15.293c-0.19531 0-0.35547-0.16016-0.35547-0.35547v-1.2891c0-0.19531 0.16016-0.35547 0.35547-0.35547"/>
  <path d="m16.355 30.996h15.293c0.19531 0 0.35547 0.16016 0.35547 0.35547v1.2891c0 0.19531-0.16016 0.35547-0.35547 0.35547h-15.293c-0.19531 0-0.35547-0.16016-0.35547-0.35547v-1.2891c0-0.19531 0.16016-0.35547 0.35547-0.35547"/>
 </g>
 <path d="m1 38.996v4c0 2.2188 1.7852 4 4 4h38c2.2148 0 4-1.7812 4-4v-4c0 2.2188-1.7852 4-4 4h-38c-2.2148 0-4-1.7812-4-4z" fill-opacity=".10196"/>
</svg>
