<?xml version="1.0" encoding="UTF-8" standalone="no"?>
<svg
   xmlns:dc="http://purl.org/dc/elements/1.1/"
   xmlns:cc="http://creativecommons.org/ns#"
   xmlns:rdf="http://www.w3.org/1999/02/22-rdf-syntax-ns#"
   xmlns:svg="http://www.w3.org/2000/svg"
   xmlns="http://www.w3.org/2000/svg"
   xmlns:xlink="http://www.w3.org/1999/xlink"
   xmlns:sodipodi="http://sodipodi.sourceforge.net/DTD/sodipodi-0.dtd"
   xmlns:inkscape="http://www.inkscape.org/namespaces/inkscape"
   width="48px"
   height="48px"
   viewBox="0 0 48 48"
   version="1.1"
   id="svg3340"
   inkscape:version="0.48.5 r10040"
   sodipodi:docname="resume.svg">
  <metadata
     id="metadata3390">
    <rdf:RDF>
      <cc:Work
         rdf:about="">
        <dc:format>image/svg+xml</dc:format>
        <dc:type
           rdf:resource="http://purl.org/dc/dcmitype/StillImage" />
      </cc:Work>
    </rdf:RDF>
  </metadata>
  <sodipodi:namedview
     pagecolor="#ffffff"
     bordercolor="#666666"
     borderopacity="1"
     objecttolerance="10"
     gridtolerance="10"
     guidetolerance="10"
     inkscape:pageopacity="0"
     inkscape:pageshadow="2"
     inkscape:window-width="640"
     inkscape:window-height="480"
     id="namedview3388"
     showgrid="false"
     inkscape:zoom="4.9166667"
     inkscape:cx="24"
     inkscape:cy="24"
     inkscape:window-x="0"
     inkscape:window-y="0"
     inkscape:window-maximized="0"
     inkscape:current-layer="svg3340" />
  <defs
     id="defs3342">
    <linearGradient
       id="linear0"
       gradientUnits="userSpaceOnUse"
       x1="1"
       y1="0"
       x2="47"
       y2="0"
       gradientTransform="matrix(0,-1,1,0,0.00221467,48.000001)">
      <stop
         offset="0"
         style="stop-color:rgb(22.745098%,62.745098%,69.803922%);stop-opacity:1;"
         id="stop3345" />
      <stop
         offset="1"
         style="stop-color:rgb(25.098039%,67.45098%,75.686275%);stop-opacity:1;"
         id="stop3347" />
    </linearGradient>
    <linearGradient
       inkscape:collect="always"
       xlink:href="#linear0"
       id="linearGradient3482"
       gradientUnits="userSpaceOnUse"
       gradientTransform="matrix(0,-1,1,0,0.00221467,48.000001)"
       x1="1"
       y1="0"
       x2="47"
       y2="0" />
  </defs>
  <path
     inkscape:connector-curvature="0"
     id="path3350"
     d="m 1,43 0,0.25 c 0,2.214844 1.785156,4 4,4 l 38,0 c 2.214844,0 4,-1.785156 4,-4 L 47,43 c 0,2.214844 -1.785156,4 -4,4 L 5,47 C 2.785156,47 1,45.214844 1,43 z m 0,0.5 0,0.5 c 0,2.214844 1.785156,4 4,4 l 38,0 c 2.214844,0 4,-1.785156 4,-4 l 0,-0.5 c 0,2.214844 -1.785156,4 -4,4 l -38,0 c -2.214844,0 -4,-1.785156 -4,-4 z m 0,0"
     style="fill:#000000;fill-opacity:0.01960778;fill-rule:nonzero;stroke:none" />
  <path
     inkscape:connector-curvature="0"
     id="path3352"
     d="m 1,43.25 0,0.25 c 0,2.214844 1.785156,4 4,4 l 38,0 c 2.214844,0 4,-1.785156 4,-4 l 0,-0.25 c 0,2.214844 -1.785156,4 -4,4 l -38,0 c -2.214844,0 -4,-1.785156 -4,-4 z m 0,0"
     style="fill:#000000;fill-opacity:0.05098039;fill-rule:nonzero;stroke:none" />
  <path
     inkscape:connector-curvature="0"
     id="path3354"
     d="m 1,43 0,0.25 c 0,2.214844 1.785156,4 4,4 l 38,0 c 2.214844,0 4,-1.785156 4,-4 L 47,43 c 0,2.214844 -1.785156,4 -4,4 L 5,47 C 2.785156,47 1,45.214844 1,43 z m 0,0"
     style="fill:#000000;fill-opacity:0.10196102;fill-rule:nonzero;stroke:none" />
  <path
     inkscape:connector-curvature="0"
     id="path3356"
     d="M 1,43 1,5 C 1,2.789062 2.789062,1 5,1 l 38,0 c 2.210938,0 4,1.789062 4,4 l 0,38 c 0,2.210938 -1.789062,4 -4,4 L 5,47 C 2.789062,47 1,45.210938 1,43 z m 0,0"
     style="fill:url(#linearGradient3482);fill-rule:nonzero;stroke:none" />
  <path
     inkscape:connector-curvature="0"
     id="path3358"
     d="M 14.78125,11 C 13.800781,11 13,11.800781 13,12.78125 l 0,22.4375 C 13,36.199219 13.800781,37 14.78125,37 l 20.4375,0 c 0.984375,0 1.785156,-0.800781 1.785156,-1.78125 l 0,-18.222656 -6,-5.996094 M 14.78125,11"
     style="fill:#000000;fill-opacity:0.10196102;fill-rule:nonzero;stroke:none" />
  <path
     inkscape:connector-curvature="0"
     id="path3360"
     d="m 37,17 -6,0 6,6 m 0,-6"
     style="fill:#000000;fill-opacity:0.01960778;fill-rule:nonzero;stroke:none" />
  <path
     inkscape:connector-curvature="0"
     id="path3362"
     d="m 16.355469,14 15.292969,0 c 0.195312,0 0.355468,0.160156 0.355468,0.355469 l 0,1.289062 c 0,0.195313 -0.160156,0.351563 -0.355468,0.351563 l -15.292969,0 C 16.160156,15.996094 16,15.839844 16,15.644531 l 0,-1.289062 C 16,14.160156 16.160156,14 16.355469,14 m 0,0"
     style="fill:#000000;fill-opacity:0.10196102;fill-rule:nonzero;stroke:none" />
  <path
     inkscape:connector-curvature="0"
     id="path3364"
     d="m 37,17 -6,0 0,-5.996094 M 37,17"
     style="fill:#000000;fill-opacity:0.10196102;fill-rule:nonzero;stroke:none" />
  <path
     inkscape:connector-curvature="0"
     id="path3366"
     d="m 16.355469,20 15.292969,0 c 0.195312,0 0.355468,0.15625 0.355468,0.351562 l 0,1.289063 c 0,0.199219 -0.160156,0.355469 -0.355468,0.355469 l -15.292969,0 C 16.160156,21.996094 16,21.839844 16,21.640625 l 0,-1.289063 C 16,20.15625 16.160156,20 16.355469,20 m 0,0"
     style="fill:#000000;fill-opacity:0.10196102;fill-rule:nonzero;stroke:none" />
  <path
     inkscape:connector-curvature="0"
     id="path3368"
     d="m 16.355469,26 15.292969,0 c 0.195312,0 0.355468,0.160156 0.355468,0.355469 l 0,1.289062 C 32.003906,27.839844 31.84375,28 31.648438,28 L 16.355469,28 C 16.160156,28 16,27.839844 16,27.644531 l 0,-1.289062 C 16,26.160156 16.160156,26 16.355469,26 m 0,0"
     style="fill:#000000;fill-opacity:0.10196102;fill-rule:nonzero;stroke:none" />
  <path
     inkscape:connector-curvature="0"
     id="path3370"
     d="m 16.355469,31.996094 15.292969,0 c 0.195312,0 0.355468,0.160156 0.355468,0.355468 l 0,1.289063 c 0,0.195313 -0.160156,0.355469 -0.355468,0.355469 l -15.292969,0 C 16.160156,33.996094 16,33.835938 16,33.640625 l 0,-1.289063 c 0,-0.195312 0.160156,-0.355468 0.355469,-0.355468 m 0,0"
     style="fill:#000000;fill-opacity:0.10196102;fill-rule:nonzero;stroke:none" />
  <path
     inkscape:connector-curvature="0"
     id="path3372"
     d="M 14.78125,10 C 13.800781,10 13,10.800781 13,11.78125 l 0,22.4375 C 13,35.199219 13.800781,36 14.78125,36 l 20.4375,0 c 0.984375,0 1.785156,-0.800781 1.785156,-1.78125 l 0,-18.222656 -6,-5.996094 M 14.78125,10"
     style="fill:#ebf0f0;fill-opacity:1;fill-rule:nonzero;stroke:none" />
  <path
     inkscape:connector-curvature="0"
     id="path3374"
     d="m 37,16 -6,0 6,6 m 0,-6"
     style="fill:#000000;fill-opacity:0.01960778;fill-rule:nonzero;stroke:none" />
  <path
     inkscape:connector-curvature="0"
     id="path3376"
     d="m 16.355469,13 15.292969,0 c 0.195312,0 0.355468,0.160156 0.355468,0.355469 l 0,1.289062 c 0,0.195313 -0.160156,0.351563 -0.355468,0.351563 l -15.292969,0 C 16.160156,14.996094 16,14.839844 16,14.644531 l 0,-1.289062 C 16,13.160156 16.160156,13 16.355469,13 m 0,0"
     style="fill:#59a1eb;fill-opacity:1;fill-rule:nonzero;stroke:none" />
  <path
     inkscape:connector-curvature="0"
     id="path3378"
     d="m 37,16 -6,0 0,-5.996094 M 37,16"
     style="fill:#ffffff;fill-opacity:1;fill-rule:nonzero;stroke:none" />
  <path
     inkscape:connector-curvature="0"
     id="path3380"
     d="m 16.355469,19 15.292969,0 c 0.195312,0 0.355468,0.15625 0.355468,0.351562 l 0,1.289063 c 0,0.199219 -0.160156,0.355469 -0.355468,0.355469 l -15.292969,0 C 16.160156,20.996094 16,20.839844 16,20.640625 l 0,-1.289063 C 16,19.15625 16.160156,19 16.355469,19 m 0,0"
     style="fill:#59a1eb;fill-opacity:1;fill-rule:nonzero;stroke:none" />
  <path
     inkscape:connector-curvature="0"
     id="path3382"
     d="m 16.355469,25 15.292969,0 c 0.195312,0 0.355468,0.160156 0.355468,0.355469 l 0,1.289062 C 32.003906,26.839844 31.84375,27 31.648438,27 L 16.355469,27 C 16.160156,27 16,26.839844 16,26.644531 l 0,-1.289062 C 16,25.160156 16.160156,25 16.355469,25 m 0,0"
     style="fill:#59a1eb;fill-opacity:1;fill-rule:nonzero;stroke:none" />
  <path
     inkscape:connector-curvature="0"
     id="path3384"
     d="m 16.355469,30.996094 15.292969,0 c 0.195312,0 0.355468,0.160156 0.355468,0.355468 l 0,1.289063 c 0,0.195313 -0.160156,0.355469 -0.355468,0.355469 l -15.292969,0 C 16.160156,32.996094 16,32.835938 16,32.640625 l 0,-1.289063 c 0,-0.195312 0.160156,-0.355468 0.355469,-0.355468 m 0,0"
     style="fill:#59a1eb;fill-opacity:1;fill-rule:nonzero;stroke:none" />
  <path
     inkscape:connector-curvature="0"
     id="path3386"
     d="m 1,38.996094 0,4 c 0,2.21875 1.785156,4 4,4 l 38,0 c 2.214844,0 4,-1.78125 4,-4 l 0,-4 c 0,2.21875 -1.785156,4 -4,4 l -38,0 c -2.214844,0 -4,-1.78125 -4,-4 z m 0,0"
     style="fill:#000000;fill-opacity:0.10196102;fill-rule:nonzero;stroke:none" />
</svg>
