<svg id="nav" width="24" height="24" xmlns="http://www.w3.org/2000/svg">
  <path d="m12 1c-6.0751 0-11 4.9249-11 11 0 6.0751 4.9249 11 11 11 6.0751 0 11-4.9249 11-11 0-6.0751-4.9249-11-11-11zm-0.0098 2h0.0098c4.9706 0 9 4.0294 9 9-4.14e-4 1.7929-0.53634 3.5449-1.5391 5.0312-0.54952-2.1115-1.3794-2.8592-2.9609-3.0312-1.5 1.4693-2.7592 1.9991-4.5 2-1.7415-2.37e-4 -3-0.49194-4.5-2-1.5808 0.17292-2.4118 0.92143-2.9609 3.0332-1.0031-1.4869-1.539-3.2396-1.5391-5.0332-2.9e-6 -4.9668 4.0235-8.9946 8.9902-9zm0.0098 2c-2.7614 0-5 2.2386-5 5 0 2.7614 2.2386 5 5 5 2.7614 0 5-2.2386 5-5 0-2.7614-2.2386-5-5-5z"/>
</svg>