<svg id="nav" width="24" height="24" xmlns="http://www.w3.org/2000/svg">
  <path d="m6 2c-2 0-4 2-4 4v10c0 2 2.2262 4 4 4h3.666l-0.66602 2c0 0.76861 0.44591 0.77704 1 0.5l5-2.5h3c2 0 4-2 4-4v-10c0-2-2-4-4-4h-12zm0 2h12c1 0 2 1 2 2v10c0 1-0.99653 2-2 2h-12c-1 0-2-1-2-2v-10c0-1 1-2 2-2zm2 3c-0.554 0-1 0.446-1 1s0.446 1 1 1h8c0.554 0 1-0.446 1-1s-0.446-1-1-1h-8zm0 3c-0.554 0-1 0.446-1 1s0.446 1 1 1h8c0.554 0 1-0.446 1-1s-0.446-1-1-1h-8zm0 3c-0.554 0-1 0.446-1 1s0.446 1 1 1h8c0.554 0 1-0.446 1-1s-0.446-1-1-1h-8z"/>
</svg>
