<svg id="nav" width="24" height="24" xmlns="http://www.w3.org/2000/svg">
  <path d="m3 0c-0.554 0-1 0.446-1 1v22c0 0.554 0.446 1 1 1h18c0.554 0 1-0.446 1-1v-16.418c0-0.582-0.37462-0.95665-0.56641-1.1484l-4.748-4.748c-0.22181-0.22181-0.68603-0.68555-1.1855-0.68555h-12.5zm1 2h9v5c0 1.1046 0.89543 2 2 2h5v13h-16v-20zm11 0 5 5h-5v-5zm-7 9a1 1 0 0 0-1 1 1 1 0 0 0 1 1h8a1 1 0 0 0 1-1 1 1 0 0 0-1-1h-8zm0 3a1 1 0 0 0-1 1 1 1 0 0 0 1 1h8a1 1 0 0 0 1-1 1 1 0 0 0-1-1h-8zm0 3a1 1 0 0 0-1 1 1 1 0 0 0 1 1h8a1 1 0 0 0 1-1 1 1 0 0 0-1-1h-8z"/>
</svg>