<svg id="nav" xmlns="http://www.w3.org/2000/svg" xmlns:xlink="http://www.w3.org/1999/xlink">
  <path fill-rule="nonzero" d="m1.9062 6c-0.50508 0-0.90625 0.41325-0.90625 0.90625v2.0938h9c0-0.555 0.445-1 1-1h2c0.551 0 1 0.445 1 1h9v-2.0938c0-0.493-0.3975-0.90625-0.90625-0.90625h-20.188zm-0.90625 4v12.094c0 0.493 0.40117 0.90625 0.90625 0.90625h20.188c0.50875 0 0.90625-0.41325 0.90625-0.90625v-12.094h-9v3c0 0.551-0.449 1-1 1h-2c-0.555 0-1-0.449-1-1v-3h-9zm1.4688 9h19.062c0.25182 0 0.46875 0.223 0.46875 0.5 0 0.273-0.21693 0.5-0.46875 0.5h-19.062c-0.24818 0-0.46875-0.227-0.46875-0.5 0-0.277 0.22057-0.5 0.46875-0.5zm0 2h19.062c0.25182 0 0.46875 0.223 0.46875 0.5s-0.21693 0.5-0.46875 0.5h-19.062c-0.25182 0-0.46875-0.223-0.46875-0.5s0.21693-0.5 0.46875-0.5z"/>
  <path fill-rule="nonzero" d="m12 9c0.551 0 1 0.445 1 1v2c0 0.551-0.449 1-1 1-0.555 0-1-0.449-1-1v-2c0-0.555 0.445-1 1-1"/>
  <path fill-rule="nonzero" d="m6.004 1c-0.555 0-1 0.449-1 1v4h2v-1.996c0-0.555 0.445-1 1-1h8c0.551 0 1 0.445 1 1v1.996h1.996v-4c0-0.551-0.445-1-1-1"/>
</svg>