<svg id="nav" width="24" height="24" version="1.1" xmlns="http://www.w3.org/2000/svg">
  <path d="m1.9062 6c-0.50508 0-0.90625 0.41325-0.90625 0.90625v2.0938h8c0-0.555 0.445-1 1-1h4c0.551 0 1 0.445 1 1h8v-2.0938c0-0.493-0.3975-0.90625-0.90625-0.90625zm-0.90625 5v11.094c0 0.493 0.40117 0.90625 0.90625 0.90625h20.188c0.50875 0 0.90625-0.41325 0.90625-0.90625v-11.094h-8v3c0 0.551-0.449 1-1 1h-4c-0.555 0-1-0.449-1-1v-3zm3 8h16c0.554 0 1 0.446 1 1s-0.446 1-1 1h-16c-0.554 0-1-0.446-1-1s0.446-1 1-1z"/>
  <path d="m12 9c0.551 0 1 0.445 1 1v3c0 0.551-0.449 1-1 1-0.555 0-1-0.449-1-1v-3c0-0.555 0.445-1 1-1"/>
  <path d="m6.004 1c-0.555 0-1 0.449-1 1v4h2v-1.996c0-0.555 0.445-1 1-1h8c0.551 0 1 0.445 1 1v1.996h1.996v-4c0-0.551-0.445-1-1-1"/>
</svg>