<?xml version="1.0" encoding="UTF-8" standalone="no"?>
<svg
   xmlns:dc="http://purl.org/dc/elements/1.1/"
   xmlns:cc="http://creativecommons.org/ns#"
   xmlns:rdf="http://www.w3.org/1999/02/22-rdf-syntax-ns#"
   xmlns:svg="http://www.w3.org/2000/svg"
   xmlns="http://www.w3.org/2000/svg"
   xmlns:sodipodi="http://sodipodi.sourceforge.net/DTD/sodipodi-0.dtd"
   xmlns:inkscape="http://www.inkscape.org/namespaces/inkscape"
   viewBox="0 0 1200 675"
   version="1.1"
   id="svg45"
   sodipodi:docname="about.svg"
   width="1200"
   height="675"
   inkscape:version="0.92.1 r15371"
   inkscape:export-filename="/home/josh/Code/web/blog/images/facebook.png"
   inkscape:export-xdpi="96"
   inkscape:export-ydpi="96">
  <metadata
     id="metadata49">
    <rdf:RDF>
      <cc:Work
         rdf:about="">
        <dc:format>image/svg+xml</dc:format>
        <dc:type
           rdf:resource="http://purl.org/dc/dcmitype/StillImage" />
        <dc:title />
      </cc:Work>
    </rdf:RDF>
  </metadata>
  <sodipodi:namedview
     pagecolor="#ffffff"
     bordercolor="#666666"
     borderopacity="1"
     objecttolerance="10"
     gridtolerance="10"
     guidetolerance="10"
     inkscape:pageopacity="0"
     inkscape:pageshadow="2"
     inkscape:window-width="1580"
     inkscape:window-height="840"
     id="namedview47"
     showgrid="false"
     inkscape:zoom="0.30729166"
     inkscape:cx="1497.5339"
     inkscape:cy="39.570244"
     inkscape:window-x="10"
     inkscape:window-y="50"
     inkscape:window-maximized="0"
     inkscape:current-layer="svg45" />
  <defs
     id="defs7">
    <clipPath
       id="clipPath-115148265">
      <g
         transform="translate(0,-1004.3622)"
         id="g9">
        <rect
           style="fill:#1890d0"
           rx="4"
           y="1005.36"
           x="1"
           height="46"
           width="46"
           id="rect7" />
      </g>
    </clipPath>
    <clipPath
       id="clipPath-128355766">
      <g
         transform="translate(0,-1004.3622)"
         id="g14">
        <rect
           style="fill:#1890d0"
           rx="4"
           y="1005.36"
           x="1"
           height="46"
           width="46"
           id="rect12" />
      </g>
    </clipPath>
  </defs>
  <rect
     style="opacity:1;fill:#75bced;fill-opacity:1;stroke:none;stroke-width:1.13797271;stroke-opacity:1"
     id="rect51"
     width="1200"
     height="675"
     x="0"
     y="-2.8421709e-14" />
  <path
     style="opacity:0.1;fill:#000000;fill-opacity:0.94100001;fill-rule:nonzero;stroke:none;stroke-width:14.673913"
     d="m 609.03945,162.4101 c -52.10697,-0.33463 -103.76551,41.65683 -106.56054,122.71289 1.73946,20.32728 13.6613,48.78371 25.45898,59.09375 l 0.13281,0.38086 24.87305,25.22461 h 0.0762 l -26.22851,27.2539 C 479.9849,419.68042 433.34542,464.95736 423.725,514.56439 l 0.0137,29.34961 H 805.26016 V 514.56439 C 795.52884,471.63209 746.60128,422.38943 685.0043,395.73627 l -25.07227,-25.93945 c 6.97673,-6.80923 22.84305,-19.78929 29.15625,-30.37891 v 0.61523 c 11.97391,-4.63696 26.94088,-22.46453 29.49414,-37.82812 -1.54248,-94.0466 -55.7818,-139.44967 -109.54297,-139.79492 z m -55.85156,207.41211 h 0.10352 l 0.64257,0.77343 z m 52.24609,54.15429 1.92774,0.12696 -0.88867,0.92187 0.0488,0.0508 -0.0684,-0.002 0.0195,-0.0195 z"
     id="path161"
     inkscape:connector-curvature="0" />
  <path
     style="fill:#cf8e92;fill-opacity:0.94100001;fill-rule:nonzero;stroke:none;stroke-width:14.673913"
     inkscape:connector-curvature="0"
     d="m 583.93269,408.48428 -72.62119,-87.29511 -8.71631,-89.30543 104.72772,-28.71685 69.01141,21.04239 24.3587,53.82392 -18.97337,36.34728 -84.375,94.98424 m -13.41196,-0.86576"
     id="path53" />
  <path
     style="fill:#cf362d;fill-opacity:1;fill-rule:nonzero;stroke:none;stroke-width:14.673913"
     inkscape:connector-curvature="0"
     d="m 409.73867,528.91309 h 381.52174 v -29.34783 c -9.97826,-44.02174 -61.16087,-94.69076 -124.96304,-120.825 l -41.67392,40.52935 -13.17717,-8.775 -36.56739,-0.80707 -11.69511,13.52935 -44.31522,-43.96304 c -48.77608,21.49728 -99.1076,68.55652 -109.14456,120.31141 m 0,29.34783"
     id="path55" />
  <path
     style="fill:#ffcdce;fill-opacity:1;fill-rule:nonzero;stroke:none;stroke-width:14.673913"
     inkscape:connector-curvature="0"
     d="m 645.84193,354.88048 c 8.26142,-8.08533 29.34783,-25.04837 31.69566,-36.22989 l -0.80707,-64.13968 -122.20435,-45.40108 -19.88315,16.84565 -32.95761,42.87717 8.08533,48.37989 4.29945,12.38479 24.87229,25.22445 m 106.89945,0.0587"
     id="path59" />
  <path
     style="fill:#ffcdce;fill-opacity:1;fill-rule:nonzero;stroke:none;stroke-width:14.673913"
     inkscape:connector-curvature="0"
     d="m 592.41422,181.61091 c 42.42228,0 76.74456,35.71631 76.74456,79.73805 v 35.99511 c 0,44.02173 -34.33696,79.67934 -76.74456,79.67934 -42.36359,0 -76.74457,-35.65761 -76.74457,-79.67934 v -35.99511 c 0,-44.02174 34.39565,-79.73805 76.74457,-79.73805 m 0,0"
     id="path57" />
  <path
     style="fill:#cf362d;fill-opacity:1;fill-rule:nonzero;stroke:none;stroke-width:14.673913"
     inkscape:connector-curvature="0"
     d="m 514.65715,329.84678 v -59.72282 c 6.075,-26.07555 31.35815,-52.44457 43.96304,-52.10707 21.49729,2.7 36.5087,21.71739 49.34837,40.17718 16.17066,13.76413 56.56794,14.61521 67.11848,0 0,22.30434 0,44.53532 0,66.83967 11.97391,-4.63696 26.94131,-22.46576 29.49457,-37.82935 -3.0375,-185.19945 -210.42392,-181.76576 -216.10272,-17.08043 1.77554,20.74891 14.16033,49.97935 26.19293,59.72282 m 0,0"
     id="path61" />
  <path
     style="fill:#b2d4cf;fill-opacity:1;fill-rule:nonzero;stroke:none;stroke-width:14.673913"
     inkscape:connector-curvature="0"
     d="m 592.47291,410.02504 53.36902,-55.32065 26.70652,27.63098 -53.36902,55.32065 m -26.70652,-27.63098"
     id="path63" />
  <path
     style="fill:#b2d4cf;fill-opacity:1;fill-rule:nonzero;stroke:none;stroke-width:14.673913"
     inkscape:connector-curvature="0"
     d="m 539.10389,354.73374 53.36902,55.32065 -26.64782,27.63098 -53.36903,-55.26196 m 26.64783,-27.68967"
     id="path65" />
</svg>
