<?xml version="1.0" encoding="UTF-8" standalone="no"?>
<svg
   xmlns:dc="http://purl.org/dc/elements/1.1/"
   xmlns:cc="http://creativecommons.org/ns#"
   xmlns:rdf="http://www.w3.org/1999/02/22-rdf-syntax-ns#"
   xmlns:svg="http://www.w3.org/2000/svg"
   xmlns="http://www.w3.org/2000/svg"
   xmlns:xlink="http://www.w3.org/1999/xlink"
   xmlns:sodipodi="http://sodipodi.sourceforge.net/DTD/sodipodi-0.dtd"
   xmlns:inkscape="http://www.inkscape.org/namespaces/inkscape"
   viewBox="0 0 1200 675"
   version="1.1"
   id="svg45"
   sodipodi:docname="aveq.svg"
   width="1200"
   height="675"
   inkscape:version="0.92.1 r15371"
   inkscape:export-filename="/home/josh/Code/web/blog/images/facebook.png"
   inkscape:export-xdpi="96"
   inkscape:export-ydpi="96">
  <metadata
     id="metadata49">
    <rdf:RDF>
      <cc:Work
         rdf:about="">
        <dc:format>image/svg+xml</dc:format>
        <dc:type
           rdf:resource="http://purl.org/dc/dcmitype/StillImage" />
        <dc:title></dc:title>
      </cc:Work>
    </rdf:RDF>
  </metadata>
  <sodipodi:namedview
     pagecolor="#ffffff"
     bordercolor="#666666"
     borderopacity="1"
     objecttolerance="10"
     gridtolerance="10"
     guidetolerance="10"
     inkscape:pageopacity="0"
     inkscape:pageshadow="2"
     inkscape:window-width="1580"
     inkscape:window-height="840"
     id="namedview47"
     showgrid="false"
     inkscape:zoom="0.30729166"
     inkscape:cx="1167.5314"
     inkscape:cy="114.20006"
     inkscape:window-x="10"
     inkscape:window-y="50"
     inkscape:window-maximized="0"
     inkscape:current-layer="svg45">
    <inkscape:grid
       type="xygrid"
       id="grid387" />
  </sodipodi:namedview>
  <defs
     id="defs7">
    <linearGradient
       id="linearGradient3764"
       x1="1"
       x2="47"
       gradientUnits="userSpaceOnUse"
       gradientTransform="rotate(-90,23.999998,24)">
      <stop
         style="stop-color:#344e8e;stop-opacity:1"
         id="stop2" />
      <stop
         offset="1"
         style="stop-color:#3a569c;stop-opacity:1"
         id="stop4" />
    </linearGradient>
    <linearGradient
       id="linearGradient8702">
      <stop
         offset="0"
         style="stop-color:#dce1ea;stop-opacity:1"
         id="stop8704" />
      <stop
         offset="1"
         style="stop-color:#c0cad9;stop-opacity:1"
         id="stop8706" />
    </linearGradient>
    <linearGradient
       id="linearGradient8443">
      <stop
         offset="0"
         style="stop-color:#000000;stop-opacity:1"
         id="stop8445" />
      <stop
         offset="1"
         style="stop-color:#000000;stop-opacity:0"
         id="stop8447" />
    </linearGradient>
    <linearGradient
       id="linearGradient8243">
      <stop
         offset="0"
         style="stop-color:#142842;stop-opacity:1"
         id="stop8245" />
      <stop
         offset="0.08385646"
         style="stop-color:#1a3453;stop-opacity:1"
         id="stop8251" />
      <stop
         offset="1"
         style="stop-color:#172e4a;stop-opacity:1"
         id="stop8247" />
    </linearGradient>
    <linearGradient
       id="linearGradient8235">
      <stop
         offset="0"
         style="stop-color:#0b121e;stop-opacity:1"
         id="stop8237" />
      <stop
         offset="1"
         style="stop-color:#1b2c47;stop-opacity:1"
         id="stop8239" />
    </linearGradient>
    <linearGradient
       id="linearGradient8181">
      <stop
         offset="0"
         style="stop-color:#494b47;stop-opacity:1"
         id="stop8183" />
      <stop
         offset="1"
         style="stop-color:#7e817b;stop-opacity:1"
         id="stop8185" />
    </linearGradient>
    <linearGradient
       id="linearGradient8125">
      <stop
         offset="0"
         style="stop-color:#8d8d8d;stop-opacity:1"
         id="stop8127" />
      <stop
         offset="1"
         style="stop-color:#a2a2a2;stop-opacity:1"
         id="stop8129" />
    </linearGradient>
    <linearGradient
       id="linearGradient8095">
      <stop
         offset="0"
         style="stop-color:#ffffff;stop-opacity:1"
         id="stop8097" />
      <stop
         offset="1"
         style="stop-color:#ffffff;stop-opacity:0"
         id="stop8099" />
    </linearGradient>
    <linearGradient
       id="linearGradient8075">
      <stop
         offset="0"
         style="stop-color:#2e3436;stop-opacity:1"
         id="stop8077" />
      <stop
         offset="1"
         style="stop-color:#262b2d;stop-opacity:1"
         id="stop8079" />
    </linearGradient>
    <linearGradient
       id="linearGradient8065">
      <stop
         offset="0"
         style="stop-color:#a0a0a0;stop-opacity:1"
         id="stop8067" />
      <stop
         offset="0.40000001"
         style="stop-color:#aaaaaa;stop-opacity:1"
         id="stop8073" />
      <stop
         offset="1"
         style="stop-color:#969696;stop-opacity:1"
         id="stop8069" />
    </linearGradient>
    <linearGradient
       id="linearGradient8053">
      <stop
         offset="0"
         style="stop-color:#989898;stop-opacity:1"
         id="stop8055" />
      <stop
         offset="0.03"
         style="stop-color:#c7c7c7;stop-opacity:1"
         id="stop8061" />
      <stop
         offset="0.97000003"
         style="stop-color:#c7c7c7;stop-opacity:1"
         id="stop8063" />
      <stop
         offset="1"
         style="stop-color:#989898;stop-opacity:1"
         id="stop8057" />
    </linearGradient>
    <linearGradient
       gradientTransform="translate(0.42500144,-0.6066262)"
       gradientUnits="userSpaceOnUse"
       xlink:href="#linearGradient8053"
       id="linearGradient8569"
       y2="454.8363"
       x2="1420.8883"
       y1="454.8363"
       x1="1044.494" />
    <linearGradient
       gradientTransform="translate(0,-0.96733016)"
       gradientUnits="userSpaceOnUse"
       xlink:href="#linearGradient8065"
       id="linearGradient8571"
       y2="213.32445"
       x2="1420.8883"
       y1="213.32445"
       x1="1044.494" />
    <radialGradient
       gradientTransform="matrix(0.98525846,0.17107242,-0.21134819,1.217219,102.63322,-301.70066)"
       gradientUnits="userSpaceOnUse"
       xlink:href="#linearGradient8075"
       id="radialGradient8573"
       fy="397.8363"
       fx="1258.4324"
       r="162.39394"
       cy="397.8363"
       cx="1258.4324" />
    <linearGradient
       gradientUnits="userSpaceOnUse"
       xlink:href="#linearGradient8125"
       id="linearGradient8575"
       y2="573.54688"
       x2="1395.0938"
       y1="573.54688"
       x1="1070.3125" />
    <linearGradient
       gradientUnits="userSpaceOnUse"
       xlink:href="#linearGradient8095"
       id="linearGradient8577"
       y2="225.60284"
       x2="1205.5524"
       y1="337.10272"
       x1="1229.833" />
    <linearGradient
       gradientTransform="matrix(0.75377969,0,0,0.75377969,-219.45407,399.36759)"
       gradientUnits="userSpaceOnUse"
       xlink:href="#linearGradient8243"
       id="linearGradient8619"
       y2="494.52933"
       x2="660.59375"
       y1="494.52933"
       x1="344.4375" />
    <linearGradient
       gradientTransform="matrix(0.75377969,0,0,0.75377969,-219.45407,359.89804)"
       gradientUnits="userSpaceOnUse"
       xlink:href="#linearGradient8443"
       id="linearGradient8623"
       y2="482.70663"
       x2="648.74463"
       y1="434.50565"
       x1="421.97687" />
    <linearGradient
       gradientTransform="matrix(0.75377969,0,0,0.75377969,-219.45407,399.36759)"
       gradientUnits="userSpaceOnUse"
       xlink:href="#linearGradient8443"
       id="linearGradient8641"
       y2="372.0542"
       x2="372.04007"
       y1="412.89941"
       x1="760.65625" />
    <radialGradient
       gradientTransform="matrix(0.75377969,0,0,1.0569077,-214.38767,216.07063)"
       gradientUnits="userSpaceOnUse"
       xlink:href="#linearGradient8702"
       id="radialGradient8713"
       fy="464.44922"
       fx="486.84409"
       r="88.522751"
       cy="464.44922"
       cx="486.84409" />
    <filter
       id="filter8821"
       color-interpolation-filters="sRGB"
       height="1.2431571"
       width="1.0796552"
       y="-0.12157859"
       x="-0.039827622">
      <feGaussianBlur
         stdDeviation="5.3601661"
         id="feGaussianBlur8823" />
    </filter>
    <linearGradient
       id="linearGradient3764-3"
       x1="1"
       x2="47"
       gradientUnits="userSpaceOnUse"
       gradientTransform="matrix(0,-10.86862,10.869559,0,339.13051,597.82509)">
      <stop
         style="stop-color:#a64e73;stop-opacity:1"
         id="stop2-6" />
      <stop
         offset="1"
         style="stop-color:#b0587d;stop-opacity:1"
         id="stop4-7" />
    </linearGradient>
  </defs>
  <rect
     style="opacity:1;fill:#76d4fd;fill-opacity:1;stroke:none;stroke-width:1.13797271;stroke-opacity:1"
     id="rect51"
     width="1200"
     height="675"
     x="0"
     y="-2.8421709e-14" />
  <path
     style="fill:#000000;fill-opacity:1;stroke-width:10.86908913;opacity:0.1"
     d="m 615,102 c -24.67389,0 -48.50086,3.63051 -71.01172,10.29297 0.0106,0.007 0.0187,0.0142 0.0293,0.0215 h -0.0293 v -0.0215 c -12.7826,3.78228 -25.16305,8.49929 -37,14.18359 l 0.0176,0.0488 c -13.99104,6.71304 -27.26243,14.68456 -39.66406,23.77539 -1.32576,0.97182 -2.64155,1.956 -3.94727,2.95313 -0.20262,0.15439 -0.40922,0.30395 -0.61133,0.45898 l 0.0117,0.006 c -4.22001,3.24291 -8.33878,6.61141 -12.33984,10.11133 -0.97365,0.83343 -1.94168,1.6733 -2.89063,2.5332 -5.6e-4,0.0163 5.1e-4,0.0187 0,0.0352 -14.80224,13.35539 -27.99393,28.45846 -39.26172,44.97851 l 0.002,-0.0176 c -0.0994,0.1458 -0.19386,0.29537 -0.29297,0.4414 -1.00133,1.47457 -1.99054,2.95821 -2.96094,4.45508 -0.99377,1.53292 -1.96689,3.0809 -2.92773,4.63672 -0.15388,0.24947 -0.30597,0.49995 -0.45899,0.75 -12.49071,20.38542 -22.14447,42.69555 -28.40039,66.38867 l -0.0351,-0.004 c -0.37633,1.41782 -0.7172,2.85012 -1.05274,4.28516 C 367.49035,311.43133 365,331.4135 365,351.97852 c 0,81.569 39.07586,153.99657 99.52148,199.62304 0.0912,0.0411 0.18957,0.0801 0.28125,0.1211 l -0.22656,-0.0117 C 506.42398,583.27342 558.49944,602 614.9668,602 c 66.72823,0 127.29399,-26.18322 172.13086,-68.77734 l -0.0918,0.004 c 0.0552,-0.0304 0.11287,-0.0594 0.16797,-0.0898 25.71742,-24.44352 46.22763,-54.28993 59.71679,-87.71094 v -0.0215 c 0.0103,-0.0698 0.0229,-0.14491 0.0332,-0.21485 5.77165,-14.34685 10.2691,-29.33941 13.30469,-44.85547 0.0104,-0.0104 0.0208,-0.0229 0.0312,-0.0332 h 0.0234 C 863.34847,384.6717 865,368.53202 865,352.01172 c 0,-1.2825 -0.0659,-2.54367 -0.0879,-3.82617 h -0.0215 c -0.02,-0.0131 -0.0348,-0.026 -0.0547,-0.0391 -0.12977,-8.57372 -0.69139,-17.0286 -1.65821,-25.37695 0.0128,-0.0369 0.0263,-0.0665 0.0391,-0.10351 -2.01007,-17.13288 -5.72559,-33.73399 -11.01563,-49.62891 l 0.0156,-0.008 C 831.76033,211.53465 788.09701,160.66894 731.56445,130.86719 l -0.01,-0.043 -0.0332,0.0195 C 696.7115,112.46114 657.07761,102.01172 614.9668,102.01172 Z"
     id="path61"
     inkscape:connector-curvature="0" />
  <circle
     style="fill:#fa8e5a;stroke-width:8.75258255;fill-opacity:1"
     cy="337"
     cx="600"
     r="250"
     id="circle1249" />
  <path
     style="fill:#ffffff;stroke-width:8.75258255"
     inkscape:connector-curvature="0"
     d="m 597.24293,211.99562 c -63.28292,0 -114.58005,56.74211 -114.58005,126.73738 0,69.9944 51.30063,126.73739 114.58005,126.73739 25.38599,0 48.71687,-9.28474 67.70823,-24.73917 15.53058,13.13588 33.80509,23.40353 52.7343,32.33466 l 17.36075,-44.27056 c -19.46837,-2.90323 -32.06333,-9.6821 -43.83643,-17.79487 12.90568,-20.50818 20.61671,-45.38476 20.61671,-72.26569 0,-69.9944 -51.30064,-126.73739 -114.58006,-126.73739 z m 0,41.66666 c 36.43525,0 65.97259,38.08686 65.97259,85.06985 0,46.98298 -29.53646,85.06985 -65.97259,85.06985 -36.43525,0 -65.97259,-38.08687 -65.97259,-85.06985 0,-46.98299 29.53647,-85.06985 65.97259,-85.06985 z"
     id="path1251" />
</svg>
