<?xml version="1.0" encoding="UTF-8" standalone="no"?>
<svg
   xmlns:dc="http://purl.org/dc/elements/1.1/"
   xmlns:cc="http://creativecommons.org/ns#"
   xmlns:rdf="http://www.w3.org/1999/02/22-rdf-syntax-ns#"
   xmlns:svg="http://www.w3.org/2000/svg"
   xmlns="http://www.w3.org/2000/svg"
   xmlns:xlink="http://www.w3.org/1999/xlink"
   xmlns:sodipodi="http://sodipodi.sourceforge.net/DTD/sodipodi-0.dtd"
   xmlns:inkscape="http://www.inkscape.org/namespaces/inkscape"
   viewBox="0 0 1200 675"
   version="1.1"
   id="svg45"
   sodipodi:docname="drwho.svg"
   width="1200"
   height="675"
   inkscape:version="0.92.1 r15371"
   inkscape:export-filename="/home/josh/Code/web/blog/images/facebook.png"
   inkscape:export-xdpi="96"
   inkscape:export-ydpi="96">
  <metadata
     id="metadata49">
    <rdf:RDF>
      <cc:Work
         rdf:about="">
        <dc:format>image/svg+xml</dc:format>
        <dc:type
           rdf:resource="http://purl.org/dc/dcmitype/StillImage" />
        <dc:title></dc:title>
      </cc:Work>
    </rdf:RDF>
  </metadata>
  <sodipodi:namedview
     pagecolor="#ffffff"
     bordercolor="#666666"
     borderopacity="1"
     objecttolerance="10"
     gridtolerance="10"
     guidetolerance="10"
     inkscape:pageopacity="0"
     inkscape:pageshadow="2"
     inkscape:window-width="1580"
     inkscape:window-height="840"
     id="namedview47"
     showgrid="false"
     inkscape:zoom="0.30729166"
     inkscape:cx="552.30953"
     inkscape:cy="82.672435"
     inkscape:window-x="10"
     inkscape:window-y="50"
     inkscape:window-maximized="0"
     inkscape:current-layer="svg45"
     showguides="false">
    <inkscape:grid
       type="xygrid"
       id="grid387" />
  </sodipodi:namedview>
  <defs
     id="defs7">
    <linearGradient
       inkscape:collect="always"
       id="linearGradient1422">
      <stop
         style="stop-color:#f1f1dc;stop-opacity:1;"
         offset="0"
         id="stop1418" />
      <stop
         style="stop-color:#f1f1dc;stop-opacity:0;"
         offset="1"
         id="stop1420" />
    </linearGradient>
    <radialGradient
       inkscape:collect="always"
       xlink:href="#linearGradient1422"
       id="radialGradient1424"
       cx="600.04572"
       cy="105.13281"
       fx="600.04572"
       fy="105.13281"
       r="5.3535843"
       gradientTransform="matrix(2.6353143,0.02321708,-0.05349559,3.5442733,-975.79328,-281.6265)"
       gradientUnits="userSpaceOnUse" />
  </defs>
  <rect
     style="opacity:1;fill:#e4b2a5;fill-opacity:1;stroke:none;stroke-width:1.13797271;stroke-opacity:1"
     id="rect51"
     width="1200"
     height="675"
     x="0"
     y="-2.8421709e-14" />
  <path
     id="path1426"
     d="m 615,105 -10,5 v 20 h -5 v 5 l -95,15 v 15 h -10 v 15 l -10,5 v 30 h 10 v 370 l -10,5 v 15 h 130 130 v -15 l -10,-5 V 215 h 10 v -30 l -10,-5 v -15 h -10 v -15 l -95,-15 v -5 h -5 v -20 z m -3,8 h 3 3 v 13 l -3,0.5918 L 612,126 Z"
     style="fill:#000000;fill-opacity:1;fill-rule:evenodd;stroke:none;stroke-width:1px;stroke-linecap:butt;stroke-linejoin:miter;stroke-opacity:1;opacity:0.1"
     inkscape:connector-curvature="0" />
  <path
     style="fill:#2e5087;fill-rule:evenodd;stroke:none;stroke-width:1px;stroke-linecap:butt;stroke-linejoin:miter;stroke-opacity:1;fill-opacity:1"
     d="M 600 90 L 590 95 L 590 115 L 585 115 L 585 120 L 490 135 L 490 150 L 480 150 L 480 165 L 470 170 L 470 200 L 480 200 L 480 570 L 470 575 L 470 590 L 600 590 L 730 590 L 730 575 L 720 570 L 720 200 L 730 200 L 730 170 L 720 165 L 720 150 L 710 150 L 710 135 L 615 120 L 615 115 L 610 115 L 610 95 L 600 90 z M 597 98 L 600 98 L 603 98 L 603 111 L 600 111.5918 L 597 111 L 597 98 z "
     id="path1210" />
  <rect
     style="opacity:1;fill:#2d2d2d;fill-opacity:1;stroke:none;stroke-width:0.98882645;stroke-opacity:1"
     id="rect1215"
     width="220"
     height="25"
     x="490"
     y="170" />
  <rect
     style="opacity:1;fill:#f1f1dc;fill-opacity:1;stroke:none;stroke-opacity:1"
     id="rect1217"
     width="20"
     height="35"
     x="505"
     y="210" />
  <rect
     style="opacity:1;fill:#f1f1dc;fill-opacity:1;stroke:none;stroke-opacity:1"
     id="rect1219"
     width="20"
     height="35"
     x="530"
     y="210" />
  <rect
     style="opacity:1;fill:#f1f1dc;fill-opacity:1;stroke:none;stroke-opacity:1"
     id="rect1221"
     width="20"
     height="35"
     x="555"
     y="210" />
  <rect
     style="opacity:1;fill:#f1f1dc;fill-opacity:1;stroke:none;stroke-opacity:1"
     id="rect1217-3"
     width="20"
     height="35"
     x="505"
     y="250" />
  <rect
     style="opacity:1;fill:#f1f1dc;fill-opacity:1;stroke:none;stroke-opacity:1"
     id="rect1219-6"
     width="20"
     height="35"
     x="530"
     y="250" />
  <rect
     style="opacity:1;fill:#f1f1dc;fill-opacity:1;stroke:none;stroke-opacity:1"
     id="rect1221-7"
     width="20"
     height="35"
     x="555"
     y="250" />
  <rect
     style="opacity:1;fill:#f1f1dc;fill-opacity:1;stroke:none;stroke-opacity:1"
     id="rect1217-5"
     width="20"
     height="35"
     x="625"
     y="210" />
  <rect
     style="opacity:1;fill:#f1f1dc;fill-opacity:1;stroke:none;stroke-opacity:1"
     id="rect1219-3"
     width="20"
     height="35"
     x="650"
     y="210" />
  <rect
     style="opacity:1;fill:#f1f1dc;fill-opacity:1;stroke:none;stroke-opacity:1"
     id="rect1221-5"
     width="20"
     height="35"
     x="675"
     y="210" />
  <rect
     style="opacity:1;fill:#f1f1dc;fill-opacity:1;stroke:none;stroke-opacity:1"
     id="rect1217-3-6"
     width="20"
     height="35"
     x="625"
     y="250" />
  <rect
     style="opacity:1;fill:#f1f1dc;fill-opacity:1;stroke:none;stroke-opacity:1"
     id="rect1219-6-2"
     width="20"
     height="35"
     x="650"
     y="250" />
  <rect
     style="opacity:1;fill:#f1f1dc;fill-opacity:1;stroke:none;stroke-opacity:1"
     id="rect1221-7-9"
     width="20"
     height="35"
     x="675"
     y="250" />
  <rect
     style="opacity:1;fill:#264370;fill-opacity:1;stroke:none;stroke-width:0.99433422;stroke-opacity:1"
     id="rect1276"
     width="4"
     height="350"
     x="598"
     y="210" />
  <rect
     style="opacity:1;fill:#3861a4;fill-opacity:1;stroke:none;stroke-opacity:1"
     id="rect1278"
     width="60"
     height="75"
     x="510"
     y="300" />
  <rect
     style="opacity:1;fill:#3861a4;fill-opacity:1;stroke:none;stroke-opacity:1"
     id="rect1278-1"
     width="60"
     height="75"
     x="630"
     y="300" />
  <rect
     style="opacity:1;fill:#3861a4;fill-opacity:1;stroke:none;stroke-opacity:1"
     id="rect1278-2"
     width="60"
     height="75"
     x="510"
     y="395" />
  <rect
     style="opacity:1;fill:#3861a4;fill-opacity:1;stroke:none;stroke-opacity:1"
     id="rect1278-1-7"
     width="60"
     height="75"
     x="630"
     y="395" />
  <rect
     style="opacity:1;fill:#3861a4;fill-opacity:1;stroke:none;stroke-width:0.96609181;stroke-opacity:1"
     id="rect1278-2-0"
     width="60"
     height="70"
     x="510"
     y="490" />
  <rect
     style="opacity:1;fill:#3861a4;fill-opacity:1;stroke:none;stroke-width:0.96609181;stroke-opacity:1"
     id="rect1278-1-7-9"
     width="60"
     height="70"
     x="630"
     y="490" />
  <rect
     y="305"
     x="515"
     height="65"
     width="50"
     id="rect1351"
     style="opacity:1;fill:#e7e7e6;fill-opacity:1;stroke:none;stroke-width:0.84983659;stroke-opacity:1" />
  <rect
     style="opacity:1;fill:#2d2d2d;fill-opacity:1;stroke:none;stroke-opacity:1"
     id="rect1353"
     width="40"
     height="5"
     x="520"
     y="310" />
  <rect
     style="opacity:1;fill:#2d2d2d;fill-opacity:1;stroke:none;stroke-opacity:1"
     id="rect1353-3"
     width="40"
     height="5"
     x="520"
     y="320" />
  <rect
     style="opacity:1;fill:#2d2d2d;fill-opacity:1;stroke:none;stroke-opacity:1"
     id="rect1353-6"
     width="40"
     height="5"
     x="520"
     y="330" />
  <rect
     style="opacity:1;fill:#2d2d2d;fill-opacity:1;stroke:none;stroke-opacity:1"
     id="rect1353-3-0"
     width="40"
     height="5"
     x="520"
     y="340" />
  <rect
     style="opacity:1;fill:#2d2d2d;fill-opacity:1;stroke:none;stroke-opacity:1"
     id="rect1353-6-6"
     width="40"
     height="5"
     x="520"
     y="350" />
  <rect
     style="opacity:1;fill:#2d2d2d;fill-opacity:1;stroke:none;stroke-opacity:1"
     id="rect1353-3-0-2"
     width="40"
     height="5"
     x="520"
     y="360" />
  <ellipse
     style="opacity:1;fill:url(#radialGradient1424);fill-opacity:1;stroke:none;stroke-width:3.10176492;stroke-opacity:1"
     id="path1416"
     cx="600.13708"
     cy="105.20564"
     rx="14.194587"
     ry="23.044853" />
  <path
     style="fill:#3861a4;fill-rule:evenodd;stroke:none;stroke-width:1px;stroke-linecap:butt;stroke-linejoin:miter;stroke-opacity:1;fill-opacity:1"
     d="m 470,590 v -15 l 10,-5 h 240 l 10,5 v 15 z"
     id="path1428"
     inkscape:connector-curvature="0" />
  <path
     style="fill:#1f3559;fill-rule:evenodd;stroke:none;stroke-width:1px;stroke-linecap:butt;stroke-linejoin:miter;stroke-opacity:1;fill-opacity:1"
     d="M 490,135 H 710 L 615,120 H 585 Z"
     id="path1430"
     inkscape:connector-curvature="0" />
  <path
     style="fill:#264370;fill-rule:evenodd;stroke:none;stroke-width:1px;stroke-linecap:butt;stroke-linejoin:miter;stroke-opacity:1;fill-opacity:1"
     d="m 490,150 v -15 h 220 v 15 z"
     id="path1432"
     inkscape:connector-curvature="0" />
  <rect
     style="opacity:1;fill:#e7e7e6;fill-opacity:1;stroke:none;stroke-opacity:1"
     id="rect1434"
     width="5"
     height="15"
     x="500"
     y="175" />
  <rect
     style="opacity:1;fill:#e7e7e6;fill-opacity:1;stroke:none;stroke-opacity:1"
     id="rect1436"
     width="5"
     height="10"
     x="505"
     y="175" />
  <rect
     style="opacity:1;fill:#e7e7e6;fill-opacity:1;stroke:none;stroke-opacity:1"
     id="rect1438"
     width="10"
     height="15"
     x="515"
     y="175" />
  <rect
     style="opacity:1;fill:#e7e7e6;fill-opacity:1;stroke:none;stroke-opacity:1"
     id="rect1440"
     width="5"
     height="15"
     x="530"
     y="175" />
  <rect
     style="opacity:1;fill:#e7e7e6;fill-opacity:1;stroke:none;stroke-opacity:1"
     id="rect1447"
     width="5"
     height="15"
     x="540"
     y="175" />
  <rect
     style="opacity:1;fill:#e7e7e6;fill-opacity:1;stroke:none;stroke-opacity:1"
     id="rect1449"
     width="5"
     height="15"
     x="550"
     y="175" />
  <rect
     style="opacity:1;fill:#e7e7e6;fill-opacity:1;stroke:none;stroke-opacity:1"
     id="rect1451"
     width="5"
     height="5"
     x="555"
     y="175" />
  <rect
     style="opacity:1;fill:#e7e7e6;fill-opacity:1;stroke:none;stroke-opacity:1"
     id="rect1453"
     width="5"
     height="5"
     x="555"
     y="185" />
  <rect
     style="opacity:1;fill:#e7e7e6;fill-opacity:1;stroke:none;stroke-opacity:1"
     id="rect1455"
     width="10"
     height="15"
     x="565"
     y="175" />
  <rect
     style="opacity:1;fill:#e7e7e6;fill-opacity:1;stroke:none;stroke-opacity:1"
     id="rect1457"
     width="10"
     height="15"
     x="675"
     y="175" />
  <rect
     style="opacity:1;fill:#e7e7e6;fill-opacity:1;stroke:none;stroke-opacity:1"
     id="rect1459"
     width="10"
     height="15"
     x="660"
     y="175" />
  <rect
     style="opacity:1;fill:#e7e7e6;fill-opacity:1;stroke:none;stroke-opacity:1"
     id="rect1461"
     width="10"
     height="15"
     x="645"
     y="175" />
  <rect
     style="opacity:1;fill:#e7e7e6;fill-opacity:1;stroke:none;stroke-opacity:1"
     id="rect1463"
     width="30"
     height="5"
     x="590"
     y="175" />
  <rect
     style="opacity:1;fill:#e7e7e6;fill-opacity:1;stroke:none;stroke-opacity:1"
     id="rect1465"
     width="20"
     height="5"
     x="595"
     y="185" />
</svg>
