<?xml version="1.0" encoding="UTF-8" standalone="no"?>
<svg
   xmlns:dc="http://purl.org/dc/elements/1.1/"
   xmlns:cc="http://creativecommons.org/ns#"
   xmlns:rdf="http://www.w3.org/1999/02/22-rdf-syntax-ns#"
   xmlns:svg="http://www.w3.org/2000/svg"
   xmlns="http://www.w3.org/2000/svg"
   xmlns:xlink="http://www.w3.org/1999/xlink"
   xmlns:sodipodi="http://sodipodi.sourceforge.net/DTD/sodipodi-0.dtd"
   xmlns:inkscape="http://www.inkscape.org/namespaces/inkscape"
   viewBox="0 0 1200 675"
   version="1.1"
   id="svg45"
   sodipodi:docname="asscred.svg"
   width="1200"
   height="675"
   inkscape:version="0.92.1 r15371"
   inkscape:export-filename="/home/josh/Code/web/blog/images/facebook.png"
   inkscape:export-xdpi="96"
   inkscape:export-ydpi="96">
  <metadata
     id="metadata49">
    <rdf:RDF>
      <cc:Work
         rdf:about="">
        <dc:format>image/svg+xml</dc:format>
        <dc:type
           rdf:resource="http://purl.org/dc/dcmitype/StillImage" />
        <dc:title />
      </cc:Work>
    </rdf:RDF>
  </metadata>
  <sodipodi:namedview
     pagecolor="#ffffff"
     bordercolor="#666666"
     borderopacity="1"
     objecttolerance="10"
     gridtolerance="10"
     guidetolerance="10"
     inkscape:pageopacity="0"
     inkscape:pageshadow="2"
     inkscape:window-width="1580"
     inkscape:window-height="840"
     id="namedview47"
     showgrid="false"
     inkscape:zoom="0.43457604"
     inkscape:cx="642.11851"
     inkscape:cy="336.38038"
     inkscape:window-x="10"
     inkscape:window-y="50"
     inkscape:window-maximized="0"
     inkscape:current-layer="svg45">
    <inkscape:grid
       type="xygrid"
       id="grid387" />
  </sodipodi:namedview>
  <defs
     id="defs7">
    <linearGradient
       id="linearGradient3764"
       x1="1"
       x2="47"
       gradientUnits="userSpaceOnUse"
       gradientTransform="rotate(-90,23.999998,24)">
      <stop
         style="stop-color:#344e8e;stop-opacity:1"
         id="stop2" />
      <stop
         offset="1"
         style="stop-color:#3a569c;stop-opacity:1"
         id="stop4" />
    </linearGradient>
    <linearGradient
       id="linearGradient8702">
      <stop
         offset="0"
         style="stop-color:#dce1ea;stop-opacity:1"
         id="stop8704" />
      <stop
         offset="1"
         style="stop-color:#c0cad9;stop-opacity:1"
         id="stop8706" />
    </linearGradient>
    <linearGradient
       id="linearGradient8443">
      <stop
         offset="0"
         style="stop-color:#000000;stop-opacity:1"
         id="stop8445" />
      <stop
         offset="1"
         style="stop-color:#000000;stop-opacity:0"
         id="stop8447" />
    </linearGradient>
    <linearGradient
       id="linearGradient8243">
      <stop
         offset="0"
         style="stop-color:#142842;stop-opacity:1"
         id="stop8245" />
      <stop
         offset="0.08385646"
         style="stop-color:#1a3453;stop-opacity:1"
         id="stop8251" />
      <stop
         offset="1"
         style="stop-color:#172e4a;stop-opacity:1"
         id="stop8247" />
    </linearGradient>
    <linearGradient
       id="linearGradient8235">
      <stop
         offset="0"
         style="stop-color:#0b121e;stop-opacity:1"
         id="stop8237" />
      <stop
         offset="1"
         style="stop-color:#1b2c47;stop-opacity:1"
         id="stop8239" />
    </linearGradient>
    <linearGradient
       id="linearGradient8181">
      <stop
         offset="0"
         style="stop-color:#494b47;stop-opacity:1"
         id="stop8183" />
      <stop
         offset="1"
         style="stop-color:#7e817b;stop-opacity:1"
         id="stop8185" />
    </linearGradient>
    <linearGradient
       id="linearGradient8125">
      <stop
         offset="0"
         style="stop-color:#8d8d8d;stop-opacity:1"
         id="stop8127" />
      <stop
         offset="1"
         style="stop-color:#a2a2a2;stop-opacity:1"
         id="stop8129" />
    </linearGradient>
    <linearGradient
       id="linearGradient8095">
      <stop
         offset="0"
         style="stop-color:#ffffff;stop-opacity:1"
         id="stop8097" />
      <stop
         offset="1"
         style="stop-color:#ffffff;stop-opacity:0"
         id="stop8099" />
    </linearGradient>
    <linearGradient
       id="linearGradient8075">
      <stop
         offset="0"
         style="stop-color:#2e3436;stop-opacity:1"
         id="stop8077" />
      <stop
         offset="1"
         style="stop-color:#262b2d;stop-opacity:1"
         id="stop8079" />
    </linearGradient>
    <linearGradient
       id="linearGradient8065">
      <stop
         offset="0"
         style="stop-color:#a0a0a0;stop-opacity:1"
         id="stop8067" />
      <stop
         offset="0.40000001"
         style="stop-color:#aaaaaa;stop-opacity:1"
         id="stop8073" />
      <stop
         offset="1"
         style="stop-color:#969696;stop-opacity:1"
         id="stop8069" />
    </linearGradient>
    <linearGradient
       id="linearGradient8053">
      <stop
         offset="0"
         style="stop-color:#989898;stop-opacity:1"
         id="stop8055" />
      <stop
         offset="0.03"
         style="stop-color:#c7c7c7;stop-opacity:1"
         id="stop8061" />
      <stop
         offset="0.97000003"
         style="stop-color:#c7c7c7;stop-opacity:1"
         id="stop8063" />
      <stop
         offset="1"
         style="stop-color:#989898;stop-opacity:1"
         id="stop8057" />
    </linearGradient>
    <linearGradient
       gradientTransform="translate(0.42500144,-0.6066262)"
       gradientUnits="userSpaceOnUse"
       xlink:href="#linearGradient8053"
       id="linearGradient8569"
       y2="454.8363"
       x2="1420.8883"
       y1="454.8363"
       x1="1044.494" />
    <linearGradient
       gradientTransform="translate(0,-0.96733016)"
       gradientUnits="userSpaceOnUse"
       xlink:href="#linearGradient8065"
       id="linearGradient8571"
       y2="213.32445"
       x2="1420.8883"
       y1="213.32445"
       x1="1044.494" />
    <radialGradient
       gradientTransform="matrix(0.98525846,0.17107242,-0.21134819,1.217219,102.63322,-301.70066)"
       gradientUnits="userSpaceOnUse"
       xlink:href="#linearGradient8075"
       id="radialGradient8573"
       fy="397.8363"
       fx="1258.4324"
       r="162.39394"
       cy="397.8363"
       cx="1258.4324" />
    <linearGradient
       gradientUnits="userSpaceOnUse"
       xlink:href="#linearGradient8125"
       id="linearGradient8575"
       y2="573.54688"
       x2="1395.0938"
       y1="573.54688"
       x1="1070.3125" />
    <linearGradient
       gradientUnits="userSpaceOnUse"
       xlink:href="#linearGradient8095"
       id="linearGradient8577"
       y2="225.60284"
       x2="1205.5524"
       y1="337.10272"
       x1="1229.833" />
    <linearGradient
       gradientTransform="matrix(0.75377969,0,0,0.75377969,-219.45407,399.36759)"
       gradientUnits="userSpaceOnUse"
       xlink:href="#linearGradient8243"
       id="linearGradient8619"
       y2="494.52933"
       x2="660.59375"
       y1="494.52933"
       x1="344.4375" />
    <linearGradient
       gradientTransform="matrix(0.75377969,0,0,0.75377969,-219.45407,359.89804)"
       gradientUnits="userSpaceOnUse"
       xlink:href="#linearGradient8443"
       id="linearGradient8623"
       y2="482.70663"
       x2="648.74463"
       y1="434.50565"
       x1="421.97687" />
    <linearGradient
       gradientTransform="matrix(0.75377969,0,0,0.75377969,-219.45407,399.36759)"
       gradientUnits="userSpaceOnUse"
       xlink:href="#linearGradient8443"
       id="linearGradient8641"
       y2="372.0542"
       x2="372.04007"
       y1="412.89941"
       x1="760.65625" />
    <radialGradient
       gradientTransform="matrix(0.75377969,0,0,1.0569077,-214.38767,216.07063)"
       gradientUnits="userSpaceOnUse"
       xlink:href="#linearGradient8702"
       id="radialGradient8713"
       fy="464.44922"
       fx="486.84409"
       r="88.522751"
       cy="464.44922"
       cx="486.84409" />
    <filter
       id="filter8821"
       color-interpolation-filters="sRGB"
       height="1.2431571"
       width="1.0796552"
       y="-0.12157859"
       x="-0.039827622">
      <feGaussianBlur
         stdDeviation="5.3601661"
         id="feGaussianBlur8823" />
    </filter>
    <clipPath
       clipPathUnits="userSpaceOnUse"
       id="clipPath3001">
      <path
         d="m 0,841.89 595.276,0 L 595.276,0 0,0 0,841.89 z"
         id="path3003"
         inkscape:connector-curvature="0" />
    </clipPath>
  </defs>
  <rect
     style="opacity:1;fill:#eaeaeb;fill-opacity:1;stroke:none;stroke-width:1.13797271;stroke-opacity:1"
     id="rect51"
     width="1200"
     height="675"
     x="0"
     y="-2.8421709e-14" />
  <g
     transform="matrix(2.7303395,0,0,2.8853048,-116.85326,-1462.8261)"
     id="layer1-3"
     inkscape:label="Layer 1">
    <g
       transform="matrix(1.0336531,0,0,-1.0336531,-46.491884,1054.1247)"
       id="g2997">
      <g
         clip-path="url(#clipPath3001)"
         id="g2999">
        <g
           transform="translate(245.8096,384.0361)"
           id="g3005">
          <path
             id="path3007"
             style="fill:#c7c8ca;fill-opacity:1;fill-rule:nonzero;stroke:none"
             d="m 0,0 c 3.28,1.288 6.631,1.055 10.787,-2.131 13.404,-13.861 34.001,-17.705 38.695,-18.158 -2.452,0.667 -33.304,6.906 -24.629,29.954 0.213,0.4 26.406,72.363 26.406,72.363 L 80.847,10.877 c 11.607,-24.162 -20.178,-30.138 -23.951,-31.166 4.632,0.445 24.746,4.19 38.156,17.603 4.478,3.704 8.019,4.044 11.478,2.686 -3.98,9.059 -2.357,17.443 -0.843,22.016 l 1.48,3.605 c 0,0 -18.961,-8.543 -28.117,14.012 L 53.604,103.371 27.379,38.512 C 17.242,12.878 -0.636,25.621 -0.636,25.621 l 0.532,-1.12 C 1.336,21.215 4.884,11.11 0,0 m 53.271,-19.729 c -0.093,0.479 -0.193,0.954 -0.306,1.42 -0.114,-0.466 -0.213,-0.941 -0.308,-1.42 -3.257,-9.908 -31.309,-8.753 -55.498,17.835 0,0 21.825,-30.068 55.806,-28.817 33.979,-1.251 55.804,28.817 55.804,28.817 C 84.583,-28.482 56.528,-29.637 53.271,-19.729"
             inkscape:connector-curvature="0" />
        </g>
        <path
           id="path3009"
           style="fill:#c7c8ca;fill-opacity:1;fill-rule:nonzero;stroke:none"
           d="m 157.249,384.36 h 49.945 v 0.715 h -49.945 z"
           inkscape:connector-curvature="0" />
        <path
           id="path3011"
           style="fill:#c7c8ca;fill-opacity:1;fill-rule:nonzero;stroke:none"
           d="m 390.924,384.36 h 49.768 v 0.715 h -49.768 z"
           inkscape:connector-curvature="0" />
        <g
           transform="translate(356.5488,415.1709)"
           id="g3013">
          <path
             id="path3015"
             style="fill:#2d2c2e;fill-opacity:1;fill-rule:nonzero;stroke:none"
             d="m 0,0 c -0.074,1.432 -0.074,25.257 0,26.688 0.072,1.523 0.648,2.761 3.045,3.348 H -7.686 c 2.395,-0.587 2.971,-1.825 3.045,-3.348 0.073,-1.431 0.073,-25.256 0,-26.688 -0.074,-1.521 -0.65,-2.758 -3.045,-3.349 H 3.045 C 0.648,-2.758 0.072,-1.521 0,0"
             inkscape:connector-curvature="0" />
        </g>
        <g
           transform="translate(391.7461,445.207)"
           id="g3017">
          <path
             id="path3019"
             style="fill:#2d2c2e;fill-opacity:1;fill-rule:nonzero;stroke:none"
             d="m 0,0 c -0.016,-0.042 3.617,-0.043 4.045,-5.245 v -18.873 c -7.879,7.629 -25.695,24.67 -25.695,24.67 v -28.693 c -0.428,-5.203 -4.063,-5.204 -4.047,-5.245 h 12.33 c 0.019,0.043 -4.617,0.254 -4.617,5.789 l -0.01,0.38 v 17.562 c 1.756,-1.933 25.205,-23.903 25.654,-24.344 l 0.041,27.832 0.01,0.377 c 0,5.537 4.639,5.745 4.617,5.79 z"
             inkscape:connector-curvature="0" />
        </g>
        <g
           transform="translate(203.1577,407.3535)"
           id="g3021">
          <path
             id="path3023"
             style="fill:#2d2c2e;fill-opacity:1;fill-rule:nonzero;stroke:none"
             d="M 0,0 -18.294,45.829 -38.438,-4.316 c -1.384,-3.445 -7.199,-4.024 -7.15,-4.112 h 11.015 L -19.981,30.483 -5.37,-8.428 H 9.462 C 9.553,-8.34 3.844,-8.067 0,0"
             inkscape:connector-curvature="0" />
        </g>
        <g
           transform="translate(286.5151,417.4238)"
           id="g3025">
          <path
             id="path3027"
             style="fill:#2d2c2e;fill-opacity:1;fill-rule:nonzero;stroke:none"
             d="M 0,0 -12.231,30.642 -25.7,-2.886 c -0.925,-2.302 -4.813,-2.69 -4.78,-2.749 h 7.364 l 9.756,26.016 9.769,-26.016 H 6.326 C 6.387,-5.576 2.57,-5.394 0,0"
             inkscape:connector-curvature="0" />
        </g>
        <g
           transform="translate(408.373,438.1533)"
           id="g3029">
          <path
             id="path3031"
             style="fill:#2d2c2e;fill-opacity:1;fill-rule:nonzero;stroke:none"
             d="M 0,0 C -0.201,1.398 -1.119,7.586 4.271,11.737 2.193,12.576 3.84,15.292 3.84,15.292 3.84,15.292 -2.156,10.66 0,0"
             inkscape:connector-curvature="0" />
        </g>
        <path
           id="path3033"
           style="fill:#2d2c2e;fill-opacity:1;fill-rule:nonzero;stroke:none"
           d="m 195.58,412.948 h -25.826 v -2.396 h 25.826 z"
           inkscape:connector-curvature="0" />
        <path
           id="path3035"
           style="fill:#2d2c2e;fill-opacity:1;fill-rule:nonzero;stroke:none"
           d="m 282.108,422.169 h -17.231 v -1.438 h 17.231 z"
           inkscape:connector-curvature="0" />
        <g
           transform="translate(213.1738,375.1885)"
           id="g3037">
          <path
             id="path3039"
             style="fill:#c1232c;fill-opacity:1;fill-rule:nonzero;stroke:none"
             d="m 0,0 c -2.907,2.552 -3.678,5.874 -3.678,8.751 0,2.018 0.622,5.519 3.47,8.128 2.136,1.959 4.954,3.144 9.375,3.144 1.838,0 2.936,-0.119 4.301,-0.296 1.127,-0.148 2.076,-0.415 2.966,-0.504 0.326,-0.03 0.445,-0.178 0.445,-0.356 0,-0.238 -0.089,-0.594 -0.149,-1.632 -0.059,-0.978 -0.029,-2.61 -0.088,-3.204 -0.03,-0.445 -0.089,-0.681 -0.356,-0.681 -0.238,0 -0.297,0.236 -0.297,0.652 -0.03,0.92 -0.416,1.958 -1.157,2.728 -0.979,1.04 -3.292,1.84 -6.022,1.84 -2.581,0 -4.271,-0.652 -5.577,-1.84 -2.165,-1.987 -2.729,-4.804 -2.729,-7.681 0,-7.061 5.37,-10.561 9.345,-10.561 2.639,0 4.241,0.296 5.428,1.66 0.504,0.565 0.89,1.424 1.009,1.958 0.089,0.475 0.148,0.593 0.385,0.593 0.208,0 0.267,-0.207 0.267,-0.444 0,-0.357 -0.356,-2.937 -0.652,-3.945 -0.149,-0.505 -0.267,-0.654 -0.771,-0.861 -1.187,-0.474 -3.442,-0.682 -5.34,-0.682 C 6.111,-3.233 2.699,-2.344 0,0"
             inkscape:connector-curvature="0" />
        </g>
        <g
           transform="translate(257.7588,383.8506)"
           id="g3041">
          <path
             id="path3043"
             style="fill:#c1232c;fill-opacity:1;fill-rule:nonzero;stroke:none"
             d="M 0,0 C 0,-0.326 0.06,-0.445 0.267,-0.533 0.89,-0.741 1.78,-0.83 2.521,-0.83 c 1.187,0 1.573,0.119 2.106,0.504 0.891,0.652 1.751,2.017 1.751,4.449 0,4.213 -2.789,5.429 -4.539,5.429 C 1.098,9.552 0.563,9.522 0.267,9.434 0.06,9.374 0,9.256 0,9.018 Z m -3.5,2.344 c 0,4.509 0,5.34 -0.06,6.289 -0.059,1.009 -0.296,1.482 -1.275,1.69 -0.238,0.06 -0.742,0.089 -1.157,0.089 -0.326,0 -0.505,0.06 -0.505,0.268 0,0.207 0.208,0.266 0.653,0.267 1.573,0 3.441,-0.09 4.064,-0.09 1.009,0 3.263,0.09 4.182,0.089 1.869,0 3.857,-0.177 5.459,-1.275 C 8.691,9.107 9.878,7.595 9.878,5.607 9.878,3.412 8.958,1.395 5.962,-1.038 8.603,-4.36 10.649,-7 12.399,-8.84 c 1.662,-1.721 2.878,-1.928 3.323,-2.017 0.326,-0.059 0.593,-0.088 0.831,-0.088 0.237,0 0.356,-0.09 0.356,-0.239 0,-0.236 -0.208,-0.295 -0.564,-0.295 h -2.818 c -1.662,0 -2.403,0.147 -3.174,0.563 -1.276,0.682 -2.403,2.076 -4.064,4.36 -1.187,1.632 -2.551,3.65 -2.937,4.094 -0.148,0.178 -0.326,0.208 -0.534,0.208 L 0.237,-2.195 C 0.089,-2.195 0,-2.254 0,-2.433 v -0.415 c 0,-2.758 0,-5.101 0.148,-6.347 0.089,-0.862 0.267,-1.514 1.157,-1.632 0.445,-0.06 1.097,-0.118 1.454,-0.118 0.237,0 0.356,-0.09 0.356,-0.239 0,-0.207 -0.208,-0.295 -0.594,-0.295 -1.72,0 -3.916,0.088 -4.36,0.088 -0.564,0 -2.432,-0.088 -3.619,-0.088 -0.386,0 -0.594,0.088 -0.594,0.295 0,0.149 0.119,0.239 0.475,0.239 0.445,0 0.801,0.058 1.068,0.118 0.593,0.118 0.741,0.77 0.861,1.632 0.148,1.246 0.148,3.589 0.148,6.318 z"
             inkscape:connector-curvature="0" />
        </g>
        <g
           transform="translate(294.4531,386.1943)"
           id="g3045">
          <path
             id="path3047"
             style="fill:#c1232c;fill-opacity:1;fill-rule:nonzero;stroke:none"
             d="m 0,0 c 0,4.509 0,5.34 -0.06,6.289 -0.059,1.009 -0.296,1.482 -1.275,1.69 -0.237,0.06 -0.741,0.089 -1.157,0.089 -0.326,0 -0.504,0.06 -0.504,0.268 0,0.207 0.208,0.267 0.653,0.267 0.801,0 1.661,-0.03 2.403,-0.03 0.771,-0.03 1.453,-0.059 1.868,-0.059 0.95,0 6.853,0 7.416,0.029 0.564,0.06 1.039,0.119 1.275,0.178 0.149,0.03 0.328,0.119 0.475,0.119 0.15,0 0.179,-0.119 0.179,-0.267 0,-0.208 -0.148,-0.563 -0.238,-1.928 C 11.006,6.348 10.947,5.043 10.887,4.688 10.857,4.539 10.797,4.361 10.59,4.361 c -0.207,0 -0.266,0.148 -0.266,0.414 0,0.208 -0.031,0.713 -0.178,1.069 C 9.938,6.378 9.641,6.734 8.158,6.912 7.654,6.971 4.539,7.03 3.945,7.03 3.797,7.03 3.737,6.941 3.737,6.734 v -7.505 c 0,-0.208 0.031,-0.327 0.208,-0.327 0.653,0 4.065,0 4.746,0.06 0.713,0.059 1.159,0.147 1.424,0.444 0.209,0.238 0.326,0.386 0.475,0.386 0.119,0 0.207,-0.059 0.207,-0.237 0,-0.178 -0.117,-0.653 -0.236,-2.165 -0.03,-0.593 -0.12,-1.781 -0.12,-1.988 0,-0.238 0,-0.564 -0.265,-0.564 -0.209,0 -0.268,0.119 -0.268,0.267 -0.029,0.297 -0.029,0.682 -0.119,1.069 -0.148,0.593 -0.562,1.037 -1.66,1.156 -0.565,0.06 -3.502,0.089 -4.213,0.089 -0.148,0 -0.179,-0.118 -0.179,-0.296 v -2.344 c 0,-1.008 -0.029,-3.738 0,-4.598 0.06,-2.047 0.534,-2.492 3.56,-2.492 0.771,0 2.017,0 2.789,0.356 0.771,0.356 1.127,0.979 1.336,2.195 0.058,0.326 0.117,0.446 0.326,0.446 0.236,0 0.236,-0.238 0.236,-0.535 0,-0.682 -0.236,-2.699 -0.384,-3.293 -0.209,-0.77 -0.475,-0.77 -1.604,-0.77 -2.225,0 -3.855,0.058 -5.131,0.089 -1.275,0.059 -2.195,0.089 -3.085,0.089 -0.326,0 -0.979,0 -1.691,-0.03 -0.682,0 -1.454,-0.059 -2.047,-0.059 -0.385,0 -0.593,0.089 -0.593,0.296 0,0.148 0.118,0.238 0.475,0.238 0.444,0 0.801,0.059 1.067,0.118 0.594,0.118 0.742,0.771 0.861,1.632 C 0,-10.293 0,-7.95 0,-5.221 Z"
             inkscape:connector-curvature="0" />
        </g>
        <g
           transform="translate(331,386.1943)"
           id="g3049">
          <path
             id="path3051"
             style="fill:#c1232c;fill-opacity:1;fill-rule:nonzero;stroke:none"
             d="m 0,0 c 0,4.509 0,5.34 -0.061,6.289 -0.058,1.009 -0.294,1.482 -1.275,1.69 -0.236,0.06 -0.742,0.089 -1.156,0.089 -0.326,0 -0.504,0.06 -0.504,0.268 0,0.207 0.207,0.267 0.652,0.267 0.801,0 1.66,-0.03 2.403,-0.03 0.771,-0.03 1.453,-0.059 1.869,-0.059 0.949,0 6.851,0 7.416,0.029 0.564,0.06 1.039,0.119 1.275,0.178 0.149,0.03 0.326,0.119 0.475,0.119 0.148,0 0.177,-0.119 0.177,-0.267 0,-0.208 -0.148,-0.563 -0.238,-1.928 C 11.006,6.348 10.945,5.043 10.887,4.688 10.855,4.539 10.797,4.361 10.59,4.361 c -0.207,0 -0.268,0.148 -0.268,0.414 0,0.208 -0.029,0.713 -0.177,1.069 C 9.936,6.378 9.641,6.734 8.156,6.912 7.652,6.971 4.537,7.03 3.945,7.03 3.797,7.03 3.736,6.941 3.736,6.734 v -7.505 c 0,-0.208 0.03,-0.327 0.209,-0.327 0.653,0 4.065,0 4.746,0.06 0.711,0.059 1.157,0.147 1.424,0.444 0.207,0.238 0.326,0.386 0.475,0.386 0.119,0 0.207,-0.059 0.207,-0.237 0,-0.178 -0.119,-0.653 -0.236,-2.165 -0.032,-0.593 -0.12,-1.781 -0.12,-1.988 0,-0.238 0,-0.564 -0.267,-0.564 -0.207,0 -0.266,0.119 -0.266,0.267 -0.031,0.297 -0.031,0.682 -0.119,1.069 -0.148,0.593 -0.564,1.037 -1.662,1.156 -0.563,0.06 -3.5,0.089 -4.211,0.089 -0.15,0 -0.18,-0.118 -0.18,-0.296 v -2.344 c 0,-1.008 -0.029,-3.738 0,-4.598 0.061,-2.047 0.535,-2.492 3.561,-2.492 0.771,0 2.017,0 2.789,0.356 0.769,0.356 1.127,0.979 1.334,2.195 0.06,0.326 0.119,0.446 0.326,0.446 0.238,0 0.238,-0.238 0.238,-0.535 0,-0.682 -0.238,-2.699 -0.386,-3.293 -0.207,-0.77 -0.475,-0.77 -1.602,-0.77 -2.225,0 -3.855,0.058 -5.133,0.089 -1.275,0.059 -2.195,0.089 -3.084,0.089 -0.326,0 -0.978,0 -1.691,-0.03 -0.682,0 -1.453,-0.059 -2.047,-0.059 -0.385,0 -0.592,0.089 -0.592,0.296 0,0.148 0.117,0.238 0.473,0.238 0.445,0 0.803,0.059 1.068,0.118 0.594,0.118 0.742,0.771 0.862,1.632 C 0,-10.293 0,-7.95 0,-5.221 Z"
             inkscape:connector-curvature="0" />
        </g>
        <g
           transform="translate(371.2539,382.9316)"
           id="g3053">
          <path
             id="path3055"
             style="fill:#c1232c;fill-opacity:1;fill-rule:nonzero;stroke:none"
             d="m 0,0 c 0,-3.145 0.029,-5.429 0.059,-5.993 0.029,-0.741 0.089,-1.928 0.326,-2.254 0.386,-0.564 1.543,-1.187 3.886,-1.187 3.026,0 5.043,0.593 6.823,2.136 1.898,1.631 2.492,4.331 2.492,7.387 0,3.767 -1.572,6.199 -2.848,7.416 -2.728,2.61 -6.111,2.966 -8.425,2.966 -0.592,0 -1.69,-0.089 -1.928,-0.207 C 0.117,10.145 0.029,9.997 0.029,9.671 0,8.661 0,6.081 0,3.737 Z m -3.709,3.263 c 0,4.508 0,5.34 -0.059,6.289 -0.058,1.009 -0.296,1.482 -1.275,1.69 -0.238,0.06 -0.742,0.089 -1.156,0.089 -0.328,0 -0.506,0.06 -0.506,0.268 0,0.207 0.209,0.266 0.652,0.267 1.573,0 3.442,-0.09 4.272,-0.09 0.92,0 2.789,0.09 4.568,0.089 3.709,0 8.662,0 11.897,-3.382 1.482,-1.543 2.877,-4.004 2.877,-7.534 0,-3.737 -1.573,-6.586 -3.233,-8.276 -1.365,-1.395 -4.451,-3.501 -9.939,-3.501 -1.067,0 -2.284,0.089 -3.41,0.179 -1.127,0.088 -2.167,0.177 -2.907,0.177 -0.328,0 -0.98,0 -1.691,-0.029 -0.684,0 -1.455,-0.06 -2.047,-0.06 -0.387,0 -0.594,0.089 -0.594,0.296 0,0.149 0.119,0.239 0.475,0.239 0.445,0 0.801,0.058 1.068,0.118 0.594,0.118 0.74,0.77 0.86,1.632 0.148,1.246 0.148,3.588 0.148,6.318 z"
             inkscape:connector-curvature="0" />
        </g>
        <g
           transform="translate(429.5156,429.46)"
           id="g3057">
          <path
             id="path3059"
             style="fill:#2d2c2e;fill-opacity:1;fill-rule:nonzero;stroke:none"
             d="m 0,0 -1.943,1.543 c -5.758,4.63 -7.354,7.201 -7.354,10.586 0,4.407 3.123,7.721 8.258,7.568 8.631,-0.259 10.389,-9.703 10.5,-9.556 v 11.574 c -0.109,0.042 -0.232,0.082 -0.371,0.114 -1.803,0.514 -4.715,1.25 -9.229,1.25 -9.646,0 -16.029,-5.807 -16.029,-13.891 0,-5.955 3.443,-10.246 11.076,-16.565 l 0.1,-0.084 1.943,-1.543 c 5.76,-4.631 7.356,-7.201 7.356,-10.586 0,-4.407 -3.121,-7.568 -8.258,-7.568 -9.688,0 -12.863,9.942 -12.975,9.797 v -11.576 c 0.108,-0.042 0.231,-0.083 0.369,-0.114 1.803,-0.513 7.192,-1.488 11.705,-1.488 9.645,0 16.028,5.806 16.028,13.891 C 11.176,-10.695 7.633,-6.32 0,0"
             inkscape:connector-curvature="0" />
        </g>
        <g
           transform="translate(333.0957,431.1758)"
           id="g3061">
          <path
             id="path3063"
             style="fill:#2d2c2e;fill-opacity:1;fill-rule:nonzero;stroke:none"
             d="m 0,0 -1.258,0.997 c -3.722,2.994 -4.756,4.657 -4.756,6.846 0,2.85 2.022,4.993 5.34,4.894 5.582,-0.168 6.719,-6.274 6.791,-6.179 v 7.484 c -0.07,0.027 -0.15,0.053 -0.24,0.073 -1.166,0.332 -3.049,0.809 -5.967,0.809 -6.238,0 -10.365,-3.754 -10.365,-8.983 0,-3.85 2.226,-6.625 7.162,-10.712 l 0.064,-0.054 1.256,-0.997 c 3.725,-2.994 4.758,-4.657 4.758,-6.846 0,-2.851 -2.019,-4.894 -5.342,-4.894 -6.263,0 -8.318,6.43 -8.39,6.335 v -7.485 c 0.072,-0.027 0.15,-0.053 0.24,-0.073 1.166,-0.333 4.65,-0.964 7.568,-0.964 6.237,0 10.366,3.755 10.366,8.983 C 7.227,-6.915 4.936,-4.087 0,0"
             inkscape:connector-curvature="0" />
        </g>
        <g
           transform="translate(307.9434,431.1758)"
           id="g3065">
          <path
             id="path3067"
             style="fill:#2d2c2e;fill-opacity:1;fill-rule:nonzero;stroke:none"
             d="m 0,0 -1.258,0.997 c -3.722,2.994 -4.756,4.657 -4.756,6.846 0,2.85 2.022,4.993 5.34,4.894 5.582,-0.168 6.719,-6.274 6.791,-6.179 v 7.484 c -0.07,0.027 -0.15,0.053 -0.24,0.073 -1.166,0.332 -3.049,0.809 -5.967,0.809 -6.238,0 -10.366,-3.754 -10.366,-8.983 0,-3.85 2.227,-6.625 7.163,-10.712 l 0.064,-0.054 1.256,-0.997 c 3.725,-2.994 4.758,-4.657 4.758,-6.846 0,-2.851 -2.019,-4.894 -5.342,-4.894 -6.263,0 -8.318,6.43 -8.389,6.335 v -7.485 c 0.07,-0.027 0.149,-0.053 0.239,-0.073 1.166,-0.333 4.65,-0.964 7.568,-0.964 6.239,0 10.366,3.755 10.366,8.983 C 7.227,-6.915 4.936,-4.087 0,0"
             inkscape:connector-curvature="0" />
        </g>
        <g
           transform="translate(246.2202,431.1758)"
           id="g3069">
          <path
             id="path3071"
             style="fill:#2d2c2e;fill-opacity:1;fill-rule:nonzero;stroke:none"
             d="m 0,0 -1.256,0.997 c -3.725,2.994 -4.757,4.657 -4.757,6.846 0,2.85 2.021,4.993 5.341,4.894 5.582,-0.168 6.717,-6.274 6.79,-6.179 v 7.484 c -0.071,0.027 -0.15,0.053 -0.24,0.073 -1.166,0.332 -3.049,0.809 -5.968,0.809 -6.238,0 -10.365,-3.754 -10.365,-8.983 0,-3.85 2.227,-6.625 7.163,-10.712 l 0.064,-0.054 1.257,-0.997 c 3.723,-2.994 4.756,-4.657 4.756,-6.846 0,-2.851 -2.019,-4.894 -5.341,-4.894 -6.264,0 -8.318,6.43 -8.39,6.335 v -7.485 c 0.071,-0.027 0.149,-0.053 0.239,-0.073 1.166,-0.333 4.651,-0.964 7.57,-0.964 6.236,0 10.364,3.755 10.364,8.983 C 7.227,-6.915 4.936,-4.087 0,0"
             inkscape:connector-curvature="0" />
        </g>
        <g
           transform="translate(221.0684,431.1758)"
           id="g3073">
          <path
             id="path3075"
             style="fill:#2d2c2e;fill-opacity:1;fill-rule:nonzero;stroke:none"
             d="m 0,0 -1.257,0.997 c -3.724,2.994 -4.756,4.657 -4.756,6.846 0,2.85 2.021,4.993 5.34,4.894 5.582,-0.168 6.717,-6.274 6.79,-6.179 v 7.484 c -0.07,0.027 -0.15,0.053 -0.24,0.073 -1.166,0.332 -3.049,0.809 -5.967,0.809 -6.238,0 -10.366,-3.754 -10.366,-8.983 0,-3.85 2.228,-6.625 7.163,-10.712 l 0.065,-0.054 1.256,-0.997 c 3.724,-2.994 4.757,-4.657 4.757,-6.846 0,-2.851 -2.019,-4.894 -5.341,-4.894 -6.264,0 -8.318,6.43 -8.39,6.335 v -7.485 c 0.071,-0.027 0.149,-0.053 0.239,-0.073 1.166,-0.333 4.651,-0.964 7.569,-0.964 6.237,0 10.365,3.755 10.365,8.983 C 7.227,-6.915 4.936,-4.087 0,0"
             inkscape:connector-curvature="0" />
        </g>
        <g
           transform="translate(433.0449,380.6729)"
           id="g3077">
          <path
             id="path3079"
             style="fill:#2d2c2e;fill-opacity:1;fill-rule:nonzero;stroke:none"
             d="m 0,0 c 0,-0.552 0,-1.006 0.027,-1.248 0.018,-0.166 0.053,-0.293 0.225,-0.316 0.08,-0.011 0.207,-0.023 0.258,-0.023 0.035,0 0.047,-0.017 0.047,-0.034 0,-0.029 -0.03,-0.047 -0.092,-0.047 -0.317,0 -0.678,0.018 -0.707,0.018 -0.029,0 -0.391,-0.018 -0.565,-0.018 -0.062,0 -0.091,0.012 -0.091,0.047 0,0.017 0.011,0.034 0.046,0.034 0.053,0 0.122,0.012 0.172,0.023 0.116,0.023 0.145,0.15 0.168,0.316 0.028,0.242 0.028,0.696 0.028,1.248 V 2.432 L -1.334,2.42 C -1.691,2.415 -1.828,2.375 -1.922,2.236 -1.984,2.139 -2.002,2.099 -2.02,2.059 -2.035,2.013 -2.053,2.001 -2.076,2.001 c -0.018,0 -0.029,0.017 -0.029,0.052 0,0.056 0.115,0.551 0.126,0.597 0.012,0.035 0.036,0.11 0.057,0.11 0.041,0 0.098,-0.058 0.254,-0.069 0.166,-0.017 0.385,-0.029 0.455,-0.029 h 2.154 c 0.184,0 0.317,0.012 0.409,0.029 0.088,0.011 0.138,0.028 0.162,0.028 0.027,0 0.027,-0.034 0.027,-0.069 0,-0.171 -0.016,-0.569 -0.016,-0.632 0,-0.052 -0.017,-0.075 -0.041,-0.075 -0.029,0 -0.041,0.018 -0.044,0.098 L 1.43,2.104 C 1.414,2.277 1.275,2.408 0.723,2.42 L 0,2.432 Z"
             inkscape:connector-curvature="0" />
        </g>
        <g
           transform="translate(439.9844,379.7471)"
           id="g3081">
          <path
             id="path3083"
             style="fill:#2d2c2e;fill-opacity:1;fill-rule:nonzero;stroke:none"
             d="m 0,0 c 0.021,-0.207 0.063,-0.529 0.309,-0.609 0.168,-0.052 0.316,-0.052 0.375,-0.052 0.027,0 0.045,-0.006 0.045,-0.028 0,-0.036 -0.051,-0.053 -0.122,-0.053 -0.125,0 -0.746,0.017 -0.959,0.035 -0.132,0.012 -0.16,0.029 -0.16,0.058 0,0.022 0.01,0.034 0.039,0.04 0.03,0.005 0.035,0.103 0.024,0.207 l -0.276,2.966 h -0.017 l -1.408,-2.99 c -0.121,-0.252 -0.139,-0.304 -0.192,-0.304 -0.039,0 -0.068,0.058 -0.178,0.264 -0.148,0.282 -0.644,1.277 -0.671,1.334 -0.053,0.104 -0.696,1.484 -0.76,1.639 h -0.022 l -0.23,-2.668 c -0.006,-0.092 -0.006,-0.195 -0.006,-0.293 0,-0.086 0.063,-0.161 0.148,-0.178 0.098,-0.023 0.184,-0.029 0.219,-0.029 0.024,0 0.047,-0.011 0.047,-0.028 0,-0.041 -0.035,-0.053 -0.103,-0.053 -0.213,0 -0.489,0.017 -0.536,0.017 -0.05,0 -0.328,-0.017 -0.482,-0.017 -0.059,0 -0.098,0.012 -0.098,0.053 0,0.017 0.028,0.028 0.057,0.028 0.047,0 0.086,0 0.172,0.017 0.189,0.035 0.207,0.259 0.23,0.478 l 0.414,3.748 c 0.006,0.063 0.03,0.104 0.063,0.104 0.035,0 0.058,-0.024 0.088,-0.086 l 1.758,-3.618 1.691,3.612 c 0.023,0.051 0.045,0.092 0.086,0.092 0.041,0 0.057,-0.046 0.068,-0.156 z"
             inkscape:connector-curvature="0" />
        </g>
      </g>
    </g>
  </g>
</svg>
