<?xml version="1.0" encoding="UTF-8" standalone="no"?>
<svg
   xmlns:dc="http://purl.org/dc/elements/1.1/"
   xmlns:cc="http://creativecommons.org/ns#"
   xmlns:rdf="http://www.w3.org/1999/02/22-rdf-syntax-ns#"
   xmlns:svg="http://www.w3.org/2000/svg"
   xmlns="http://www.w3.org/2000/svg"
   xmlns:sodipodi="http://sodipodi.sourceforge.net/DTD/sodipodi-0.dtd"
   xmlns:inkscape="http://www.inkscape.org/namespaces/inkscape"
   viewBox="0 0 1200 675"
   version="1.1"
   id="svg45"
   sodipodi:docname="facebook.svg"
   width="1200"
   height="675"
   inkscape:version="0.92.1 r15371"
   inkscape:export-filename="/home/josh/Code/web/blog/images/facebook.png"
   inkscape:export-xdpi="96"
   inkscape:export-ydpi="96">
  <metadata
     id="metadata49">
    <rdf:RDF>
      <cc:Work
         rdf:about="">
        <dc:format>image/svg+xml</dc:format>
        <dc:type
           rdf:resource="http://purl.org/dc/dcmitype/StillImage" />
        <dc:title></dc:title>
      </cc:Work>
    </rdf:RDF>
  </metadata>
  <sodipodi:namedview
     pagecolor="#ffffff"
     bordercolor="#666666"
     borderopacity="1"
     objecttolerance="10"
     gridtolerance="10"
     guidetolerance="10"
     inkscape:pageopacity="0"
     inkscape:pageshadow="2"
     inkscape:window-width="1580"
     inkscape:window-height="840"
     id="namedview47"
     showgrid="false"
     inkscape:zoom="0.43457604"
     inkscape:cx="152.0643"
     inkscape:cy="583.58795"
     inkscape:window-x="10"
     inkscape:window-y="50"
     inkscape:window-maximized="0"
     inkscape:current-layer="svg45" />
  <defs
     id="defs7">
    <linearGradient
       id="linearGradient3764"
       x1="1"
       x2="47"
       gradientUnits="userSpaceOnUse"
       gradientTransform="rotate(-90,23.999998,24)">
      <stop
         style="stop-color:#344e8e;stop-opacity:1"
         id="stop2" />
      <stop
         offset="1"
         style="stop-color:#3a569c;stop-opacity:1"
         id="stop4" />
    </linearGradient>
  </defs>
  <rect
     style="opacity:1;fill:#385397;fill-opacity:1;stroke:none;stroke-width:1.13797271;stroke-opacity:1"
     id="rect51"
     width="1200"
     height="675"
     x="0"
     y="-2.8421709e-14" />
  <g
     id="g31"
     transform="matrix(14.673913,0,0,14.673913,249.32609,-14.673913)">
    <g
       id="g29">
      <g
         transform="translate(1,1)"
         id="g27">
        <g
           style="opacity:0.1"
           id="g25">
          <!-- color: #3a569c -->
          <g
             id="g23">
            <path
               d="m 17,19 h 3 v -2 c 0,-1.559 0.223,-2.633 0.586,-3.402 0.379,-0.766 1.059,-1.387 2.047,-1.867 1,-0.484 2.262,-0.73 3.785,-0.73 1.559,0 3.195,0.402 4.582,1 l -1,3 c -0.871,-0.188 -1.453,-0.234 -2.258,-0.234 -0.793,0 -1.363,0.168 -1.715,0.508 C 25.687,15.599 25,16.06 25,17.005 v 2 h 5 v 3 h -5 v 15 H 20.039 L 20,22.005 h -3"
               style="fill:#000000;fill-opacity:1;fill-rule:nonzero;stroke:none"
               id="path21"
               inkscape:connector-curvature="0" />
          </g>
        </g>
      </g>
    </g>
  </g>
  <g
     id="g39"
     transform="matrix(14.673913,0,0,14.673913,249.32609,-14.673913)">
    <g
       id="g37">
      <!-- color: #3a569c -->
      <g
         id="g35">
        <path
           d="m 17,19 h 3 v -2 c 0,-1.559 0.223,-2.633 0.586,-3.402 0.379,-0.766 1.059,-1.387 2.047,-1.867 1,-0.484 2.262,-0.73 3.785,-0.73 1.559,0 3.195,0.402 4.582,1 l -1,3 c -0.871,-0.188 -1.453,-0.234 -2.258,-0.234 -0.793,0 -1.363,0.168 -1.715,0.508 C 25.687,15.599 25,16.06 25,17.005 v 2 h 5 v 3 h -5 v 15 H 20.039 L 20,22.005 h -3"
           style="fill:#f9f9f9;fill-opacity:1;fill-rule:nonzero;stroke:none"
           id="path33"
           inkscape:connector-curvature="0" />
      </g>
    </g>
  </g>
</svg>
