<?xml version="1.0" encoding="UTF-8" standalone="no"?>
<svg
   xmlns:dc="http://purl.org/dc/elements/1.1/"
   xmlns:cc="http://creativecommons.org/ns#"
   xmlns:rdf="http://www.w3.org/1999/02/22-rdf-syntax-ns#"
   xmlns:svg="http://www.w3.org/2000/svg"
   xmlns="http://www.w3.org/2000/svg"
   xmlns:xlink="http://www.w3.org/1999/xlink"
   xmlns:sodipodi="http://sodipodi.sourceforge.net/DTD/sodipodi-0.dtd"
   xmlns:inkscape="http://www.inkscape.org/namespaces/inkscape"
   viewBox="0 0 1200 675"
   version="1.1"
   id="svg45"
   sodipodi:docname="hhgttg.svg"
   width="1200"
   height="675"
   inkscape:version="0.92.1 r15371"
   inkscape:export-filename="/home/josh/Code/web/blog/images/facebook.png"
   inkscape:export-xdpi="96"
   inkscape:export-ydpi="96">
  <metadata
     id="metadata49">
    <rdf:RDF>
      <cc:Work
         rdf:about="">
        <dc:format>image/svg+xml</dc:format>
        <dc:type
           rdf:resource="http://purl.org/dc/dcmitype/StillImage" />
        <dc:title />
      </cc:Work>
    </rdf:RDF>
  </metadata>
  <sodipodi:namedview
     pagecolor="#ffffff"
     bordercolor="#666666"
     borderopacity="1"
     objecttolerance="10"
     gridtolerance="10"
     guidetolerance="10"
     inkscape:pageopacity="0"
     inkscape:pageshadow="2"
     inkscape:window-width="1580"
     inkscape:window-height="840"
     id="namedview47"
     showgrid="false"
     inkscape:zoom="0.43457604"
     inkscape:cx="1004.5407"
     inkscape:cy="336.38038"
     inkscape:window-x="10"
     inkscape:window-y="50"
     inkscape:window-maximized="0"
     inkscape:current-layer="svg45">
    <inkscape:grid
       type="xygrid"
       id="grid387" />
  </sodipodi:namedview>
  <defs
     id="defs7">
    <linearGradient
       id="linearGradient3764"
       x1="1"
       x2="47"
       gradientUnits="userSpaceOnUse"
       gradientTransform="rotate(-90,23.999998,24)">
      <stop
         style="stop-color:#344e8e;stop-opacity:1"
         id="stop2" />
      <stop
         offset="1"
         style="stop-color:#3a569c;stop-opacity:1"
         id="stop4" />
    </linearGradient>
    <linearGradient
       id="linearGradient8702">
      <stop
         offset="0"
         style="stop-color:#dce1ea;stop-opacity:1"
         id="stop8704" />
      <stop
         offset="1"
         style="stop-color:#c0cad9;stop-opacity:1"
         id="stop8706" />
    </linearGradient>
    <linearGradient
       id="linearGradient8443">
      <stop
         offset="0"
         style="stop-color:#000000;stop-opacity:1"
         id="stop8445" />
      <stop
         offset="1"
         style="stop-color:#000000;stop-opacity:0"
         id="stop8447" />
    </linearGradient>
    <linearGradient
       id="linearGradient8243">
      <stop
         offset="0"
         style="stop-color:#142842;stop-opacity:1"
         id="stop8245" />
      <stop
         offset="0.08385646"
         style="stop-color:#1a3453;stop-opacity:1"
         id="stop8251" />
      <stop
         offset="1"
         style="stop-color:#172e4a;stop-opacity:1"
         id="stop8247" />
    </linearGradient>
    <linearGradient
       id="linearGradient8235">
      <stop
         offset="0"
         style="stop-color:#0b121e;stop-opacity:1"
         id="stop8237" />
      <stop
         offset="1"
         style="stop-color:#1b2c47;stop-opacity:1"
         id="stop8239" />
    </linearGradient>
    <linearGradient
       id="linearGradient8181">
      <stop
         offset="0"
         style="stop-color:#494b47;stop-opacity:1"
         id="stop8183" />
      <stop
         offset="1"
         style="stop-color:#7e817b;stop-opacity:1"
         id="stop8185" />
    </linearGradient>
    <linearGradient
       id="linearGradient8125">
      <stop
         offset="0"
         style="stop-color:#8d8d8d;stop-opacity:1"
         id="stop8127" />
      <stop
         offset="1"
         style="stop-color:#a2a2a2;stop-opacity:1"
         id="stop8129" />
    </linearGradient>
    <linearGradient
       id="linearGradient8095">
      <stop
         offset="0"
         style="stop-color:#ffffff;stop-opacity:1"
         id="stop8097" />
      <stop
         offset="1"
         style="stop-color:#ffffff;stop-opacity:0"
         id="stop8099" />
    </linearGradient>
    <linearGradient
       id="linearGradient8075">
      <stop
         offset="0"
         style="stop-color:#2e3436;stop-opacity:1"
         id="stop8077" />
      <stop
         offset="1"
         style="stop-color:#262b2d;stop-opacity:1"
         id="stop8079" />
    </linearGradient>
    <linearGradient
       id="linearGradient8065">
      <stop
         offset="0"
         style="stop-color:#a0a0a0;stop-opacity:1"
         id="stop8067" />
      <stop
         offset="0.40000001"
         style="stop-color:#aaaaaa;stop-opacity:1"
         id="stop8073" />
      <stop
         offset="1"
         style="stop-color:#969696;stop-opacity:1"
         id="stop8069" />
    </linearGradient>
    <linearGradient
       id="linearGradient8053">
      <stop
         offset="0"
         style="stop-color:#989898;stop-opacity:1"
         id="stop8055" />
      <stop
         offset="0.03"
         style="stop-color:#c7c7c7;stop-opacity:1"
         id="stop8061" />
      <stop
         offset="0.97000003"
         style="stop-color:#c7c7c7;stop-opacity:1"
         id="stop8063" />
      <stop
         offset="1"
         style="stop-color:#989898;stop-opacity:1"
         id="stop8057" />
    </linearGradient>
    <linearGradient
       gradientTransform="translate(0.42500144,-0.6066262)"
       gradientUnits="userSpaceOnUse"
       xlink:href="#linearGradient8053"
       id="linearGradient8569"
       y2="454.8363"
       x2="1420.8883"
       y1="454.8363"
       x1="1044.494" />
    <linearGradient
       gradientTransform="translate(0,-0.96733016)"
       gradientUnits="userSpaceOnUse"
       xlink:href="#linearGradient8065"
       id="linearGradient8571"
       y2="213.32445"
       x2="1420.8883"
       y1="213.32445"
       x1="1044.494" />
    <radialGradient
       gradientTransform="matrix(0.98525846,0.17107242,-0.21134819,1.217219,102.63322,-301.70066)"
       gradientUnits="userSpaceOnUse"
       xlink:href="#linearGradient8075"
       id="radialGradient8573"
       fy="397.8363"
       fx="1258.4324"
       r="162.39394"
       cy="397.8363"
       cx="1258.4324" />
    <linearGradient
       gradientUnits="userSpaceOnUse"
       xlink:href="#linearGradient8125"
       id="linearGradient8575"
       y2="573.54688"
       x2="1395.0938"
       y1="573.54688"
       x1="1070.3125" />
    <linearGradient
       gradientUnits="userSpaceOnUse"
       xlink:href="#linearGradient8095"
       id="linearGradient8577"
       y2="225.60284"
       x2="1205.5524"
       y1="337.10272"
       x1="1229.833" />
    <linearGradient
       gradientTransform="matrix(0.75377969,0,0,0.75377969,-219.45407,399.36759)"
       gradientUnits="userSpaceOnUse"
       xlink:href="#linearGradient8243"
       id="linearGradient8619"
       y2="494.52933"
       x2="660.59375"
       y1="494.52933"
       x1="344.4375" />
    <linearGradient
       gradientTransform="matrix(0.75377969,0,0,0.75377969,-219.45407,359.89804)"
       gradientUnits="userSpaceOnUse"
       xlink:href="#linearGradient8443"
       id="linearGradient8623"
       y2="482.70663"
       x2="648.74463"
       y1="434.50565"
       x1="421.97687" />
    <linearGradient
       gradientTransform="matrix(0.75377969,0,0,0.75377969,-219.45407,399.36759)"
       gradientUnits="userSpaceOnUse"
       xlink:href="#linearGradient8443"
       id="linearGradient8641"
       y2="372.0542"
       x2="372.04007"
       y1="412.89941"
       x1="760.65625" />
    <radialGradient
       gradientTransform="matrix(0.75377969,0,0,1.0569077,-214.38767,216.07063)"
       gradientUnits="userSpaceOnUse"
       xlink:href="#linearGradient8702"
       id="radialGradient8713"
       fy="464.44922"
       fx="486.84409"
       r="88.522751"
       cy="464.44922"
       cx="486.84409" />
    <filter
       id="filter8821"
       color-interpolation-filters="sRGB"
       height="1.2431571"
       width="1.0796552"
       y="-0.12157859"
       x="-0.039827622">
      <feGaussianBlur
         stdDeviation="5.3601661"
         id="feGaussianBlur8823" />
    </filter>
  </defs>
  <rect
     style="opacity:1;fill:#d5dbe6;fill-opacity:1;stroke:none;stroke-width:1.13797271;stroke-opacity:1"
     id="rect51"
     width="1200"
     height="675"
     x="0"
     y="-2.8421709e-14" />
  <g
     id="g385"
     transform="translate(407.86017,71.259297)">
    <g
       style="display:inline"
       id="layer1"
       transform="translate(0,-502.36218)">
      <path
         style="opacity:0.3;stroke-width:1px;filter:url(#filter8821)"
         id="path8710"
         d="m 50.740397,912.42711 c 0,0 -23.218274,1.22758 -6.956562,9.67546 18.824619,9.7793 222.081965,93.13453 222.081965,93.13453 0,0 26.3915,10.9932 13.14981,-9.0984 -2.30608,-3.499 -185.172545,-67.68371 -185.172545,-73.76911 0,-6.08541 208.545855,18.93696 227.115105,20.81186 18.56925,1.8749 36.31045,-1.17953 39.47391,-6.40937 3.16346,-5.22983 -7.29745,-6.86211 -17.89795,-9.37687 z"
         inkscape:connector-curvature="0" />
      <g
         id="g8337"
         transform="matrix(1.0337732,0.11388499,0,1.0337732,-711.73472,-100.7505)" />
      <path
         style="fill:#172e4a;fill-opacity:1;stroke:none"
         id="rect7167"
         d="m 45.779113,528.62679 13.57108,390.24098 288.579847,30.33097 c 4.68189,0.49208 8.45646,-2.88577 8.45646,-7.56766 V 570.58303 c 0,-4.68189 -3.77457,-8.8532 -8.45646,-9.34528 L 59.350193,530.90679 Z"
         inkscape:connector-curvature="0" />
      <path
         style="opacity:0.15;fill:url(#linearGradient8641);fill-opacity:1;stroke:none"
         id="path8440"
         d="m 66.675989,531.96215 c -3.414441,-0.0314 -6.053793,2.5455 -6.053793,6.05379 v 375.09962 c 0,2.51543 1.363015,4.85594 3.392009,6.24224 l 283.915835,29.84496 c 2.15253,0.22624 4.11592,-0.37069 5.60623,-1.53111 0.25505,-0.68538 0.37689,-1.43451 0.37689,-2.23779 V 570.31069 c 0,-3.74218 -2.99472,-7.07843 -6.7369,-7.49069 L 67.382658,531.9857 c -0.233883,-0.0258 -0.479042,-0.0215 -0.706669,-0.0235 z"
         inkscape:connector-curvature="0" />
      <g
         id="g8209"
         transform="matrix(0.77923724,0.08584419,0,0.77923724,-755.94524,283.95436)">
        <rect
           style="fill:url(#linearGradient8569);fill-opacity:1;stroke:none"
           id="rect7227"
           y="204.86848"
           x="1044.9191"
           ry="7.7037783"
           rx="22.616434"
           height="498.72235"
           width="376.39429" />
        <rect
           style="fill:url(#linearGradient8571);fill-opacity:1;stroke:none"
           id="rect7225"
           y="204.50778"
           x="1044.494"
           ry="11.05296"
           rx="10.99227"
           height="15.69868"
           width="376.39429" />
        <rect
           style="fill:url(#radialGradient8573);fill-opacity:1;stroke:none"
           id="rect7229"
           y="235.44235"
           x="1070.2972"
           height="324.78787"
           width="324.78787" />
        <path
           style="fill:#6f6f6f;fill-opacity:1;stroke:none"
           id="path8123"
           d="m 1070.8626,564.48588 v 20.375 h 18.5313 v -20.375 z m 21.875,0 v 20.375 h 18.5313 v -20.375 z m 21.875,0 v 20.375 h 18.5313 v -20.375 z m 21.875,0 v 20.375 h 18.5313 v -20.375 z m 21.875,0 v 20.375 h 18.5313 v -20.375 z m 21.875,0 v 20.375 h 18.5313 v -20.375 z m 21.875,0 v 20.375 h 18.5313 v -20.375 z m 21.875,0 v 20.375 h 18.5313 v -20.375 z m 21.875,0 v 20.375 h 18.5313 v -20.375 z m 21.875,0 v 20.375 h 18.5313 v -20.375 z m 21.875,0 v 20.375 h 18.5313 v -20.375 z m 21.875,0 v 20.375 h 18.5313 v -20.375 z m 21.875,0 v 20.375 h 18.5313 v -20.375 z m 21.875,0 v 20.375 h 18.5313 v -20.375 z m 21.875,0 v 20.375 h 18.5313 v -20.375 z m -306.25,25.125 v 20.65625 h 18.5313 v -20.65625 z m 21.875,0 v 20.65625 h 18.5313 v -20.65625 z m 21.875,0 v 20.65625 h 18.5313 v -20.65625 z m 21.875,0 v 20.65625 h 18.5313 v -20.65625 z m 21.875,0 v 20.65625 h 18.5313 v -20.65625 z m 21.875,0 v 20.65625 h 18.5313 v -20.65625 z m 21.875,0 v 20.65625 h 18.5313 v -20.65625 z m 21.875,0 v 20.65625 h 18.5313 v -20.65625 z m 21.875,0 v 20.65625 h 18.5313 v -20.65625 z m 21.875,0 v 20.65625 h 18.5313 v -20.65625 z m 21.875,0 v 20.65625 h 18.5313 v -20.65625 z m 21.875,0 v 20.65625 h 18.5313 v -20.65625 z m 21.875,0 v 20.65625 h 18.5313 v -20.65625 z m 21.875,0 v 20.65625 h 18.5313 v -20.65625 z m 21.875,0 v 20.65625 h 18.5313 v -20.65625 z m -306.25,25.40625 v 20.625 h 18.5313 v -20.625 z m 21.875,0 v 20.625 h 18.5313 v -20.625 z m 21.875,0 v 20.625 h 18.5313 v -20.625 z m 21.875,0 v 20.625 h 18.5313 v -20.625 z m 21.875,0 v 20.625 h 18.5313 v -20.625 z m 21.875,0 v 20.625 h 18.5313 v -20.625 z m 21.875,0 v 20.625 h 18.5313 v -20.625 z m 21.875,0 v 20.625 h 18.5313 v -20.625 z m 21.875,0 v 20.625 h 18.5313 v -20.625 z m 21.875,0 v 20.625 h 18.5313 v -20.625 z m 21.875,0 v 20.625 h 18.5313 v -20.625 z m 21.875,0 v 20.625 h 18.5313 v -20.625 z m 21.875,0 v 20.625 h 18.5313 v -20.625 z m 21.875,0 v 20.625 h 18.5313 v -20.625 z m 21.875,0 v 20.625 h 18.5313 v -20.625 z m -306.25,25.40625 v 20.625 h 18.5313 v -20.625 z m 21.875,0 v 20.625 h 18.5313 v -20.625 z m 21.875,0 v 20.625 h 18.5313 v -20.625 z m 21.875,0 v 20.625 h 18.5313 v -20.625 z m 21.875,0 v 20.625 h 18.5313 v -20.625 z m 21.875,0 v 20.625 h 18.5313 v -20.625 z m 21.875,0 v 20.625 h 18.5313 v -20.625 z m 21.875,0 v 20.625 h 18.5313 v -20.625 z m 21.875,0 v 20.625 h 18.5313 v -20.625 z m 21.875,0 v 20.625 h 18.5313 v -20.625 z m 21.875,0 v 20.625 h 18.5313 v -20.625 z m 21.875,0 v 20.625 h 18.5313 v -20.625 z m 21.875,0 v 20.625 h 18.5313 v -20.625 z m 21.875,0 v 20.625 h 18.5313 v -20.625 z m 21.875,0 v 20.625 h 18.5313 v -20.625 z m -306.25,25.375 v 20.40625 h 18.5313 v -20.40625 z m 21.875,0 v 20.40625 h 18.5313 v -20.40625 z m 21.875,0 v 20.40625 h 18.5313 v -20.40625 z m 21.875,0 v 20.40625 h 18.5313 v -20.40625 z m 21.875,0 v 20.40625 h 18.5313 v -20.40625 z m 21.875,0 v 20.40625 h 18.5313 v -20.40625 z m 21.875,0 v 20.40625 h 18.5313 v -20.40625 z m 21.875,0 v 20.40625 h 18.5313 v -20.40625 z m 21.875,0 v 20.40625 h 18.5313 v -20.40625 z m 21.875,0 v 20.40625 h 18.5313 v -20.40625 z m 21.875,0 v 20.40625 h 18.5313 v -20.40625 z m 21.875,0 v 20.40625 h 18.5313 v -20.40625 z"
           inkscape:connector-curvature="0" />
        <path
           style="fill:url(#linearGradient8575);fill-opacity:1;stroke:none"
           id="path8113"
           transform="translate(0,52.362183)"
           d="m 1070.3125,512.6875 v 20.375 h 18.5313 v -20.375 z m 21.875,0 v 20.375 h 18.5313 v -20.375 z m 21.875,0 v 20.375 h 18.5313 v -20.375 z m 21.875,0 v 20.375 h 18.5313 v -20.375 z m 21.875,0 v 20.375 h 18.5313 v -20.375 z m 21.875,0 v 20.375 h 18.5313 v -20.375 z m 21.875,0 v 20.375 h 18.5313 v -20.375 z m 21.875,0 v 20.375 h 18.5313 v -20.375 z m 21.875,0 v 20.375 h 18.5313 v -20.375 z m 21.875,0 v 20.375 h 18.5313 v -20.375 z m 21.875,0 v 20.375 h 18.5313 v -20.375 z m 21.875,0 v 20.375 h 18.5313 v -20.375 z m 21.875,0 v 20.375 h 18.5313 v -20.375 z m 21.875,0 v 20.375 h 18.5313 v -20.375 z m 21.875,0 v 20.375 h 18.5313 v -20.375 z m -306.25,25.125 v 20.65625 h 18.5313 V 537.8125 Z m 21.875,0 v 20.65625 h 18.5313 V 537.8125 Z m 21.875,0 v 20.65625 h 18.5313 V 537.8125 Z m 21.875,0 v 20.65625 h 18.5313 V 537.8125 Z m 21.875,0 v 20.65625 h 18.5313 V 537.8125 Z m 21.875,0 v 20.65625 h 18.5313 V 537.8125 Z m 21.875,0 v 20.65625 h 18.5313 V 537.8125 Z m 21.875,0 v 20.65625 h 18.5313 V 537.8125 Z m 21.875,0 v 20.65625 h 18.5313 V 537.8125 Z m 21.875,0 v 20.65625 h 18.5313 V 537.8125 Z m 21.875,0 v 20.65625 h 18.5313 V 537.8125 Z m 21.875,0 v 20.65625 h 18.5313 V 537.8125 Z m 21.875,0 v 20.65625 h 18.5313 V 537.8125 Z m 21.875,0 v 20.65625 h 18.5313 V 537.8125 Z m 21.875,0 v 20.65625 h 18.5313 V 537.8125 Z m -306.25,25.40625 v 20.625 h 18.5313 v -20.625 z m 21.875,0 v 20.625 h 18.5313 v -20.625 z m 21.875,0 v 20.625 h 18.5313 v -20.625 z m 21.875,0 v 20.625 h 18.5313 v -20.625 z m 21.875,0 v 20.625 h 18.5313 v -20.625 z m 21.875,0 v 20.625 h 18.5313 v -20.625 z m 21.875,0 v 20.625 h 18.5313 v -20.625 z m 21.875,0 v 20.625 h 18.5313 v -20.625 z m 21.875,0 v 20.625 h 18.5313 v -20.625 z m 21.875,0 v 20.625 h 18.5313 v -20.625 z m 21.875,0 v 20.625 h 18.5313 v -20.625 z m 21.875,0 v 20.625 h 18.5313 v -20.625 z m 21.875,0 v 20.625 h 18.5313 v -20.625 z m 21.875,0 v 20.625 h 18.5313 v -20.625 z m 21.875,0 v 20.625 h 18.5313 v -20.625 z m -306.25,25.40625 v 20.625 h 18.5313 v -20.625 z m 21.875,0 v 20.625 h 18.5313 v -20.625 z m 21.875,0 v 20.625 h 18.5313 v -20.625 z m 21.875,0 v 20.625 h 18.5313 v -20.625 z m 21.875,0 v 20.625 h 18.5313 v -20.625 z m 21.875,0 v 20.625 h 18.5313 v -20.625 z m 21.875,0 v 20.625 h 18.5313 v -20.625 z m 21.875,0 v 20.625 h 18.5313 v -20.625 z m 21.875,0 v 20.625 h 18.5313 v -20.625 z m 21.875,0 v 20.625 h 18.5313 v -20.625 z m 21.875,0 v 20.625 h 18.5313 v -20.625 z m 21.875,0 v 20.625 h 18.5313 v -20.625 z m 21.875,0 v 20.625 h 18.5313 v -20.625 z m 21.875,0 v 20.625 h 18.5313 v -20.625 z m 21.875,0 v 20.625 h 18.5313 V 588.625 Z M 1070.3125,614 v 20.40625 h 18.5313 V 614 Z m 21.875,0 v 20.40625 h 18.5313 V 614 Z m 21.875,0 v 20.40625 h 18.5313 V 614 Z m 21.875,0 v 20.40625 h 18.5313 V 614 Z m 21.875,0 v 20.40625 h 18.5313 V 614 Z m 21.875,0 v 20.40625 h 18.5313 V 614 Z m 21.875,0 v 20.40625 h 18.5313 V 614 Z m 21.875,0 v 20.40625 h 18.5313 V 614 Z m 21.875,0 v 20.40625 h 18.5313 V 614 Z m 21.875,0 v 20.40625 h 18.5313 V 614 Z m 21.875,0 v 20.40625 h 18.5313 V 614 Z m 21.875,0 v 20.40625 h 18.5313 V 614 Z"
           inkscape:connector-curvature="0" />
        <path
           style="fill:#225511;fill-opacity:1;stroke:none"
           id="path8133"
           d="m 1333.319,665.91215 v 20.40625 h 62.2813 v -20.40625 z"
           inkscape:connector-curvature="0" />
        <path
           style="fill:#3f9e1f;fill-opacity:1;stroke:none"
           id="rect7231"
           transform="translate(0,52.362183)"
           d="m 1332.8125,614 v 20.40625 h 62.2813 V 614 Z"
           inkscape:connector-curvature="0" />
        <path
           style="opacity:0.34883722;fill:#000000;fill-opacity:1;stroke:none"
           id="rect8085"
           transform="translate(0,52.362183)"
           d="M 1070.3125,183.09375 V 507.875 h 324.7813 v -2.96875 h -320.6563 v -321.8125 z"
           inkscape:connector-curvature="0" />
        <path
           style="opacity:0.02000002;fill:url(#linearGradient8577);fill-opacity:1;stroke:none"
           id="rect8090"
           transform="translate(0,52.362183)"
           d="m 1070.3125,183.09375 v 200.625 L 1395.0938,311.625 V 183.09375 Z"
           inkscape:connector-curvature="0" />
        <g
           id="g8203"
           transform="translate(1.4744808,0.61517807)">
          <text
             style="font-style:normal;font-variant:normal;font-weight:normal;font-stretch:normal;font-size:33.55711365px;font-family:Sans;-inkscape-font-specification:Sans;fill:#338119;fill-opacity:1"
             xml:space="preserve"
             id="text8199"
             transform="rotate(-90)"
             y="1374.8364"
             x="-689.91693"><tspan
               id="tspan8201"
               y="1374.8364"
               x="-689.91693">↓</tspan></text>
          <text
             style="font-style:normal;font-variant:normal;font-weight:normal;font-stretch:normal;font-size:33.55711365px;font-family:Sans;-inkscape-font-specification:Sans;fill:#75dd52;fill-opacity:1"
             xml:space="preserve"
             id="text8195"
             transform="rotate(-90)"
             y="1374.4695"
             x="-690.06775"><tspan
               id="tspan8197"
               y="1374.4695"
               x="-690.06775">↓</tspan></text>
        </g>
      </g>
      <path
         style="opacity:0.41999996;fill:url(#linearGradient8623);fill-opacity:1;stroke:none"
         id="path8261"
         d="m 45.779113,528.62679 13.57108,390.24098 288.579847,30.33097 c 4.68189,0.49208 8.45646,-2.88577 8.45646,-7.56766 V 570.58303 c 0,-4.68189 -3.77457,-8.8532 -8.45646,-9.34528 L 59.350193,530.90679 Z"
         inkscape:connector-curvature="0" />
      <path
         style="opacity:0.05;fill:#000000;fill-opacity:1;stroke:none"
         id="path8277"
         d="m 58.29019,540.81906 v 375.09962 c 0,3.3257 7.856141,6.86266 17.6196,7.93824 L 307.20238,949.3441 V 609.22457 c 0,-4.68189 -3.77458,-9.46205 -8.45647,-10.71781 L 129.42815,553.09154 66.534656,546.16618 c -3.923755,-0.43225 -7.222424,-2.67303 -8.244466,-5.34712 z"
         inkscape:connector-curvature="0" />
      <path
         style="fill:url(#linearGradient8619);fill-opacity:1;stroke:none"
         id="path7174"
         d="m 47.336829,527.18036 -7.160907,2.41445 v 2.36734 7.65557 378.51088 c 0,2.28989 2.655581,2.6402 12.131142,6.85899 L 272.0574,1016.6661 c 3.5652,1.4872 6.43068,-1.0892 6.43068,-5.7711 V 639.84687 c 0,-4.68189 -2.86548,-9.65456 -6.43068,-11.14181 L 52.307064,537.02661 47.38394,534.97727 v -7.79691 z"
         inkscape:connector-curvature="0" />
      <path
         style="fill:#0f1d2f;fill-opacity:1;stroke:none"
         id="path7180"
         d="m 40.464069,528.27661 c -1.787045,2.42615 1.637315,5.62534 10.926097,9.50377 L 271.1405,629.45884 c 3.5652,1.48724 6.43068,6.45991 6.43068,11.1418 v 371.04806 c 0,4.7252 -1.0847,4.4272 -2.46287,5.2886 7.93665,-2.0867 7.00108,-4.236 7.00108,-8.2882 l -0.0155,-371.06357 c 0,-4.6819 -2.86548,-9.65457 -6.43068,-11.14181 L 55.912844,534.76526 c 0,0 -7.399538,-3.13472 -6.816369,-4.1168 0.583169,-0.98208 10.0906,0.25368 10.0906,0.25368 l 288.579845,30.33964 c 4.68189,0.49208 8.45646,4.66968 8.45646,9.35158 v 371.04805 c 0,1.55817 -0.82606,5.57626 -4.70388,7.1444 8.11746,-2.50652 8.47278,-6.74384 8.47278,-10.15952 V 567.57824 c 0,-4.68189 -3.77457,-8.8595 -8.45646,-9.35158 L 62.955973,527.88702 c 0,0 -20.704858,-2.03656 -22.491904,0.38959 z"
         inkscape:connector-curvature="0" />
      <path
         style="fill:#0f1d2f;fill-opacity:1;stroke-width:1px"
         id="path8507"
         d="m 140.44272,612.58545 c -2.93395,-0.96764 -8.04415,0.0151 -7.44023,12.12306 0.73619,14.76011 4.93298,23.7864 8.58923,30.81459 3.65626,7.02821 7.47928,18.69841 7.55325,20.94784 -7.3275,0.47337 -18.69807,-8.66032 -25.3533,-8.67651 0,0 -10.51276,-0.49975 -11.67835,5.52496 -1.16359,6.01447 0.81136,9.73511 4.52065,13.80313 -4.12918,2.36381 -4.53664,5.46339 -4.69017,8.48226 -0.17586,3.45788 0.96379,8.58164 6.08404,12.64817 -3.40454,2.41825 -4.6217,3.59807 -4.1816,8.33557 0.44009,4.73751 3.30417,8.38438 5.68848,10.32032 -1.35426,0.97405 -2.68285,3.07279 -1.28084,8.40713 1.402,5.33435 20.42114,20.09907 32.00241,27.06631 11.55864,6.95362 23.70466,9.35369 30.13766,14.48368 1.78284,1.42172 4.69784,4.25682 7.96764,7.57174 -9.3244,4.29434 -20.65809,4.42021 -32.88772,-0.54907 -31.93951,-12.97806 -57.732436,-55.73773 -57.732436,-95.68006 0,-29.61295 14.177966,-49.23287 34.526446,-52.11497 -0.67464,-3.6481 -1.17866,-7.63102 -1.46921,-11.97435 -24.62023,2.28405 -42.060863,25.30612 -42.060863,60.43085 0,46.01829 29.937963,95.6223 66.736063,110.57455 36.7981,14.95225 66.71724,-10.32991 66.71724,-56.34819 0,-46.01828 -29.91914,-95.59109 -66.71724,-110.54334 -2.78419,-1.13131 -5.53572,-2.02923 -8.23134,-2.70866 0.2892,1.64604 0.5796,3.04335 0.90413,3.94783 1.06148,2.95846 2.84866,6.05962 4.709,9.00366 0.86833,0.30458 1.7402,0.63646 2.61821,0.99324 31.93953,12.97804 57.73245,55.71417 57.73245,95.65649 0,3.18614 -0.17147,6.25291 -0.48974,9.1997 -7.0222,-7.16974 -14.51689,-14.87168 -16.48153,-17.17922 -3.82397,-4.49139 -10.72665,-20.15826 -16.16131,-34.17405 -5.43467,-14.01579 -9.97653,-22.78963 -14.95581,-28.36063 -4.97929,-5.571 -9.6569,-17.03176 -11.15094,-20.31324 -1.49404,-3.28149 -6.34083,-9.07156 -8.19367,-14.23561 -1.16841,-3.25648 -1.84281,-14.96686 -3.80488,-16.64519 -0.24551,-0.21001 -0.58175,-0.42924 -0.97948,-0.60999 -0.174,-0.0791 -0.35064,-0.15748 -0.54624,-0.22196 z"
         inkscape:connector-curvature="0" />
      <path
         style="fill:url(#radialGradient8713);fill-opacity:1;stroke-width:1px"
         id="path8471"
         d="m 137.56378,613.66986 c -2.93395,-0.96764 -8.04415,0.0152 -7.44023,12.12306 0.73619,14.76011 4.93298,23.7864 8.58922,30.81459 3.65627,7.02821 7.47929,18.69841 7.55325,20.94784 -7.3275,0.47337 -18.69806,-8.66032 -25.35329,-8.67651 0,0 -10.51276,-0.49975 -11.67835,5.52496 -1.16359,6.01447 0.81136,9.73511 4.52065,13.80313 -4.12918,2.36381 -4.53664,5.46339 -4.69017,8.48226 -0.17586,3.45788 0.96379,8.58164 6.08404,12.64817 -3.40455,2.41825 -4.6217,3.59807 -4.1816,8.33557 0.44008,4.73751 3.30417,8.38438 5.68848,10.32032 -1.35426,0.97405 -2.68285,3.07279 -1.28085,8.40713 1.40201,5.33435 20.42115,20.09907 32.00242,27.06631 11.55864,6.95362 23.70465,9.35369 30.13766,14.48368 1.78284,1.42172 4.69784,4.25682 7.96764,7.57174 -9.3244,4.29434 -20.65809,4.42021 -32.88772,-0.54907 -31.93951,-12.97806 -57.732437,-55.73773 -57.732437,-95.68006 0,-29.61295 14.177967,-49.23287 34.526447,-52.11497 -0.67465,-3.6481 -1.17866,-7.63102 -1.46921,-11.97435 -24.62023,2.28405 -42.060864,25.30612 -42.060864,60.43085 0,46.01829 29.937964,95.6223 66.736064,110.57455 36.7981,14.95225 66.71724,-10.32991 66.71724,-56.34819 0,-46.01828 -29.91914,-95.59109 -66.71724,-110.54334 -2.78419,-1.13131 -5.53572,-2.02923 -8.23134,-2.70866 0.2892,1.64604 0.5796,3.04335 0.90413,3.94783 1.06148,2.95846 2.84866,6.05962 4.709,9.00366 0.86833,0.30458 1.74019,0.63646 2.61821,0.99324 31.93952,12.97804 57.73245,55.71417 57.73245,95.65649 0,3.18614 -0.17147,6.25291 -0.48974,9.1997 -7.0222,-7.16974 -14.51689,-14.87168 -16.48153,-17.17922 -3.82397,-4.49139 -10.72665,-20.15826 -16.16131,-34.17405 -5.43467,-14.01579 -9.97653,-22.78963 -14.95581,-28.36063 -4.97929,-5.571 -9.6569,-17.03176 -11.15094,-20.31324 -1.49404,-3.28149 -6.34083,-9.07156 -8.19367,-14.23561 -1.16841,-3.25648 -1.84281,-14.96686 -3.80488,-16.64519 -0.24551,-0.21001 -0.58175,-0.42924 -0.97948,-0.60999 -0.174,-0.0791 -0.35064,-0.15748 -0.54624,-0.22196 z"
         inkscape:connector-curvature="0" />
    </g>
    <g
       style="display:none"
       id="layer2"
       transform="translate(0,-450)">
      <g
         id="g8690"
         transform="translate(0,-30.275044)">
        <g
           style="fill:#0f1d2f;fill-opacity:1"
           id="g8644"
           transform="matrix(0.60073088,0.25993574,0,0.79999994,-345.23977,-125.36561)">
          <text
             style="font-style:normal;font-variant:normal;font-weight:bold;font-stretch:normal;font-size:52.21160126px;font-family:Sans;-inkscape-font-specification:'Bitstream Vera Sans Bold';text-align:center;text-anchor:middle;fill:#0f1d2f;fill-opacity:1"
             xml:space="preserve"
             id="text8646"
             y="948.04364"
             x="833.95319"><tspan
               id="tspan8648"
               y="948.04364"
               x="833.95319">PAS DE</tspan></text>
          <text
             style="font-style:normal;font-variant:normal;font-weight:normal;font-stretch:normal;font-size:41.62178802px;font-family:Sans;-inkscape-font-specification:Sans;fill:#0f1d2f;fill-opacity:1"
             xml:space="preserve"
             id="text8650"
             y="983.91315"
             x="730.60406"><tspan
               style="font-weight:bold;-inkscape-font-specification:'Bitstream Vera Sans Bold';fill:#0f1d2f;fill-opacity:1"
               id="tspan8652"
               y="983.91315"
               x="730.60406">PANIQUE</tspan></text>
        </g>
        <g
           style="fill:#c0cad9;fill-opacity:1"
           id="g8529"
           transform="matrix(0.60073088,0.25993574,0,0.79999994,-347.23977,-123.36561)">
          <text
             style="font-style:normal;font-variant:normal;font-weight:bold;font-stretch:normal;font-size:52.21160126px;font-family:Sans;-inkscape-font-specification:'Bitstream Vera Sans Bold';text-align:center;text-anchor:middle;fill:#c0cad9;fill-opacity:1"
             xml:space="preserve"
             id="text8513"
             y="948.04364"
             x="833.95319"><tspan
               id="tspan8521"
               y="948.04364"
               x="833.95319">PAS DE</tspan></text>
          <text
             style="font-style:normal;font-variant:normal;font-weight:normal;font-stretch:normal;font-size:41.62178802px;font-family:Sans;-inkscape-font-specification:Sans;fill:#c0cad9;fill-opacity:1"
             xml:space="preserve"
             id="text8525"
             y="983.91315"
             x="730.60406"><tspan
               style="font-weight:bold;-inkscape-font-specification:'Bitstream Vera Sans Bold';fill:#c0cad9;fill-opacity:1"
               id="tspan8527"
               y="983.91315"
               x="730.60406">PANIQUE</tspan></text>
        </g>
      </g>
    </g>
    <g
       style="display:inline"
       id="layer3"
       transform="translate(0,50)">
      <g
         id="g8678"
         transform="translate(0,-30.275044)">
        <g
           style="display:inline;fill:#0f1d2f;fill-opacity:1"
           id="g8654"
           transform="matrix(0.75091366,0.3249197,0,1,-226.96237,-768.33303)">
          <text
             style="font-style:normal;font-variant:normal;font-weight:bold;font-stretch:normal;font-size:46.93211365px;font-family:Sans;-inkscape-font-specification:'Bitstream Vera Sans Bold';text-align:center;text-anchor:middle;fill:#0f1d2f;fill-opacity:1"
             xml:space="preserve"
             id="text8656"
             y="948.11841"
             x="507.98895"><tspan
               id="tspan8658"
               y="948.11841"
               x="507.98895">DON’T</tspan></text>
          <text
             style="font-style:normal;font-variant:normal;font-weight:normal;font-stretch:normal;font-size:49.95121765px;font-family:Sans;-inkscape-font-specification:Sans;fill:#0f1d2f;fill-opacity:1"
             xml:space="preserve"
             id="text8660"
             y="988.79523"
             x="425.44312"><tspan
               style="font-weight:bold;-inkscape-font-specification:'Bitstream Vera Sans Bold';fill:#0f1d2f;fill-opacity:1"
               id="tspan8662"
               y="988.79523"
               x="425.44312">PANIC</tspan></text>
        </g>
        <g
           style="display:inline;fill:#c0cad9;fill-opacity:1"
           id="g8583"
           transform="matrix(0.75091366,0.3249197,0,1,-228.96237,-766.33303)">
          <text
             style="font-style:normal;font-variant:normal;font-weight:bold;font-stretch:normal;font-size:46.93211365px;font-family:Sans;-inkscape-font-specification:'Bitstream Vera Sans Bold';text-align:center;text-anchor:middle;fill:#c0cad9;fill-opacity:1"
             xml:space="preserve"
             id="text8585"
             y="948.11841"
             x="507.98895"><tspan
               id="tspan8587"
               y="948.11841"
               x="507.98895">DON’T</tspan></text>
          <text
             style="font-style:normal;font-variant:normal;font-weight:normal;font-stretch:normal;font-size:49.95121765px;font-family:Sans;-inkscape-font-specification:Sans;fill:#c0cad9;fill-opacity:1"
             xml:space="preserve"
             id="text8589"
             y="988.79523"
             x="425.44312"><tspan
               style="font-weight:bold;-inkscape-font-specification:'Bitstream Vera Sans Bold';fill:#c0cad9;fill-opacity:1"
               id="tspan8591"
               y="988.79523"
               x="425.44312">PANIC</tspan></text>
        </g>
      </g>
    </g>
    <g
       style="display:none"
       id="layer5"
       transform="translate(0,50)">
      <g
         id="g8670"
         transform="translate(0,-30.275044)">
        <g
           style="display:inline;fill:#0f1d2f;fill-opacity:1"
           id="g8664"
           transform="matrix(0.75091366,0.3249197,0,1,-234.29981,-774.17628)">
          <text
             style="font-style:normal;font-variant:normal;font-weight:bold;font-stretch:normal;font-size:55.73737335px;font-family:Sans;-inkscape-font-specification:'Bitstream Vera Sans Bold';text-align:center;text-anchor:middle;fill:#0f1d2f;fill-opacity:1"
             xml:space="preserve"
             id="text8666"
             y="974.68835"
             x="519.65015"><tspan
               id="tspan8668"
               y="974.68835"
               x="519.65015">H2G2</tspan></text>
        </g>
        <g
           style="display:inline;fill:#c0cad9;fill-opacity:1"
           id="g8599"
           transform="matrix(0.75091366,0.3249197,0,1,-236.29981,-772.17628)">
          <text
             style="font-style:normal;font-variant:normal;font-weight:bold;font-stretch:normal;font-size:55.73737335px;font-family:Sans;-inkscape-font-specification:'Bitstream Vera Sans Bold';text-align:center;text-anchor:middle;fill:#c0cad9;fill-opacity:1"
             xml:space="preserve"
             id="text8601"
             y="974.68835"
             x="519.65015"><tspan
               id="tspan8603"
               y="974.68835"
               x="519.65015">H2G2</tspan></text>
        </g>
      </g>
    </g>
  </g>
</svg>
