<?xml version="1.0" encoding="UTF-8" standalone="no"?>
<svg
   xmlns:dc="http://purl.org/dc/elements/1.1/"
   xmlns:cc="http://creativecommons.org/ns#"
   xmlns:rdf="http://www.w3.org/1999/02/22-rdf-syntax-ns#"
   xmlns:svg="http://www.w3.org/2000/svg"
   xmlns="http://www.w3.org/2000/svg"
   xmlns:sodipodi="http://sodipodi.sourceforge.net/DTD/sodipodi-0.dtd"
   xmlns:inkscape="http://www.inkscape.org/namespaces/inkscape"
   viewBox="0 0 1200 675"
   version="1.1"
   id="svg45"
   sodipodi:docname="lalaland.svg"
   width="1200"
   height="675"
   inkscape:version="0.92.1 r15371"
   inkscape:export-filename="/home/josh/Code/web/blog/images/facebook.png"
   inkscape:export-xdpi="96"
   inkscape:export-ydpi="96">
  <metadata
     id="metadata49">
    <rdf:RDF>
      <cc:Work
         rdf:about="">
        <dc:format>image/svg+xml</dc:format>
        <dc:type
           rdf:resource="http://purl.org/dc/dcmitype/StillImage" />
        <dc:title />
      </cc:Work>
    </rdf:RDF>
  </metadata>
  <sodipodi:namedview
     pagecolor="#ffffff"
     bordercolor="#666666"
     borderopacity="1"
     objecttolerance="10"
     gridtolerance="10"
     guidetolerance="10"
     inkscape:pageopacity="0"
     inkscape:pageshadow="2"
     inkscape:window-width="1580"
     inkscape:window-height="840"
     id="namedview47"
     showgrid="false"
     inkscape:zoom="0.35355339"
     inkscape:cx="690.79129"
     inkscape:cy="281.14414"
     inkscape:window-x="10"
     inkscape:window-y="50"
     inkscape:window-maximized="0"
     inkscape:current-layer="svg45"
     showguides="false">
    <inkscape:grid
       type="xygrid"
       id="grid387" />
  </sodipodi:namedview>
  <defs
     id="defs7">
    <linearGradient
       id="linearGradient3784"
       x1="1"
       x2="47"
       gradientUnits="userSpaceOnUse"
       gradientTransform="matrix(0,-14.673913,14.673913,0,1112.1041,747.20096)">
      <stop
         style="stop-color:#ffac0c;stop-opacity:1"
         id="stop2" />
      <stop
         offset="1"
         style="stop-color:#ffb321;stop-opacity:1"
         id="stop4" />
    </linearGradient>
  </defs>
  <rect
     style="opacity:1;fill:#f6bb44;fill-opacity:1;stroke:none;stroke-width:1.13797271;stroke-opacity:1"
     id="rect51"
     width="1200"
     height="675"
     x="0"
     y="-2.8421709e-14" />
  <path
     style="fill:#000000;fill-opacity:1;fill-rule:nonzero;stroke:none;stroke-width:14.673913;opacity:0.1"
     d="m 754.56244,187.98819 c -0.63309,0.0312 -1.26746,0.0958 -1.9043,0.19531 l -34.66797,5.40625 -45.37304,7.07422 -57.51367,8.9668 -45.25391,7.05469 -50.98633,7.94922 -45.48633,7.09179 -19.28906,3.00782 C 439.41392,239.7234 439.414,246.70932 439.414,254.33975 v 21.32032 22.81836 23.0371 29.11329 159.52148 c 0,12.78097 11.63519,23.0957 26.01563,23.0957 h 300.12695 c 14.38043,0 26.01563,-10.31473 26.01563,-23.0957 V 321.51553 c 0,-12.59419 -11.40395,-22.82253 -25.58399,-23.02734 l 0.0117,-0.0195 -28.75,0.01 h -72.45703 l 0.008,-0.01 -32.07812,0.01 H 564.9923 l 0.008,-0.01 -31.47266,0.01 h -50.09179 v -7.3418 l 28.92968,-4.82422 50.83008,-8.47852 44.97461,-7.5 50.5,-8.42382 51.55274,-8.59766 50.51757,-8.42578 16.17383,-2.69727 c 14.67391,-3.4337 14.67383,-8.20226 14.67383,-17.13867 0.17426,-7.09402 -17.39959,-38.03076 -37.02539,-37.0625 z"
     id="path964"
     inkscape:connector-curvature="0" />
  <path
     style="fill:#2d2d2d;fill-opacity:1;fill-rule:nonzero;stroke:none;stroke-width:14.673913"
     d="m 739.5625,172.98819 c -0.63309,0.0312 -1.26746,0.0958 -1.9043,0.19531 l -34.66797,5.40625 c -21.54848,28.63403 4.83339,41.82383 42.75,51.29688 l 16.17383,-2.69727 c 14.67391,-3.4337 14.67383,-8.20226 14.67383,-17.13867 0.17426,-7.09402 -17.39959,-38.03076 -37.02539,-37.0625 z m -81.94531,12.67578 -57.51367,8.9668 c -18.82044,29.98402 12.26124,41.17375 43.5664,52.2793 l 51.55274,-8.59766 c 11.98858,-21.84745 14.32073,-42.00255 -37.60547,-52.64844 z m -102.76758,16.02149 -50.98633,7.94922 c -13.09979,33.72815 18.34245,41.89939 44.33203,53.19921 l 44.97461,-7.5 c 6.66639,-21.49306 1.41877,-40.77352 -38.32031,-53.64843 z m -96.47266,15.04101 -19.28906,3.00782 c -14.67391,4.98911 -14.67383,11.97503 -14.67383,19.60546 v 21.32032 22.81836 23.0371 29.11329 159.52148 c 0,12.78097 11.63519,23.0957 26.01563,23.0957 h 300.12695 c 14.38043,0 26.01563,-10.31473 26.01563,-23.0957 V 306.51553 c 0,-12.72228 -11.6352,-23.0371 -26.01563,-23.0371 H 468.43555 v -7.3418 l 28.92968,-4.82422 c 8.36168,-21.51763 11.6637,-42.24821 -38.98828,-54.58594 z"
     id="path23"
     inkscape:connector-curvature="0"
     sodipodi:nodetypes="cccccccccccccccccccsccccsssssscccc" />
  <path
     style="fill:#f9f9f9;fill-opacity:1;fill-rule:evenodd;stroke:none;stroke-width:1px;stroke-linecap:butt;stroke-linejoin:miter;stroke-opacity:1"
     d="m 702.99023,178.58975 -45.37304,7.07422 37.60547,52.64844 50.51757,-8.42578 z"
     id="path867"
     inkscape:connector-curvature="0" />
  <path
     style="fill:#f9f9f9;fill-opacity:1;fill-rule:evenodd;stroke:none;stroke-width:1px;stroke-linecap:butt;stroke-linejoin:miter;stroke-opacity:1"
     d="m 600.10352,194.63077 -45.25391,7.05469 38.32031,53.64843 50.5,-8.42382 z"
     id="path869"
     inkscape:connector-curvature="0" />
  <path
     style="fill:#f9f9f9;fill-opacity:1;fill-rule:evenodd;stroke:none;stroke-width:1px;stroke-linecap:butt;stroke-linejoin:miter;stroke-opacity:1"
     d="m 503.86328,209.63468 -45.48633,7.09179 38.98828,54.58594 50.83008,-8.47852 z"
     id="path869-7"
     inkscape:connector-curvature="0" />
  <path
     style="fill:#f9f9f9;fill-opacity:1;fill-rule:evenodd;stroke:none;stroke-width:1px;stroke-linecap:butt;stroke-linejoin:miter;stroke-opacity:1"
     d="m 750,284.99991 -30,45 h -45 l 30,-46.51562 46,-0.0156 z"
     id="path903"
     inkscape:connector-curvature="0" />
  <path
     inkscape:connector-curvature="0"
     id="path905"
     d="m 648.68421,284.99991 -33.47368,45 H 565 l 33.47368,-46.51562 51.32632,-0.0156 z"
     style="fill:#f9f9f9;fill-opacity:1;fill-rule:evenodd;stroke:none;stroke-width:1.05630934px;stroke-linecap:butt;stroke-linejoin:miter;stroke-opacity:1" />
  <path
     style="fill:#f9f9f9;fill-opacity:1;fill-rule:evenodd;stroke:none;stroke-width:1.04629672px;stroke-linecap:butt;stroke-linejoin:miter;stroke-opacity:1"
     d="m 548.90526,284.99991 -32.8421,45 H 466.8 L 499.64211,283.48429 550,283.46869 Z"
     id="path907"
     inkscape:connector-curvature="0" />
</svg>
