<?xml version="1.0" encoding="UTF-8" standalone="no"?>
<svg
   xmlns:dc="http://purl.org/dc/elements/1.1/"
   xmlns:cc="http://creativecommons.org/ns#"
   xmlns:rdf="http://www.w3.org/1999/02/22-rdf-syntax-ns#"
   xmlns:svg="http://www.w3.org/2000/svg"
   xmlns="http://www.w3.org/2000/svg"
   xmlns:sodipodi="http://sodipodi.sourceforge.net/DTD/sodipodi-0.dtd"
   xmlns:inkscape="http://www.inkscape.org/namespaces/inkscape"
   viewBox="0 0 1200 675"
   version="1.1"
   id="svg45"
   sodipodi:docname="letitsnow.svg"
   width="1200"
   height="675"
   inkscape:version="0.92.1 r15371"
   inkscape:export-filename="/home/josh/Code/web/blog/images/facebook.png"
   inkscape:export-xdpi="96"
   inkscape:export-ydpi="96">
  <metadata
     id="metadata49">
    <rdf:RDF>
      <cc:Work
         rdf:about="">
        <dc:format>image/svg+xml</dc:format>
        <dc:type
           rdf:resource="http://purl.org/dc/dcmitype/StillImage" />
        <dc:title />
      </cc:Work>
    </rdf:RDF>
  </metadata>
  <sodipodi:namedview
     pagecolor="#ffffff"
     bordercolor="#666666"
     borderopacity="1"
     objecttolerance="10"
     gridtolerance="10"
     guidetolerance="10"
     inkscape:pageopacity="0"
     inkscape:pageshadow="2"
     inkscape:window-width="1580"
     inkscape:window-height="840"
     id="namedview47"
     showgrid="false"
     inkscape:zoom="0.21728802"
     inkscape:cx="865.05599"
     inkscape:cy="-23.04091"
     inkscape:window-x="10"
     inkscape:window-y="50"
     inkscape:window-maximized="0"
     inkscape:current-layer="svg45" />
  <defs
     id="defs7">
    <linearGradient
       id="linearGradient3764"
       x1="1"
       x2="47"
       gradientUnits="userSpaceOnUse"
       gradientTransform="rotate(-90,23.999998,24)">
      <stop
         style="stop-color:#344e8e;stop-opacity:1"
         id="stop2" />
      <stop
         offset="1"
         style="stop-color:#3a569c;stop-opacity:1"
         id="stop4" />
    </linearGradient>
    <linearGradient
       id="linearGradient3764-3"
       x1="1"
       x2="47"
       gradientUnits="userSpaceOnUse"
       gradientTransform="rotate(-90,23.999998,24)">
      <stop
         style="stop-color:#cc4848;stop-opacity:1"
         id="stop2-6" />
      <stop
         offset="1"
         style="stop-color:#d05858;stop-opacity:1"
         id="stop4-7" />
    </linearGradient>
  </defs>
  <rect
     style="opacity:1;fill:#f4f7f7;fill-opacity:1;stroke:none;stroke-width:1.13797271;stroke-opacity:1"
     id="rect51"
     width="1200"
     height="675"
     x="0"
     y="-2.8421709e-14" />
  <g
     transform="matrix(14.673913,0,0,14.673913,248.32609,-14.673911)"
     id="g31">
    <g
       id="g29">
      <g
         transform="translate(1,1)"
         id="g27">
        <g
           style="opacity:0.1"
           id="g25">
          <!-- color: #d05858 -->
          <g
             id="g23">
            <path
               inkscape:connector-curvature="0"
               d="m 12.996,14 v 17 l 9,6 V 19.5 Z m 2,0 8,5 h 4 l 8,-5 c -4,0 -6,0.52 -10,4 -4,-3.395 -6,-4 -10,-4 z m 22,0 -9,5.5 V 37 l 9,-6 z m -14,6 v 18 h 4 V 20 Z"
               transform="translate(-1,-1)"
               style="fill:#000000;fill-opacity:1;fill-rule:nonzero;stroke:none"
               id="path21" />
          </g>
        </g>
      </g>
    </g>
  </g>
  <g
     transform="matrix(14.673913,0,0,14.673913,248.32609,-14.673911)"
     id="g39"
     style="fill:#96b7d6;fill-opacity:1">
    <g
       id="g37"
       style="fill:#96b7d6;fill-opacity:1">
      <!-- color: #d05858 -->
      <g
         id="g35"
         style="fill:#96b7d6;fill-opacity:1">
        <path
           inkscape:connector-curvature="0"
           d="m 11.996,13 v 17 l 9,6 V 18.5 Z m 2,0 8,5 h 4 l 8,-5 c -4,0 -6,0.52 -10,4 -4,-3.395 -6,-4 -10,-4 z m 22,0 -9,5.5 V 36 l 9,-6 z m -14,6 v 18 h 4 V 19 Z"
           style="fill:#96b7d6;fill-opacity:1;fill-rule:nonzero;stroke:none"
           id="path33" />
      </g>
    </g>
  </g>
</svg>
