<?xml version="1.0" encoding="UTF-8" standalone="no"?>
<svg
   xmlns:dc="http://purl.org/dc/elements/1.1/"
   xmlns:cc="http://creativecommons.org/ns#"
   xmlns:rdf="http://www.w3.org/1999/02/22-rdf-syntax-ns#"
   xmlns:svg="http://www.w3.org/2000/svg"
   xmlns="http://www.w3.org/2000/svg"
   xmlns:sodipodi="http://sodipodi.sourceforge.net/DTD/sodipodi-0.dtd"
   xmlns:inkscape="http://www.inkscape.org/namespaces/inkscape"
   viewBox="0 0 1200 675"
   version="1.1"
   id="svg45"
   sodipodi:docname="pocillo.svg"
   width="1200"
   height="675"
   inkscape:version="0.92.1 r15371"
   inkscape:export-filename="/home/josh/Code/web/blog/images/facebook.png"
   inkscape:export-xdpi="96"
   inkscape:export-ydpi="96">
  <metadata
     id="metadata49">
    <rdf:RDF>
      <cc:Work
         rdf:about="">
        <dc:format>image/svg+xml</dc:format>
        <dc:type
           rdf:resource="http://purl.org/dc/dcmitype/StillImage" />
        <dc:title></dc:title>
      </cc:Work>
    </rdf:RDF>
  </metadata>
  <sodipodi:namedview
     pagecolor="#ffffff"
     bordercolor="#666666"
     borderopacity="1"
     objecttolerance="10"
     gridtolerance="10"
     guidetolerance="10"
     inkscape:pageopacity="0"
     inkscape:pageshadow="2"
     inkscape:window-width="1580"
     inkscape:window-height="840"
     id="namedview47"
     showgrid="false"
     inkscape:zoom="0.43457604"
     inkscape:cx="1243.7582"
     inkscape:cy="283.03954"
     inkscape:window-x="10"
     inkscape:window-y="50"
     inkscape:window-maximized="0"
     inkscape:current-layer="svg45">
    <inkscape:grid
       type="xygrid"
       id="grid4531" />
  </sodipodi:namedview>
  <defs
     id="defs7">
    <linearGradient
       id="linearGradient3764"
       x1="1"
       x2="47"
       gradientUnits="userSpaceOnUse"
       gradientTransform="rotate(-90,23.999998,24)">
      <stop
         style="stop-color:#344e8e;stop-opacity:1"
         id="stop2" />
      <stop
         offset="1"
         style="stop-color:#3a569c;stop-opacity:1"
         id="stop4" />
    </linearGradient>
    <linearGradient
       id="linearGradient3764-3"
       x1="1"
       x2="47"
       gradientUnits="userSpaceOnUse"
       gradientTransform="rotate(-90,23.999998,24)">
      <stop
         style="stop-color:#c94943;stop-opacity:1"
         id="stop2-6" />
      <stop
         offset="1"
         style="stop-color:#ce5952;stop-opacity:1"
         id="stop4-7" />
    </linearGradient>
    <linearGradient
       id="linearGradient3189"
       gradientUnits="userSpaceOnUse"
       gradientTransform="matrix(0,-14.673913,14.673913,0,-974.55393,793.22312)"
       x1="1"
       x2="47">
      <stop
         style="stop-color:#e4e4e4;stop-opacity:1"
         id="stop2-3" />
      <stop
         offset="1"
         style="stop-color:#eee;stop-opacity:1"
         id="stop4-6" />
    </linearGradient>
    <linearGradient
       y2="260"
       y1="240"
       gradientTransform="translate(-304,-236)"
       x2="328"
       gradientUnits="userSpaceOnUse"
       x1="328"
       id="linearGradient5274-3">
      <stop
         offset="0"
         style="stop-color:#658caf"
         id="stop11361-7" />
      <stop
         offset="1"
         style="stop-color:#428ad2"
         id="stop11363-5" />
    </linearGradient>
    <linearGradient
       y2="276"
       y1="228"
       gradientTransform="translate(-304,-228)"
       x2="352"
       gradientUnits="userSpaceOnUse"
       x1="352"
       id="linearGradient5271-3">
      <stop
         offset="0"
         style="stop-color:#74a9e8"
         id="stop4970-6" />
      <stop
         offset="1"
         style="stop-color:#428ad2"
         id="stop4972-2" />
    </linearGradient>
    <linearGradient
       x1="328"
       y1="243"
       x2="328"
       gradientUnits="userSpaceOnUse"
       y2="255"
       id="linearGradient3991">
      <stop
         offset="0"
         style="stop-color:#fff"
         id="stop11344-7" />
      <stop
         offset="1"
         style="stop-color:#fff;stop-opacity:0"
         id="stop11346-5" />
    </linearGradient>
    <clipPath
       clipPathUnits="userSpaceOnUse"
       id="clipPath3995-2">
      <path
         style="color:#000000;text-indent:0;block-progression:tb;text-decoration-line:none;text-transform:none;fill:url(#linearGradient3999)"
         d="m306 242.09 1 27c0.0463 0.49158 0.50624 0.90838 1 0.90625h40c0.49376 0.002 0.95367-0.41467 1-0.90625l1-27c0.0521-0.5539-0.44366-1.0961-1-1.0938h-42c-0.60937 0-1.0514 0.56975-1 1.0938z"
         id="path3997-7" />
    </clipPath>
  </defs>
  <rect
     style="opacity:1;fill:#8db8e8;fill-opacity:1;stroke:none;stroke-width:1.13797271;stroke-opacity:1"
     id="rect51"
     width="1200"
     height="675"
     x="0"
     y="-2.8421709e-14" />
  <g
     id="g4725"
     transform="matrix(9.089273,0,0,9.090684,381.82145,128.64181)">
    <path
       style="color:#000000;text-indent:0;text-decoration:none;text-decoration-line:none;text-transform:none;opacity:0.2"
       d="m 3.0041,16.5 c -0.29771,0 -0.52077,0.31947 -0.5,0.53125 v 0.0312 L 2.5,42.00045 c 0.00418,0.28038 0.23451,0.50091 0.50415,0.5 h 41.996 c 0.285,10e-4 0.504,-0.231 0.5,-0.5 l 0.002,-24.969 0.0021,4.9e-5 c 0.0216,-0.22918 -0.26981,-0.53224 -0.5,-0.53125 z"
       id="path13868"
       inkscape:connector-curvature="0" />
    <path
       style="color:#000000;fill:url(#linearGradient5274-3)"
       d="m 5,4.4995 c -0.28565,0 -0.50007,0.21435 -0.5,0.5 v 9 h 39 v -5 c 0,-0.28565 -0.21435,-0.5 -0.5,-0.5 H 28 c -2.004,0 -3,-1 -4,-2 -1,-1 -2.167,-2 -4,-2 z"
       id="rect11352"
       inkscape:connector-curvature="0" />
    <path
       style="color:#000000;text-indent:0;text-decoration:none;text-decoration-line:none;text-transform:none;fill:none"
       d="m 2.9104,15 c -0.52442,0.0469 -0.95765,0.56975 -0.90625,1.0938 l 1,23.906 c 0.0463,0.49158 0.50624,0.90838 1,0.90625 h 40 c 0.49376,0.002 0.95367,-0.41467 1,-0.90625 l 1,-23.906 c 0.0521,-0.5539 -0.44366,-1.0961 -1,-1.0938 h -42 c -0.0312,-10e-4 -0.0625,-10e-4 -0.0937,0 z"
       id="path11392"
       inkscape:connector-curvature="0" />
    <path
       d="m 4,13 h 40 v 1 H 4 Z"
       style="color:#000000;opacity:0.41000001"
       id="rect12034"
       inkscape:connector-curvature="0" />
    <path
       style="color:#000000;text-indent:0;text-decoration:none;text-decoration-line:none;text-transform:none;fill:url(#linearGradient5271-3)"
       d="m 3,13.5 c -0.29771,0 -0.49733,0.20619 -0.5,0.5 v 27 c 2.687e-4,0.28038 0.22279,0.50476 0.50415,0.49995 h 42 c 0.262,0.001 0.492,-0.212 0.496,-0.5 v -27 c -0.0018,-0.29949 -0.20731,-0.49709 -0.5,-0.5 z"
       id="path10548"
       inkscape:connector-curvature="0" />
    <path
       style="color:#000000;text-indent:0;text-decoration:none;text-decoration-line:none;text-transform:none;fill:none"
       d="m 2.9104,15 c -0.52442,0.0469 -0.95765,0.56975 -0.90625,1.0938 l 1,23.906 c 0.0463,0.49158 0.50624,0.90838 1,0.90625 h 40 c 0.49376,0.002 0.95367,-0.41467 1,-0.90625 l 1,-23.906 c 0.0521,-0.5539 -0.44366,-1.0961 -1,-1.0938 h -42 c -0.0312,-10e-4 -0.0625,-10e-4 -0.0937,0 z"
       id="path4168"
       inkscape:connector-curvature="0" />
    <path
       style="color:#000000;opacity:0.4"
       d="m 4.5,3.9995 c -0.2856,0 -0.5001,0.2144 -0.5,0.5 v 8.5 H 3 c -0.50781,0 -1,0.47209 -1,1 v 27 c 0,0.49219 0.4375,1 1,1 h 42 c 0.49376,0.002 1,-0.46545 1,-1 v -27 c 0,-0.52017 -0.45236,-1 -0.99609,-1 h -1.004 v -4.5 c 0,-0.2856 -0.214,-0.5 -0.5,-0.5 h -15.496 c -2.004,0 -2.754,-1 -3.754,-2 -1,-1 -2.25,-2 -4.25,-2 z m 1,1 H 20 c 2,0 2.623,1 3.623,2 1,1 2.25,2 4.2539,2 h 14.623 c 0.28565,0 0.49059,0.2145 0.5,0.5 v 3.5 h -38 v -7.5 c -1e-4,-0.2856 0.2144,-0.5008 0.5,-0.5 z m 39,9 c 0.27348,0 0.5,0.23554 0.5,0.5 v 26 c 0,0.28433 -0.28878,0.50086 -0.5,0.5 H 3.5 C 3.289,41.0005 3,40.7805 3,40.4995 v -26 c 0,-0.251 0.2023,-0.5 0.5,-0.5 z"
       id="path4197"
       inkscape:connector-curvature="0" />
    <path
       transform="translate(-303.99,-228)"
       clip-path="url(#clipPath3995-2)"
       d="m 306.99,241 c -0.50706,0 -1,0.41524 -1,1 0,24 2,24 2,24 v -23 h 40 v 23 c 0,0 2,0 2,-24 0,-0.46216 -0.38905,-1 -1,-1 z"
       style="color:#000000;text-indent:0;text-decoration:none;text-decoration-line:none;text-decoration-style:solid;text-decoration-color:#000000;text-transform:none;white-space:normal;opacity:0.2;isolation:auto;mix-blend-mode:normal;solid-color:#000000;fill:url(#linearGradient3991);color-rendering:auto;image-rendering:auto;shape-rendering:auto"
       id="path4170"
       inkscape:connector-curvature="0" />
    <path
       d="m 24,20.625 -0.6875,0.625 -6.5,6 -0.812,0.75 v 1 h 1 v 7 h 14 v -7 h 1 v -1 l -1,-0.938 V 23 h -3 v 1.344 l -3.312,-3.094 z m 0,1.75 6,5.625 v 7 h -4 v -5 h -4 v 5 H 18 V 28 Z M 29,24 h 1 v 2.156 L 29,25.25 Z m -6,7 h 2 v 4 h -2 z"
       style="opacity:0.3;fill:#ffffff"
       id="path4174"
       inkscape:connector-curvature="0" />
    <path
       d="m 24,19.625 -0.6875,0.625 -6.5,6 -0.812,0.75 v 1 h 1 v 7 h 14 v -7 h 1 v -1 l -1,-0.938 V 22 h -3 v 1.344 l -3.312,-3.094 z m 0,1.75 6,5.625 v 7 h -4 v -5 h -4 v 5 H 18 V 27 Z M 29,23 h 1 v 2.156 L 29,24.25 Z m -6,7 h 2 v 4 h -2 z"
       style="opacity:0.4"
       id="path4176"
       inkscape:connector-curvature="0" />
  </g>
</svg>
