<?xml version="1.0" encoding="UTF-8" standalone="no"?>
<svg
   xmlns:dc="http://purl.org/dc/elements/1.1/"
   xmlns:cc="http://creativecommons.org/ns#"
   xmlns:rdf="http://www.w3.org/1999/02/22-rdf-syntax-ns#"
   xmlns:svg="http://www.w3.org/2000/svg"
   xmlns="http://www.w3.org/2000/svg"
   xmlns:xlink="http://www.w3.org/1999/xlink"
   xmlns:sodipodi="http://sodipodi.sourceforge.net/DTD/sodipodi-0.dtd"
   xmlns:inkscape="http://www.inkscape.org/namespaces/inkscape"
   viewBox="0 0 1200 675"
   version="1.1"
   id="svg45"
   sodipodi:docname="q&amp;a.svg"
   width="1200"
   height="675"
   inkscape:version="0.92.1 r15371"
   inkscape:export-filename="/home/josh/Code/web/blog/images/facebook.png"
   inkscape:export-xdpi="96"
   inkscape:export-ydpi="96">
  <metadata
     id="metadata49">
    <rdf:RDF>
      <cc:Work
         rdf:about="">
        <dc:format>image/svg+xml</dc:format>
        <dc:type
           rdf:resource="http://purl.org/dc/dcmitype/StillImage" />
        <dc:title></dc:title>
      </cc:Work>
    </rdf:RDF>
  </metadata>
  <sodipodi:namedview
     pagecolor="#ffffff"
     bordercolor="#666666"
     borderopacity="1"
     objecttolerance="10"
     gridtolerance="10"
     guidetolerance="10"
     inkscape:pageopacity="0"
     inkscape:pageshadow="2"
     inkscape:window-width="1580"
     inkscape:window-height="840"
     id="namedview47"
     showgrid="false"
     inkscape:zoom="0.5"
     inkscape:cx="896.38976"
     inkscape:cy="314.66766"
     inkscape:window-x="10"
     inkscape:window-y="50"
     inkscape:window-maximized="0"
     inkscape:current-layer="svg45">
    <inkscape:grid
       type="xygrid"
       id="grid387" />
  </sodipodi:namedview>
  <defs
     id="defs7">
    <linearGradient
       id="linearGradient3764"
       x1="1"
       x2="47"
       gradientUnits="userSpaceOnUse"
       gradientTransform="rotate(-90,23.999998,24)">
      <stop
         style="stop-color:#344e8e;stop-opacity:1"
         id="stop2" />
      <stop
         offset="1"
         style="stop-color:#3a569c;stop-opacity:1"
         id="stop4" />
    </linearGradient>
    <linearGradient
       id="linearGradient8702">
      <stop
         offset="0"
         style="stop-color:#dce1ea;stop-opacity:1"
         id="stop8704" />
      <stop
         offset="1"
         style="stop-color:#c0cad9;stop-opacity:1"
         id="stop8706" />
    </linearGradient>
    <linearGradient
       id="linearGradient8443">
      <stop
         offset="0"
         style="stop-color:#000000;stop-opacity:1"
         id="stop8445" />
      <stop
         offset="1"
         style="stop-color:#000000;stop-opacity:0"
         id="stop8447" />
    </linearGradient>
    <linearGradient
       id="linearGradient8243">
      <stop
         offset="0"
         style="stop-color:#142842;stop-opacity:1"
         id="stop8245" />
      <stop
         offset="0.08385646"
         style="stop-color:#1a3453;stop-opacity:1"
         id="stop8251" />
      <stop
         offset="1"
         style="stop-color:#172e4a;stop-opacity:1"
         id="stop8247" />
    </linearGradient>
    <linearGradient
       id="linearGradient8235">
      <stop
         offset="0"
         style="stop-color:#0b121e;stop-opacity:1"
         id="stop8237" />
      <stop
         offset="1"
         style="stop-color:#1b2c47;stop-opacity:1"
         id="stop8239" />
    </linearGradient>
    <linearGradient
       id="linearGradient8181">
      <stop
         offset="0"
         style="stop-color:#494b47;stop-opacity:1"
         id="stop8183" />
      <stop
         offset="1"
         style="stop-color:#7e817b;stop-opacity:1"
         id="stop8185" />
    </linearGradient>
    <linearGradient
       id="linearGradient8125">
      <stop
         offset="0"
         style="stop-color:#8d8d8d;stop-opacity:1"
         id="stop8127" />
      <stop
         offset="1"
         style="stop-color:#a2a2a2;stop-opacity:1"
         id="stop8129" />
    </linearGradient>
    <linearGradient
       id="linearGradient8095">
      <stop
         offset="0"
         style="stop-color:#ffffff;stop-opacity:1"
         id="stop8097" />
      <stop
         offset="1"
         style="stop-color:#ffffff;stop-opacity:0"
         id="stop8099" />
    </linearGradient>
    <linearGradient
       id="linearGradient8075">
      <stop
         offset="0"
         style="stop-color:#2e3436;stop-opacity:1"
         id="stop8077" />
      <stop
         offset="1"
         style="stop-color:#262b2d;stop-opacity:1"
         id="stop8079" />
    </linearGradient>
    <linearGradient
       id="linearGradient8065">
      <stop
         offset="0"
         style="stop-color:#a0a0a0;stop-opacity:1"
         id="stop8067" />
      <stop
         offset="0.40000001"
         style="stop-color:#aaaaaa;stop-opacity:1"
         id="stop8073" />
      <stop
         offset="1"
         style="stop-color:#969696;stop-opacity:1"
         id="stop8069" />
    </linearGradient>
    <linearGradient
       id="linearGradient8053">
      <stop
         offset="0"
         style="stop-color:#989898;stop-opacity:1"
         id="stop8055" />
      <stop
         offset="0.03"
         style="stop-color:#c7c7c7;stop-opacity:1"
         id="stop8061" />
      <stop
         offset="0.97000003"
         style="stop-color:#c7c7c7;stop-opacity:1"
         id="stop8063" />
      <stop
         offset="1"
         style="stop-color:#989898;stop-opacity:1"
         id="stop8057" />
    </linearGradient>
    <linearGradient
       gradientTransform="translate(0.42500144,-0.6066262)"
       gradientUnits="userSpaceOnUse"
       xlink:href="#linearGradient8053"
       id="linearGradient8569"
       y2="454.8363"
       x2="1420.8883"
       y1="454.8363"
       x1="1044.494" />
    <linearGradient
       gradientTransform="translate(0,-0.96733016)"
       gradientUnits="userSpaceOnUse"
       xlink:href="#linearGradient8065"
       id="linearGradient8571"
       y2="213.32445"
       x2="1420.8883"
       y1="213.32445"
       x1="1044.494" />
    <radialGradient
       gradientTransform="matrix(0.98525846,0.17107242,-0.21134819,1.217219,102.63322,-301.70066)"
       gradientUnits="userSpaceOnUse"
       xlink:href="#linearGradient8075"
       id="radialGradient8573"
       fy="397.8363"
       fx="1258.4324"
       r="162.39394"
       cy="397.8363"
       cx="1258.4324" />
    <linearGradient
       gradientUnits="userSpaceOnUse"
       xlink:href="#linearGradient8125"
       id="linearGradient8575"
       y2="573.54688"
       x2="1395.0938"
       y1="573.54688"
       x1="1070.3125" />
    <linearGradient
       gradientUnits="userSpaceOnUse"
       xlink:href="#linearGradient8095"
       id="linearGradient8577"
       y2="225.60284"
       x2="1205.5524"
       y1="337.10272"
       x1="1229.833" />
    <linearGradient
       gradientTransform="matrix(0.75377969,0,0,0.75377969,-219.45407,399.36759)"
       gradientUnits="userSpaceOnUse"
       xlink:href="#linearGradient8243"
       id="linearGradient8619"
       y2="494.52933"
       x2="660.59375"
       y1="494.52933"
       x1="344.4375" />
    <linearGradient
       gradientTransform="matrix(0.75377969,0,0,0.75377969,-219.45407,359.89804)"
       gradientUnits="userSpaceOnUse"
       xlink:href="#linearGradient8443"
       id="linearGradient8623"
       y2="482.70663"
       x2="648.74463"
       y1="434.50565"
       x1="421.97687" />
    <linearGradient
       gradientTransform="matrix(0.75377969,0,0,0.75377969,-219.45407,399.36759)"
       gradientUnits="userSpaceOnUse"
       xlink:href="#linearGradient8443"
       id="linearGradient8641"
       y2="372.0542"
       x2="372.04007"
       y1="412.89941"
       x1="760.65625" />
    <radialGradient
       gradientTransform="matrix(0.75377969,0,0,1.0569077,-214.38767,216.07063)"
       gradientUnits="userSpaceOnUse"
       xlink:href="#linearGradient8702"
       id="radialGradient8713"
       fy="464.44922"
       fx="486.84409"
       r="88.522751"
       cy="464.44922"
       cx="486.84409" />
    <filter
       id="filter8821"
       color-interpolation-filters="sRGB"
       height="1.2431571"
       width="1.0796552"
       y="-0.12157859"
       x="-0.039827622">
      <feGaussianBlur
         stdDeviation="5.3601661"
         id="feGaussianBlur8823" />
    </filter>
    <linearGradient
       id="linearGradient3764-3"
       x1="1"
       x2="47"
       gradientUnits="userSpaceOnUse"
       gradientTransform="matrix(0,-10.86862,10.869559,0,339.13051,597.82509)">
      <stop
         style="stop-color:#a64e73;stop-opacity:1"
         id="stop2-6" />
      <stop
         offset="1"
         style="stop-color:#b0587d;stop-opacity:1"
         id="stop4-7" />
    </linearGradient>
    <linearGradient
       id="linearGradient3764-36"
       x1="1"
       x2="47"
       gradientUnits="userSpaceOnUse"
       gradientTransform="rotate(-90,23.999998,24)">
      <stop
         style="stop-color:#de4f48;stop-opacity:1"
         id="stop2-7" />
      <stop
         offset="1"
         style="stop-color:#e16059;stop-opacity:1"
         id="stop4-5" />
    </linearGradient>
    <linearGradient
       id="linearGradient3764-367"
       x1="1"
       x2="47"
       gradientUnits="userSpaceOnUse"
       gradientTransform="rotate(-90,23.999998,24)">
      <stop
         style="stop-color:#cfcfcf;stop-opacity:1"
         id="stop2-5" />
      <stop
         offset="1"
         style="stop-color:#d9d9d9;stop-opacity:1"
         id="stop4-3" />
    </linearGradient>
    <linearGradient
       gradientTransform="matrix(19.499984,0,0,22.499971,191.00004,-203.99924)"
       xlink:href="#linearGradient4205"
       id="linearGradient4211"
       y1="18"
       x2="0"
       y2="20"
       gradientUnits="userSpaceOnUse" />
    <linearGradient
       id="linearGradient4205">
      <stop
         style="stop-color:#9b9b9b;stop-opacity:1"
         id="stop8" />
      <stop
         offset="1"
         style="stop-color:#b4b4b4;stop-opacity:1"
         id="stop10" />
    </linearGradient>
    <linearGradient
       xlink:href="#linearGradient4205"
       id="linearGradient4215"
       gradientUnits="userSpaceOnUse"
       y1="18"
       x2="0"
       y2="20"
       gradientTransform="matrix(19.444424,0,0,22.727241,191.66665,18.818224)" />
    <linearGradient
       gradientTransform="matrix(19.499984,0,0,22.499971,190.77769,22.909604)"
       xlink:href="#linearGradient4205"
       id="linearGradient4211-5"
       y1="18"
       x2="0"
       y2="20"
       gradientUnits="userSpaceOnUse" />
    <linearGradient
       id="linearGradient3764-2"
       y1="47"
       x2="0"
       y2="1"
       gradientUnits="userSpaceOnUse">
      <stop
         style="stop-color:#23bd88;stop-opacity:1"
         id="stop2-70" />
      <stop
         offset="1"
         style="stop-color:#26cd93;stop-opacity:1"
         id="stop4-9" />
    </linearGradient>
  </defs>
  <rect
     style="opacity:1;fill:#25c58e;fill-opacity:1;stroke:none;stroke-width:1.13797271;stroke-opacity:1"
     id="rect51"
     width="1200"
     height="675"
     x="-3.4806557e-30"
     y="-5.6843419e-14" />
  <g
     transform="matrix(14.673913,0,0,14.673913,248.32609,-14.673911)"
     id="g31">
    <g
       id="g29">
      <g
         transform="translate(1,1)"
         id="g27">
        <g
           style="opacity:0.1"
           id="g25">
          <!-- color: #26cd93 -->
          <g
             id="g23">
            <path
               inkscape:connector-curvature="0"
               d="M 25,12.5 C 21,12.5 18,13 14.773,14 13.836,14.289 13.402,14.875 13,15.773 12,18 11.5,20 11.5,23.5 c 0,2.5 0.5,4.5 1.5,7.73 0.289,0.938 0.816,1.543 1.773,1.77 1.648,0.39 2.927,0.68 4.148,0.918 -0.258,1.706 -1.226,3.363 -2.922,4.082 3.613,0.137 7.216,-1.689 7.881,-3.518 0.361,10e-4 0.723,0.018 1.119,0.018 4,0 6,-0.5 10.227,-1.5 0.957,-0.227 1.484,-0.832 1.773,-1.77 1,-3.23 1.5,-5.23 1.5,-7.73 0,-2.5 -0.5,-4.938 -1.5,-7.727 C 36.667,14.848 36.164,14.289 35.226,14 31.999,13 28.999,12.5 24.999,12.5 Z"
               transform="translate(-1,-1)"
               id="path21" />
          </g>
        </g>
      </g>
    </g>
  </g>
  <path
     id="path33"
     style="fill:#ebeef2;fill-opacity:1;fill-rule:nonzero;stroke:none;stroke-width:14.673913"
     d="m 450.42989,176.08696 c 47.35272,-14.67392 91.37446,-22.01087 150.07011,-22.01087 58.69565,0 102.71739,7.33695 150.07011,22.01087 13.76413,4.24076 21.14511,12.44348 26.01685,26.01685 14.67391,40.92554 22.01087,76.70054 22.01087,113.38532 0,36.68478 -7.33696,66.03261 -22.01087,113.42935 -4.24076,13.76413 -11.97392,22.64185 -26.01685,25.97283 -62.02663,14.67391 -91.37446,22.01086 -150.07011,22.01086 -58.69565,0 -88.04348,-7.33695 -150.07011,-22.01086 -14.04293,-3.33098 -21.77608,-12.2087 -26.01684,-25.97283 -14.67392,-47.39674 -22.01087,-76.74457 -22.01087,-113.42935 0,-51.35869 7.33695,-80.70652 22.01087,-113.38532 5.89891,-13.17718 12.26739,-21.77609 26.01684,-26.01685 m 0,0"
     inkscape:connector-curvature="0" />
  <path
     id="path35"
     style="fill:#ebeef2;fill-opacity:1;fill-rule:nonzero;stroke:none;stroke-width:14.673913"
     d="m 585.82609,468.06848 c 0,29.34782 -58.69565,62.42282 -117.3913,60.19239 29.34782,-12.44348 44.02173,-44.02174 44.02173,-73.36956 m 73.36957,13.17717"
     inkscape:connector-curvature="0" />
  <g
     aria-label="?"
     style="font-style:normal;font-weight:normal;font-size:40px;line-height:125%;font-family:sans-serif;letter-spacing:0px;word-spacing:0px;fill:#000000;fill-opacity:1;stroke:none;stroke-width:1px;stroke-linecap:butt;stroke-linejoin:miter;stroke-opacity:1"
     id="text1224"
     transform="matrix(0.87900828,0,0,0.87873684,68.938788,36.254911)">
    <path
       d="m 590.91146,387.92708 h 26.43229 V 421 h -26.43229 z m 25.65104,-19.14062 h -24.86979 v -20.05208 q 0,-13.15104 3.64583,-21.61458 3.64583,-8.46355 15.36458,-19.66146 l 11.71875,-11.58854 q 7.42188,-6.90104 10.67708,-13.02084 3.38542,-6.11979 3.38542,-12.5 0,-11.58854 -8.59375,-18.75 -8.46354,-7.16145 -22.52604,-7.16145 -10.28646,0 -22.00521,4.55729 -11.58854,4.55729 -24.21875,13.28125 v -24.47917 q 12.23959,-7.42187 24.73959,-11.06771 12.6302,-3.64583 26.04166,-3.64583 23.95833,0 38.41146,12.63021 14.58333,12.63021 14.58333,33.33333 0,9.89583 -4.6875,18.88021 -4.6875,8.85416 -16.40625,20.05208 l -11.45833,11.19792 q -6.11979,6.11979 -8.72396,9.63541 -2.47396,3.38542 -3.51562,6.64063 -0.78125,2.73437 -1.17188,6.64062 Q 616.5625,346 616.5625,352.77084 Z"
       style="font-style:normal;font-variant:normal;font-weight:normal;font-stretch:normal;font-size:266.66665649px;font-family:'Droid Sans Fallback';-inkscape-font-specification:'Droid Sans Fallback';fill:#437fa2;fill-opacity:1"
       id="path1226"
       inkscape:connector-curvature="0" />
  </g>
  <g
     transform="matrix(0.87900828,0,0,0.87873684,175.62977,36.254911)"
     id="g1249"
     style="font-style:normal;font-weight:normal;font-size:40px;line-height:125%;font-family:sans-serif;letter-spacing:0px;word-spacing:0px;fill:#000000;fill-opacity:1;stroke:none;stroke-width:1px;stroke-linecap:butt;stroke-linejoin:miter;stroke-opacity:1"
     aria-label="?">
    <path
       inkscape:connector-curvature="0"
       id="path1247"
       style="font-style:normal;font-variant:normal;font-weight:normal;font-stretch:normal;font-size:266.66665649px;font-family:'Droid Sans Fallback';-inkscape-font-specification:'Droid Sans Fallback';fill:#437fa2;fill-opacity:1"
       d="m 590.91146,387.92708 h 26.43229 V 421 h -26.43229 z m 25.65104,-19.14062 h -24.86979 v -20.05208 q 0,-13.15104 3.64583,-21.61458 3.64583,-8.46355 15.36458,-19.66146 l 11.71875,-11.58854 q 7.42188,-6.90104 10.67708,-13.02084 3.38542,-6.11979 3.38542,-12.5 0,-11.58854 -8.59375,-18.75 -8.46354,-7.16145 -22.52604,-7.16145 -10.28646,0 -22.00521,4.55729 -11.58854,4.55729 -24.21875,13.28125 v -24.47917 q 12.23959,-7.42187 24.73959,-11.06771 12.6302,-3.64583 26.04166,-3.64583 23.95833,0 38.41146,12.63021 14.58333,12.63021 14.58333,33.33333 0,9.89583 -4.6875,18.88021 -4.6875,8.85416 -16.40625,20.05208 l -11.45833,11.19792 q -6.11979,6.11979 -8.72396,9.63541 -2.47396,3.38542 -3.51562,6.64063 -0.78125,2.73437 -1.17188,6.64062 Q 616.5625,346 616.5625,352.77084 Z" />
  </g>
  <g
     transform="matrix(0.87900828,0,0,0.87873684,-37.752235,36.254911)"
     id="g1253"
     style="font-style:normal;font-weight:normal;font-size:40px;line-height:125%;font-family:sans-serif;letter-spacing:0px;word-spacing:0px;fill:#000000;fill-opacity:1;stroke:none;stroke-width:1px;stroke-linecap:butt;stroke-linejoin:miter;stroke-opacity:1"
     aria-label="?">
    <path
       inkscape:connector-curvature="0"
       id="path1251"
       style="font-style:normal;font-variant:normal;font-weight:normal;font-stretch:normal;font-size:266.66665649px;font-family:'Droid Sans Fallback';-inkscape-font-specification:'Droid Sans Fallback';fill:#437fa2;fill-opacity:1"
       d="m 590.91146,387.92708 h 26.43229 V 421 h -26.43229 z m 25.65104,-19.14062 h -24.86979 v -20.05208 q 0,-13.15104 3.64583,-21.61458 3.64583,-8.46355 15.36458,-19.66146 l 11.71875,-11.58854 q 7.42188,-6.90104 10.67708,-13.02084 3.38542,-6.11979 3.38542,-12.5 0,-11.58854 -8.59375,-18.75 -8.46354,-7.16145 -22.52604,-7.16145 -10.28646,0 -22.00521,4.55729 -11.58854,4.55729 -24.21875,13.28125 v -24.47917 q 12.23959,-7.42187 24.73959,-11.06771 12.6302,-3.64583 26.04166,-3.64583 23.95833,0 38.41146,12.63021 14.58333,12.63021 14.58333,33.33333 0,9.89583 -4.6875,18.88021 -4.6875,8.85416 -16.40625,20.05208 l -11.45833,11.19792 q -6.11979,6.11979 -8.72396,9.63541 -2.47396,3.38542 -3.51562,6.64063 -0.78125,2.73437 -1.17188,6.64062 Q 616.5625,346 616.5625,352.77084 Z" />
  </g>
</svg>
