<?xml version="1.0" encoding="UTF-8" standalone="no"?>
<svg
   xmlns:dc="http://purl.org/dc/elements/1.1/"
   xmlns:cc="http://creativecommons.org/ns#"
   xmlns:rdf="http://www.w3.org/1999/02/22-rdf-syntax-ns#"
   xmlns:svg="http://www.w3.org/2000/svg"
   xmlns="http://www.w3.org/2000/svg"
   xmlns:sodipodi="http://sodipodi.sourceforge.net/DTD/sodipodi-0.dtd"
   xmlns:inkscape="http://www.inkscape.org/namespaces/inkscape"
   viewBox="0 0 1200 675"
   version="1.1"
   id="svg45"
   sodipodi:docname="spoiler.svg"
   width="1200"
   height="675"
   inkscape:version="0.92.1 r15371"
   inkscape:export-filename="/home/josh/Code/web/blog/images/facebook.png"
   inkscape:export-xdpi="96"
   inkscape:export-ydpi="96">
  <metadata
     id="metadata49">
    <rdf:RDF>
      <cc:Work
         rdf:about="">
        <dc:format>image/svg+xml</dc:format>
        <dc:type
           rdf:resource="http://purl.org/dc/dcmitype/StillImage" />
        <dc:title />
      </cc:Work>
    </rdf:RDF>
  </metadata>
  <sodipodi:namedview
     pagecolor="#ffffff"
     bordercolor="#666666"
     borderopacity="1"
     objecttolerance="10"
     gridtolerance="10"
     guidetolerance="10"
     inkscape:pageopacity="0"
     inkscape:pageshadow="2"
     inkscape:window-width="1580"
     inkscape:window-height="840"
     id="namedview47"
     showgrid="false"
     inkscape:zoom="0.94416666"
     inkscape:cx="678.17243"
     inkscape:cy="324.58169"
     inkscape:window-x="10"
     inkscape:window-y="50"
     inkscape:window-maximized="0"
     inkscape:current-layer="svg45"
     showguides="false"
     inkscape:snap-smooth-nodes="true"
     inkscape:snap-text-baseline="true">
    <inkscape:grid
       type="xygrid"
       id="grid387" />
  </sodipodi:namedview>
  <defs
     id="defs7" />
  <rect
     style="opacity:1;fill:#eaeaea;fill-opacity:1;stroke:none;stroke-width:1.13797271;stroke-opacity:1"
     id="rect51"
     width="1200"
     height="675"
     x="0"
     y="-2.8421709e-14" />
  <path
     style="opacity:0.1;fill:#000000;fill-opacity:1;stroke:none;stroke-opacity:1"
     d="m 395.0005,245 v 200 h 660 V 245 Z M 109.188,272.05273 v 135.42579 h 13.8125 V 288.36328 l 82.13281,119.11524 h 13.81446 V 272.05273 H 205.13331 V 384.38867 L 127.85402,272.05273 Z m 1016.793,0 v 99.32422 h 13.8125 v -99.32422 z m -831.39066,32.80274 c -30.24,0 -53.57226,22.54072 -53.57226,51.86133 0,30.78663 22.96002,53.14257 54.69336,53.14258 29.86666,0 51.89258,-22.17295 51.89258,-52.22657 0,-30.60338 -22.40034,-52.77734 -53.01368,-52.77734 z m 0,12.46094 c 22.4,0 39.01368,17.22677 39.01368,40.5 0,22.90672 -16.0523,39.58203 -38.26563,39.58203 -23.52,0 -40.32031,-16.85797 -40.32031,-40.31446 0,-22.72346 16.9856,-39.76757 39.57226,-39.76757 z m 831.39066,67.07226 v 23.08985 h 13.8125 v -23.08985 z"
     id="rect4565"
     inkscape:connector-curvature="0" />
  <rect
     style="opacity:1;fill:#555555;fill-opacity:1;stroke:none;stroke-opacity:1"
     id="rect828"
     width="660"
     height="200"
     x="380"
     y="230" />
  <g
     aria-label="No spoilers !"
     transform="scale(1.009269,0.99081615)"
     style="font-style:normal;font-weight:normal;font-size:39.63264465px;line-height:125%;font-family:sans-serif;letter-spacing:0px;word-spacing:0px;fill:#555555;fill-opacity:1;stroke:none;stroke-width:0.99081612px;stroke-linecap:butt;stroke-linejoin:miter;stroke-opacity:1"
     id="text826">
    <path
       d="M 93.321668,396.11575 H 107.00814 V 275.89673 l 81.37903,120.21902 h 13.68648 V 259.43597 H 188.38717 V 372.81176 L 111.8169,259.43597 H 93.321668 Z"
       style="font-style:normal;font-variant:normal;font-weight:normal;font-stretch:normal;font-size:184.9523468px;font-family:'URW Gothic L';-inkscape-font-specification:'URW Gothic L';fill:#555555;fill-opacity:1;stroke-width:0.99081612px"
       id="path15" />
    <path
       d="m 277.02269,292.54244 c -29.96228,0 -53.08132,22.74914 -53.08132,52.34151 0,31.072 22.74914,53.63618 54.19104,53.63618 29.59237,0 51.41675,-22.37923 51.41675,-52.71142 0,-30.88704 -22.19428,-53.26627 -52.52647,-53.26627 z m 0,12.57676 c 22.19428,0 38.65504,17.38552 38.65504,40.87447 0,23.11904 -15.9059,39.9497 -37.91523,39.9497 -23.30399,0 -39.94971,-17.01561 -39.94971,-40.68951 0,-22.93409 16.83067,-40.13466 39.2099,-40.13466 z"
       style="font-style:normal;font-variant:normal;font-weight:normal;font-stretch:normal;font-size:184.9523468px;font-family:'URW Gothic L';-inkscape-font-specification:'URW Gothic L';fill:#555555;fill-opacity:1;stroke-width:0.99081612px"
       id="path17" />
    <path
       d="m 391.81163,366.33843 c 0.18495,19.60494 13.13161,32.1817 32.55161,32.1817 18.12533,0 30.88704,-12.94666 30.88704,-31.4419 0,-12.3918 -5.73352,-20.89961 -17.57047,-25.89332 -15.35105,-6.28838 -16.09086,-6.65829 -19.05009,-8.13791 -6.28838,-3.14419 -9.24762,-7.39809 -9.24762,-13.31657 0,-8.1379 6.47333,-14.61123 14.61123,-14.61123 8.87772,0 14.05638,5.17866 14.79619,14.79619 h 13.87143 c -0.55486,-16.27581 -12.20686,-27.37295 -28.48266,-27.37295 -16.46076,0 -28.66762,12.0219 -28.66762,28.48266 0,7.21314 2.58933,13.50152 7.58305,18.12533 4.2539,3.884 4.43885,3.884 18.68019,9.80247 6.10342,2.40439 10.54228,4.62381 13.13161,6.28838 4.06895,2.77429 6.47333,7.58305 6.47333,13.13162 0,10.17238 -7.21314,17.57047 -17.01561,17.57047 -11.28209,0 -18.31028,-7.21314 -19.05009,-19.60494 z"
       style="font-style:normal;font-variant:normal;font-weight:normal;font-stretch:normal;font-size:184.9523468px;font-family:'URW Gothic L';-inkscape-font-specification:'URW Gothic L';fill:#555555;fill-opacity:1;stroke-width:0.99081612px"
       id="path19" />
    <path
       d="M 472.02025,294.94682 V 431.6266 h 13.68648 v -52.89637 c 8.87771,12.94667 22.56418,19.7899 39.39485,19.7899 30.14723,0 53.63618,-23.11904 53.63618,-52.71142 0,-30.14723 -23.11905,-53.26627 -53.26628,-53.26627 -17.20057,0 -31.25694,7.02819 -39.76475,19.7899 v -17.38552 z m 52.89637,10.17238 c 22.74914,0 39.94971,17.38552 39.94971,40.68951 0,22.74914 -17.20057,40.13466 -39.76475,40.13466 -23.11905,0 -40.31961,-17.57047 -40.31961,-40.87446 0,-22.37924 17.75542,-39.94971 40.13465,-39.94971 z"
       style="font-style:normal;font-variant:normal;font-weight:normal;font-stretch:normal;font-size:184.9523468px;font-family:'URW Gothic L';-inkscape-font-specification:'URW Gothic L';fill:#555555;fill-opacity:1;stroke-width:0.99081612px"
       id="path21" />
    <path
       d="m 647.28862,292.54244 c -29.96228,0 -53.08132,22.74914 -53.08132,52.34151 0,31.072 22.74914,53.63618 54.19104,53.63618 29.59237,0 51.41675,-22.37923 51.41675,-52.71142 0,-30.88704 -22.19428,-53.26627 -52.52647,-53.26627 z m 0,12.57676 c 22.19428,0 38.65504,17.38552 38.65504,40.87447 0,23.11904 -15.9059,39.9497 -37.91523,39.9497 -23.30399,0 -39.9497,-17.01561 -39.9497,-40.68951 0,-22.93409 16.83066,-40.13466 39.20989,-40.13466 z"
       style="font-style:normal;font-variant:normal;font-weight:normal;font-stretch:normal;font-size:184.9523468px;font-family:'URW Gothic L';-inkscape-font-specification:'URW Gothic L';fill:#555555;fill-opacity:1;stroke-width:0.99081612px"
       id="path23" />
    <path
       d="M 719.10503,396.11575 H 732.7915 V 294.94682 h -13.68647 z m 0,-113.37579 h 13.68647 v -23.30399 h -13.68647 z"
       style="font-style:normal;font-variant:normal;font-weight:normal;font-stretch:normal;font-size:184.9523468px;font-family:'URW Gothic L';-inkscape-font-specification:'URW Gothic L';fill:#555555;fill-opacity:1;stroke-width:0.99081612px"
       id="path25" />
    <path
       d="m 755.95098,396.11575 h 13.68647 V 259.43597 h -13.68647 z"
       style="font-style:normal;font-variant:normal;font-weight:normal;font-stretch:normal;font-size:184.9523468px;font-family:'URW Gothic L';-inkscape-font-specification:'URW Gothic L';fill:#555555;fill-opacity:1;stroke-width:0.99081612px"
       id="path27" />
    <path
       d="m 894.15087,350.06262 c 0,-13.87143 -1.84952,-22.37924 -6.84323,-31.25695 -9.06267,-16.09085 -26.63314,-26.26323 -45.86819,-26.26323 -29.40742,0 -52.52646,23.11904 -52.52646,52.52647 0,29.96228 23.48895,53.45122 53.45123,53.45122 12.94666,0 25.15351,-4.80876 34.40113,-13.50152 7.21314,-6.84323 12.0219,-13.87142 14.79619,-22.19428 h -14.24133 c -5.73352,13.87143 -19.97485,23.11904 -35.3259,23.11904 -20.71466,0 -38.28513,-15.9059 -39.39485,-35.88075 z m -91.1815,-12.39181 c 3.69904,-19.41999 19.05009,-32.55161 38.28513,-32.55161 19.60495,0 34.58609,12.39181 39.2099,32.55161 z"
       style="font-style:normal;font-variant:normal;font-weight:normal;font-stretch:normal;font-size:184.9523468px;font-family:'URW Gothic L';-inkscape-font-specification:'URW Gothic L';fill:#555555;fill-opacity:1;stroke-width:0.99081612px"
       id="path29" />
    <path
       d="m 913.08825,396.11575 h 13.68647 v -58.9998 c 0,-18.86513 9.61752,-29.22247 28.66761,-31.07199 v -13.50152 c -14.61123,0.73981 -23.30399,5.73352 -28.66761,16.83066 v -14.42628 h -13.68647 z"
       style="font-style:normal;font-variant:normal;font-weight:normal;font-stretch:normal;font-size:184.9523468px;font-family:'URW Gothic L';-inkscape-font-specification:'URW Gothic L';fill:#555555;fill-opacity:1;stroke-width:0.99081612px"
       id="path31" />
    <path
       d="m 960.39558,366.33843 c 0.18495,19.60494 13.13162,32.1817 32.55161,32.1817 18.12531,0 30.88701,-12.94666 30.88701,-31.4419 0,-12.3918 -5.7335,-20.89961 -17.5704,-25.89332 -15.35108,-6.28838 -16.09089,-6.65829 -19.05013,-8.13791 -6.28838,-3.14419 -9.24762,-7.39809 -9.24762,-13.31657 0,-8.1379 6.47333,-14.61123 14.61124,-14.61123 8.87771,0 14.05641,5.17866 14.79621,14.79619 h 13.8714 c -0.5549,-16.27581 -12.2069,-27.37295 -28.48266,-27.37295 -16.46076,0 -28.66761,12.0219 -28.66761,28.48266 0,7.21314 2.58933,13.50152 7.58304,18.12533 4.25391,3.884 4.43886,3.884 18.68019,9.80247 6.10343,2.40439 10.54224,4.62381 13.13164,6.28838 4.0689,2.77429 6.4733,7.58305 6.4733,13.13162 0,10.17238 -7.2131,17.57047 -17.01561,17.57047 -11.28209,0 -18.31028,-7.21314 -19.05009,-19.60494 z"
       style="font-style:normal;font-variant:normal;font-weight:normal;font-stretch:normal;font-size:184.9523468px;font-family:'URW Gothic L';-inkscape-font-specification:'URW Gothic L';fill:#555555;fill-opacity:1;stroke-width:0.99081612px"
       id="path33" />
    <path
       d="m 1100.7773,396.11575 h 13.6865 v -23.30399 h -13.6865 z m 0,-36.43561 h 13.6865 V 259.43597 h -13.6865 z"
       style="font-style:normal;font-variant:normal;font-weight:normal;font-stretch:normal;font-size:184.9523468px;font-family:'URW Gothic L';-inkscape-font-specification:'URW Gothic L';fill:#555555;fill-opacity:1;stroke-width:0.99081612px"
       id="path35" />
  </g>
</svg>
