<svg xmlns="http://www.w3.org/2000/svg" xmlns:xlink="http://www.w3.org/1999/xlink">

<symbol id="About" fill-rule="evenodd" clip-rule="evenodd" stroke-linejoin="round" stroke-miterlimit="1.414">
  <path fill-rule="nonzero" d="m12 0c-6.6277 0-12 5.3723-12 12 0 6.6277 5.3723 12 12 12 6.6277 0 12-5.3723 12-12 0-6.6277-5.3723-12-12-12zm0 5c1.1046 0 2 0.89543 2 2s-0.89543 2-2 2-2-0.89543-2-2 0.89543-2 2-2zm-3 5h5v8.0312l2-0.03125v2h-8v-2h2v-6h-1z"/>
</symbol>

<symbol id="Comments" fill-rule="evenodd" clip-rule="evenodd" stroke-linejoin="round" stroke-miterlimit="1.414">
  <path fill-rule="nonzero" d="m18-3.6923e-8c3 0 5 2 5 4v12c0 2-2 4-5 4h-12c-3 0-5-2-5-4v-12c0-2 2-4 5-4"/>
  <path fill-rule="nonzero" d="m21 17h-13l-3.3297 7"/>
</symbol>

<symbol id="Home" fill-rule="evenodd" clip-rule="evenodd" stroke-linejoin="round" stroke-miterlimit="1.414">
  <path fill-rule="nonzero" d="m12 1-12 12h3v9h18v-9h3l-5-5v-6h-3v3z"/>
</symbol>

<symbol id="Posts" fill-rule="evenodd" clip-rule="evenodd" stroke-linejoin="round" stroke-miterlimit="1.414">
  <path fill-rule="nonzero" d="m2 0h22v24h-22"/>
  <path fill-rule="nonzero" d="m0 7h4v2h-4"/>
  <path fill-rule="nonzero" d="m0 15h4v2h-4"/>
  <path fill-rule="nonzero" d="m0 20h4v2h-4"/>
  <path fill-rule="nonzero" d="m0 2h4v2h-4"/>
</symbol>

<symbol id="rss" fill-rule="evenodd" clip-rule="evenodd" stroke-linejoin="round" stroke-miterlimit="1.414">
   <path fill-rule="nonzero" d="m0 0v5c11 0 19 8 19 19h5c0-13-11-24-24-24zm0 8v5c6 0 11 5 11 11h5c0-9-7-16-16-16zm3.5 9a3.5 3.5 0 0 0-3.5 3.5 3.5 3.5 0 0 0 3.5 3.5 3.5 3.5 0 0 0 3.5-3.5 3.5 3.5 0 0 0-3.5-3.5z" stroke-miterlimit="1.414"/>
</symbol>

<symbol id="Top" fill-rule="evenodd" clip-rule="evenodd" stroke-linejoin="round" stroke-miterlimit="1.414">
  <path fill-rule="nonzero" d="m0 20h4l6-8 2-2.5 2 2.5 6 8h4l-12-16-3 4z"/>
</symbol>

<symbol id="Work" fill-rule="evenodd" clip-rule="evenodd" stroke-linejoin="round" stroke-miterlimit="1.414">
  <path fill-rule="nonzero" d="m1.9062 6c-0.50508 0-0.90625 0.41325-0.90625 0.90625v2.0938h9c0-0.555 0.445-1 1-1h2c0.551 0 1 0.445 1 1h9v-2.0938c0-0.493-0.3975-0.90625-0.90625-0.90625h-20.188zm-0.90625 4v12.094c0 0.493 0.40117 0.90625 0.90625 0.90625h20.188c0.50875 0 0.90625-0.41325 0.90625-0.90625v-12.094h-9v3c0 0.551-0.449 1-1 1h-2c-0.555 0-1-0.449-1-1v-3h-9zm1.4688 9h19.062c0.25182 0 0.46875 0.223 0.46875 0.5 0 0.273-0.21693 0.5-0.46875 0.5h-19.062c-0.24818 0-0.46875-0.227-0.46875-0.5 0-0.277 0.22057-0.5 0.46875-0.5zm0 2h19.062c0.25182 0 0.46875 0.223 0.46875 0.5s-0.21693 0.5-0.46875 0.5h-19.062c-0.25182 0-0.46875-0.223-0.46875-0.5s0.21693-0.5 0.46875-0.5z"/>
  <path fill-rule="nonzero" d="m12 9c0.551 0 1 0.445 1 1v2c0 0.551-0.449 1-1 1-0.555 0-1-0.449-1-1v-2c0-0.555 0.445-1 1-1"/>
  <path fill-rule="nonzero" d="m6.004 1c-0.555 0-1 0.449-1 1v4h2v-1.996c0-0.555 0.445-1 1-1h8c0.551 0 1 0.445 1 1v1.996h1.996v-4c0-0.551-0.445-1-1-1"/>
</symbol>

</svg>
