<?xml version="1.0" encoding="UTF-8" standalone="no"?>
<svg
   xmlns:dc="http://purl.org/dc/elements/1.1/"
   xmlns:cc="http://creativecommons.org/ns#"
   xmlns:rdf="http://www.w3.org/1999/02/22-rdf-syntax-ns#"
   xmlns:svg="http://www.w3.org/2000/svg"
   xmlns="http://www.w3.org/2000/svg"
   xmlns:sodipodi="http://sodipodi.sourceforge.net/DTD/sodipodi-0.dtd"
   xmlns:inkscape="http://www.inkscape.org/namespaces/inkscape"
   width="24"
   viewBox="0 0 24 24"
   height="24"
   id="svg2999"
   version="1.1"
   inkscape:version="0.48.5 r10040"
   sodipodi:docname="work.svg">
  <metadata
     id="metadata3017">
    <rdf:RDF>
      <cc:Work
         rdf:about="">
        <dc:format>image/svg+xml</dc:format>
        <dc:type
           rdf:resource="http://purl.org/dc/dcmitype/StillImage" />
      </cc:Work>
    </rdf:RDF>
  </metadata>
  <defs
     id="defs3015">
    <clipPath
       id="clipPath-673256335">
      <g
         transform="translate(0,-1004.3622)"
         id="g17">
        <path
           style="fill:#1890d0"
           inkscape:connector-curvature="0"
           d="m -24,13 c 0,1.105 -0.672,2 -1.5,2 -0.828,0 -1.5,-0.895 -1.5,-2 0,-1.105 0.672,-2 1.5,-2 0.828,0 1.5,0.895 1.5,2 z"
           transform="matrix(15.333333,0,0,11.5,414.99999,878.8622)"
           id="path19" />
      </g>
    </clipPath>
  </defs>
  <sodipodi:namedview
     pagecolor="#2d2d2d"
     bordercolor="#666666"
     borderopacity="1"
     objecttolerance="10"
     gridtolerance="10"
     guidetolerance="10"
     inkscape:pageopacity="1"
     inkscape:pageshadow="2"
     inkscape:window-width="805"
     inkscape:window-height="583"
     id="namedview3013"
     showgrid="true"
     inkscape:zoom="11.313709"
     inkscape:cx="9.244911"
     inkscape:cy="11.070902"
     inkscape:window-x="0"
     inkscape:window-y="0"
     inkscape:window-maximized="0"
     inkscape:current-layer="svg2999">
    <inkscape:grid
       type="xygrid"
       id="grid2984"
       empspacing="5"
       visible="true"
       enabled="true"
       snapvisiblegridlinesonly="true" />
  </sodipodi:namedview>
  <path
     style="fill:#f9f9f9;fill-opacity:1;fill-rule:nonzero;stroke:none"
     d="M 1.90625 6 C 1.4011666 6 1 6.41325 1 6.90625 L 1 9 L 10 9 C 10 8.445 10.445 8 11 8 L 13 8 C 13.551 8 14 8.445 14 9 L 23 9 L 23 6.90625 C 23 6.41325 22.6025 6 22.09375 6 L 1.90625 6 z M 1 10 L 1 22.09375 C 1 22.58675 1.4011666 23 1.90625 23 L 22.09375 23 C 22.6025 23 23 22.58675 23 22.09375 L 23 10 L 14 10 L 14 13 C 14 13.551 13.551 14 13 14 L 11 14 C 10.445 14 10 13.551 10 13 L 10 10 L 1 10 z M 2.46875 19 L 21.53125 19 C 21.783068 19 22 19.223 22 19.5 C 22 19.773 21.783068 20 21.53125 20 L 2.46875 20 C 2.2205681 20 2 19.773 2 19.5 C 2 19.223 2.2205681 19 2.46875 19 z M 2.46875 21 L 21.53125 21 C 21.783068 21 22 21.223 22 21.5 C 22 21.777 21.783068 22 21.53125 22 L 2.46875 22 C 2.2169318 22 2 21.777 2 21.5 C 2 21.223 2.2169318 21 2.46875 21 z "
     id="path65" />
  <path
     id="path75"
     d="m 12,9 c 0.551,0 1,0.445 1,1 l 0,2 c 0,0.551 -0.449,1 -1,1 -0.555,0 -1,-0.449 -1,-1 l 0,-2 c 0,-0.555 0.445,-1 1,-1 m 0,0"
     inkscape:connector-curvature="0"
     style="fill:#f9f9f9;fill-opacity:1;fill-rule:nonzero;stroke:none" />
  <path
     id="path77"
     d="m 6.004,1 c -0.555,0 -1,0.449 -1,1 l 0,4 2,0 0,-1.996 c 0,-0.555 0.445,-1 1,-1 l 8,0 c 0.551,0 1,0.445 1,1 L 17.004,6 19,6 19,2 C 19,1.449 18.555,1 18,1 M 6.004,1"
     inkscape:connector-curvature="0"
     style="fill:#f9f9f9;fill-opacity:1;fill-rule:nonzero;stroke:none" />
</svg>
