<?xml version="1.0" encoding="UTF-8" standalone="no"?>
<svg
   xmlns:dc="http://purl.org/dc/elements/1.1/"
   xmlns:cc="http://creativecommons.org/ns#"
   xmlns:rdf="http://www.w3.org/1999/02/22-rdf-syntax-ns#"
   xmlns:svg="http://www.w3.org/2000/svg"
   xmlns="http://www.w3.org/2000/svg"
   xmlns:xlink="http://www.w3.org/1999/xlink"
   xmlns:sodipodi="http://sodipodi.sourceforge.net/DTD/sodipodi-0.dtd"
   xmlns:inkscape="http://www.inkscape.org/namespaces/inkscape"
   viewBox="0 0 1200 675"
   version="1.1"
   id="svg45"
   sodipodi:docname="demons.svg"
   width="1200"
   height="675"
   inkscape:version="0.92.1 r15371"
   inkscape:export-filename="/home/josh/Code/web/blog/images/facebook.png"
   inkscape:export-xdpi="96"
   inkscape:export-ydpi="96">
  <metadata
     id="metadata49">
    <rdf:RDF>
      <cc:Work
         rdf:about="">
        <dc:format>image/svg+xml</dc:format>
        <dc:type
           rdf:resource="http://purl.org/dc/dcmitype/StillImage" />
        <dc:title />
      </cc:Work>
    </rdf:RDF>
  </metadata>
  <sodipodi:namedview
     pagecolor="#ffffff"
     bordercolor="#666666"
     borderopacity="1"
     objecttolerance="10"
     gridtolerance="10"
     guidetolerance="10"
     inkscape:pageopacity="0"
     inkscape:pageshadow="2"
     inkscape:window-width="1580"
     inkscape:window-height="840"
     id="namedview47"
     showgrid="false"
     inkscape:zoom="0.70710678"
     inkscape:cx="951.76187"
     inkscape:cy="249.91526"
     inkscape:window-x="10"
     inkscape:window-y="50"
     inkscape:window-maximized="0"
     inkscape:current-layer="svg45"
     inkscape:snap-smooth-nodes="true">
    <inkscape:grid
       type="xygrid"
       id="grid387" />
  </sodipodi:namedview>
  <defs
     id="defs7">
    <linearGradient
       id="linearGradient3764"
       x1="1"
       x2="47"
       gradientUnits="userSpaceOnUse"
       gradientTransform="rotate(-90,23.999998,24)">
      <stop
         style="stop-color:#344e8e;stop-opacity:1"
         id="stop2" />
      <stop
         offset="1"
         style="stop-color:#3a569c;stop-opacity:1"
         id="stop4" />
    </linearGradient>
    <linearGradient
       id="linearGradient8702">
      <stop
         offset="0"
         style="stop-color:#dce1ea;stop-opacity:1"
         id="stop8704" />
      <stop
         offset="1"
         style="stop-color:#c0cad9;stop-opacity:1"
         id="stop8706" />
    </linearGradient>
    <linearGradient
       id="linearGradient8443">
      <stop
         offset="0"
         style="stop-color:#000000;stop-opacity:1"
         id="stop8445" />
      <stop
         offset="1"
         style="stop-color:#000000;stop-opacity:0"
         id="stop8447" />
    </linearGradient>
    <linearGradient
       id="linearGradient8243">
      <stop
         offset="0"
         style="stop-color:#142842;stop-opacity:1"
         id="stop8245" />
      <stop
         offset="0.08385646"
         style="stop-color:#1a3453;stop-opacity:1"
         id="stop8251" />
      <stop
         offset="1"
         style="stop-color:#172e4a;stop-opacity:1"
         id="stop8247" />
    </linearGradient>
    <linearGradient
       id="linearGradient8235">
      <stop
         offset="0"
         style="stop-color:#0b121e;stop-opacity:1"
         id="stop8237" />
      <stop
         offset="1"
         style="stop-color:#1b2c47;stop-opacity:1"
         id="stop8239" />
    </linearGradient>
    <linearGradient
       id="linearGradient8181">
      <stop
         offset="0"
         style="stop-color:#494b47;stop-opacity:1"
         id="stop8183" />
      <stop
         offset="1"
         style="stop-color:#7e817b;stop-opacity:1"
         id="stop8185" />
    </linearGradient>
    <linearGradient
       id="linearGradient8125">
      <stop
         offset="0"
         style="stop-color:#8d8d8d;stop-opacity:1"
         id="stop8127" />
      <stop
         offset="1"
         style="stop-color:#a2a2a2;stop-opacity:1"
         id="stop8129" />
    </linearGradient>
    <linearGradient
       id="linearGradient8095">
      <stop
         offset="0"
         style="stop-color:#ffffff;stop-opacity:1"
         id="stop8097" />
      <stop
         offset="1"
         style="stop-color:#ffffff;stop-opacity:0"
         id="stop8099" />
    </linearGradient>
    <linearGradient
       id="linearGradient8075">
      <stop
         offset="0"
         style="stop-color:#2e3436;stop-opacity:1"
         id="stop8077" />
      <stop
         offset="1"
         style="stop-color:#262b2d;stop-opacity:1"
         id="stop8079" />
    </linearGradient>
    <linearGradient
       id="linearGradient8065">
      <stop
         offset="0"
         style="stop-color:#a0a0a0;stop-opacity:1"
         id="stop8067" />
      <stop
         offset="0.40000001"
         style="stop-color:#aaaaaa;stop-opacity:1"
         id="stop8073" />
      <stop
         offset="1"
         style="stop-color:#969696;stop-opacity:1"
         id="stop8069" />
    </linearGradient>
    <linearGradient
       id="linearGradient8053">
      <stop
         offset="0"
         style="stop-color:#989898;stop-opacity:1"
         id="stop8055" />
      <stop
         offset="0.03"
         style="stop-color:#c7c7c7;stop-opacity:1"
         id="stop8061" />
      <stop
         offset="0.97000003"
         style="stop-color:#c7c7c7;stop-opacity:1"
         id="stop8063" />
      <stop
         offset="1"
         style="stop-color:#989898;stop-opacity:1"
         id="stop8057" />
    </linearGradient>
    <linearGradient
       gradientTransform="translate(0.42500144,-0.6066262)"
       gradientUnits="userSpaceOnUse"
       xlink:href="#linearGradient8053"
       id="linearGradient8569"
       y2="454.8363"
       x2="1420.8883"
       y1="454.8363"
       x1="1044.494" />
    <linearGradient
       gradientTransform="translate(0,-0.96733016)"
       gradientUnits="userSpaceOnUse"
       xlink:href="#linearGradient8065"
       id="linearGradient8571"
       y2="213.32445"
       x2="1420.8883"
       y1="213.32445"
       x1="1044.494" />
    <radialGradient
       gradientTransform="matrix(0.98525846,0.17107242,-0.21134819,1.217219,102.63322,-301.70066)"
       gradientUnits="userSpaceOnUse"
       xlink:href="#linearGradient8075"
       id="radialGradient8573"
       fy="397.8363"
       fx="1258.4324"
       r="162.39394"
       cy="397.8363"
       cx="1258.4324" />
    <linearGradient
       gradientUnits="userSpaceOnUse"
       xlink:href="#linearGradient8125"
       id="linearGradient8575"
       y2="573.54688"
       x2="1395.0938"
       y1="573.54688"
       x1="1070.3125" />
    <linearGradient
       gradientUnits="userSpaceOnUse"
       xlink:href="#linearGradient8095"
       id="linearGradient8577"
       y2="225.60284"
       x2="1205.5524"
       y1="337.10272"
       x1="1229.833" />
    <linearGradient
       gradientTransform="matrix(0.75377969,0,0,0.75377969,-219.45407,399.36759)"
       gradientUnits="userSpaceOnUse"
       xlink:href="#linearGradient8243"
       id="linearGradient8619"
       y2="494.52933"
       x2="660.59375"
       y1="494.52933"
       x1="344.4375" />
    <linearGradient
       gradientTransform="matrix(0.75377969,0,0,0.75377969,-219.45407,359.89804)"
       gradientUnits="userSpaceOnUse"
       xlink:href="#linearGradient8443"
       id="linearGradient8623"
       y2="482.70663"
       x2="648.74463"
       y1="434.50565"
       x1="421.97687" />
    <linearGradient
       gradientTransform="matrix(0.75377969,0,0,0.75377969,-219.45407,399.36759)"
       gradientUnits="userSpaceOnUse"
       xlink:href="#linearGradient8443"
       id="linearGradient8641"
       y2="372.0542"
       x2="372.04007"
       y1="412.89941"
       x1="760.65625" />
    <radialGradient
       gradientTransform="matrix(0.75377969,0,0,1.0569077,-214.38767,216.07063)"
       gradientUnits="userSpaceOnUse"
       xlink:href="#linearGradient8702"
       id="radialGradient8713"
       fy="464.44922"
       fx="486.84409"
       r="88.522751"
       cy="464.44922"
       cx="486.84409" />
    <filter
       id="filter8821"
       color-interpolation-filters="sRGB"
       height="1.2431571"
       width="1.0796552"
       y="-0.12157859"
       x="-0.039827622">
      <feGaussianBlur
         stdDeviation="5.3601661"
         id="feGaussianBlur8823" />
    </filter>
    <linearGradient
       id="linearGradient3764-3"
       x1="1"
       x2="47"
       gradientUnits="userSpaceOnUse"
       gradientTransform="matrix(0,-10.86862,10.869559,0,339.13051,597.82509)">
      <stop
         style="stop-color:#a64e73;stop-opacity:1"
         id="stop2-6" />
      <stop
         offset="1"
         style="stop-color:#b0587d;stop-opacity:1"
         id="stop4-7" />
    </linearGradient>
    <linearGradient
       id="linearGradient3764-36"
       x1="1"
       x2="47"
       gradientUnits="userSpaceOnUse"
       gradientTransform="rotate(-90,23.999998,24)">
      <stop
         style="stop-color:#333;stop-opacity:1"
         id="stop2-7" />
      <stop
         offset="1"
         style="stop-color:#3d3d3d;stop-opacity:1"
         id="stop4-5" />
    </linearGradient>
  </defs>
  <rect
     style="opacity:1;fill:#3d3d3d;fill-opacity:1;stroke:none;stroke-width:1.13797271;stroke-opacity:1"
     id="rect51"
     width="1200"
     height="675"
     x="0"
     y="-2.8421709e-14" />
  <path
     style="fill:#000000;fill-opacity:1;stroke-width:8.75258255;opacity:0.1"
     d="M 615,102 A 250,250 0 0 0 365,352 250,250 0 0 0 615,602 250,250 0 0 0 865,352 250,250 0 0 0 615,102 Z m 0,30 A 220,220 0 0 1 835,352 220,220 0 0 1 615,572 220,220 0 0 1 395,352 220,220 0 0 1 615,132 Z m -69.9668,89.52148 c -3.40217,0 -6.15234,2.71757 -6.15234,6.15235 v 52.98828 c 0,3.40217 2.71756,6.12109 6.15234,6.12109 h 4.7168 l -10.86914,10.86914 10.86914,10.86914 -9.84766,119.52149 h -1.02148 c -12.05435,0 -21.69531,9.72936 -21.69531,21.74023 0,3.94565 1.18368,7.64088 3.00976,10.86914 h -3.00976 l -10.8711,21.69532 h 217.34766 l -10.82422,-21.69532 h -3.05469 c 1.86956,-3.22826 3.05469,-6.92349 3.05469,-10.86914 0,-12.05435 -9.72936,-21.74023 -21.74023,-21.74023 h -0.97852 l -7.26562,-87.79883 -2.625,-31.72266 10.86914,-10.86914 -10.86914,-10.86914 h 4.75976 c 0.21467,0 0.42814,-0.0108 0.63672,-0.0312 0.62504,-0.0614 1.22262,-0.21314 1.77539,-0.4414 0.73713,-0.30464 1.39721,-0.74554 1.95117,-1.29493 h 0.002 c 0.13858,-0.13739 0.26985,-0.2832 0.39453,-0.43359 0.49836,-0.6013 0.88191,-1.30245 1.11914,-2.07422 v -0.002 c 0.0591,-0.19252 0.10995,-0.38904 0.15039,-0.58984 v -0.002 c 0.081,-0.40291 0.12305,-0.82124 0.12304,-1.25195 v -52.98828 c 0,-0.42527 -0.0412,-0.83944 -0.12109,-1.24024 -0.0398,-0.19977 -0.0901,-0.39767 -0.14844,-0.58984 v -0.002 c -0.0154,-0.0506 -0.0361,-0.0984 -0.0527,-0.14844 -0.10989,-0.33056 -0.24289,-0.65064 -0.4043,-0.95313 -0.46497,-0.87134 -1.1335,-1.61764 -1.94922,-2.16992 h -0.002 c -0.32604,-0.22062 -0.67561,-0.41104 -1.04492,-0.5664 h -0.002 c -0.73983,-0.31099 -1.55817,-0.48243 -2.42774,-0.48243 h -15.6289 v 21.74024 h -21.74024 v -21.74024 h -21.73828 v 21.74024 h -21.69531 v -21.74024 h -21.74024 v 21.74024 H 560.75 v -21.74024 z"
     id="path944"
     inkscape:connector-curvature="0" />
  <path
     style="fill:#d80505;stroke-width:8.75258255;fill-opacity:1"
     d="M 600 87 A 250 250 0 0 0 350 337 A 250 250 0 0 0 600 587 A 250 250 0 0 0 850 337 A 250 250 0 0 0 600 87 z M 600 117 A 220 220 0 0 1 820 337 A 220 220 0 0 1 600 557 A 220 220 0 0 1 380 337 A 220 220 0 0 1 600 117 z "
     id="circle1249" />
  <path
     style="fill:#f9f9f9;fill-opacity:1;fill-rule:nonzero;stroke:none;stroke-width:10.86956501"
     d="m 530.0332,206.52148 c -3.40217,0 -6.15234,2.71757 -6.15234,6.15235 v 52.98828 c 0,3.40217 2.71756,6.12109 6.15234,6.12109 h 4.7168 l -10.86914,10.86914 10.86914,10.86914 -5.71875,69.41797 C 587.77098,408.4536 670.7191,283.29067 649.05078,228.26172 h -16.43164 v -21.74024 h -21.73828 v 21.74024 h -21.69531 v -21.74024 h -21.74024 v 21.74024 H 545.75 v -21.74024 z m 124.32618,0 v 9.51172 c 2.06306,-2.1774 11.63357,4.4574 3.50976,-9.51172 z m 21.05468,3.21875 c 0.16166,0.30294 0.29432,0.62204 0.4043,0.95313 -0.10989,-0.33056 -0.24289,-0.65064 -0.4043,-0.95313 z m 0.60547,1.69336 c 0.0799,0.4008 0.12109,0.81497 0.12109,1.24024 0,-0.42527 -0.0412,-0.83944 -0.12109,-1.24024 z m -1.27148,58.15039 c -0.12442,0.15004 -0.25824,0.29454 -0.39649,0.43164 0.13897,-0.1377 0.2715,-0.28087 0.39649,-0.43164 z m -6.89453,55.66016 c -86.57314,-18.64548 -111.68638,36.58523 -141.65821,72.0957 l -1.29297,15.70313 h -1.02148 c -12.05435,0 -21.69531,9.72936 -21.69531,21.74023 0,3.94565 1.18368,7.64088 3.00976,10.86914 h -3.00976 l -10.8711,21.69532 h 217.34766 l -10.82422,-21.69532 h -3.05469 c 1.86956,-3.22826 3.05469,-6.92349 3.05469,-10.86914 0,-12.05435 -9.72936,-21.74023 -21.74023,-21.74023 h -0.97852 z"
     id="path33"
     inkscape:connector-curvature="0"
     sodipodi:nodetypes="sssscccccccccccccccsccccccccccccccccssccccccsscc" />
  <path
     style="fill:#d80505;fill-opacity:1;fill-rule:nonzero;stroke:none;stroke-width:10.86956501;opacity:1"
     d="M 657.86914 206.52148 C 656.76752 209.7276 655.60419 212.90117 654.35938 216.0332 L 654.35938 228.26172 L 649.05078 228.26172 C 624.29706 281.02032 579.47322 323.40155 529.03125 362.93945 L 526.19531 397.33984 C 576.60776 378.55352 625.5834 357.40715 667.85352 325.24414 L 665.22852 293.52148 L 676.09766 282.65234 L 665.22852 271.7832 L 669.98828 271.7832 C 673.42306 271.7832 676.14062 269.10776 676.14062 265.66211 L 676.14062 212.67383 C 676.14062 209.27166 673.46654 206.52148 669.98828 206.52148 L 657.86914 206.52148 z "
     id="path921" />
</svg>
