<?xml version="1.0" encoding="UTF-8" standalone="no"?>
<svg
   xmlns:dc="http://purl.org/dc/elements/1.1/"
   xmlns:cc="http://creativecommons.org/ns#"
   xmlns:rdf="http://www.w3.org/1999/02/22-rdf-syntax-ns#"
   xmlns:svg="http://www.w3.org/2000/svg"
   xmlns="http://www.w3.org/2000/svg"
   xmlns:xlink="http://www.w3.org/1999/xlink"
   xmlns:sodipodi="http://sodipodi.sourceforge.net/DTD/sodipodi-0.dtd"
   xmlns:inkscape="http://www.inkscape.org/namespaces/inkscape"
   viewBox="0 0 1200 675"
   version="1.1"
   id="svg45"
   sodipodi:docname="globe.svg"
   width="1200"
   height="675"
   inkscape:version="0.92.1 r15371"
   inkscape:export-filename="/home/josh/Code/web/blog/images/facebook.png"
   inkscape:export-xdpi="96"
   inkscape:export-ydpi="96">
  <metadata
     id="metadata49">
    <rdf:RDF>
      <cc:Work
         rdf:about="">
        <dc:format>image/svg+xml</dc:format>
        <dc:type
           rdf:resource="http://purl.org/dc/dcmitype/StillImage" />
        <dc:title></dc:title>
      </cc:Work>
    </rdf:RDF>
  </metadata>
  <sodipodi:namedview
     pagecolor="#ffffff"
     bordercolor="#666666"
     borderopacity="1"
     objecttolerance="10"
     gridtolerance="10"
     guidetolerance="10"
     inkscape:pageopacity="0"
     inkscape:pageshadow="2"
     inkscape:window-width="1580"
     inkscape:window-height="840"
     id="namedview47"
     showgrid="true"
     inkscape:zoom="0.61458332"
     inkscape:cx="1171.0145"
     inkscape:cy="311.07606"
     inkscape:window-x="10"
     inkscape:window-y="50"
     inkscape:window-maximized="0"
     inkscape:current-layer="svg45">
    <inkscape:grid
       type="xygrid"
       id="grid387" />
  </sodipodi:namedview>
  <defs
     id="defs7">
    <linearGradient
       id="linearGradient3764"
       x1="1"
       x2="47"
       gradientUnits="userSpaceOnUse"
       gradientTransform="rotate(-90,23.999998,24)">
      <stop
         style="stop-color:#344e8e;stop-opacity:1"
         id="stop2" />
      <stop
         offset="1"
         style="stop-color:#3a569c;stop-opacity:1"
         id="stop4" />
    </linearGradient>
    <linearGradient
       id="linearGradient8702">
      <stop
         offset="0"
         style="stop-color:#dce1ea;stop-opacity:1"
         id="stop8704" />
      <stop
         offset="1"
         style="stop-color:#c0cad9;stop-opacity:1"
         id="stop8706" />
    </linearGradient>
    <linearGradient
       id="linearGradient8443">
      <stop
         offset="0"
         style="stop-color:#000000;stop-opacity:1"
         id="stop8445" />
      <stop
         offset="1"
         style="stop-color:#000000;stop-opacity:0"
         id="stop8447" />
    </linearGradient>
    <linearGradient
       id="linearGradient8243">
      <stop
         offset="0"
         style="stop-color:#142842;stop-opacity:1"
         id="stop8245" />
      <stop
         offset="0.08385646"
         style="stop-color:#1a3453;stop-opacity:1"
         id="stop8251" />
      <stop
         offset="1"
         style="stop-color:#172e4a;stop-opacity:1"
         id="stop8247" />
    </linearGradient>
    <linearGradient
       id="linearGradient8235">
      <stop
         offset="0"
         style="stop-color:#0b121e;stop-opacity:1"
         id="stop8237" />
      <stop
         offset="1"
         style="stop-color:#1b2c47;stop-opacity:1"
         id="stop8239" />
    </linearGradient>
    <linearGradient
       id="linearGradient8181">
      <stop
         offset="0"
         style="stop-color:#494b47;stop-opacity:1"
         id="stop8183" />
      <stop
         offset="1"
         style="stop-color:#7e817b;stop-opacity:1"
         id="stop8185" />
    </linearGradient>
    <linearGradient
       id="linearGradient8125">
      <stop
         offset="0"
         style="stop-color:#8d8d8d;stop-opacity:1"
         id="stop8127" />
      <stop
         offset="1"
         style="stop-color:#a2a2a2;stop-opacity:1"
         id="stop8129" />
    </linearGradient>
    <linearGradient
       id="linearGradient8095">
      <stop
         offset="0"
         style="stop-color:#ffffff;stop-opacity:1"
         id="stop8097" />
      <stop
         offset="1"
         style="stop-color:#ffffff;stop-opacity:0"
         id="stop8099" />
    </linearGradient>
    <linearGradient
       id="linearGradient8075">
      <stop
         offset="0"
         style="stop-color:#2e3436;stop-opacity:1"
         id="stop8077" />
      <stop
         offset="1"
         style="stop-color:#262b2d;stop-opacity:1"
         id="stop8079" />
    </linearGradient>
    <linearGradient
       id="linearGradient8065">
      <stop
         offset="0"
         style="stop-color:#a0a0a0;stop-opacity:1"
         id="stop8067" />
      <stop
         offset="0.40000001"
         style="stop-color:#aaaaaa;stop-opacity:1"
         id="stop8073" />
      <stop
         offset="1"
         style="stop-color:#969696;stop-opacity:1"
         id="stop8069" />
    </linearGradient>
    <linearGradient
       id="linearGradient8053">
      <stop
         offset="0"
         style="stop-color:#989898;stop-opacity:1"
         id="stop8055" />
      <stop
         offset="0.03"
         style="stop-color:#c7c7c7;stop-opacity:1"
         id="stop8061" />
      <stop
         offset="0.97000003"
         style="stop-color:#c7c7c7;stop-opacity:1"
         id="stop8063" />
      <stop
         offset="1"
         style="stop-color:#989898;stop-opacity:1"
         id="stop8057" />
    </linearGradient>
    <linearGradient
       gradientTransform="translate(0.42500144,-0.6066262)"
       gradientUnits="userSpaceOnUse"
       xlink:href="#linearGradient8053"
       id="linearGradient8569"
       y2="454.8363"
       x2="1420.8883"
       y1="454.8363"
       x1="1044.494" />
    <linearGradient
       gradientTransform="translate(0,-0.96733016)"
       gradientUnits="userSpaceOnUse"
       xlink:href="#linearGradient8065"
       id="linearGradient8571"
       y2="213.32445"
       x2="1420.8883"
       y1="213.32445"
       x1="1044.494" />
    <radialGradient
       gradientTransform="matrix(0.98525846,0.17107242,-0.21134819,1.217219,102.63322,-301.70066)"
       gradientUnits="userSpaceOnUse"
       xlink:href="#linearGradient8075"
       id="radialGradient8573"
       fy="397.8363"
       fx="1258.4324"
       r="162.39394"
       cy="397.8363"
       cx="1258.4324" />
    <linearGradient
       gradientUnits="userSpaceOnUse"
       xlink:href="#linearGradient8125"
       id="linearGradient8575"
       y2="573.54688"
       x2="1395.0938"
       y1="573.54688"
       x1="1070.3125" />
    <linearGradient
       gradientUnits="userSpaceOnUse"
       xlink:href="#linearGradient8095"
       id="linearGradient8577"
       y2="225.60284"
       x2="1205.5524"
       y1="337.10272"
       x1="1229.833" />
    <linearGradient
       gradientTransform="matrix(0.75377969,0,0,0.75377969,-219.45407,399.36759)"
       gradientUnits="userSpaceOnUse"
       xlink:href="#linearGradient8243"
       id="linearGradient8619"
       y2="494.52933"
       x2="660.59375"
       y1="494.52933"
       x1="344.4375" />
    <linearGradient
       gradientTransform="matrix(0.75377969,0,0,0.75377969,-219.45407,359.89804)"
       gradientUnits="userSpaceOnUse"
       xlink:href="#linearGradient8443"
       id="linearGradient8623"
       y2="482.70663"
       x2="648.74463"
       y1="434.50565"
       x1="421.97687" />
    <linearGradient
       gradientTransform="matrix(0.75377969,0,0,0.75377969,-219.45407,399.36759)"
       gradientUnits="userSpaceOnUse"
       xlink:href="#linearGradient8443"
       id="linearGradient8641"
       y2="372.0542"
       x2="372.04007"
       y1="412.89941"
       x1="760.65625" />
    <radialGradient
       gradientTransform="matrix(0.75377969,0,0,1.0569077,-214.38767,216.07063)"
       gradientUnits="userSpaceOnUse"
       xlink:href="#linearGradient8702"
       id="radialGradient8713"
       fy="464.44922"
       fx="486.84409"
       r="88.522751"
       cy="464.44922"
       cx="486.84409" />
    <filter
       id="filter8821"
       color-interpolation-filters="sRGB"
       height="1.2431571"
       width="1.0796552"
       y="-0.12157859"
       x="-0.039827622">
      <feGaussianBlur
         stdDeviation="5.3601661"
         id="feGaussianBlur8823" />
    </filter>
    <linearGradient
       id="linearGradient3764-3"
       x1="1"
       x2="47"
       gradientUnits="userSpaceOnUse"
       gradientTransform="matrix(0,-10.86862,10.869559,0,339.13051,597.82509)">
      <stop
         style="stop-color:#a64e73;stop-opacity:1"
         id="stop2-6" />
      <stop
         offset="1"
         style="stop-color:#b0587d;stop-opacity:1"
         id="stop4-7" />
    </linearGradient>
  </defs>
  <rect
     style="opacity:1;fill:#2d2d2d;fill-opacity:1;stroke:none;stroke-width:1.13797271;stroke-opacity:1"
     id="rect51"
     width="1200"
     height="675"
     x="0"
     y="-2.8421709e-14" />
  <path
     style="fill:#000000;fill-opacity:1;stroke-width:10.86908913;opacity:0.1"
     d="m 615,102 c -24.67389,0 -48.50086,3.63051 -71.01172,10.29297 0.0106,0.007 0.0187,0.0142 0.0293,0.0215 h -0.0293 v -0.0215 c -12.7826,3.78228 -25.16305,8.49929 -37,14.18359 l 0.0176,0.0488 c -13.99104,6.71304 -27.26243,14.68456 -39.66406,23.77539 -1.32576,0.97182 -2.64155,1.956 -3.94727,2.95313 -0.20262,0.15439 -0.40922,0.30395 -0.61133,0.45898 l 0.0117,0.006 c -4.22001,3.24291 -8.33878,6.61141 -12.33984,10.11133 -0.97365,0.83343 -1.94168,1.6733 -2.89063,2.5332 -5.6e-4,0.0163 5.1e-4,0.0187 0,0.0352 -14.80224,13.35539 -27.99393,28.45846 -39.26172,44.97851 l 0.002,-0.0176 c -0.0994,0.1458 -0.19386,0.29537 -0.29297,0.4414 -1.00133,1.47457 -1.99054,2.95821 -2.96094,4.45508 -0.99377,1.53292 -1.96689,3.0809 -2.92773,4.63672 -0.15388,0.24947 -0.30597,0.49995 -0.45899,0.75 -12.49071,20.38542 -22.14447,42.69555 -28.40039,66.38867 l -0.0351,-0.004 c -0.37633,1.41782 -0.7172,2.85012 -1.05274,4.28516 C 367.49035,311.43133 365,331.4135 365,351.97852 c 0,81.569 39.07586,153.99657 99.52148,199.62304 0.0912,0.0411 0.18957,0.0801 0.28125,0.1211 l -0.22656,-0.0117 C 506.42398,583.27342 558.49944,602 614.9668,602 c 66.72823,0 127.29399,-26.18322 172.13086,-68.77734 l -0.0918,0.004 c 0.0552,-0.0304 0.11287,-0.0594 0.16797,-0.0898 25.71742,-24.44352 46.22763,-54.28993 59.71679,-87.71094 v -0.0215 c 0.0103,-0.0698 0.0229,-0.14491 0.0332,-0.21485 5.77165,-14.34685 10.2691,-29.33941 13.30469,-44.85547 0.0104,-0.0104 0.0208,-0.0229 0.0312,-0.0332 h 0.0234 C 863.34847,384.6717 865,368.53202 865,352.01172 c 0,-1.2825 -0.0659,-2.54367 -0.0879,-3.82617 h -0.0215 c -0.02,-0.0131 -0.0348,-0.026 -0.0547,-0.0391 -0.12977,-8.57372 -0.69139,-17.0286 -1.65821,-25.37695 0.0128,-0.0369 0.0263,-0.0665 0.0391,-0.10351 -2.01007,-17.13288 -5.72559,-33.73399 -11.01563,-49.62891 l 0.0156,-0.008 C 831.76033,211.53465 788.09701,160.66894 731.56445,130.86719 l -0.01,-0.043 -0.0332,0.0195 C 696.7115,112.46114 657.07761,102.01172 614.9668,102.01172 Z"
     id="path61"
     inkscape:connector-curvature="0" />
  <path
     inkscape:connector-curvature="0"
     id="path17"
     style="fill:#3864a4;fill-opacity:1;stroke-width:10.86908913"
     d="m 599.99985,86.999982 c -24.67389,0 -48.49996,3.63012 -71.01082,10.29258 16.6739,11.444658 -13.58695,21.954618 -34.83694,13.205378 C 409.01084,150.35317 350,236.7587 350,336.97824 c 0,81.569 39.07607,153.99748 99.52169,199.62395 63.52169,28.61708 237.43464,28.61708 322.65199,-18.46579 25.71742,-24.44352 46.22819,-54.28875 59.71736,-87.70976 0,-0.0109 0,-0.0109 0,-0.0217 2.54352,-17.33545 7.25002,-39.06182 13.36955,-45.10477 h 0.022 C 848.34786,369.67109 850,353.53119 850,337.01089 c 0,-1.2825 -0.065,-2.54326 -0.087,-3.82576 -0.011,0 -0.011,0 -0.022,0 -10.78253,-7.05373 -6.04342,-12.8467 -1.67384,-25.51951 -2.01088,-17.13982 -5.7283,-33.74707 -11.02176,-49.64786 C 817.34758,249.99668 752.16285,173.95981 716.54327,115.85617 681.72807,97.466462 642.08679,87.010852 599.96725,87.010852 Z" />
  <path
     inkscape:connector-curvature="0"
     id="path21"
     style="fill:#58942f;fill-opacity:1;stroke-width:10.86908913"
     d="m 528.98903,97.292562 c -12.7826,3.782278 -25.16303,8.499258 -36.99998,14.183558 l 3.7826,10.17302 1.69566,6.49944 -6.79348,3.76054 -2.71738,5.05391 2.04347,11.55334 8.15217,1.35858 7.81521,-7.47761 6.79348,-7.12982 10.5326,-2.71715 13.24999,-6.45596 7.83695,-9.51004 11.18478,-13.62926 7.83695,-2.05416 -0.33696,-2.988878 h -12.22825 l -21.84781,-0.59777 z m 92.41299,4.771328 c -0.59783,0.21737 -16.64129,0.24998 -16.64129,0.24998 l -4.07609,1.06512 5.43478,6.49944 5.77173,-5.43431 3.73914,2.38022 5.43477,-2.71715 c 0,0 0.97826,-2.29328 0.33696,-2.0433 z m 65.21736,5.01043 -4.07609,0.0435 -5.11957,0.68472 -4.3913,2.71715 -5.11956,3.80402 -3.0326,5.43431 4.76086,4.76046 4.07608,0.33693 1.69566,-2.76063 -4.07608,-3.41275 2.38042,-2.0433 0.33696,-1.65203 5.09782,-3.40188 c 0,0 6.61956,0.087 7.13044,0 0.51086,-0.13042 2.04347,-2.07591 2.04347,-2.07591 l -1.69564,-2.4237 z m 29.93476,8.74924 -5.81522,3.52144 -5.77173,4.76045 0.69565,2.05417 -3.05434,0.33693 v 0.0435 l -44.3478,7.36892 -13.07608,7.01026 -3.40218,-2.4237 -1.69565,-2.71715 0.69566,-2.76063 7.48911,0.3804 3.41305,-1.35858 -6.79348,-3.41275 -9.51086,-3.41274 -9.51086,-1.69551 -10.20652,2.07591 -10.57608,8.46665 -4.76087,4.77133 -7.13042,7.81454 -2.76087,0.33692 -0.97827,3.73881 1.3587,3.7388 c 0,0 1.44566,1.69551 1.65217,1.69551 0.25001,0 2.76087,-1.35858 2.76087,-1.35858 0,0 0.29348,-1.27163 1.69565,-1.6955 1.40218,-0.42388 2.71739,-0.68473 2.71739,-0.68473 l 2.04348,4.07574 2.38044,3.40187 1.06521,2.71716 c 0,0 3.94565,-2.4237 4.07608,-2.71716 0.17392,-0.33692 0.29349,-4.45613 0.29349,-4.45613 l 3.05434,-2.0433 c 0,0 0.80435,-1.44553 0.71739,-1.69551 -0.13044,-0.21737 -2.07609,-2.38022 -2.07609,-2.38022 l -1.69564,-0.68473 0.71739,-3.43448 c 0,0 1.31521,-0.5543 1.31521,-1.02165 0,-0.42388 2.07609,-2.05417 2.07609,-2.05417 l 2.38043,-2.98887 1.69565,-2.05417 2.38044,-1.6955 2.71738,2.05416 v 1.35858 l -2.38043,2.71716 -0.69565,2.71715 v 3.73881 l 2.05434,1.6955 3.73914,-0.33693 3.40216,-0.68472 3.01087,1.67377 -0.69565,2.40196 c 0,0 -2.11956,2.0433 -2.71739,2.38023 -0.6413,0.33693 -4.49999,-0.68472 -5.43478,-0.33693 -0.97826,0.33693 -3.40217,3.43449 -3.40217,3.43449 0,0 -0.25,2.70629 0,3.40188 0.13043,0.24998 -0.0435,0.7608 -0.13044,1.40205 l -0.25,0.19563 -4.07608,3.03235 h -0.33695 l -2.7174,-1.02165 c 0,0 -1.60869,0.087 -2.4239,0.71733 -0.68479,0.5543 -1.32609,1.1086 -3.41305,1.3151 -2.07609,0.21737 -6.11956,0 -6.45652,0 h -2.38043 l 0.33696,-2.46718 1.69564,-2.71715 -3.05434,-2.4237 c 0,0 -1.95652,2.49978 -2.04348,3.05408 -0.087,0.59777 1.3587,3.03234 1.3587,3.03234 0,0 -0.68478,1.97809 -1.02174,2.40197 -0.33696,0.42388 -3.35869,1.35858 -3.35869,1.35858 L 586.61943,167.08 c 0,0 -1.95652,-0.41301 -1.69565,0.69559 0.24999,1.1086 2.40217,2.11938 2.40217,3.05409 0,0.89122 -1.31521,2.98887 -1.31521,2.98887 l -1.69566,2.05417 -2.76087,2.76062 -3.73912,0.97818 c 0,0 -2.68478,0.7608 -3.41305,1.02165 -0.68478,0.24998 -2.71738,0.71733 -2.71738,0.71733 l -2.7174,0.33693 -1.69564,2.4237 3.01087,2.07591 2.04347,3.3584 c 0,0 1.35869,2.4237 1.69565,2.4237 0.33696,0 1.02174,2.38023 1.02174,2.38023 l -2.04348,2.71715 h -1.06521 l -7.08695,1.35858 -1.3587,-3.05408 -4.79347,4.76046 -2.04348,7.83627 v 6.49943 l 8.15216,4.41266 6.50001,-2.40196 6.52173,-11.56421 5.70651,-7.08634 10.59783,-1.69551 2.38043,-2.0433 11.8913,13.9227 1.35869,4.76046 3.40217,-1.6955 -1.02174,-4.07574 h 2.07609 l -1.35869,-2.76063 -11.58696,-10.86862 1.02174,-2.0433 3.73914,-0.33692 8.19564,8.15146 4.07609,4.79306 v 7.47761 l 2.04347,1.35858 4.07608,4.07573 3.05435,-1.02165 -1.69565,-6.15164 1,-3.7388 2.04347,-2.38023 4.79348,1.6955 1.63044,0.68473 -0.27174,-5.43431 2.71739,-5.09738 1.63043,-7.48848 6.15217,1.04338 1.02174,3.40188 2.38044,1.69551 2.71738,-2.38023 -1.67391,-3.76054 h 7.10869 l -2.38043,4.07573 4.77174,4.07573 4.07608,2.05417 2.38044,4.76046 -5.43478,1.3151 -7.81522,-1.69551 h -6.79348 l -6.47825,3.43449 -1.35869,2.0433 -4.71739,1.02165 2.05435,5.09738 3.73912,4.41266 6.75,-2.38023 1.67391,3.01061 3.05434,-2.38023 4.07609,0.68473 0.33695,4.45613 -1.35868,8.44492 -3.73914,-0.33693 -4.41304,-0.68472 -2.07608,5.05391 -14.94565,-2.71716 -2.71738,-3.43448 -3.40218,3.05408 -3.73913,5.09738 -9.51086,-5.43431 -9.51086,-5.72776 v -10.22737 l -6.11956,0.33693 -0.38044,3.40188 -14.94565,-0.68473 -4.71738,4.36919 -9.17391,0.33693 -6.15217,5.43431 -3.73913,10.53169 -9.51086,7.51022 -6.79348,9.17311 -0.33696,17.66151 -2.05435,5.43431 -0.68477,6.49944 4.07608,7.08634 2.38043,6.79288 8.15218,9.84697 4.77173,4.07573 4.71739,1.02165 1.02174,-4.07573 h 17.02173 l 4.41304,-2.0433 5.43478,0.68473 1.63043,3.40187 5.77174,0.33693 3.73913,2.71715 v 5.77124 l -1.3587,4.76046 -1.25,3.7388 3.35869,6.15164 4.45653,5.09738 2.04348,12.91192 0.33694,8.44492 -3.05434,7.12982 -0.33696,6.79288 2.38044,12.56413 2.07609,2.0433 3.01087,11.89027 0.33695,5.11912 6.11956,8.15147 0.7174,6.45596 0.97825,7.47761 3.73913,-3.73881 9.55434,-0.97817 h 5.77174 l 10.48912,-16.30293 0.7174,-6.45597 7.08695,-7.12981 0.31521,-8.15147 3.80435,-8.19493 8.79347,-8.44492 v -9.51005 l -2.04347,-8.83618 -1.3587,-12.2272 6.5,-10.20564 11.55434,-14.27049 4.41304,-4.41266 1.69565,-5.77124 2.76086,-5.09738 0.68479,-7.51022 h -6.45651 l -3.05436,3.05408 -6.11956,-1.6955 -3.73912,-6.11903 -3.05435,-6.11904 -7.13043,-5.43431 -1.69566,-8.83618 -3.01086,-5.1626 -3.40217,-6.45596 -4.45652,-7.81454 -0.97826,-5.09738 4.71739,-0.68472 2.76087,5.77123 5.43478,10.19477 4.07608,7.47761 4.41304,8.15147 4.76087,7.85801 6.45652,6.52117 5.77173,-5.43431 6.5,-1.6955 4.77173,-5.77124 6.5,-3.73881 3.73913,-6.45596 0.33695,-5.43431 -3.05434,-3.43448 -4.07608,-4.76046 -2.7174,1.67377 -1.69564,2.76063 -4.45653,-2.0433 -1.31521,-3.40188 -3.05434,-4.45613 -4.76088,-4.41266 v -8.83619 l 3.05435,5.77124 3.73913,5.81471 6.45652,3.7388 4.45651,-1.02165 2.7174,3.05409 19.35868,-0.38041 -0.33693,0.38041 6.11953,5.43431 4.45648,6.11903 1.31522,3.01061 h 3.05436 l 1.02179,-3.38014 0.97828,5.07564 1.69565,9.17312 3.73912,8.83618 2.07608,7.47762 3.01086,7.12981 2.42391,3.01061 3.4022,-2.0433 1.04339,-3.41275 1.31521,-8.42318 -0.33693,-7.48848 2.76084,-3.43448 c 0,0 2.89135,-3.90184 3.35879,-4.07574 0.51084,-0.13042 6.79339,-7.0646 6.79339,-7.0646 l 3.05436,-3.80402 3.40219,-2.0433 4.07606,-2.38022 h 1.69564 l 0.68486,3.7388 1.69565,4.41266 5.43477,7.08634 v 2.71716 l 0.97828,3.05408 3.73913,-1.69551 -0.33703,-4.07573 3.43479,0.71733 0.68476,3.73881 -0.31522,5.77123 1.06529,4.07574 2.96735,0.69559 1.0652,-3.41275 3.73912,2.38023 0.68486,3.43448 3.40209,5.09738 3.4131,3.73881 2.3804,2.07591 5.7717,-5.09739 2.38051,-4.79306 -0.97829,-5.43431 -1.02179,-7.12981 -6.47816,-6.11904 -1.02178,-6.15163 2.76083,-4.32572 c 0,0 1.75006,-3.47795 3.4131,-1.6955 1.65214,1.82593 2.40211,2.0433 1.63044,4.07573 -0.71746,1.99983 -2.04348,6.49944 -2.04348,6.49944 l 4.11956,1.6955 1.65214,-5.77124 -1.65214,-4.1192 4.07605,-1.69551 5.60869,-2.8041 C 816.76063,196.53397 773.09756,145.66882 716.565,115.86707 Z m -24.60868,3.35841 c 0,0 1.65217,7.21676 1.65217,8.15146 0,0.89123 -4.71739,0.27172 -4.71739,0.27172 l -8.15217,0.3804 c 0,0 -11.82607,2.71715 -13.27173,2.71715 -1.44565,0 -8.2826,2.84758 -8.83695,3.05409 l -0.27173,0.10868 44.41301,-7.55369 -0.33696,-1.6955 -3.40217,-4.76046 -7.08695,-0.68472 z m -225.4564,6.49943 c -6.43477,4.07573 -12.68477,8.41231 -18.7065,13.03148 l 1.04347,0.46735 5.74999,5.05391 5.77174,1.35857 2.05435,-7.81453 0.31522,-4.76046 6.79347,1.02165 c 0,0 -2.04347,3.40188 -1.02173,3.40188 1.06521,0 5.09782,-4.41266 5.09782,-4.41266 l -7.1087,-7.34719 z m 75.0217,9.12964 -1.35869,4.41266 c 4.92391,3.78228 6.79347,3.73881 6.79347,3.73881 l 5.77174,-1.35858 3.73912,-3.73881 -2.38043,-3.05408 z m -96.38038,8.40145 c 0,0 -3.48912,1.92374 -7.23913,3.54317 -1.7826,1.5216 -3.58695,3.03234 -5.32608,4.60829 -0.0217,0.63038 0,1.35858 0,1.35858 l -0.33696,9.17311 -7.47825,6.11904 -4.76087,7.12981 c 0,0 -3.01086,-2.0433 -3.01086,-3.40188 0,-1.16294 -0.43479,-3.5649 -0.57609,-4.36918 -4.58696,4.96696 -8.95652,10.12955 -13.1413,15.45518 l 4.09782,5.30388 3.01087,4.71698 c 0,0 -2.69565,9.17312 -3.38043,10.86862 -0.71739,1.69551 -2.76087,-3.40187 -2.76087,-3.40187 l -1.67391,-8.84706 -5.77174,2.44544 -4.41304,10.48822 0.93478,-8.04278 c -8.82608,12.94452 -16.45651,26.76941 -22.76086,41.31162 h 3.27175 l 12.22824,-2.71715 4.45653,5.77124 -0.71739,6.79288 5.09782,4.41266 0.71739,-4.79306 c 0,0 -0.33696,-7.81454 -1.02174,-9.84697 -0.68478,-2.0433 6.11956,-6.79289 6.11956,-6.79289 l 5.43478,-6.66246 6.5,-7.90149 3.01087,-6.11903 10.22825,-5.39084 6.75,-7.51021 c 0,0 10.19565,-1.60856 12.22825,-2.76063 2.07609,-0.97818 0.71739,-4.71698 -1.35869,-8.15147 -2.07608,-3.40187 1.02173,-6.79288 1.02173,-6.79288 l 7.81522,-4.71699 6.74999,1.31511 0.71739,8.19494 c 0,0 6.36956,6.11903 8.44565,5.05391 2.07609,-0.97818 3.03261,-4.41266 3.03261,-4.41266 l -3.41304,-8.83619 2.05435,-8.81445 -9.17391,1.3151 v -14.94435 l -2.71739,2.76063 -7.13044,0.33692 -1.02173,-7.47761 -4.75,-5.77123 z m 126.60862,10.9773 -2.71738,2.38023 c -0.76088,3.31493 -1.69566,6.74941 -1.69566,6.74941 l 5.11956,2.42371 0.68478,3.0106 -2.71738,2.76063 -2.42391,4.07574 1.69565,1.6955 6.11955,-1.02165 5.43478,-2.38023 -3.01086,-4.07573 -1.02173,-7.12982 -3.73914,-4.07573 -1.71739,-4.41266 z m -8.44565,12.86845 -3.0326,5.09738 4.07608,1.69551 1.67392,-3.05409 z m 118.90212,20.08521 c 1.44564,-0.46735 4.07608,1.67377 4.07608,1.67377 l -2.71739,2.40196 0.97826,3.40188 3.05434,8.15146 3.01087,5.09739 4.11957,6.45596 -4.45653,2.0759 -5.77173,-3.7388 -2.38043,-7.12982 c 0,0 -3.28261,-4.41266 -4.77174,-5.09738 -1.44565,-0.71733 -2.71739,-3.05408 -2.71739,-3.05408 l 1.3587,-5.77124 c 0,0 4.68477,-3.90183 6.13043,-4.41266 l 0.087,-0.0435 z m -85.93474,12.91192 -4.07609,7.81454 3.05435,3.05408 2.71739,-2.4237 0.33696,-3.35841 -2.04348,-5.09738 z m -13.60868,8.15146 v 2.0433 l 1.69564,-0.33692 -1.69564,-1.69551 z m 23.43476,5.09739 -2.04348,0.69559 3.40218,5.77124 3.05434,-2.40197 -4.41304,-4.07573 z m -218.80422,45.49604 v 0.0435 l -3.40217,1.6955 5.77174,3.03235 6.49999,1.3151 3.73913,5.09739 4.41304,-2.71716 -0.68479,-3.03234 -7.51086,-5.43431 h -8.83695 z m -10.82608,4.45613 -6.11956,0.97818 -9.17392,9.17312 -2.93477,-0.38041 c -0.6087,2.29328 -1.13044,4.61917 -1.67391,6.94505 l 5.39129,2.54326 11.8913,6.49943 1.69566,7.87975 9.51086,9.12965 5.43478,-4.07574 4.32608,3.43449 -0.68478,-7.87975 -8.48912,2.0759 -2.7174,-9.84697 -1.02174,-4.45613 -7.47825,-6.74941 v -4.76046 l 5.75,-6.15164 -3.73913,-4.34745 z m 29.1739,29.17138 -0.0435,0.0435 -8.83694,4.79306 -0.97827,9.78176 -2.07609,10.86862 -6.11955,8.15147 0.27174,12.2272 5.16304,12.56412 5.43477,15.28128 14.27174,14.2705 0.71739,8.15146 1.02174,36.79028 5.05434,20.65038 c 0,0 3.14131,11.98809 2.42391,12.92279 -0.76087,0.97818 4.07609,9.89044 4.07609,9.89044 l 9.51086,14.94436 13.24999,5.70602 -5.43478,-6.49943 -2.76087,-7.47761 2.76087,-7.81454 -7.13042,-3.73881 c 0,0 4.71738,-3.09755 5.43478,-4.07573 0.71739,-0.97817 -1.02174,-5.09738 -1.02174,-5.09738 l -2.04348,-5.07565 5.43478,-7.10807 8.48912,-2.05417 1.31522,-6.49944 -5.05435,-2.38023 2.04348,-5.43431 8.15217,-1.02165 7.13043,-17.36805 5.09783,-11.89027 10.48911,-5.11912 c 0,0 3.40218,-10.08608 3.40218,-11.56421 0,-1.40206 1.02174,-16.63986 1.02174,-16.63986 l 8.15217,-11.1186 1.02174,-7.51022 -6.13043,-3.7388 -5.05435,-6.15164 -9.19564,0.71733 -14.60869,-8.48839 -3.05435,-7.12982 c 0,0 -5.09783,-8.83619 -6.11957,-8.83619 -0.97825,0 -7.13042,0.3804 -7.13042,0.3804 l -5.77174,-5.77123 -3.73912,-7.12982 -14.6087,-3.05408 -4.71738,-2.38023 h -9.51086 z m 396.02151,5.34736 c 1.22821,1.40205 8.86957,24.11747 9.89126,24.11747 0.93478,0 6.75008,0.71733 6.75008,0.71733 l -3.01096,-9.17312 z m -39.02177,0.71733 -3.40209,4.41266 1.69565,6.49944 3.73912,-4.07574 -0.71736,-5.14085 z m 85.53259,9.12964 -13.56517,7.51022 c 0,1.02165 -7.81528,7.51021 -7.81528,7.51021 l 2.04348,6.79289 4.41308,5.05391 3.05437,7.47761 13.54347,-8.81445 c -0.13042,-8.62969 -0.69566,-17.13982 -1.67395,-25.54126 z m -47.4891,3.43449 -4.76081,0.71732 21.73908,32.60586 5.77169,6.45596 14.27174,0.6956 8.79356,2.76062 -9.51092,-6.79288 -13.58698,-3.76055 -3.40209,-12.54238 -7.47835,-6.1299 -11.99993,-13.9227 0.15211,-0.087 z m -114.13035,52.98452 v 4.77132 c -0.25,0.71733 -4.41304,4.07573 -4.41304,4.07573 l -5.09783,2.38023 -3.84782,3.05408 2.71739,3.73881 1.69565,1.6955 -4.41304,3.73881 v 6.11903 l 1.69565,6.45596 3.73913,1.02165 4.41304,-6.79288 2.76087,-4.41266 -0.68478,-5.43431 4.11956,-6.45596 1.31522,-3.05409 v -6.11903 l -1.02174,-4.76046 -2.98913,-0.0217 z m 158.7173,21.24815 c -1.27171,0.32606 -2.19569,0.63038 -2.2717,0.89123 -0.21741,0.9347 -6.11962,4.07573 -6.11962,4.07573 -1.22821,0 -5.11955,7.12981 -5.11955,7.12981 l -0.68476,22.42197 -1.35871,8.15146 2.05437,2.65195 c 5.85871,-14.48788 10.413,-29.63873 13.47827,-45.32215 z m -381.30414,81.66681 -2.38042,1.69551 -1.02174,0.33692 5.43478,2.71716 -2.04349,-4.71698 v -0.0435 z m -9.21738,2.0433 0.0217,0.0435 0.0217,-0.0435 z m 0.0217,0.0435 -2.35869,5.39083 4.71738,-1.02165 z m 16.32608,44.78958 -5.09782,7.81454 -9.51087,4.41266 5.43478,6.79288 -8.19565,4.07574 -4.1413,-0.21738 C 491.4238,568.27337 543.49985,587 599.96721,587 c 66.72823,0 127.29349,-26.18251 172.13036,-68.77663 l -28.64127,1.08686 -33.25003,6.74942 c 0,0 -16.08694,8.61881 -17.99998,8.19494 -1.95652,-0.46735 6.79347,-11.20555 6.79347,-11.20555 l -15.64129,0.97818 -9.84783,-8.15147 -9.84782,6.74941 c 0,0 -13.20651,1.04339 -16.59781,1.04339 -3.43479,0 -7.85869,6.11903 -7.85869,6.11903 l -26.83695,-0.97817 -46.19562,2.0433 -12.18478,10.48822 -3.05434,0.3804 -34.98912,-2.4237 -24.07607,2.4237 -8.48912,-4.11921 0.33695,-0.68472 c 0,0 -7.13043,-14.34658 -7.13043,-16.30293 0,-1.91288 -5.43477,-6.74941 -5.43477,-6.74941 l -0.0652,-0.0217 z" />
</svg>
