<?xml version="1.0" encoding="UTF-8" standalone="no"?>
<svg
   xmlns:dc="http://purl.org/dc/elements/1.1/"
   xmlns:cc="http://creativecommons.org/ns#"
   xmlns:rdf="http://www.w3.org/1999/02/22-rdf-syntax-ns#"
   xmlns:svg="http://www.w3.org/2000/svg"
   xmlns="http://www.w3.org/2000/svg"
   xmlns:sodipodi="http://sodipodi.sourceforge.net/DTD/sodipodi-0.dtd"
   xmlns:inkscape="http://www.inkscape.org/namespaces/inkscape"
   viewBox="0 0 1200 675"
   version="1.1"
   id="svg45"
   sodipodi:docname="pie.svg"
   width="1200"
   height="675"
   inkscape:version="0.92.1 r15371"
   inkscape:export-filename="/home/josh/Code/web/blog/images/facebook.png"
   inkscape:export-xdpi="96"
   inkscape:export-ydpi="96">
  <metadata
     id="metadata49">
    <rdf:RDF>
      <cc:Work
         rdf:about="">
        <dc:format>image/svg+xml</dc:format>
        <dc:type
           rdf:resource="http://purl.org/dc/dcmitype/StillImage" />
        <dc:title />
      </cc:Work>
    </rdf:RDF>
  </metadata>
  <sodipodi:namedview
     pagecolor="#ffffff"
     bordercolor="#666666"
     borderopacity="1"
     objecttolerance="10"
     gridtolerance="10"
     guidetolerance="10"
     inkscape:pageopacity="0"
     inkscape:pageshadow="2"
     inkscape:window-width="1580"
     inkscape:window-height="840"
     id="namedview47"
     showgrid="false"
     inkscape:zoom="0.30729166"
     inkscape:cx="957.49432"
     inkscape:cy="317.71156"
     inkscape:window-x="10"
     inkscape:window-y="50"
     inkscape:window-maximized="0"
     inkscape:current-layer="svg45"
     showguides="false">
    <inkscape:grid
       type="xygrid"
       id="grid387" />
  </sodipodi:namedview>
  <defs
     id="defs7" />
  <rect
     style="opacity:1;fill:#ffe9db;fill-opacity:1;stroke:none;stroke-width:1.13797271;stroke-opacity:1"
     id="rect51"
     width="1200"
     height="675"
     x="0"
     y="-2.8421709e-14" />
  <path
     style="fill:#000000;stroke-width:1.00003779;fill-opacity:1;opacity:0.1"
     d="m 615.00586,289.78906 c -10.24402,0 -20.32771,0.61806 -30.20313,1.81446 -1.97455,0.23924 -3.94269,0.50192 -5.90039,0.7871 -3.91602,0.57046 -7.80025,1.23392 -11.64453,1.98438 -1.92181,0.3752 -3.83546,0.77217 -5.73828,1.19141 -1.90282,0.41923 -3.79853,0.86157 -5.68164,1.32421 -5.65053,1.38833 -11.21155,2.97052 -16.67187,4.73829 -1.81972,0.58913 -3.63056,1.20006 -5.42774,1.83007 -1.79716,0.63004 -3.58351,1.28089 -5.35742,1.95118 -3.54839,1.34078 -7.05282,2.76173 -10.50391,4.25976 -1.72525,0.74892 -3.4388,1.51742 -5.13867,2.30469 -1.69988,0.78728 -3.38871,1.59493 -5.0625,2.41992 -1.67377,0.82502 -3.33545,1.66914 -4.98242,2.53125 -1.64697,0.86211 -3.28288,1.74401 -4.90234,2.64258 -3.2394,1.79746 -6.42379,3.66789 -9.54883,5.60742 -1.5623,0.96963 -3.11188,1.95675 -4.64453,2.96094 -1.53264,1.00421 -3.05045,2.02631 -4.55274,3.06445 -9.01598,6.23039 -17.48119,13.0667 -25.31445,20.43945 -1.30524,1.22855 -2.59336,2.47438 -3.86328,3.73243 -23.199,22.96574 -40.43689,50.8049 -49.58789,81.57422 0.43039,0 0.85271,0.01 1.26953,0.0293 -0.4223,-0.0103 -0.83329,-0.0293 -1.26953,-0.0293 0,0 -0.002,0 -0.002,0 -11.401,0 -21.71459,4.62419 -29.18359,12.09375 C 363.62475,456.51059 359,466.83737 359,478.24023 c 0,4.98337 2.02797,9.51015 5.29297,12.77539 3.265,3.26526 7.79111,5.29297 12.78711,5.29297 h 8.01367 L 414.9082,560 h 400.1836 l 29.82812,-63.69141 h 8.01367 c 9.979,0 18.06641,-8.08761 18.06641,-18.06836 0,-11.40286 -4.61208,-21.72964 -12.08008,-29.19921 -7.469,-7.46956 -17.79526,-12.09375 -29.19726,-12.09375 0,0 -0.002,0 -0.002,0 -0.43624,10e-6 -0.84723,0.019 -1.26953,0.0293 0.41682,-0.0195 0.83914,-0.0293 1.26953,-0.0293 -9.151,-30.76932 -26.38793,-58.60848 -49.58593,-81.57422 0,0 -0.002,0 -0.002,0 -1.27029,-1.25802 -2.55771,-2.50196 -3.86328,-3.73047 0,0 -0.002,0 -0.002,0 -2.61184,-2.45766 -5.29224,-4.85562 -8.04102,-7.19141 -1.3744,-1.16789 -2.76625,-2.32055 -4.17383,-3.45703 -1.40755,-1.13648 -2.83146,-2.2569 -4.27148,-3.36133 -1.44003,-1.10443 -2.89541,-2.19387 -4.36719,-3.26562 -2.9431,-2.14318 -5.9498,-4.22177 -9.01562,-6.23047 0,0 -0.002,0 -0.002,0 -12.26469,-8.0356 -25.48835,-14.9752 -39.49023,-20.65625 0,0 -0.002,0 -0.002,0 -8.75157,-3.55074 -17.80607,-6.6086 -27.1211,-9.13672 -1.86299,-0.50562 -3.73768,-0.9903 -5.62109,-1.45313 -3.76622,-0.92549 -7.57242,-1.76508 -11.41602,-2.51562 0,0 -0.002,0 -0.002,0 -5.76573,-1.12583 -11.61517,-2.05356 -17.53906,-2.77148 0,0 -0.002,0 -0.002,0 -1.9742,-0.23924 -3.9569,-0.45577 -5.94726,-0.64844 0,0 -0.002,0 -0.002,0 -1.99037,-0.19266 -3.98834,-0.3604 -5.99414,-0.50586 0,0 -0.002,0 -0.002,0 -6.01874,-0.43642 -12.10693,-0.66011 -18.25195,-0.66016 z"
     id="polygon105"
     inkscape:connector-curvature="0" />
  <path
     style="fill:#e97729;fill-opacity:1;stroke-width:1.00003779"
     d="M 598.76953 453.08789 L 370.09375 481.30859 L 399.9082 545 L 429.31836 545 L 770.68359 545 L 800.0918 545 L 829.91992 481.30859 L 598.76953 453.08789 z "
     id="polygon160" />
  <path
     style="fill:#f7b239;stroke-width:1.00003779;fill-opacity:1"
     d="M 600.00586 274.78906 C 534.43986 274.78906 475.51519 300.10501 434.86719 340.37305 C 411.66819 363.33879 394.4303 391.17795 385.2793 421.94727 C 412.1263 421.94727 412.12398 460.50781 438.95898 460.50781 C 465.79398 460.50781 465.79391 440.7207 492.62891 440.7207 C 519.46391 440.7207 519.46355 460.50781 546.31055 460.50781 C 573.14555 460.50781 573.14519 440.7207 599.99219 440.7207 C 626.82719 440.7207 626.82711 460.50781 653.66211 460.50781 C 680.50911 460.50781 680.5107 440.7207 707.3457 440.7207 C 734.1927 440.7207 734.19206 460.50781 761.03906 460.50781 C 787.87406 460.50781 787.8737 421.94727 814.7207 421.94727 C 805.5697 391.17795 788.33277 363.33879 765.13477 340.37305 C 765.13443 340.37272 765.13314 340.37338 765.13281 340.37305 C 763.86252 339.11503 762.5751 337.87109 761.26953 336.64258 C 761.26918 336.64225 761.26793 336.64291 761.26758 336.64258 C 752.12652 328.04115 742.12996 320.16792 731.39844 313.13672 C 731.39798 313.13642 731.39694 313.13702 731.39648 313.13672 C 719.13179 305.10112 705.90813 298.16152 691.90625 292.48047 C 691.90569 292.48024 691.90486 292.4807 691.9043 292.48047 C 681.40299 288.21982 670.46392 284.66748 659.16406 281.89062 C 659.16345 281.89047 659.16272 281.89078 659.16211 281.89062 C 655.39589 280.96513 651.58969 280.12554 647.74609 279.375 C 647.74547 279.37488 647.74477 279.37512 647.74414 279.375 C 641.97841 278.24917 636.12897 277.32144 630.20508 276.60352 C 630.20444 276.60344 630.20377 276.60359 630.20312 276.60352 C 628.22892 276.36428 626.24622 276.14775 624.25586 275.95508 C 624.25522 275.95502 624.25455 275.95514 624.25391 275.95508 C 622.26354 275.76242 620.26557 275.59468 618.25977 275.44922 C 618.25912 275.44917 618.25846 275.44927 618.25781 275.44922 C 612.23843 275.01275 606.15155 274.78906 600.00586 274.78906 z "
     id="path164" />
  <path
     inkscape:connector-curvature="0"
     style="fill:#e09b2d;stroke-width:1.00003779;fill-opacity:1"
     d="m 856,463.24083 c 0,9.98075 -8.088,18.06836 -18.067,18.06836 H 829.92 370.093 362.08 c -4.996,0 -9.522,-2.02815 -12.787,-5.2934 -3.265,-3.26524 -5.293,-7.79159 -5.293,-12.77496 0,-11.40286 4.625,-21.72964 12.094,-29.19921 7.469,-7.46956 17.783,-12.09491 29.184,-12.09491 26.847,0 26.847,19.78749 53.682,19.78749 26.835,0 26.835,-19.78749 53.67,-19.78749 26.835,0 26.835,19.78749 53.682,19.78749 26.835,0 26.835,-19.78749 53.682,-19.78749 26.835,0 26.835,19.78749 53.67,19.78749 26.847,0 26.847,-19.78749 53.682,-19.78749 26.847,0 26.847,19.78749 53.694,19.78749 26.835,0 26.835,-19.78749 53.682,-19.78749 11.402,0 21.728,4.62535 29.197,12.09491 7.468,7.46957 12.081,17.79635 12.081,29.19921 z"
     id="path166" />
  <path
     id="path170"
     d="m 600.006,365.07042 c -5.122,0 -9.275,-4.15332 -9.275,-9.2757 v -26.58901 c 0,-5.12239 4.153,-9.2757 9.275,-9.2757 5.122,0 9.275,4.15331 9.275,9.2757 v 26.58901 c 0,5.12238 -4.153,9.2757 -9.275,9.2757 z"
     style="fill:#b27214;stroke-width:1.00003779"
     inkscape:connector-curvature="0" />
  <path
     id="path172"
     d="m 521.79,354.00158 c -2.374,0 -4.749,-0.90607 -6.56,-2.7182 -3.621,-3.62328 -3.62,-9.49572 0.004,-13.117 l 24.93,-24.91988 c 3.622,-3.62127 9.494,-3.62027 13.116,0.004 3.621,3.62328 3.62,9.49572 -0.004,13.11699 l -24.93,24.91989 c -1.811,1.80913 -4.183,2.7142 -6.556,2.7142 z"
     style="fill:#b27214;stroke-width:1.00003779"
     inkscape:connector-curvature="0" />
  <path
     id="path174"
     d="m 678.21,354.00158 c -2.373,0 -4.747,-0.90507 -6.558,-2.7172 l -24.918,-24.91989 c -3.622,-3.62227 -3.622,-9.49571 0,-13.11699 3.622,-3.62227 9.495,-3.62227 13.116,0 l 24.918,24.91988 c 3.622,3.62228 3.622,9.49472 0,13.117 -1.81,1.81013 -4.183,2.7172 -6.558,2.7172 z"
     style="fill:#b27214;stroke-width:1.00003779"
     inkscape:connector-curvature="0" />
  <path
     id="path178"
     d="m 597.135,242.88419 c -1.195,0 -2.406,-0.28902 -3.531,-0.89907 -3.602,-1.95414 -4.938,-6.45848 -2.984,-10.06076 9.403,-17.3373 6.069,-29.96526 2.21,-44.58736 -4.076,-15.44017 -8.696,-32.94149 3.513,-55.45219 1.954,-3.60127 6.458,-4.93937 10.06,-2.98422 3.602,1.95414 4.938,6.45848 2.984,10.06076 -9.403,17.3373 -6.069,29.96526 -2.21,44.58736 4.076,15.44017 8.696,32.94149 -3.513,55.45219 -1.344,2.47719 -3.895,3.88329 -6.529,3.88329 z"
     style="fill:#cccccc;stroke-width:1.00003779"
     inkscape:connector-curvature="0" />
  <path
     id="path180"
     d="m 548.15,242.88419 c -1.195,0 -2.406,-0.28902 -3.531,-0.89907 -3.602,-1.95414 -4.938,-6.45848 -2.984,-10.06076 9.403,-17.3373 6.069,-29.96526 2.209,-44.58736 -4.076,-15.44017 -8.696,-32.94149 3.513,-55.45219 1.953,-3.60127 6.456,-4.93937 10.06,-2.98422 3.602,1.95414 4.938,6.45848 2.984,10.06076 -9.403,17.3373 -6.069,29.96526 -2.21,44.58836 4.076,15.44017 8.696,32.94149 -3.513,55.45219 -1.343,2.47619 -3.894,3.88229 -6.528,3.88229 z"
     style="fill:#cccccc;stroke-width:1.00003779"
     inkscape:connector-curvature="0" />
  <path
     id="path182"
     d="m 646.119,242.88419 c -1.195,0 -2.406,-0.28902 -3.531,-0.89907 -3.602,-1.95414 -4.938,-6.45848 -2.984,-10.06076 9.403,-17.3373 6.069,-29.96526 2.21,-44.58836 -4.076,-15.44017 -8.696,-32.94149 3.513,-55.45219 1.954,-3.60127 6.456,-4.93937 10.06,-2.98422 3.602,1.95414 4.938,6.45848 2.984,10.06076 -9.403,17.3373 -6.069,29.96526 -2.209,44.58736 4.076,15.44017 8.696,32.94149 -3.513,55.45219 -1.345,2.47819 -3.896,3.88429 -6.53,3.88429 z"
     style="fill:#cccccc;stroke-width:1.00003779"
     inkscape:connector-curvature="0" />
</svg>
