<?xml version="1.0" encoding="UTF-8" standalone="no"?>
<svg
   xmlns:dc="http://purl.org/dc/elements/1.1/"
   xmlns:cc="http://creativecommons.org/ns#"
   xmlns:rdf="http://www.w3.org/1999/02/22-rdf-syntax-ns#"
   xmlns:svg="http://www.w3.org/2000/svg"
   xmlns="http://www.w3.org/2000/svg"
   xmlns:sodipodi="http://sodipodi.sourceforge.net/DTD/sodipodi-0.dtd"
   xmlns:inkscape="http://www.inkscape.org/namespaces/inkscape"
   viewBox="0 0 1200 675"
   version="1.1"
   id="svg45"
   sodipodi:docname="sad.svg"
   width="1200"
   height="675"
   inkscape:version="0.92.1 r15371"
   inkscape:export-filename="/home/josh/Code/web/blog/images/facebook.png"
   inkscape:export-xdpi="96"
   inkscape:export-ydpi="96">
  <metadata
     id="metadata49">
    <rdf:RDF>
      <cc:Work
         rdf:about="">
        <dc:format>image/svg+xml</dc:format>
        <dc:type
           rdf:resource="http://purl.org/dc/dcmitype/StillImage" />
        <dc:title />
      </cc:Work>
    </rdf:RDF>
  </metadata>
  <sodipodi:namedview
     pagecolor="#ffffff"
     bordercolor="#666666"
     borderopacity="1"
     objecttolerance="10"
     gridtolerance="10"
     guidetolerance="10"
     inkscape:pageopacity="0"
     inkscape:pageshadow="2"
     inkscape:window-width="1580"
     inkscape:window-height="840"
     id="namedview47"
     showgrid="false"
     inkscape:zoom="0.86915207"
     inkscape:cx="1016.9618"
     inkscape:cy="154.06789"
     inkscape:window-x="10"
     inkscape:window-y="50"
     inkscape:window-maximized="0"
     inkscape:current-layer="svg45"
     showguides="false">
    <inkscape:grid
       type="xygrid"
       id="grid387" />
  </sodipodi:namedview>
  <defs
     id="defs7" />
  <rect
     style="opacity:1;fill:#ffda5e;fill-opacity:1;stroke:none;stroke-width:1.13797271;stroke-opacity:1"
     id="rect51"
     width="1200"
     height="675"
     x="0"
     y="-2.8421709e-14" />
  <path
     id="path11"
     style="opacity:0.1;fill:#000000;fill-opacity:1;fill-rule:nonzero;stroke:none;stroke-width:21.72036362"
     d="m 465.5,532.468 c 12.32834,-62.84032 75.50834,-108.84919 149.50001,-108.87097 73.94833,0.0653 137.06333,46.0742 149.39166,108.87097 h -20.865 A 130,76.209679 0 0 0 615.00001,467.14542 130,76.209679 0 0 0 486.47334,532.468 h -20.995 z"
     inkscape:connector-curvature="0" />
  <path
     inkscape:connector-curvature="0"
     d="m 450.5,517.468 c 12.32834,-62.84032 75.50834,-108.84919 149.50001,-108.87097 73.94833,0.0653 137.06333,46.0742 149.39166,108.87097 h -20.865 A 130,76.209679 0 0 0 600.00001,452.14542 130,76.209679 0 0 0 471.47334,517.468 h -20.995 z"
     style="opacity:1;fill:#656565;fill-opacity:1;fill-rule:nonzero;stroke:none;stroke-width:21.72036362"
     id="path147" />
  <path
     id="path13"
     style="opacity:0.1;fill:#000000;fill-opacity:1;fill-rule:nonzero;stroke:none;stroke-width:21.72036362"
     d="M 523.00334,221.55429 432.61,273.943 a 54.166668,54.435485 0 0 0 52.39,40.78306 54.166668,54.435485 0 0 0 54.16667,-54.43548 54.166668,54.435485 0 0 0 -16.16333,-38.73629"
     inkscape:connector-curvature="0" />
  <path
     inkscape:connector-curvature="0"
     d="M 508.00334,206.55429 417.61,258.943 a 54.166668,54.435485 0 0 0 52.39,40.78306 54.166668,54.435485 0 0 0 54.16667,-54.43548 54.166668,54.435485 0 0 0 -16.16333,-38.73629"
     style="opacity:1;fill:#656565;fill-opacity:1;fill-rule:nonzero;stroke:none;stroke-width:21.72036362"
     id="path149" />
  <path
     id="path15"
     style="opacity:0.1;fill:#000000;fill-opacity:1;fill-rule:nonzero;stroke:none;stroke-width:21.72036362"
     d="m 707.08334,221.55429 a 54.166668,54.435485 0 0 0 -16.25,38.73629 54.166668,54.435485 0 0 0 54.16667,54.43548 54.166668,54.435485 0 0 0 52.34667,-40.71774 l -90.35001,-52.38871 z"
     inkscape:connector-curvature="0" />
  <path
     inkscape:connector-curvature="0"
     d="m 692.08334,206.55429 a 54.166668,54.435485 0 0 0 -16.25,38.73629 54.166668,54.435485 0 0 0 54.16667,54.43548 54.166668,54.435485 0 0 0 52.34667,-40.71774 l -90.35001,-52.38871 z"
     style="opacity:1;fill:#656565;fill-opacity:1;fill-rule:nonzero;stroke:none;stroke-width:21.72036362"
     id="path151" />
</svg>
