<?xml version="1.0" encoding="UTF-8" standalone="no"?>
<svg
   xmlns:dc="http://purl.org/dc/elements/1.1/"
   xmlns:cc="http://creativecommons.org/ns#"
   xmlns:rdf="http://www.w3.org/1999/02/22-rdf-syntax-ns#"
   xmlns:svg="http://www.w3.org/2000/svg"
   xmlns="http://www.w3.org/2000/svg"
   xmlns:xlink="http://www.w3.org/1999/xlink"
   xmlns:sodipodi="http://sodipodi.sourceforge.net/DTD/sodipodi-0.dtd"
   xmlns:inkscape="http://www.inkscape.org/namespaces/inkscape"
   viewBox="0 0 1200 675"
   version="1.1"
   id="svg45"
   sodipodi:docname="yorkshire.svg"
   width="1200"
   height="675"
   inkscape:version="0.92.1 r15371"
   inkscape:export-filename="/home/josh/Code/web/blog/images/facebook.png"
   inkscape:export-xdpi="96"
   inkscape:export-ydpi="96">
  <metadata
     id="metadata49">
    <rdf:RDF>
      <cc:Work
         rdf:about="">
        <dc:format>image/svg+xml</dc:format>
        <dc:type
           rdf:resource="http://purl.org/dc/dcmitype/StillImage" />
        <dc:title></dc:title>
      </cc:Work>
    </rdf:RDF>
  </metadata>
  <sodipodi:namedview
     pagecolor="#ffffff"
     bordercolor="#666666"
     borderopacity="1"
     objecttolerance="10"
     gridtolerance="10"
     guidetolerance="10"
     inkscape:pageopacity="0"
     inkscape:pageshadow="2"
     inkscape:window-width="1580"
     inkscape:window-height="840"
     id="namedview47"
     showgrid="false"
     inkscape:zoom="0.30729166"
     inkscape:cx="-7.6904661"
     inkscape:cy="111.91141"
     inkscape:window-x="10"
     inkscape:window-y="50"
     inkscape:window-maximized="0"
     inkscape:current-layer="svg45"
     showguides="false"
     inkscape:snap-smooth-nodes="true">
    <inkscape:grid
       type="xygrid"
       id="grid387" />
  </sodipodi:namedview>
  <defs
     id="defs7" />
  <rect
     style="opacity:1;fill:#ffeeb1;fill-opacity:1;stroke:none;stroke-width:1.13797271;stroke-opacity:1"
     id="rect51"
     width="1200"
     height="675"
     x="0"
     y="-2.8421709e-14" />
  <path
     style="fill:#3b8536;stroke-width:1.82444108"
     inkscape:connector-curvature="0"
     id="leaf"
     d="m 600.00001,332.42645 c -27.38183,32.82169 -43.81093,78.40738 -43.81093,131.28677 0,52.8794 16.4291,98.46508 43.81093,131.28678 27.38183,-32.8217 43.81093,-78.40738 43.81093,-131.28678 0,-52.87939 -16.4291,-98.46508 -43.81093,-131.28677 z" />
  <use
     height="100%"
     width="100%"
     y="0"
     x="0"
     xlink:href="#leaf"
     transform="matrix(0.309017,0.94999999,-0.95211422,0.30901699,731.09774,-340.29894)"
     id="use142" />
  <use
     height="100%"
     width="100%"
     y="0"
     x="0"
     xlink:href="#leaf"
     transform="matrix(-0.809017,0.58713228,-0.58843895,-0.80901699,1281.022,249.08569)"
     id="use144" />
  <use
     height="100%"
     width="100%"
     y="0"
     x="0"
     xlink:href="#leaf"
     transform="matrix(-0.809017,-0.58713228,0.58843895,-0.80901699,889.79762,953.64444)"
     id="use146" />
  <use
     height="100%"
     width="100%"
     y="0"
     x="0"
     xlink:href="#leaf"
     transform="matrix(0.309017,-0.94999999,0.95211422,0.30901699,98.081893,799.70105)"
     id="use148" />
  <path
     inkscape:connector-curvature="0"
     style="fill:#ffffff;stroke:none;stroke-width:0.22805513"
     d="m 600.00001,122.7323 c -96.74913,0 -109.03445,52.60588 -94.92368,72.93709 l 94.92368,136.75706 94.92368,-136.75706 c 14.11077,-20.33121 1.82545,-72.93709 -94.92368,-72.93709 z"
     id="path150" />
  <path
     style="fill:#6c8991;fill-opacity:1;stroke:none;stroke-width:1.82444108"
     inkscape:connector-curvature="0"
     d="m 600.00001,151.90714 c 25.55637,0 43.81093,-7.29371 58.41457,-3.64686 31.03274,7.29371 32.8582,27.35141 32.8582,40.11541 0,-10.94057 -1.82546,-27.35142 -32.8582,-34.64513 -14.60364,-3.64685 -32.8582,10.94057 -58.41457,10.94057 -25.55637,0 -43.81093,-14.58742 -58.41457,-10.94057 -31.03274,7.29371 -32.8582,23.70456 -32.8582,34.64513 0,-12.764 1.82546,-32.8217 32.8582,-40.11541 14.60364,-3.64685 32.8582,3.64686 58.41457,3.64686 z"
     id="path154" />
  <path
     id="path1154"
     d="M 799.65281,267.62739 C 769.75568,175.71572 715.8725,180.30078 700.87533,199.98871 l -100.87531,132.43774 159.54137,47.91724 c 23.71811,7.12254 70.00854,-20.80462 40.11142,-112.7163 z"
     style="fill:#ffffff;stroke:none;stroke-width:0.22805513"
     inkscape:connector-curvature="0" />
  <path
     id="path1158"
     d="m 771.87503,276.64292 c 7.89735,24.27855 20.48276,39.36649 21.52332,54.36689 2.6452,31.73499 -15.88793,39.66734 -28.04071,43.61163 10.41667,-3.38082 25.47757,-10.18623 22.83237,-41.92121 -1.04055,-15.00041 -20.57041,-27.83447 -28.46776,-52.11302 -7.89735,-24.27856 0.35057,-46.12815 -7.63443,-58.87466 -16.53409,-27.22723 -32.72318,-23.89018 -43.13985,-20.50936 12.15278,-3.94429 31.8141,-8.40828 48.34819,18.81894 7.98499,12.74652 6.68151,32.34223 14.57887,56.62079 z"
     inkscape:connector-curvature="0"
     style="fill:#6c8991;fill-opacity:1;stroke:none;stroke-width:1.82444108" />
  <path
     id="path1166"
     d="m 723.39221,502.07258 c 78.27169,-56.80454 57.25537,-106.57669 33.87584,-114.7401 L 600,332.42645 l 3.67831,166.37153 c 0.54783,24.73319 41.4422,60.07913 119.7139,3.2746 z"
     style="fill:#ffffff;stroke:none;stroke-width:0.22805513"
     inkscape:connector-curvature="0" />
  <path
     id="path1170"
     d="m 706.22459,478.46964 c -20.67554,15.00497 -31.15188,31.62354 -45.11243,37.24744 -29.39791,12.31959 -42.67747,-2.83565 -50.1883,-13.16193 6.43785,8.8511 17.57146,21.05597 46.96938,8.73638 13.96054,-5.6239 20.14498,-28.14321 40.82052,-43.14818 20.67555,-15.00497 44.0276,-13.92134 53.69624,-25.44598 20.81411,-24.12105 12.63415,-38.46949 6.1963,-47.32059 7.51083,10.32628 17.83674,27.62509 -2.97737,51.74615 -9.66865,11.52463 -28.72879,16.34173 -49.40434,31.34671 z"
     inkscape:connector-curvature="0"
     style="fill:#6c8991;fill-opacity:1;stroke:none;stroke-width:1.82444108" />
  <path
     id="path1178"
     d="m 476.60779,502.07258 c 78.2717,56.80453 119.16607,21.45859 119.7139,-3.2746 L 600,332.42645 442.73195,387.33248 c -23.37953,8.16341 -44.39585,57.93556 33.87584,114.7401 z"
     style="fill:#ffffff;stroke:none;stroke-width:0.22805513"
     inkscape:connector-curvature="0" />
  <path
     id="path1182"
     d="m 493.77541,478.46964 c -20.67555,-15.00498 -39.73569,-19.82208 -49.40434,-31.34671 -20.81411,-24.12106 -10.4882,-41.41987 -2.97737,-51.74615 -6.43785,8.8511 -14.61781,23.19954 6.1963,47.32059 9.66864,11.52464 33.02069,10.44101 53.69624,25.44598 20.67554,15.00497 26.85998,37.52428 40.82052,43.14818 29.39792,12.31959 40.53153,0.11472 46.96938,-8.73638 -7.51083,10.32628 -20.79039,25.48152 -50.1883,13.16193 -13.96055,-5.6239 -24.43689,-22.24247 -45.11243,-37.24744 z"
     inkscape:connector-curvature="0"
     style="fill:#6c8991;fill-opacity:1;stroke:none;stroke-width:1.82444108" />
  <path
     id="path1190"
     d="m 400.34723,267.62738 c -29.89712,91.91168 16.39331,119.83884 40.11142,112.7163 L 600.00002,332.42644 499.12471,199.9887 c -14.99717,-19.68793 -68.88035,-24.27299 -98.77748,67.63868 z"
     style="fill:#ffffff;stroke:none;stroke-width:0.22805513"
     inkscape:connector-curvature="0" />
  <path
     id="path1194"
     d="m 428.12501,276.64291 c 7.89736,-24.27856 6.59388,-43.87427 14.57887,-56.62079 16.53409,-27.22722 36.19541,-22.76323 48.34819,-18.81894 -10.41667,-3.38082 -26.60576,-6.71787 -43.13985,20.50936 -7.985,12.74652 0.26292,34.5961 -7.63443,58.87466 -7.89735,24.27855 -27.42721,37.11261 -28.46776,52.11302 -2.6452,31.73498 12.4157,38.54039 22.83237,41.92121 -12.15278,-3.94429 -30.68591,-11.87664 -28.04071,-43.61163 1.04056,-15.0004 13.62597,-30.08834 21.52332,-54.36689 z"
     inkscape:connector-curvature="0"
     style="fill:#6c8991;fill-opacity:1;stroke:none;stroke-width:1.82444108" />
  <path
     id="path267"
     d="m 667.86572,239.12109 c -43.04943,-31.2425 -65.54133,-11.80223 -65.84264,1.80102 l -2.02307,91.50435 86.49743,-30.19832 c 12.85874,-4.48987 24.41771,-31.86456 -18.63172,-63.10705 z"
     style="fill:#f0f0f0;fill-opacity:1;stroke:none;stroke-width:0.12543033"
     inkscape:connector-curvature="0" />
  <path
     id="path271"
     d="m 658.42354,252.1027 c 11.37155,8.25274 21.85463,10.90215 27.17238,17.2407 11.44776,13.26658 5.76851,22.78092 1.63756,28.46038 3.54082,-4.86811 8.03979,-12.75975 -3.40797,-26.02633 -5.31775,-6.33855 -18.16138,-5.74255 -29.53293,-13.99529 -11.37155,-8.25273 -14.77299,-20.63835 -22.45129,-23.7315 -16.16885,-6.77577 -22.29233,-0.0631 -25.83315,4.80501 4.13095,-5.67946 11.43471,-14.01484 27.60356,-7.23906 7.6783,3.09314 13.44029,12.23336 24.81184,20.48609 z"
     inkscape:connector-curvature="0"
     style="fill:#6c8991;stroke-width:1.00344265;fill-opacity:1" />
  <path
     id="path1264"
     d="m 709.80904,368.06594 c 16.44342,-50.55142 -9.01632,-65.91136 -22.06128,-61.99396 l -87.74775,26.35448 55.48142,72.84076 c 8.24844,10.82836 37.88419,13.35014 54.32761,-37.20128 z"
     style="fill:#f0f0f0;fill-opacity:1;stroke:none;stroke-width:0.12543033"
     inkscape:connector-curvature="0" />
  <path
     id="path1268"
     d="m 694.53126,363.10741 c -4.34354,13.3532 -3.62663,24.13084 -8.01838,31.14143 -9.09375,14.97497 -19.90747,12.51977 -26.5915,10.35041 5.72917,1.85946 14.63317,3.69483 23.72692,-11.28014 4.39175,-7.01059 -0.14461,-19.02786 4.19893,-32.38106 4.34355,-13.35321 15.08497,-20.41195 15.65727,-28.66217 1.45486,-17.45424 -6.82863,-21.19721 -12.5578,-23.05666 6.68403,2.16935 16.87725,6.53215 15.42239,23.98639 -0.57231,8.25022 -7.49428,16.54859 -11.83783,29.9018 z"
     inkscape:connector-curvature="0"
     style="fill:#3a6673;stroke:none;stroke-width:1.00344265" />
  <path
     id="path1252"
     d="m 600.00001,447.75825 c 53.21202,0 59.96894,-28.93324 52.20802,-40.11541 l -52.20802,-75.21638 -52.20802,75.21638 c -7.76092,11.18217 -1.004,40.11541 52.20802,40.11541 z"
     style="fill:#f0f0f0;fill-opacity:1;stroke:none;stroke-width:0.12543033"
     inkscape:connector-curvature="0" />
  <path
     id="path1256"
     d="m 600.00001,431.71208 c -14.05601,0 -24.09601,4.01155 -32.12801,2.00578 -17.06801,-4.01155 -18.07201,-15.04328 -18.07201,-22.06348 0,6.01731 1.004,15.04328 18.07201,19.05482 8.032,2.00577 18.072,-6.01731 32.12801,-6.01731 14.05601,0 24.09601,8.02308 32.12801,6.01731 17.06801,-4.01154 18.07201,-13.03751 18.07201,-19.05482 0,7.0202 -1.004,18.05193 -18.07201,22.06348 -8.032,2.00577 -18.072,-2.00578 -32.12801,-2.00578 z"
     inkscape:connector-curvature="0"
     style="fill:#3a6673;stroke:none;stroke-width:1.00344265" />
  <path
     id="path1240"
     d="m 490.19098,368.06594 c 16.44342,50.55142 46.07917,48.02964 54.32761,37.20128 l 55.48142,-72.84076 -87.74775,-26.35448 c -13.04496,-3.9174 -38.5047,11.44254 -22.06128,61.99396 z"
     style="fill:#f0f0f0;fill-opacity:1;stroke:none;stroke-width:0.12543033"
     inkscape:connector-curvature="0" />
  <path
     id="path1244"
     d="m 505.46876,363.10741 c -4.34355,-13.35321 -11.26553,-21.65158 -11.83783,-29.9018 -1.45486,-17.45424 8.73836,-21.81704 15.42239,-23.98639 -5.72917,1.85945 -14.01266,5.60242 -12.55781,23.05666 0.57231,8.25022 11.31373,15.30896 15.65727,28.66217 4.34355,13.3532 -0.19281,25.37047 4.19894,32.38106 9.09375,14.97497 17.99775,13.1396 23.72692,11.28014 -6.68403,2.16936 -17.49775,4.62456 -26.5915,-10.35041 -4.39175,-7.01059 -3.67484,-17.78823 -8.01838,-31.14143 z"
     inkscape:connector-curvature="0"
     style="fill:#3a6673;stroke:none;stroke-width:1.00344265" />
  <path
     id="path1228"
     d="m 532.13431,239.12109 c -43.04943,31.24249 -31.49046,58.61718 -18.63172,63.10705 l 86.49743,30.19832 -2.02307,-91.50434 c -0.3013,-13.60326 -22.79321,-33.04353 -65.84264,-1.80103 z"
     style="fill:#f0f0f0;fill-opacity:1;stroke:none;stroke-width:0.12543033"
     inkscape:connector-curvature="0" />
  <path
     id="path1232"
     d="m 541.57649,252.1027 c 11.37155,-8.25273 17.13354,-17.39295 24.81184,-20.48609 16.16885,-6.77578 23.47261,1.55961 27.60357,7.23906 -3.54082,-4.8681 -9.66431,-11.58078 -25.83316,-4.80501 -7.6783,3.09315 -11.07974,15.47877 -22.45129,23.7315 -11.37155,8.25274 -24.21518,7.65674 -29.53293,13.99529 -11.44776,13.26658 -6.94878,21.15822 -3.40796,26.02633 -4.13096,-5.67946 -9.81021,-15.1938 1.63755,-28.46038 5.31776,-6.33856 15.80084,-8.98796 27.17238,-17.2407 z"
     inkscape:connector-curvature="0"
     style="fill:#6c8991;stroke:none;stroke-width:1.00344265;fill-opacity:1" />
  <ellipse
     cy="332.42657"
     cx="600"
     style="fill:#f8d64e;stroke:none;stroke-width:5.24708319;fill-opacity:1"
     id="circle174"
     rx="35"
     ry="34.961121" />
</svg>
